<?xml version="1.0" encoding="utf-8"?>
<!-- Generator: Adobe Illustrator 24.1.0, SVG Export Plug-In . SVG Version: 6.00 Build 0)  -->
<svg version="1.1" id="Layer_1" xmlns="http://www.w3.org/2000/svg" xmlns:xlink="http://www.w3.org/1999/xlink" x="0px" y="0px"
	 viewBox="0 0 1000 1000" style="enable-background:new 0 0 1000 1000;" xml:space="preserve">
<style type="text/css">
	.st0{fill:#509801;}
	.st1{fill:#322D2B;}
	.st2{fill:#413B38;}
	.st3{fill:#CDCDCC;}
	.st4{fill:#CCCCCC;}
	.st5{fill:#ADACAB;}
	.st6{fill:#0E0D0C;}
	.st7{fill:#050404;}
	.st8{fill:#C9C9C8;}
	.st9{fill:#C08868;}
	.st10{fill:#635A57;}
	.st11{fill:#655B55;}
	.st12{fill:#514740;}
	.st13{fill:#AD7E2B;}
	.st14{fill:#FEFEFE;}
	.st15{fill:#FBA802;}
</style>
<g>
	<g>
		<path class="st0" d="M99.7,597.8c-4.6-8.1-9.1-16.1-13.7-24.2c6.2,3.2,9.8,9.1,14.9,13.5c5.8,6.5,11.9,12.7,19,19
			c0-4.8-1.9-8.7-0.3-13.2c0.6,1,0.9,1.5,1.2,2c3.3,5,4.5,11.3,9.1,15.5c1.6,4.7,5,8.4,6,13.5c1.3,6.9,2.1,14.1,7.1,19.8
			c0.7,0.8,0,1.5-0.2,2.3c-3,7.7-0.3,15.5,7.3,21.1c0.4-3.1-2.5-5.5-1.7-9.2c5.8,3.5,9.5,9.2,15.3,12.1c4.2,4.1,8.4,8.2,13.3,13
			c-1.6-5.8-1-10.9-1.1-15.9c0-1.3-0.2-2.8,1.2-3.5c1.6-0.8,2.4,0.7,3.3,1.5c3.4,3.2,5.8,7,8.3,11c7.5,12.2,21.1,17.6,31.1,27
			c0.1,0.1,0.1,0.3,0.2,0.4c0.1,0.1,0.2,0,0.3,0.1c-0.1-0.1-0.3-0.3-0.4-0.4c-3.6-12.1-7.2-24.2-10.7-36.3c0-3.3-0.8-6.5-1.6-9.7
			c-1.7-6.3-4.7-12.3-4.8-19c-0.6-4.1-1-8.2-0.9-12.4c0.2-9.3,2.4-18.4,3.6-27.6c0.7-5.6,2.1-11.1,3.5-16.5c0.7-2.8,2.7-5.2,5.8-5.4
			c3-0.2,5.1,1.7,5.8,4.5c0.7,2.6,2.4,2.3,4.3,2.1c4.8,1.6,5.3,5.9,5.9,10c0.4,2.7-0.4,5.6,1,8.3c-0.2,7.7,1.1,15.2,2.1,22.8
			c2.7,21.2,5.9,42.3,10.9,63.2c2.2,9.1,7.4,15.3,14.5,20.6c2.7,2,3.9,1.4,5.4-1.7c4.1-8.9,7.8-18.1,14.6-25.4
			c2.8-3,4.8-6.4,6.3-10.1c4.4-10.4,10.2-20.2,15.6-30.1c3.5-6.4,7.1-12.6,14.1-15.7c3.4,11.1,3.4,11.1,0.4,19.3
			c-1,2.7-1.6,5.3-2,8.2c-1.6,10.8-1.2,21.8-3.6,32.6c-1.6,7-2.2,14.2-3.2,21.3c9.7-22.6,21.4-44.1,34-65.1c-1.3,4.4-2.7,8.8-4,13.1
			c-2.7,6.1-4.8,12.5-6.1,19c-4.4,9-7.3,18.7-10.9,28c-2.2,4.5-3.7,9.3-5.1,14.1c-2,3.3-2.9,7-3.8,10.7c-0.2,0.9-1.2,3.4,1.7,2.3
			c1.7,0,2.7-1.2,4-2.1c4.9-0.9,4.3-5,5-8.4c1-0.9,1.4-2.1,1-3.4c0.4-0.5,1-1,1.2-1.6c4.6-14.2,10.4-28,16.9-41.5
			c1.4-2.4,2.7-4.9,4.1-7.3c4-6.8,6.1-14.5,10.7-21l0.3,0.3c-0.3,1.6-0.8,3.2-1,4.8c-0.1,0.9-0.9,2.6,1.3,2.2c2.9-0.5,3.9,2,5.4,3.6
			c2.9,3.2,2.8,7.7,5,11.2c0.1,9,2.4,18,0.2,27.3c2.2-0.6,3-2.1,3.9-3.5c3.4-4.7,6.7-9.5,10.1-14.2c1.6-2.1,3-4.4,6-4.8
			c7.9-1.1,9.2-3.3,6.7-10.9c0.2-1.4,0-2.6-0.9-3.7c0-8.1-0.3-16.2,3.7-23.7c2.4-4.4,4.1-4.7,7.3-1c5.2,6.1,8.9,13.1,11.3,20.7
			c0.3,1.2,0.6,2.4,0.9,3.6c3.7,17.8,3.9,35.5-1.6,53.1c-0.7,2.2-1.9,4.6-0.6,7c-0.4,0.7-0.9,1.3-1.2,2.1c-0.5,1.3-1.5,2.8-0.1,4
			c1,0.8,2.4,1.8,3.5,1.2c1.4-0.8,0.6-2.7,0.8-4c0.1-0.5,0-1,0-1.5c0.2-0.8,0.7-1.5,0.7-2.3c-0.4-11.5,1.5-22.7,4-33.8
			c2-9.2,5.2-18.1,6.2-27.5c1.1-1.2,1.2-2.6,0.8-4c1.1-3.1,2.4-6.1,3.2-9.3c2.3-9.3,7.1-17.1,14.6-23.1c1-0.8,1.9-2.3,3.4-1.5
			c1.4,0.8,0.1,2.1,0.1,3.1c0,9.9-4.7,18.9-5.9,28.6c-0.7,1.2-1.2,2.4-0.8,3.8c-0.6,3.4-1.2,6.8-1.9,10.3
			c-2.6,13.5-3.3,27.3-6.1,40.7c-0.6,3,2.2,4.3,4.1,5.7c2.1,1.5,3.1-0.8,4.3-2.1c6.4-7.3,12.6-14.6,10.4-25.4
			c-0.1-0.6,0.3-1.3,0.4-1.9c0.9-9.7,2.9-19.3,4.5-28.9c1.1-1.2,1.2-2.6,1-4c3.2-8.9,6.7-17.7,12.5-25.4c1.9-2.4,3.8-4.5,6.8-4.2
			c3.1,0.4,4.7,2.9,5.6,5.8c0.7,2.1,1.1,4.1,1.2,6.3c0.2,4.9-0.4,9.6-1.2,14.4c-1.1,1.1-1.7,2.3-1.6,3.9c-2,4.8-2.9,9.9-4.2,14.8
			c-0.2,0.9-0.5,2.2,0.5,2.8c1.1,0.7,1.8-0.4,2.5-1c3.7-2.8,7.3-5.7,11.5-7.8c7.3-3.6,11.4-2.3,15.1,5c1.2,2.4,2.8,4.3,5,6
			c3.9,3.1,7.7,6.4,11.1,9.9c2.2,2.3,3.9,2.5,6.4,0.8c5.6-3.9,11.8-6.6,17.9-9.4c6-2.8,12.2-5.3,18.6-7c0.1,0.1,0.2,0.3,0.3,0.4
			c-0.1,0.9-0.2,1.8-0.3,2.7c-0.3,0.3-0.7,0.7-1,1s-0.7,0.6-1,1c-1,0-1.9,0.3-2.3,1.3c-0.1,0.1,0.3,0.6,0.4,0.6c1.1,0,1.6-0.9,2-1.7
			c0.3-0.3,0.7-0.7,1-1s0.7-0.7,1-1c3.6,0.7,1,2.2,0.4,3.3c-4,6.3-9.3,11.8-12.3,18.7l0,0c-0.4,0.3-0.7,0.7-1.1,1
			c-1.7,1.5-3.9,2.8-2.4,5.9c3.9-2.2,8-4,10.5-7.9c8.1-5.6,16-11.6,25-15.9c1.6-0.2,3-0.9,4.1-2.1c6.4-1.9,12.3-5.4,19.9-5.8
			c-1.1,1.3-1.6,2-2.3,2.7c-4.2,4.2-8.3,8.6-12.8,12.6c-3.4,3.1-0.9,4.9,1,6.9c2.6,2.9,2.8-0.9,3.8-1.7c5.9-4.9,9.3-12,15.3-16.9
			l0.1,0.1c-0.5,4.8-3.9,8.3-6,12.3c-4.4,8.5-9.5,16.6-13.2,25.4c-1.5,0.8-1.9,2.1-1.7,3.7c-0.7,3.1,1.6,4.3,3.6,5.7
			c1.9,1.4,2.6-0.2,3.5-1.3c1.2-0.7,2.4-1.4,2.9-2.8c5.5-3.2,9.8-7.9,14.8-11.6c8.4-6.1,16.1-13.2,25-18.6l0.2,0.3
			c-0.1,2.1-1.8,3.1-3,4.3c-8.6,8.7-17.3,17.3-26,26c-1.3,1.3-2.9,2.3-3.2,4.3c-1.6,0.3-2.6,1.2-3,2.8c-4,2.2-6.5,6-9.8,9
			c-0.8,0.7-1.1,1.5-0.2,2.5c3.4,3.9,9.7,4.6,13.7,1.2c2.3-1.9,4.3-4.1,5.7-6.8c1.2-0.7,2.2-1.4,2.7-2.7
			c13.5-13.3,27.7-25.8,39.3-40.9c5.2-6.8,8.5-14.2,7.7-23c-0.2-2.4,0.1-4.9,0.4-7.4c1.8-12.8,7.8-23.9,13.3-35.3
			c2-1.7,2.4-3.3,0.1-5.2c-2.1-1.8-4.2-3.6-5-6.5c1.2-0.7,1.2-1.9,1.1-3c-0.4-10.8-0.8-21.7-1.3-32.5c0.1-4,0.1-8,0.2-12
			c2-0.9-1.3-6.4,3.9-4.4v0.4c0.1,0.3,0.2,0.7,0.3,1c3.9,14.9,7,29.9,9.4,46.5c3.5-6.1,6.4-11.1,9.3-16.1c0.5-0.9,0.7-1.6-0.5-2.4
			c-4.9-3.5-4.5-8.2,1.1-11.6c4.2-2.6,9-3.7,13.9-3.4c2.5,0.2,3.6-0.7,4.3-3c1.6-5.4,4.2-10.5,7.1-15.3c0.9-1.4,1.5-3.3,4.1-3.5
			c0.7,7.1,0.3,14-1.8,20.4c-1.8,5.7,0.8,8.2,5,10.7c2,1.2,3.1,1,3.6-1.2c3.1-13.9,10.6-26.7,9.5-41.5c-0.4-5.1,1.7-8.2,6.7-10
			c4.7-1.8,8.6-1.1,11.1,3.3c1.7,2.9,2.3,6.2,2.3,9.6c0,6.4,0,12.8,0,19.2c4-12.9,6.9-26,8.7-39.3c0.4-3.2,1.5-5.6,4.9-5.9
			c3.5-0.3,5.5,1.9,6.6,5c1.2,3.3,0.8,6.6,0.1,9.8s-1.8,6.4-1.7,9.7c-1.1,2.2-1.6,4.5-1.5,7c-3,12.4-6,24.7-8.9,37.1
			c-0.3,1.2-2,3.9,1.2,3.5c2.8-0.3,7.7,2.6,8.1-2.4c1-13,2.8-26.1,1.2-39.2c0.3-2,0.6-4,1-6c4.2-5.3,7.6-5,10.4,1.1
			c1.3,2.7,1.7,5.7,1.9,8.7c0.5,9.1-1,18.1-1,27.2c-0.7,0.9-1.4,1.9-2.2,2.7c-7.5,7.6-13.7,15.8-13.9,27.1c0,1.4-0.8,2.5-1.7,3.5
			c-5.6,6.1-11,12.4-17.9,17.2c-4.5,3.1-6.9,7.5-6.6,13.1c-2,0.1-4,0.5-5.9,0.4c-13.6-0.5-27.1-1.1-40.7-1.7
			c-2.9-0.1-1.9,2.2-2.3,3.7c-3.3,9.3-6.6,18.7-9.8,28c-0.1,0.1-0.1,0.3-0.2,0.4c0.1-0.1,0.1-0.3,0.2-0.4c1.6,0.6,3.1-1.3,5.6,0.3
			c-4.5,4.3-8.4,8.9-13.1,12.4c-7.3,5.5-12.3,11.9-13.7,21.4c-0.8,5.7,1.1,10.5,4.2,13.8c3.7,3.9,7.9,7.4,11.3,11.9
			c4.3-7.6,8.7-14.6,14-21c1.2-1.5,1.9-4.8,3.1-4.9c4.7-0.4,7.8-4.5,12.3-4.7c6.1-0.3,9.9-3.2,12.3-8.8c1.2-2.7,3.5-4.8,5.1-7.4
			c3.3-5.3,8.3-9.5,11.2-15.2c1.6-0.3,2.1-1.5,2.2-2.9c5-3.7,8.1-8.9,11.5-13.9c6-8.3,13.2-15.8,15.7-26.2c0.8-3.2,2.1-6.3,3.5-9.3
			c2.8-5.4,8.5-7.9,13.2-5.9c4.7,1.9,6.3,6.3,4.7,12.6c-0.4,1.4-0.9,2.8-1.4,4.3c-1.7,5.9-5.1,11.5-6.2,17.1
			c-1.6,8-4.5,15.1-8.1,22.2c-2.2,1.8-3.1,4.2-4.4,7c3.8-0.5,5.5-4.1,8.9-3.8c-1.6,4.5-6.7,7.3-6.6,13.1c4.9-1.7,8.3-5.9,13.4-6.4
			c-4.4,4.5-9,8.7-13.7,12.7c-2.2,1.8-3.4,4-3.5,6.8c-3.4,10-7,20-9.6,30.2c-1.7,3.5-3.3,7-3.9,11.4c4.6-1.1,7.5-3.4,9.5-7.2
			c4.6-8.7,9-17.4,14.1-25.8c7.3-12,12.9-25.2,23.7-34.8c3.3-2.1,6.7-4,11-5.3c-0.7,2.3-1,3.7-1.4,5.1c-3.5,7.9-7.8,15.4-12,22.9
			c-2,3.6-3.9,7.3-5.8,11c-0.4,0.9-1.7,2,0.2,2.8c8.9,4.3,17.1,0.6,20.1-9.1c0.2-0.8,0.3-1.6,0.6-2.4c3.5-8.5,3.3-18.6,11.1-25.1
			c1.5-0.3,2.2-3,3.9-1.9c1.6,0.9,0.6,3,0.8,4.5s-0.6,3.3,1,4.5c-2.2,6.5-0.4,13.1-1.1,19.7c-0.4,4.5,1.7,4,4.5,2.6
			c2.6-1.3,5.2-2.8,7.9-4.1c1.6-0.8,3.6-1,4.6,0.4c1.2,1.7-0.9,2.3-1.9,3.3c-2.9,2.7-5.8,5.4-8.8,8.1c5.7-0.7,10.4-3.8,15.9-4.4
			c6.7-0.8,12.5-3.9,18.6-6.4c7.3-2.9,14.5-6.3,21.8-9.5c0.5-0.2,1.3,0,2.7,0c-10.2,8.9-19.8,17.3-29.5,25.7c-0.5,0.2-1.4,0-1.1,0.9
			c0,0.1,1.2-0.1,1.8-0.1c13.1-8.4,26.6-15.9,40.3-23.2c0.9-0.5,1.7-1.1,2.6-1.3c5.1-1.3,5.7-0.5,6.2,4.7c0.7,7.4-3.6,12.5-7.3,17.9
			c-1.4,2-3.1,3.8-5.1,6.1c3.3,0.6,6-0.5,8.8-1c2.7-0.5,3.6,0.4,3.6,3.1c-0.1,5.2,0,10.3,0,15.5c0,1.4,0,2.6-1.4,3.5
			c-16.8,10.8-30.1,26-46.8,37c-3.3,2.2-7.2,3.5-11.1,4c-9.2,1-12.7-2.8-11.3-11.9c0.2-1,2.3-2.3,0-3.2c-1.5-0.6-2.1,0.6-3.1,1.5
			c-2.6,2.3-6.2,2.7-9.4,1.8s-3.7,0.2-3.9,2.9c-0.1,3,1.3,6.8-0.6,8.7c-2.3,2.3-6.3,0.8-9.6,0.8c-22.7,0.1-45.3,0.1-68,0
			c-3.4,0-6.3,0.8-9.3,2.6c-7.6,4.5-15.9,8-23.2,13.2c-0.7,0.5-1.6,0.8-2.3,0.1c-0.8-0.8-0.8-2-0.2-2.8c1.5-2.2,3.1-4.3,4.7-6.4
			c1.6-2,4-3.5,4.7-6.5c-5.3-0.3-10.2,1.7-15.3,1.9c-1.9,0.1-1.1,1.5-1,2.6c0.8,5.4,2.2,10.6,4.4,15.7c-7.8-1.1-9.7-2.8-11.4-10.8
			c-0.5-2.1-1.2-4.2-1.2-6.3c0-2.8-1.5-3.3-3.8-3.3c-14.3,0-28.7,0-43,0c-3.4,0-5.8,2.1-8.5,3.9c-1.1,0.7-1.3,1.8-0.5,2.6
			c6.7,7.2,9.3,17,15.5,24.5c2.4,2.9,4.4,6.1,8.4,7.2c1.1,0.3,3,1.1,2.7,2.5c-0.3,1.6-2.1,2.3-3.8,2.5c-7.6,1.1-13.3-2.4-18.7-7.3
			c-10.6-9.5-18.5-21.2-27-32.5c-1.9-2.5-3.8-3.6-7-3.5c-7,0.3-14,0.1-21.9,0.1c4.3,6,10.7,7.6,15.5,11.3
			c-9.1,2.8-20.3,0.5-26.4-6.4c-4.1-4.6-8.8-5.6-14.2-4.8c-12.1,1.7-24.3,3-36.6,2.4c-13.6-0.7-27.6,1.8-40.9-1.4
			c-14.6-3.5-27,2.3-39.8,6.9c-13,4.7-25.8,10-37.1,18.2c-2.5,1.8-4.9,1.7-6.9-0.5c-2-2.1-1.4-9.5,1.5-11.5
			c5.1-3.5,6.7-9.7,12.1-13.4c-6-2.9-7.3,1.7-9.5,4.7c-1.2,1.6-1.1,5.1-3.4,4.7c-2.6-0.4-2.9-3.9-2.8-6.1c0.1-3.8-1.5-4.3-4.8-4.3
			c-13.5,0.1-27,0-40.5,0.1c-4.9,0-9.7,0.3-11.9,6c-1,2.5-3.6,2.6-6.1,2.7c-0.2-1.3-0.4-2.8-0.6-4.3c0.2-0.1,0.4-0.2,0.6-0.4
			c-0.1-0.1-0.2-0.1-0.4-0.2c0,0.2-0.1,0.4-0.1,0.6c-9.9,0.8-19.2,4.3-28.8,6.2c-1.3,0.3-2.5,0.9-4.3,0.1
			c6.4-4.5,13.9-6.1,20.2-10.3c-7.6,0.1-15.5-2.5-22.7,2.2c-11.7,7.6-25,12-37.4,18.3c-0.4,0.2-0.9,0.1-2.6,0.2
			c8.5-7.2,15.4-14.6,24.2-21.2c-9.5,0.4-18.3-1.6-27.1,2.6c-9.3,4.4-18.7,9.4-29.7,7.9c-2.8-0.4-5-1.2-6.3-4s-0.1-4.6,3.7-6.6
			c-12.3,0-22.9-0.2-33.6,0.1c-3.9,0.1-5.1,5.4-2.3,9.1c-8.9,1.4-15.1-3.7-21.3-8.9c-4.8-3.9-8.8-9-15.5-10.2c-1-0.2-2-1.1-3.1-0.5
			c-9.1,5-18,2.3-26.6-1.2c-7.1-2.9-14-6.7-20.9-10c-1-0.5-2.2-1.2-3.3-1c-8,1-11.6-5.2-15.7-10.1c-1.9-2.2-3.1-5-5.1-7.3
			c-4.2-4.8-5.3-10.2-4.1-16.6c1.2-6.5,0.3-13.2,0.9-19.8c0.3-3-2.3-6.4-3.9-9.4c-3.4-6.7-6.3-13.5-5.9-21.2
			c0.4-6.5,3.9-10.3,10-10.7c9.1-0.6,7.9,8.3,12,13.7c0.2-5.1,3.2-7.2,7.1-9.2c-4.4-2.4-6.9-5.9-10.2-8.6c-2.4-1.9-5.3-3.5-8.7-2.6
			c-9-14.6-7-30.9-6.7-47.2c3.8,4.4,5.8,10.1,10.6,13.5c5.5,2.6,5.9,8.3,7.8,13c0.5,1.4,1.7,2.4,2.4,3.8c2,3.7,5.9,6,7.6,9.6
			c1.9,3.9,4.5,6.7,7.8,9.8c3-8,1.4-16.2-1.7-22.1C113.6,616.4,105.9,607.5,99.7,597.8z M250,715c-0.1-0.1-0.2-0.1-0.4-0.2
			C249.8,714.8,249.9,714.9,250,715c0.9,4.4,3.7,7.8,5.9,11.9c3-4.8,2.9-5.1-0.7-8.1C253.6,717.4,251.8,716.2,250,715z M750.9,730
			c0.3-0.3,0.5-0.6,0.8-0.9c4.1-6.2,7.3-12.9,10.8-19.5c2.1-3.8,1.7-7.4-0.2-11.2c-2.4,1.7-4.2,3.4-4.9,5.9
			c-1.7,5.7-5.3,10.2-8.9,14.8c-4.8,6.1-10.3,11.7-13.6,18.8c-1.8,1.2-2.7,3-3.1,5c-1.1,0.8-2.2,1.7-1.6,3.3
			c0.3,0.7,1.1,0.9,1.7,0.6c5.6-3.3,12.1-5.2,16.2-10.8C749.3,734.1,751.2,732.6,750.9,730L750.9,730z M244.1,759.9
			c0.3,0.4,0.5,1.2,1.2,0.4C244.9,760.2,244.5,760.1,244.1,759.9c-3-2.1-6.2-3.9-8.9-6.3c-3.2-2.9-5.7-2.6-8.1,0.8
			c-0.5,0.7-1.9,1-1.3,2.3c0.4,0.8,1.2,1.1,2.1,1.2C233.2,758.5,238.6,760,244.1,759.9z M225.1,724c0,0.1,0.1,0.3,0.1,0.4
			c0.1,0.1,0.2,0.1,0.3,0.1C225.3,724.3,225.2,724.1,225.1,724c-1.6-4.5-5-7.8-8.2-11c-6.3-6.5-13.2-12.5-19.8-18.5
			c3.7,5.8,5.2,13.1,12.1,17.2C214.9,715.1,218.7,721.2,225.1,724z M347.1,680c-1.1,3.2-2.1,6.5-3.3,9.7c-3.2,8.7-6.5,17.3-9.7,26
			c-0.9,1-2.1,2.4-0.9,3.4c2,1.9,4.6-0.1,7,0.1c1.8,0.2,2.3-1.5,1.8-3.2c2.2-2.7,0.9-6.1,1.4-9.1C344.8,698,345.8,688.9,347.1,680
			c0.6-0.5,1.1-1.1,0.3-2.4C347.2,678.6,347.1,679.3,347.1,680z M503.1,703.6c1.5-1.3,2.8-2.7,3.6-4.5c4.2-3.2,4.3-6.6,1.4-11
			c-2.3-3.6-3.8-7.7-5.3-11.8c-1.7-4.6-2.9-9.5-7.1-13.3c-2.6,4.6-4.7,9.1-7.4,13.2c-5.1,7.6-5.2,15.5-2.8,23.9
			c0.3,1,0.4,1.9,0.6,2.9c0.3,5.7,4.8,1.6,6.9,2.9c-1.3,2.4-6.1,1.7-5.7,4.7c0.6,5.4,1,10.9,3.7,17.2
			C494.6,718.5,499.2,711.2,503.1,703.6z M380.2,719.6c-3.2,6-4.8,12.6-6.9,19c-0.7,2-0.2,3.2,2.4,2.6c3.7-0.9,7.4-1.6,11.2-2.2
			c2.6-0.4,3.5-1.8,2.9-4.1c-1.3-5.3-0.7-10.5,0-15.8c0.1-1.7,1.3-3.7-1-4.7C386.3,713.4,381.3,716.5,380.2,719.6z M581.8,696
			c0-1.8,0.1-3.8-1.7-4.6c-1.6-0.7-2.5,0.8-3.1,2.2c-5.6,3-11.2,6.7-14.2,12c-1.7,3,3.8,6.8,5.3,10.5c0.1,0.3,0.4,0.6,0.5,0.8
			c1.5,2.5,2.8,2.3,4.4-0.1c2.1-3.2,4.2-6.5,6.9-9.1C583.7,704.1,583.7,700.3,581.8,696z M297,718.8c0.2-12.5-2.6-24.7-1.9-37.7
			c-3.6,1.9-4.5,4.5-5.5,6.9c-3.5,8.6-6.7,17.3-8.9,26.3c-2.2,9-2.2,9.2,6.2,13.7c2,3.1,5.2,5,7.6,7.7c1,1.1,2.2,1.3,3.6,0.6
			c1.6-0.8,2.2-2,1.8-3.6C298.8,728.1,299.1,723.2,297,718.8z M544,726.3c1,4.8,0.6,10.7,2.5,16.3c0.7,2,1.6,3.8,4.2,3.4
			c1.9-0.3,4.1,0.8,5.5-2c6.2-11.9,6.3-11.8-0.7-23.4c-0.8-1.3-1.5-2.6-2.2-3.9c-0.5-0.9-0.9-1.7-2.2-1.3
			C548.1,716.3,543.9,722.1,544,726.3z M829.8,736c-4,1.6-7.1,2.8-10.1,4.1c-3.3,1.4-7.1,1.9-9.1,5.5c-1.4,2.5-5.4,4.4-4.2,7.2
			c1.1,2.3,5.2,0.6,7.8,1.6c1.9,0.7,2.9-0.2,2.6-2.2c-0.8-5.7,2.3-8.9,6.9-11.4C825.7,739.7,827.8,738.7,829.8,736z M396.9,681.8
			c-4.5,7.8-7.9,14.7-10.6,22c-0.5,1.4-3.1,3.8,0,4.9c2.4,0.8,5.2,0,6-2.9C394.6,698.3,396.5,690.8,396.9,681.8z M748.6,548.2
			c-1.7,10.1-3.3,19.2-4.9,28.3c-0.4,1.9,0.1,3.7,2,3.9c1.8,0.2,1.5-2,1.7-3.1C748.7,568,749.6,558.7,748.6,548.2z M725,591.6
			c0.1,1.3-0.5,2.9,1.5,2.5c1.3-0.2,3.3,0.3,2.9-2.2c-0.3-1.9-0.1-3.7,1.1-5.2c1-1.2,1.6-2.2,0-3.3c-1.1-0.7-2.3-2-3.3-1.8
			c-1.6,0.2-1,2.1-1.2,3.4C725.6,587.3,725.3,589.6,725,591.6z M453.2,725.8c-5.8-0.1-6.5,3.1-6,7.2c0.1,1.3,0.7,2.2,2,2.5
			c1.7,0.4,1.8-1,2.1-2.1C451.9,731.1,452.5,728.7,453.2,725.8z M560.2,672.2c-0.5-0.6-1-1.1-1.6-1.7c-3.9,3.4-7.9,6.8-11.8,10.2
			c-0.7,0.6-0.8,1.5-0.1,2.2c0.8,0.9,1.5,0.2,2.1-0.3C552.6,679.2,556.4,675.7,560.2,672.2z M411.1,727.6c0.6,1.2-1.1,3.8,1.7,3.7
			c1.8-0.1,4.1-0.4,4.2-3.2c0.1-2.6-1.9-3.5-3.8-3.9C410.4,723.7,411.5,726.2,411.1,727.6z M544.7,686.9c-0.5-1.1-0.8-3-2.1-2.4
			c-2.3,1.2-4.4,3-5.3,5.5c-0.4,1.1,0.6,2,1.7,1.7C541.6,691,543.7,689.5,544.7,686.9z M453.7,712.2c-2.1,2-3.4,4.2-4.2,7
			C455.3,718.1,455.7,717.5,453.7,712.2z M267.1,736.9c-0.7,2.8-1.8,5.8,0.7,8.1c0.7,0.6,1.4,1.1,2.2,0.7c1-0.5,0.5-1.4,0.2-2.1
			C269.2,741.3,268.1,739.1,267.1,736.9z M460.7,739.9c-0.6-2.4-0.9-4.4-2.3-6.2C454.2,738,454.3,738.3,460.7,739.9z M196.3,754.8
			c1-2.7,0.9-4.7-1.2-6.1c-0.6-0.4-1.5-0.3-1.6,0.4C193,751.4,193.8,753.2,196.3,754.8z"/>
		<path class="st1" d="M131,506.8c1.2-1.9,0.3-3.5-0.7-5.1c-5.9-10.1-4.2-19.9,0.2-30c8.2-18.8,21-33.6,37.5-45.5
			c8.1-5.8,16.1-11.8,24.8-16.6c0.8,3.5,2.5,1.9,4.3,0.9c18.4-10.7,38.1-18.8,57.8-26.8c15.7-6.3,31.9-11.3,48-16.5
			c8.3-2.7,17-4.4,25.6-6.2c11.7-2.4,23.5-3.8,35.3-5.4c17.9-2.4,35.9-4.1,53.9-4.6c20.4-0.5,40.8,0.7,60.9,4.9
			c17.3,3.6,33.5,9.4,47.9,19.8c0.9,0.7,2.5,1.2,2.2,2.4c-1.3,5.7-2.3,11.5-4.5,16.9c-1.5,3.6-1,6.5-0.2,9.8
			c-1.2,2.4-5.7,3.8-2.4,7.7c0.1,0.2-0.2,1.1-0.5,1.2c-2.9,1.1-2.3,4.2-3.4,6.3c-2.2,0.1-3.1,1.8-4,3.3c-3.1,5.3-5.9,10.8-9.5,15.8
			c-15,20.9-33.4,38.8-51.7,56.7c-1.1,1-2.3,1.8-3.6,2.7c-10.8,7.3-22.8,12.5-34.7,17.6c-10,4.3-20.6,7.4-31.5,9.1
			c-7.9,1.3-15.8,1.7-23.7,2.4c-10.1,0.9-20.3,1.5-30.3,1.1c-17-0.8-34-3.1-51-3.6c-24.1-0.6-48.3-0.1-72.5-0.2
			c-9.8,0-19.5,0.5-29.3,1.8c-9,1.2-17.7,0.1-25.9-5C143.2,517.4,137.6,511.6,131,506.8z M435,402.5c-0.3,2.2,0.6,3.7,2.7,4.7
			c6,2.9,11.9,5.9,17.8,9c3.7,2,7.2,1.7,10-1.4c6-6.5,13.5-10.6,21.2-14.7c4.2-2.3,8.4-4.8,11.4-8.7c3.4-4.4,2.4-7.4-2.9-8.5
			c-6.7-1.3-13.6-2.3-20.1-0.2c-12.2,4-23.5,10.5-36,13.9C436.4,397.4,434.8,399.4,435,402.5z M355.5,479c-2.3-0.5-5.9,0.4-9.4,1.2
			c-9.8,2.3-20.2,3.6-25.8,13.8c-0.8,1.5-2.7,2.6-1,4.7c1.6,2.1,2.8,4.7,6.2,4c8.5-1.8,17.1-1.8,25.7-2c10.1-0.2,10.1-0.5,12.5-10.3
			c0.3-1.1,0.5-2.3,0.9-3.4c0.3-0.9,0.9-2.3,1.9-1.9c4.3,1.2,6.2,0.9,2.9-3.7c-0.2-0.3,0.1-1.3,0.4-1.8c0.6-1,1.4-2,0.1-3
			c-1.1-0.8-2.4-0.7-3.2,0.1C363.9,479.6,360.4,479.3,355.5,479z M352.9,384.7c0,5.3,2.2,6.9,7.1,5.7c10.3-2.5,20.4-4,30.7,0.2
			c3.4,1.4,5.8,0.1,6.3-3.9c0.4-3.1,1.7-5.7,3.8-7.9c1.4-1.6,3.5-3,2.5-5.5c-1.1-2.7-3.8-2.1-6.1-2.3c-5.9-0.3-12.1,2.3-17.7-1.6
			c-0.5-0.3-1.3-0.2-2-0.1c-5.4,0.7-10.9,1.6-15.8,4C356.6,375.8,353.8,380.1,352.9,384.7z M407.3,423.1c-0.9,0.1-1.6,0-2.2,0.2
			c-7.3,2.9-13,7.9-18.2,13.5c-0.7,0.8-0.8,1.8-0.3,2.8c0.8,1.4,2.2,1.6,3.5,1.2c3.9-1.1,7.9-0.5,11.9-1.1c4.5-0.6,9.4-0.4,13.1-4
			c1.2-1.1,2.8-0.9,4.3-0.5s2.9,0.7,4.3,0c1.2-0.5,2.9-0.4,3.1-2c0.2-1.8-1.4-2.7-2.7-3.1c-4.9-1.6-9.4-4.2-14-6.4
			C409.1,423.3,408.1,423.2,407.3,423.1z"/>
		<path class="st2" d="M143,646c0.2-0.8,0.9-1.5,0.2-2.3c-5-5.6-5.8-12.9-7.1-19.8c-1-5.1-4.4-8.8-6-13.5
			c-3.2-16.3-3.6-32.7-3.3-49.2c0.1-6.1,0.6-12.3-0.3-18.4c0.9-3.9,0.4-7.9,0.6-11.8c0.7-1,0.7-2,0.1-3c1-4.7,0.3-9.6,2.3-14.1
			c3.4,1.2,5.6,3.9,8.2,6.2c10.6,9.1,22.2,14.7,36.8,12.1c10.1-1.8,20.1-4.3,30.5-3.1c-0.3,3.3-3.9,4.4-5.1,7.1
			c-0.7,1.8-1.3,3.5-0.5,5.3c1.1,2.3,2.9,0.6,4.4,0.6c4.5,0.1,8.9-0.5,13.4,0.7c3.2,0.8,6.6,0.8,9.1-2.4c1-1.3,2.7-1.8,4.3-2.4
			c5.6-2,11.2-4,16.8-5.9c2-0.7,4.3-1.1,4.8-3.8c6.8,0,13.7-0.8,20.4,0c21.4,2.7,42.9,2.9,64.4,3.7c6.3,0.3,12.5-1.2,18.8-1
			c24.5,0.6,47.7-4.7,69.6-15.7c7.4-3.7,15-7,22.5-10.5c-0.9,3.7-4.1,5.5-6.3,8.2c-10.6,13.3-22.6,25.3-35.7,36.1
			c-10.6,8.8-21.6,16.9-28.9,28.9c-1.6-1.9-1.3-4.4-2.3-6.5c-0.9-1.7-1.7-4.7-3.7-4c-2.5,0.9-0.5,3.4,0,5.1
			c4.3,13.8,5.4,27.7-1.4,40.7c-8.2,15.5-19.7,28.7-32.6,40.5c1.3-4.4,2.7-8.8,4-13.1c-12.6,21.1-24.3,42.5-34,65.1
			c1-7.1,1.6-14.3,3.2-21.3c2.4-10.8,2-21.8,3.6-32.6c0.4-2.8,1-5.5,2-8.2c3.1-8.2,3-8.2-0.4-19.3c-7,3.1-10.7,9.3-14.1,15.7
			c-5.4,9.9-11.1,19.7-15.6,30.1c-1.6,3.7-3.5,7.1-6.3,10.1c-6.9,7.3-10.5,16.5-14.6,25.4c-1.4,3.2-2.7,3.7-5.4,1.7
			c-7.2-5.2-12.4-11.5-14.5-20.6c-5-20.9-8.2-42-10.9-63.2c-0.9-7.6-2.3-15.1-2.1-22.8c12-1.8,22.8-6.7,32.8-13.4
			c2.5-1.7,4.7-4.2,5.1-7.2c1.1-9.8,3.9-19,8.1-27.9c2.1-4.4-0.3-7.3-5-6.4c-6,1.1-11.6,4.1-18,2.2c-0.3-0.1-0.9,0.3-1.3,0.6
			c-6.4,5.4-14,8.8-21,13.3c-2.3,1.4-4.6,3.3-5.1,5.9c-0.9,4.9-3,9.5-2.6,14.6c-1.9,0.2-3.6,0.5-4.3-2.1c-0.7-2.9-2.8-4.7-5.8-4.5
			c-3.1,0.2-5.1,2.6-5.8,5.4c-1.4,5.4-2.8,10.9-3.5,16.5c-1.2,9.2-3.4,18.3-3.6,27.6c-0.1,4.2,0.3,8.3,0.9,12.4
			c-4,3.6-9.2,6.6-9.5,12.7c-0.4,8.6-0.3,17.3-0.3,25.9c0,1.8,0.8,2.6,2.4,1.3c4.6-3.7,9.2-7.5,13.8-11.2
			c3.6,12.1,7.2,24.2,10.7,36.3l0,0c-10-9.4-23.7-14.8-31.1-27c-2.4-4-4.9-7.8-8.3-11c-0.9-0.9-1.7-2.3-3.3-1.5
			c-1.4,0.7-1.3,2.2-1.2,3.5c0,5.1-0.5,10.1,1.1,15.9c-4.9-4.7-9.1-8.9-13.3-13c0.3-3.2,0.3-6.5-0.3-9.7c0.8-8.1,0.8-8.1-6.9-8.2
			c-0.8,0-1.7,0-2.5,0C150.1,650.7,146.1,649.2,143,646z M348,555c0.8-4.5-1.6-9-2.2-13.7c-0.3-2.3-2.5-3.2-4-1.3
			c-3.3,4.4-8,6.4-12.5,8.7c-14.2,7.4-19.7,19.8-20.3,34.9c-0.2,6.3,1.9,7.6,8.1,5.7c5.4-1.6,10.7-3.7,16.2-4.9
			c6.9-1.6,10.6-5.9,12.1-12.4C346.6,566.6,348.3,561.2,348,555z M253.1,635.1c-0.3,3.9,0.5,7.3,1.8,10.5c1,2.3,3.3,3.8,4.9,1.3
			c3.6-5.4,8.7-8.8,14.2-11.9c3.6-2.1,4.3-5.1,3.6-9.3c-1.1-6.1-4.6-11.8-2.9-18.3c0.2-0.9-0.4-1.6-1.2-2c-1.4-0.7-2,0.3-2.8,1.2
			c-4,4.9-8.1,9.6-12,14.5C255.3,625.2,252.2,629.6,253.1,635.1z M341.8,637.9c-0.1-0.1-0.2-0.2-0.2-0.4c-0.1,0.1-0.3,0.3-0.3,0.3
			c0.1,0.2,0.3,0.3,0.4,0.5C341.7,638.2,341.8,638.1,341.8,637.9z"/>
		<path class="st3" d="M678.9,552c-0.1,4-0.1,8-0.2,12c-3.3-1-6.6-2-9.9-3c0.7-7.9-1.7-15.1-4.9-22.1c-5.5-12.1-11.4-24-14.5-37.1
			c-0.7-2.8-0.2-3.9,2.6-4.4c4.4-0.7,8.8-1.7,13.2-2.4c15-2.4,29.6-6,42.9-13.8c23.4-13.7,44.7-29.9,62.5-50.5
			c2,3.1,5.1,4.4,8.5,4.3c5.5-0.3,10.5,1.4,15.6,2.9c6.5,1.9,11.2,5.8,12.8,12.6c1,4.2,3.4,6.7,7,9c24,15.5,42.7,35.6,54.6,61.8
			c5.6,12.4,15.1,22.2,22.7,33.3c7.5,11,13.8,22.7,20.6,34.1c3.2,5.4,7,10.5,10,16c4.5,8.1,2.9,15.9-2.5,22.3
			c-4.5,5.2-8.3,10.7-11.4,16.7c-0.3,0.5-1,0.8-1.5,1.2c-5.6-20.3-19.3-37.1-25.3-57.4c-0.4-1.4-1.2-2.8-2-4
			c-7-11-23.3-19.7-36-15.7c-1,0.3-2.9,1.7-3.4-0.2c-1.1-4.2-3.8-2.6-6.3-2.3c-4.6,0.6-9.2,1.3-13.7-0.8c1.2-4.5,2.4-9,3.5-13.5
			c0.3-1.3,0.3-2.9-1.3-3.4c-1.3-0.5-2.1,0.8-2.8,1.7c-3.6,4.7-7.7,9.1-10.5,14.4c-3.4,1.1-6.8,2.1-10.2,3.2c0-9.1,1.6-18.1,1-27.2
			c-0.2-3-0.6-6-1.9-8.7c-2.8-6.1-6.2-6.4-10.4-1.1c-0.4,0-0.7,0-1.1,0c-0.1-3.4,1-6.5,1.7-9.7c0.7-3.3,1.1-6.6-0.1-9.8
			c-1.2-3.1-3.2-5.3-6.6-5c-3.3,0.3-4.5,2.7-4.9,5.9c-1.8,13.3-4.7,26.4-8.7,39.3c0-6.4,0-12.8,0-19.2c0-3.4-0.5-6.7-2.3-9.6
			c-2.5-4.3-6.5-5-11.1-3.3c-4.9,1.9-7,4.9-6.7,10c1.1,14.8-6.4,27.7-9.5,41.5c-0.5,2.2-1.6,2.4-3.6,1.2c-4.2-2.5-6.8-5-5-10.7
			c2.1-6.5,2.5-13.3,1.8-20.4c-2.6,0.2-3.2,2-4.1,3.5c-3,4.8-5.5,9.9-7.1,15.3c-0.7,2.3-1.7,3.2-4.3,3c-4.9-0.4-9.7,0.8-13.9,3.4
			c-5.6,3.4-6.1,8.2-1.1,11.6c1.2,0.9,1,1.6,0.5,2.4c-2.8,5-5.7,10-9.3,16.1c-2.4-16.5-5.5-31.6-9.4-46.5c0.7-0.5,0.4-0.8-0.3-1
			v-0.4c-0.3-1.9-0.6-3.9-1.1-5.7c-0.1-0.5-0.8-1.1-1.3-1.3c-0.7-0.3-1.4,0.3-1.3,1C679.8,545,676.9,548.5,678.9,552z"/>
		<path class="st4" d="M252.1,380c-0.1-2.2,1.7-3.2,3-4.3c18.8-15.3,37.1-31.1,56.9-45.1c15.1-10.6,30.5-20.7,46.2-30.3
			c15.3-9.4,30.9-18.1,46.4-27.1c11.9-6.9,21.9-5.7,33.5-0.4c29.1,13.3,56.8,28.9,83.3,46.7c9.8,6.6,20,12.5,30,18.7
			c-6.2,11.5-12.9,22.8-20,34c-3.1-1.9-6.1-4.1-9.3-5.7c-27-13.4-55.8-19-85.8-19.7c-23.7-0.5-47.2,1.2-70.6,4.3
			c-22.7,3-45.5,5.8-67.4,13.1C282.8,369.4,267.5,374.8,252.1,380z"/>
		<path class="st5" d="M820.3,564.7c4.5,2.1,9.1,1.4,13.7,0.8c2.5-0.3,5.2-2,6.3,2.3c0.5,1.9,2.4,0.5,3.4,0.2c12.8-4,29,4.6,36,15.7
			c0.8,1.3,1.5,2.6,2,4c6,20.2,19.6,37,25.3,57.4c0.1,14.5-5.7,21.5-20.4,22.8c-8.3,0.8-15.6,4.1-22.9,7.3c-1.8,0-3.7,0.1-5.4-0.1
			c-5.9-0.9-11.5-2.6-15.2-7.7c-1.6-1.2-0.8-3-1-4.5s0.7-3.6-0.8-4.5c-1.8-1-2.4,1.6-3.9,1.9c-4.8-0.1-9.5-0.1-14.3-0.2
			c0.4-1.4,0.8-2.8,1.4-5.1c-4.4,1.3-7.8,3.2-11,5.3c-4.3-0.7-8.7-0.5-13-1.7c-3-0.8-6.2-0.9-9.2,0.4c-1.5-1.6-3.5-1.7-5.5-2
			c3.5-7.1,6.5-14.2,8.1-22.2c1.1-5.6,4.5-11.2,6.2-17.1c0.4-1.4,1-2.8,1.4-4.3c1.6-6.3-0.1-10.6-4.7-12.6c-4.7-2-10.5,0.4-13.2,5.9
			c-1.5,2.9-2.8,6.1-3.5,9.3c-2.5,10.4-9.8,17.9-15.7,26.2c-5.6-1.8-6.5-6.5-7.2-11.4c-0.4-5.7,2.1-10,6.6-13.1
			c6.9-4.8,12.3-11.1,17.9-17.2c0.9-1,1.7-2.1,1.7-3.5c0.2-11.3,6.5-19.5,13.9-27.1c0.8-0.8,1.5-1.8,2.2-2.7
			c3.4-1.1,6.8-2.1,10.2-3.2C812.8,564.1,816.5,564.4,820.3,564.7z"/>
		<path class="st6" d="M252.1,380c15.4-5.3,30.8-10.6,46.2-15.8c21.9-7.3,44.7-10.1,67.4-13.1c23.4-3.1,46.9-4.9,70.6-4.3
			c30,0.7,58.8,6.3,85.8,19.7c3.2,1.6,6.2,3.8,9.3,5.7c7-11.2,13.7-22.5,20-34c16.1-24.6,36-45.5,60.1-62.6
			c5.2-3.7,10.6-6.7,16.3-9.3c11.5-5.2,22.9-10.5,34.5-15.4c23.3-9.8,47.4-8.7,71.6-4.5c16.4,2.9,32,8.2,46.1,16.7
			c8,4.8,14.1,12.5,21.7,18.1c7.3,5.3,9,13,11.4,20.7c6.2,20,7.6,40.4,5.6,61.1c-0.2,2.4-0.2,5.3-3,6.4c-2.6,1-3.6-1.9-5.9-3
			c-8.7,24.1-23.9,44.2-39.1,64.3c-17.8,20.6-39.1,36.8-62.5,50.5c-13.3,7.8-27.9,11.3-42.9,13.8c-4.4,0.7-8.8,1.7-13.2,2.4
			c-2.9,0.4-3.3,1.6-2.6,4.4c3.1,13.1,8.9,25,14.5,37.1c3.2,7,5.6,14.2,4.9,22.1c-1.9,4.2-0.8,9.2-3.5,13.2
			c-0.4,0.6-0.1,2.6,0.3,2.7c3.5,1.3,2.1,4.9,3.4,7.1l0,0c-1.8,0.2-2.3,1.2-1.4,2.7c2.9,5,5.9,10,11.3,12.8c0.8,2.8,2.9,4.7,5,6.5
			c2.3,2,1.9,3.5-0.1,5.2c-4.3-4.4-9.2-8.3-12.9-13.2c-6.2-8.1-13.2-15.5-6.6-27.9c3.8-7.1,3.2-16.6-0.3-25.2
			c-5.2-12.4-11.8-24.3-15.2-37.4c-2.5-9.4-1.4-10.2-11.5-4.1c-1.8,1.1-3.4,2.7-5.2,3.9c-0.8,0.5-1.5,2-2.8,0.7
			c0.1-0.4,0.1-0.7,0.3-1c0.4-0.5,0.9-1,1.3-1.5c6.8-7.5,15.9-9.9,25.4-11.4c13.8-2.3,27.8-3.8,40.5-10
			c34.1-16.6,62.8-39.8,84.5-71.3c9.4-13.7,19.4-27.1,24.8-43.1c1.9-5.7,1.7-6.3-4.1-5.9c-10.3,0.7-20.5,2.9-30.7,2.7
			c-15.4-0.4-29,4.3-42.4,11.2c-24.9,12.8-50.5,24-77.3,32.1c-14.9,4.5-28.6,1.6-41.6-6.2c-2-1.2-4.6-3.2-3-5.4
			c1.8-2.6,3.6,0.6,5.3,1.6c9,5.4,18.3,9.9,29.1,8c5.5-0.9,11.1-2.4,16.4-4.2c25.3-8.5,49.6-19.3,73.2-31.6
			c11.7-6.1,23.8-10.3,37.3-9.1c1.6,0.1,3.3-0.4,5-0.4c10.3,0,20.4-3.1,30.8-2.7c4.2,0.1,7.9,0.9,10.5,4.6c1.1-1.8,1.4-3.5,1.5-5.4
			c0.5-13.3,0.9-26.6-2.1-39.7c-2.6-11.4-4.3-23.3-12.5-32.5c-8.7-9.7-18.6-18.2-30.1-24.2c-11.8-6.2-24.4-10.5-37.7-12.6
			c-17.8-2.8-35.5-5.2-53.4-0.8c-0.7-0.1-1.5-0.3-2,0.6c-2.1,0.5-4.2,1.1-6.3,1.5c-10.3,2.2-18.9,8.7-28.6,12.2
			c-5.9,2.1-11.7,4.7-17.2,7.8c-0.3,0.2-0.6,0.5-1,0.7c-3.5,2.4-7.6,3.7-10.5,7.1c-5.3,2.2-9.4,5.9-13.3,9.9
			c-3.1,1.8-5.8,4.2-8.3,6.7c-14.5,12.1-26.4,26.5-36.6,42.3c-4.4,7.8-8.3,16-13.4,23.2c-9.1,12.9-13.1,27.3-14.9,42.6
			c-0.4,1.2-0.9,2.5-1.4,3.9c-1.3-0.8-0.9-2.8-2.6-2.9c-0.8-3.3-1.3-6.3,0.2-9.8c2.2-5.3,3.2-11.2,4.5-16.9c0.3-1.2-1.3-1.7-2.2-2.4
			c-14.4-10.4-30.7-16.2-47.9-19.8c-20.1-4.2-40.4-5.4-60.9-4.9c-18.1,0.5-36,2.2-53.9,4.6c-11.8,1.6-23.6,3-35.3,5.4
			c-8.6,1.8-17.2,3.5-25.6,6.2c-16.1,5.2-32.3,10.2-48,16.5c-19.7,8-39.4,16-57.8,26.8c-1.8,1.1-3.5,2.6-4.3-0.9
			c0.6-2.3,2.8-2.7,4.4-3.7c16.5-9.7,34.2-16.8,51.7-24.3C250.1,381.2,251.1,380.6,252.1,380z"/>
		<path class="st7" d="M447.9,504.8c-7.5,3.5-15.1,6.8-22.5,10.5c-21.9,11-45.1,16.3-69.6,15.7c-6.3-0.2-12.5,1.3-18.8,1
			c-21.5-0.9-43-1-64.4-3.7c-6.7-0.9-13.6-0.1-20.4,0c-12.4-0.1-24.9-0.1-37.3-0.2c-3.3,0-6.6-0.2-9.8,1
			c-10.4-1.2-20.5,1.3-30.5,3.1c-14.6,2.6-26.3-3-36.8-12.1c-2.6-2.3-4.8-5-8.2-6.2c-1.4-2.8-4.6-2.9-6.8-4.5
			c-1-0.7-2.8-0.8-2.4-2.6c0.4-1.8,2.1-1.7,3.5-2c2.8-0.6,4.7,1.8,7.2,2c6.6,4.7,12.2,10.6,19.2,15c8.2,5.1,16.9,6.1,25.9,5
			c9.8-1.3,19.5-1.8,29.3-1.8c24.2,0,48.3-0.5,72.5,0.2c17,0.5,34,2.8,51,3.6c10.1,0.4,20.3-0.2,30.3-1.1c7.9-0.7,15.8-1.2,23.7-2.4
			c10.9-1.8,21.4-4.8,31.5-9.1c11.9-5.1,23.8-10.3,34.7-17.6c1.2-0.8,2.5-1.6,3.6-2.7c18.3-17.9,36.6-35.8,51.7-56.7
			c3.6-5,6.4-10.5,9.5-15.8c0.9-1.6,1.8-3.2,4-3.3c-0.8,3.6-2.3,6.9-3.8,10.2c-3.8,8.4-9.9,15.2-14.9,22.8
			c-9.8,10.5-19.5,21.1-29.3,31.6C463,491.9,455.6,498.6,447.9,504.8z"/>
		<path class="st8" d="M126.5,542.8c0.9,6.1,0.4,12.3,0.3,18.4c-0.3,16.5,0.1,32.9,3.3,49.2c-4.7-4.2-5.8-10.5-9.2-15.5
			c-0.3-0.5-0.6-1-1.2-2c-1.6,4.5,0.3,8.4,0.3,13.2c-7.2-6.2-13.2-12.4-19-19c2.3-0.1,2.3-2.2,2.9-3.6c6.2-13,13-25.8,20.2-38.3
			C124.6,544.2,125.2,543.2,126.5,542.8z"/>
		<path class="st8" d="M99.7,597.8c6.2,9.7,13.9,18.6,19.1,28.6c3.1,6,4.7,14.2,1.7,22.1c-3.3-3.1-6-5.9-7.8-9.8
			c-1.8-3.6-5.7-5.9-7.6-9.6c-0.7-1.3-1.9-2.4-2.4-3.8c-1.9-4.8-2.3-10.4-7.8-13C96.5,607.5,96,601.9,99.7,597.8z"/>
		<path class="st9" d="M843,667.2c3.7,5.2,9.3,6.9,15.2,7.7c1.8,0.3,3.6,0.1,5.4,0.1c7.2,5.8,3.2,11.8,0.5,17.8
			c-5.5,0.6-10.1,3.7-15.9,4.4c2.9-2.7,5.8-5.4,8.8-8.1c1-0.9,3.1-1.5,1.9-3.3c-1-1.5-3-1.2-4.6-0.4c-2.7,1.3-5.3,2.7-7.9,4.1
			c-2.8,1.4-5,1.9-4.5-2.6C842.5,680.3,840.8,673.6,843,667.2z"/>
		<path class="st8" d="M91.1,646c3.4-0.8,6.4,0.7,8.7,2.6c3.3,2.6,5.8,6.2,10.2,8.6c-3.9,2.1-6.9,4.1-7.1,9.2
			c-4.1-5.4-2.9-14.3-12-13.7C92,650.5,89.7,648.2,91.1,646z"/>
		<path class="st8" d="M127.2,528c0.6,1,0.5,2-0.1,3C125.9,529.9,125.9,528.9,127.2,528z"/>
		<path class="st10" d="M447.9,504.8c7.7-6.2,15.1-12.9,21.8-20.2c9.8-10.5,19.6-21.1,29.3-31.6c2.3,0.2,3.7-1.2,5.1-2.7
			c8.2-8.4,17.7-13.8,29.4-16.5c9.2-2.2,14.4-10,17.5-18.8c1.8-5.3-0.3-8.5-5.7-10.1c-5.7-1.7-11.5-1-17.3-1.2
			c1.7-15.3,5.7-29.7,14.9-42.6c5.2-7.3,9-15.4,13.4-23.2c6.3-2.1,12.8-3.3,19.4-4.3c8-1.2,14.1-4.9,14.9-14.1
			c0.2-2.6,1.2-5.2,1.4-7.8c0.3-5.4,3.3-10.6,1-16.1c2.5-2.6,5.2-4.9,8.3-6.7c-0.3,1.3-0.6,2.6-0.8,3.9c-0.3,2-0.6,4,1.4,5.4
			c2.2,1.5,4.1,0.3,5.8-1c3.5-2.8,6.7-5.9,9.1-9.7c2.2-3.4,2.4-6.5-2.1-8.4c2.8-3.3,7-4.7,10.5-7.1c0.4,0,0.7,0,1.1-0.1h-0.1
			c2.3,2.3,5.4,1.4,7.9,1.7c6.8,0.6,13.8,1.8,20.1-2.6c3.1-1,5.7-2.9,8.1-5c0.8-0.1,1.5-0.3,1.8-1.1v0.1c0.3-0.3,0.7-0.7,1-1l0,0
			c0.3-0.3,0.7-0.7,1-1l0,0c0.3-0.3,0.7-0.7,1-1l0,0c1.9,0,2.9-1,3.1-2.9l0,0c0.8,0,1.6-0.2,1.9-1.1l-0.1-0.1c1.5,0.2,2.1-0.5,2-2
			v0.1c0.4-0.3,0.7-0.7,1.1-1l0,0c0.3-0.3,0.7-0.7,1-1l0,0c0.3-0.3,0.7-0.7,1-1l0,0c0.3-0.3,0.7-0.7,1-1H678c1.4-0.3,2-1.3,2.2-2.7
			c17.9-4.4,35.6-1.9,53.4,0.8c13.3,2.1,25.9,6.4,37.7,12.6c11.5,6,21.5,14.5,30.1,24.2c8.2,9.2,9.9,21.1,12.5,32.5
			c3,13.1,2.7,26.4,2.1,39.7c-0.1,1.8-0.4,3.5-1.5,5.4c-2.6-3.8-6.3-4.5-10.5-4.6c-10.4-0.4-20.4,2.7-30.8,2.7c-1.7,0-3.3,0.5-5,0.4
			c-13.5-1.1-25.6,3-37.3,9.1c-23.7,12.3-47.9,23.2-73.2,31.6c-5.3,1.8-10.9,3.3-16.4,4.2c-10.9,1.8-20.2-2.6-29.1-8
			c-1.7-1-3.5-4.1-5.3-1.6c-1.6,2.2,1.1,4.3,3,5.4c13,7.8,26.7,10.7,41.6,6.2c26.9-8.1,52.5-19.3,77.3-32.1
			c13.4-6.9,26.9-11.6,42.4-11.2c10.2,0.3,20.5-2,30.7-2.7c5.8-0.4,6,0.2,4.1,5.9c-5.5,16-15.4,29.4-24.8,43.1
			c-21.6,31.5-50.3,54.7-84.5,71.3c-12.7,6.2-26.7,7.7-40.5,10c-9.5,1.6-18.6,4-25.4,11.4c-0.4,0.5-0.9,1-1.3,1.5
			c-0.2,0.2-0.2,0.6-0.3,1c1.3,1.3,2.1-0.1,2.8-0.7c1.8-1.2,3.3-2.8,5.2-3.9c10.2-6.1,9.1-5.3,11.5,4.1c3.4,13.2,10,25,15.2,37.4
			c3.6,8.6,4.1,18.1,0.3,25.2c-6.6,12.4,0.4,19.8,6.6,27.9c3.7,4.8,8.6,8.8,12.9,13.2c-5.5,11.4-11.4,22.5-13.3,35.3
			c-0.4,2.5-0.7,5-0.4,7.4c0.8,8.8-2.5,16.2-7.7,23c-11.6,15.1-25.8,27.7-39.3,40.9c-3.1-2-6.2-4.1-9.2-6.1c0.3-2,2-3,3.2-4.3
			c8.7-8.7,17.4-17.3,26-26c1.2-1.3,3-2.2,3-4.3c0.8,0,1.5-0.3,1.9-1.1c0.1-0.2,0.3-0.4,0.4-0.6c-0.2,0.1-0.4,0.3-0.5,0.4
			c-0.9,0-1.6,0.2-2,1c-8.9,5.4-16.6,12.5-25,18.6c-5.1,3.7-9.4,8.4-14.8,11.5c-2.8-1.8-5.5-3.5-8.3-5.3c3.7-8.8,8.8-16.9,13.2-25.4
			c2.1-4,5.5-7.5,6-12.3c0.1-0.2,0.3-0.3,0.4-0.5c-0.2,0.1-0.4,0.3-0.5,0.4c-6,4.8-9.4,12-15.3,16.9c-1,0.8-1.2,4.5-3.8,1.7
			c-1.8-2-4.4-3.8-1-6.9c4.4-4,8.5-8.4,12.8-12.6c0.7-0.7,1.2-1.5,2.3-2.7c-7.6,0.4-13.5,3.9-19.9,5.8c-0.1-14.2-2.1-17.8-13.8-22.2
			c-13.6-5-27.9-6.4-42.2-6.1C519,638,502,640,485,641.9c0.8-4.8,1.4-9.5,1.2-14.4c-0.1-2.2-0.5-4.3-1.2-6.3c-1-2.8-2.5-5.4-5.6-5.8
			c-3-0.3-5,1.7-6.8,4.2c-5.8,7.7-9.4,16.4-12.5,25.4c-5.3,0.7-10.5,1.3-15.8,2c1.2-9.7,6-18.6,5.9-28.6c0-1.1,1.4-2.3-0.1-3.1
			s-2.4,0.7-3.4,1.5c-7.5,6-12.3,13.7-14.6,23.1c-0.8,3.2-2.1,6.2-3.2,9.3c-4.5,0.7-9,1.4-13.5,2.1c-2.5-7.6-6.1-14.6-11.3-20.7
			c-3.2-3.7-5-3.4-7.3,1c-4,7.5-3.7,15.6-3.7,23.7c-6.6,2.2-12.5,2.3-18.5-2.8c-6.4-5.4-7.5-11.8-6.1-19.2
			c1.3-7.2,2.7-14.3,5.9-21.1c5.3-10.9,3.8-22.6,2.6-34.2c7.3-12,18.3-20.1,28.9-28.9c13-10.8,25.1-22.8,35.7-36.1
			C443.8,510.3,447,508.5,447.9,504.8z M625.9,375c0.3-0.3,0.7-0.7,1-1v0.1c1.1-0.5,1.1-1.5,1-2.5v-0.4c2.9-5.9,2.8-11.6-1-17.1l0,0
			c0-0.9-0.1-1.7-1-2l0,0c0.1-0.9-0.1-1.7-1.1-2h0.1c-0.3-0.4-0.7-0.7-1-1.1v0.1c0.1-1.4-0.6-2.1-2-2l0,0c-0.3-0.3-0.7-0.7-1-1l0,0
			c-0.3-0.3-0.7-0.7-1-1v0.1c-3.7-3.9-16.7-4.6-20.5-1c-0.9,0.8-1.5,1.7-1.3,3v-0.1c-1,0.3-1.1,1.1-1.1,2V349c-1.5,1.4-3,2.8-3,5.1
			V354c-0.3,0.4-0.7,0.7-1,1.1h0.1c-1.5,0.4-2.2,1.4-2,3.1v-0.1c-1,0.3-1.1,1.1-1,2l0,0c-4.8,4.6-6,17.4-2,22.9v-0.1
			c-0.1,0.9,0,1.7,1,2v-0.1c1.8,4.1,4.9,4.4,10.9,1l0,0c1.1,0,2.4,0.3,3-1h-0.1c0.9,0,1.7,0,2.1-1l0,0c7.3-1.1,14.3-2.9,20-8.1v0.1
			C625.2,375.6,625.6,375.3,625.9,375L625.9,375z M678.8,309.1c5.9-2.6,8.7-7.8,11.6-13c1.6-2.8,2.2-5.6,1.1-8.6
			c-1.5-4.5-3.1-8.8-8.7-9.7c-6.6-1-12.6,0.3-17.6,4.7c-1.3,1.2-3.4,3.9,1.2,3.9c2.2,0,1,1.4,0.9,2.3c-0.6,5.1-0.9,10.3,0.8,15.3
			c-1.7,0.1-3.4,0.4-4.6,1.6c-6,6.1-10.7,13.2-14,21c-1.2,2.8,0.4,5.2,3.1,6.6c5.3,2.9,18.2-1,21-6.2c2.1-4,3.9-8.1,6.1-12
			C680.8,312.7,680.6,310.9,678.8,309.1z M688.8,350.8c0.5-1.8,1.3-3.4,1.4-5.3c0.1-2.1,1.1-4.5-1.1-6c-2-1.3-4.2-0.6-6.1,0.5
			c-4.1,2.4-8.5,3.7-13,5.1c-5.1,1.6-9.6,4.3-12,9.1c-2.6,4.9-6.3,8.5-10.7,11.6c-3.7,2.6-7,5.7-9,9.8c-2.5,5.1-2,7.9,2.3,11.4
			c4.2,3.5,9.2,5.3,14.5,6.4c2.2,0.5,4.1-0.1,5.3-1.9c1.7-2.7,4.4-3.9,6.9-5.6c3.7-2.5,7.8-4.5,10.6-8.1c5.4-2.4,10.4-6.6,10.5-12.1
			C688.4,360.9,689.1,355.8,688.8,350.8z M605.8,324.9c5.5-2.2,10.4-3.8,15.3-3.6c6,0.3,11.5-0.9,17.1-2.4c3.2-0.8,5.8-2.6,7.1-5.8
			c4.3-10.9,3.9-21.5-2.2-31.6c-2.7-4.4-7.4-4.3-9.9,0.3c-2,3.7-4.7,6.8-7.4,10c-4.5,5.4-9.2,10.6-12.7,16.7
			C610.3,313.4,606.9,318.2,605.8,324.9z M542.6,479.2c5.9-0.5,13,1.6,18.6-4.1c5.4-5.5,10.9-10.8,16.4-16.1
			c2.4-2.3,3.6-5.1,3.6-8.5s-1.7-5.5-5.1-5.6c-5.3-0.1-10.7-0.2-16,0.3c-3.3,0.3-7.2,0.5-9.2,4.1c-5,9.1-11.2,16.9-20.4,22.1
			c-0.6,0.3-1.1,0.8-1.5,1.3c-1.2,1.2-2.3,2.5-1.7,4.4s2.3,2.2,4,2.2C534.8,479.2,538.3,479.2,542.6,479.2z M568.8,366.2
			c0-0.8,0-1.7,0-2.5c0-2.3,1-4.9-1.6-6.3c-2.5-1.3-4.9-0.4-7.1,1.1c-4,2.6-8.3,5.1-11.9,8.2c-5.7,4.8-11.3,9.7-11.6,18.3
			c-0.3,7.8,2.2,12.6,8.1,13.2c6.7,0.7,13.3-0.4,19.7-2.3c2.6-0.8,3.9-2.3,3.7-5.1C567.5,382.5,568.2,374.4,568.8,366.2z
			 M626.5,519.7c-2.4,1.6-3.4,4.1-4.3,6.5c-2.2,5.6-4.2,11.2-6.3,16.8c-5.9,15.2-12.2,30.3-23.2,42.7c-10.4,11.7-21,23.2-31.5,34.7
			c-1.2,1.3-2.5,2.3-2.7,5C593.6,597.5,617.7,563.5,626.5,519.7z M477.6,503.1c4.4-0.3,9.1-1.3,13.5-3.6c4.9-2.6,7.3-9.4,5.2-14.6
			c-0.8-2-1.8-3.9-1.5-6.2c0.2-1.4,0.2-2.8-1.5-3.3c-1.3-0.4-2.2,0.5-2.9,1.5c-2.9,4.1-7,7.1-10.3,10.8c-2.6,2.8-5.3,5.6-6.9,9.1
			C471.1,501.1,472.4,503.1,477.6,503.1z M655.8,558.7c-0.1,5.8,1,11.3,3.5,16.6C658.9,569.6,658.9,563.8,655.8,558.7z"/>
		<path class="st11" d="M750.2,658.8c-2.9,5.7-7.8,9.8-11.2,15.2c-1.6,2.5-3.9,4.7-5.1,7.4c-2.4,5.6-6.2,8.5-12.3,8.8
			c-4.4,0.2-7.6,4.4-12.3,4.7c-1.1,0.1-1.8,3.4-3.1,4.9c-5.3,6.4-9.7,13.4-14,21c-3.5-4.6-7.7-8.1-11.3-11.9
			c-3.1-3.3-5-8.1-4.2-13.8c1.3-9.5,6.4-15.8,13.7-21.4c4.7-3.6,8.6-8.1,13.1-12.4c-2.6-1.6-4,0.3-5.6-0.3l0,0
			c3.3-9.3,6.6-18.7,9.8-28c2.2,1.7,4.4,3.5,6.7,5.2C725.5,646.7,737.9,652.6,750.2,658.8z"/>
		<path class="st12" d="M567.9,662.9c0.1-0.9,0.2-1.8,0.3-2.7c0.4-0.2,1.4-0.1,1-0.9c-0.3-0.6-1,0-1.4,0.4c-6.4,1.7-12.6,4.2-18.6,7
			c-6.1,2.9-12.4,5.5-17.9,9.4c-2.4,1.7-4.2,1.5-6.4-0.8c-3.4-3.6-7.2-6.9-11.1-9.9c-2.2-1.7-3.8-3.6-5-6c-3.7-7.3-7.8-8.6-15.1-5
			c-4.2,2.1-7.8,5-11.5,7.8c-0.8,0.6-1.4,1.7-2.5,1c-0.9-0.6-0.7-1.8-0.5-2.8c1.2-5,2.2-10.1,4.2-14.8c7.9-0.7,15.8-1.3,23.7-2.2
			c19.4-2.2,38.8-3.6,58.2,0.4c2.9,0.6,5.8,1.4,8.6,2.3c10.2,3.4,16,7.5,14.1,21.7c-8.9,4.4-16.8,10.3-25,15.9c-2.3,0.3-4.7,0.7-7,1
			c3-6.9,8.4-12.4,12.3-18.7C569,665.3,571.6,663.7,567.9,662.9C568,663,567.9,662.9,567.9,662.9z"/>
		<path class="st1" d="M225.1,582.8c-0.4-5.1,1.6-9.8,2.6-14.6c0.5-2.7,2.8-4.5,5.1-5.9c7-4.5,14.6-7.8,21-13.3
			c0.4-0.3,1-0.7,1.3-0.6c6.3,1.9,12-1.1,18-2.2c4.7-0.9,7.1,2,5,6.4c-4.2,8.9-7,18.1-8.1,27.9c-0.3,2.9-2.6,5.5-5.1,7.2
			c-10,6.7-20.8,11.6-32.8,13.4c-1.4-2.6-0.6-5.5-1-8.3C230.4,588.6,229.9,584.4,225.1,582.8z"/>
		<path class="st7" d="M377,578c1.1,11.6,2.6,23.3-2.6,34.2c-3.3,6.8-4.6,13.9-5.9,21.1c-1.4,7.4-0.3,13.7,6.1,19.2
			c6,5.1,11.9,5,18.5,2.8c0.9,1.1,1.2,2.4,0.9,3.7c-9,2-18,4-27,6c-2.2-3.5-2.1-8-5-11.2c-1.5-1.7-2.5-4.1-5.4-3.6
			c-2.3,0.4-1.4-1.3-1.3-2.2c0.2-1.6,0.6-3.2,1-4.8c0.8-0.5,0.8-1.2,0.7-2c0-0.1-0.2-0.2-0.3-0.3c-0.2,0.7-0.5,1.4-0.7,2
			c-4.6,6.5-6.7,14.2-10.7,21c-1.4,2.4-2.7,4.9-4.1,7.3c-3.3,0.6-6.7,1.3-10,1.9c1.3-6.6,3.4-12.9,6.1-19
			c12.9-11.9,24.4-25,32.6-40.5c6.8-13.1,5.7-26.9,1.4-40.7c-0.5-1.7-2.5-4.2,0-5.1c2-0.7,2.8,2.2,3.7,4
			C375.8,573.6,375.5,576.1,377,578z"/>
		<path class="st12" d="M459,649c-1.7,9.6-3.6,19.2-4.5,28.9c-0.1,0.7-0.5,1.3-0.4,1.9c2.3,10.8-4,18.2-10.4,25.4
			c-1.1,1.3-2.1,3.7-4.3,2.1c-1.9-1.4-4.7-2.7-4.1-5.7c2.9-13.5,3.6-27.2,6.1-40.7c0.7-3.4,1.3-6.8,1.9-10.2
			C448.6,650.2,453.8,649.6,459,649z"/>
		<path class="st9" d="M791.1,658.8c3-1.3,6.3-1.2,9.2-0.4c4.3,1.2,8.7,1,13,1.7c-10.8,9.6-16.4,22.8-23.7,34.8
			c-5.1,8.4-9.6,17.1-14.1,25.8c-2,3.8-4.9,6-9.5,7.2c0.6-4.4,2.3-7.9,3.9-11.4c6.7-9,10.5-18.9,9.6-30.2c0-2.8,1.3-5,3.5-6.8
			c4.8-4,9.4-8.2,13.7-12.7c-5.1,0.5-8.4,4.7-13.4,6.4c-0.1-5.8,5-8.6,6.6-13.1l-0.1,0.1c0.3-0.3,0.7-0.7,1-1L791.1,658.8z"/>
		<path class="st9" d="M756.7,630.6c0.7,4.9,1.7,9.6,7.2,11.4c-3.4,5-6.5,10.2-11.5,13.9c-2.2-2.1-5.1-3-7.8-4.3
			c-12.4-6.1-24.4-12.8-34.6-22.3c13.6,0.6,27.1,1.2,40.7,1.7C752.7,631.1,754.7,630.8,756.7,630.6z"/>
		<path class="st12" d="M486.2,702.9c-0.2-1-0.4-2-0.6-2.9c-2.4-8.3-2.3-16.3,2.8-23.9c2.7-4.1,4.9-8.6,7.4-13.2
			c4.2,3.8,5.4,8.7,7.1,13.3c1.5,4.1,3,8.2,5.3,11.8c2.9,4.4,2.8,7.8-1.4,11C499.7,699.7,493,701.4,486.2,702.9z"/>
		<path class="st9" d="M822.9,659.9c4.8,0.1,9.5,0.1,14.3,0.2c-7.9,6.5-7.6,16.6-11.1,25.1c-0.3,0.8-0.4,1.6-0.6,2.4
			c-3,9.7-11.2,13.3-20.1,9.1c-1.9-0.9-0.6-2-0.2-2.8c1.9-3.7,3.8-7.4,5.8-11C815.2,675.3,819.4,667.8,822.9,659.9z"/>
		<path class="st2" d="M286.9,728.1c-8.4-4.5-8.4-4.8-6.2-13.7c2.2-9,5.4-17.7,8.9-26.3c1-2.4,1.9-5,5.5-6.9
			c-0.7,13,2.1,25.2,1.9,37.7C293.7,721.9,290.3,725,286.9,728.1z"/>
		<path class="st7" d="M588,668.1c1.9-14.3-3.9-18.3-14.1-21.7c-2.8-0.9-5.7-1.7-8.6-2.3c-19.4-4-38.8-2.6-58.2-0.4
			c-7.9,0.9-15.8,1.5-23.7,2.2c-0.1-1.5,0.6-2.8,1.6-3.9c17-1.9,34-3.9,51.1-4.3c14.3-0.3,28.6,1,42.2,6.1
			c11.7,4.4,13.7,8,13.8,22.2C590.9,667.2,589.6,667.9,588,668.1z"/>
		<path class="st1" d="M209.3,666.7c-4.6,3.7-9.2,7.5-13.8,11.2c-1.6,1.3-2.5,0.5-2.4-1.3c0-8.6-0.1-17.3,0.3-25.9
			c0.3-6.1,5.5-9.1,9.5-12.7c0.1,6.7,3.1,12.7,4.8,19C208.6,660.2,209.3,663.4,209.3,666.7z"/>
		<path class="st12" d="M367,665c9-2,18-4,27-6c2.5,7.6,1.1,9.8-6.7,10.9c-3,0.4-4.5,2.7-6,4.8c-3.5,4.7-6.8,9.5-10.1,14.2
			c-0.9,1.3-1.7,2.9-3.9,3.5C369.3,683,367,674,367,665z"/>
		<path class="st8" d="M678.8,599.5c-5.4-2.8-8.3-7.8-11.3-12.8c-0.9-1.6-0.4-2.5,1.4-2.7c0.2,0.2,0.4,0.4,0.6,0.6
			c0.1-0.1,0.2-0.3,0.3-0.4c-0.3-0.1-0.6-0.1-0.9-0.2c-1.3-2.3,0.2-5.8-3.4-7.1c-0.4-0.2-0.7-2.1-0.3-2.7c2.7-4,1.6-9,3.5-13.2
			c3.3,1,6.6,2,9.9,3c0.4,10.8,0.8,21.7,1.3,32.5C680,597.7,680.1,598.8,678.8,599.5z"/>
		<path class="st9" d="M544,726.3c-0.1-4.2,4.1-10,7-10.9c1.4-0.4,1.7,0.5,2.2,1.3c0.7,1.3,1.4,2.6,2.2,3.9
			c7,11.6,6.9,11.5,0.7,23.4c-1.5,2.8-3.6,1.7-5.5,2c-2.6,0.4-3.5-1.5-4.2-3.4C544.6,737,545,731.1,544,726.3z"/>
		<path class="st12" d="M331,672.9c3.3-0.6,6.7-1.3,10-1.9c-6.5,13.5-12.2,27.3-16.9,41.5c-0.2,0.6-0.8,1-1.2,1.6
			c-2.9,0.3-3.7-0.5-3.2-3.8c0.5-3,2.5-6.2,0.4-9.4C323.7,691.6,326.6,682,331,672.9z"/>
		<path class="st11" d="M734.9,738c3.3-7.2,8.8-12.7,13.6-18.8c3.6-4.6,7.1-9.1,8.9-14.8c0.8-2.5,2.5-4.2,4.9-5.9
			c1.9,3.8,2.3,7.3,0.2,11.2c-3.5,6.6-6.7,13.3-10.8,19.5c-0.3,0.3-0.5,0.6-0.8,0.9l0.1-0.1C745.4,732.2,740.8,736.4,734.9,738z"/>
		<path class="st9" d="M581.8,696c1.9,4.3,1.9,8.1-1.9,11.8c-2.7,2.6-4.7,5.9-6.9,9.1c-1.6,2.3-2.9,2.5-4.4,0.1
			c-0.2-0.3-0.4-0.5-0.5-0.8c-1.6-3.8-7-7.5-5.3-10.5c3-5.3,8.6-8.9,14.2-12C578.6,694.4,580.2,695.2,581.8,696z"/>
		<path class="st8" d="M786.8,536c1.5,13.1-0.2,26.2-1.2,39.2c-0.4,4.9-5.3,2-8.1,2.4c-3.2,0.4-1.5-2.3-1.2-3.5
			c2.9-12.4,5.9-24.8,8.9-37.1C785.7,536.6,786.3,536.3,786.8,536z"/>
		<path class="st12" d="M428,653.2c-1,9.4-4.2,18.3-6.2,27.5c-2.5,11.2-4.4,22.3-4,33.8c0,0.8-0.5,1.5-0.7,2.3
			c-1.5,0.3-1.9-1.3-3-1.8c-1.4-2.5-0.1-4.9,0.6-7c5.5-17.6,5.3-35.3,1.6-53.1C420.2,654.4,424.1,653.8,428,653.2z"/>
		<path class="st9" d="M389.7,719.2c-0.6,5.3-1.3,10.5,0,15.8c0.6,2.3-0.3,3.7-2.9,4.1c-3.7,0.6-7.5,1.4-11.2,2.2
			c-2.6,0.6-3.1-0.6-2.4-2.6c2.2-6.4,3.7-13,6.9-19C383.4,719.5,386.6,719.3,389.7,719.2z"/>
		<path class="st8" d="M163.6,660.2c0.6,3.2,0.6,6.4,0.3,9.7c-5.8-2.9-9.5-8.5-15.3-12.1c-0.8,3.6,2,6.1,1.7,9.2
			c-7.6-5.5-10.3-13.3-7.3-21.1c3.1,3.2,7.2,4.7,11.3,6.1C156,656.4,158.9,659.4,163.6,660.2z"/>
		<path class="st6" d="M710.1,629.3c10.2,9.5,22.2,16.2,34.6,22.3c2.7,1.3,5.6,2.2,7.8,4.3c-0.1,1.5-0.6,2.6-2.2,2.9
			c-12.3-6.2-24.8-12.2-35.8-20.6c-2.2-1.7-4.4-3.5-6.7-5.2C708.1,631.5,707.2,629.2,710.1,629.3z"/>
		<path class="st9" d="M620.4,720.6c-1.4,2.7-3.5,4.8-5.7,6.8c-4,3.4-10.3,2.7-13.7-1.2c-0.9-1.1-0.6-1.8,0.2-2.5
			c3.3-3,5.7-6.9,9.8-9C614,716.6,617.2,718.6,620.4,720.6z"/>
		<path class="st9" d="M503.1,703.6c-3.9,7.7-8.5,14.9-12.1,24.2c-2.7-6.2-3.1-11.8-3.7-17.2c-0.3-3.1,4.4-2.3,5.7-4.7
			C496.4,705.1,499.8,704.3,503.1,703.6z"/>
		<path class="st12" d="M334,715.7c3.2-8.7,6.5-17.3,9.7-26c1.2-3.2,2.2-6.5,3.3-9.7l0,0c-1.2,9-2.2,18-3.7,26.9
			c-0.5,3,0.8,6.4-1.4,9.1C339.3,715.9,336.6,715.8,334,715.7z"/>
		<path class="st12" d="M225.1,724c-6.4-2.7-10.1-8.9-15.9-12.4c-6.8-4.1-8.4-11.5-12.1-17.2c6.5,6.1,13.4,12.1,19.8,18.5
			C220,716.2,223.4,719.5,225.1,724L225.1,724z"/>
		<path class="st9" d="M829.8,736c-1.9,2.7-4.1,3.8-6.1,4.8c-4.6,2.5-7.7,5.7-6.9,11.4c0.3,2-0.6,2.9-2.6,2.2
			c-2.6-1-6.8,0.7-7.8-1.6c-1.3-2.8,2.8-4.7,4.2-7.2c2-3.6,5.8-4.2,9.1-5.5C822.7,738.8,825.8,737.6,829.8,736z"/>
		<path class="st11" d="M286.9,728.1c3.4-3.1,6.7-6.2,10.1-9.3c2.1,4.4,1.8,9.3,3,13.9c0.4,1.6-0.2,2.9-1.8,3.6
			c-1.4,0.7-2.6,0.5-3.6-0.6C292.1,733.1,288.9,731.2,286.9,728.1z"/>
		<path class="st12" d="M396.9,681.8c-0.5,9-2.4,16.5-4.5,24c-0.8,3-3.6,3.8-6,2.9c-3.1-1.1-0.6-3.5,0-4.9
			C389.1,696.5,392.5,689.6,396.9,681.8z"/>
		<path class="st6" d="M320.2,701c2.1,3.2,0.1,6.4-0.4,9.4c-0.5,3.3,0.2,4.1,3.2,3.8c0.3,1.4,0,2.5-1,3.4c-2.2-1-3.7-0.7-3.9,2.2
			c-0.2,2.1-0.7,4.2-1,6.2c-1.2,0.9-2.3,2.1-4,2.1c0.7-4.3,1.4-8.6,2-12.9C316.4,710.3,318,705.5,320.2,701z"/>
		<path class="st5" d="M748.6,548.2c1,10.4,0.1,19.8-1.3,29.1c-0.2,1.1,0.1,3.3-1.7,3.1c-1.9-0.2-2.3-1.9-2-3.9
			C745.3,567.5,746.9,558.3,748.6,548.2z"/>
		<path class="st6" d="M779.5,686.1c0.9,11.4-2.9,21.3-9.6,30.2C772.6,706.1,776.1,696.1,779.5,686.1z"/>
		<path class="st6" d="M503.1,703.6c-3.3,0.8-6.7,1.5-10,2.3c-2.1-1.4-6.6,2.8-6.9-2.9c6.8-1.5,13.6-3.2,20.5-3.9
			C505.9,700.9,504.6,702.3,503.1,703.6z"/>
		<path class="st12" d="M244.1,759.9c-5.5,0.1-10.8-1.5-16.3-2.1c-0.9-0.1-1.7-0.4-2.1-1.2c-0.6-1.3,0.8-1.5,1.3-2.3
			c2.4-3.4,4.9-3.7,8.1-0.8C237.9,756,241.1,757.9,244.1,759.9C244,760,244.1,759.9,244.1,759.9z"/>
		<path class="st6" d="M734.9,738c5.9-1.5,10.5-5.8,16.1-8c0.3,2.6-1.7,4.2-2.9,6.1c-5.4,2.5-10.3,5.9-16.3,6.9
			C732.2,740.9,733.1,739.2,734.9,738z"/>
		<path class="st7" d="M459,649c-5.2,0.6-10.4,1.2-15.6,1.7c-0.4-1.4,0.1-2.6,0.8-3.8c5.3-0.7,10.5-1.3,15.8-2
			C460.2,646.5,460.1,647.9,459,649z"/>
		<path class="st8" d="M725,591.6c0.3-2,0.6-4.3,1-6.6c0.2-1.2-0.3-3.1,1.2-3.4c1-0.1,2.3,1.1,3.3,1.8c1.6,1.1,0.9,2.1,0,3.3
			c-1.2,1.5-1.5,3.3-1.1,5.2c0.4,2.6-1.6,2-2.9,2.2C724.5,594.5,725.1,592.9,725,591.6z"/>
		<path class="st6" d="M428,653.2c-3.9,0.6-7.8,1.2-11.7,1.7c-0.3-1.2-0.6-2.4-0.9-3.6c4.5-0.7,9-1.4,13.5-2.1
			C429.2,650.6,429.2,652,428,653.2z"/>
		<path class="st13" d="M731.8,743c6-1.1,10.9-4.5,16.3-6.9c-4,5.6-10.6,7.5-16.2,10.8c-0.6,0.3-1.4,0.1-1.7-0.6
			C729.5,744.6,730.7,743.8,731.8,743z"/>
		<path class="st6" d="M620.4,720.6c-3.2-2-6.4-4-9.6-6c0.4-1.6,1.4-2.6,3-2.8c3.1,2,6.2,4.1,9.2,6.1
			C622.6,719.2,621.6,720,620.4,720.6z"/>
		<path class="st9" d="M453.2,725.8c-0.7,2.9-1.3,5.3-1.9,7.7c-0.3,1.1-0.4,2.5-2.1,2.1c-1.3-0.3-1.8-1.2-2-2.5
			C446.7,728.9,447.3,725.7,453.2,725.8z"/>
		<path class="st12" d="M250,715c1.7,1.3,3.5,2.5,5.2,3.8c3.6,2.9,3.6,3.3,0.7,8.1C253.7,722.8,250.9,719.4,250,715
			C250.1,714.9,250,715,250,715z"/>
		<path class="st6" d="M389.7,719.2c-3.2,0.2-6.3,0.3-9.5,0.5c1.1-3.1,6.1-6.3,8.6-5.2C391.1,715.5,389.9,717.5,389.7,719.2z"/>
		<path class="st12" d="M560.2,672.2c-3.8,3.5-7.5,7-11.3,10.4c-0.6,0.6-1.3,1.2-2.1,0.3c-0.7-0.7-0.6-1.6,0.1-2.2
			c3.9-3.4,7.8-6.8,11.8-10.2C559.1,671.1,559.6,671.7,560.2,672.2z"/>
		<path class="st6" d="M556,685c2.3-0.3,4.7-0.7,7-1c-2.5,3.9-6.6,5.7-10.5,7.9c-1.5-3.1,0.7-4.4,2.4-5.9
			C555.3,685.6,555.6,685.3,556,685L556,685z"/>
		<path class="st6" d="M597.8,701.7c2.8,1.8,5.5,3.5,8.3,5.3c-0.5,1.4-1.7,2.1-2.9,2.8c-2.4-1.5-4.7-2.9-7.1-4.4
			C595.9,703.8,596.3,702.5,597.8,701.7z"/>
		<path class="st9" d="M411.1,727.6c0.4-1.4-0.7-3.9,2.2-3.4c1.8,0.4,3.9,1.2,3.8,3.9c-0.1,2.8-2.4,3.1-4.2,3.2
			C410,731.4,411.6,728.9,411.1,727.6z"/>
		<path class="st12" d="M544.7,686.9c-1,2.6-3.1,4.1-5.7,4.8c-1.1,0.3-2.1-0.5-1.7-1.7c1-2.6,3-4.4,5.3-5.5
			C543.9,683.9,544.2,685.8,544.7,686.9z"/>
		<path class="st9" d="M785.5,656.8c2,0.3,4,0.4,5.5,2l-0.1,0.2c-0.6,0.1-1,0.4-1,1l0.1-0.1c-3.4-0.2-5.1,3.4-8.9,3.8
			C782.4,661,783.3,658.6,785.5,656.8z"/>
		<path class="st7" d="M334,715.7c2.6,0.1,5.2,0.2,7.8,0.3c0.5,1.7,0,3.4-1.8,3.2c-2.4-0.2-4.9,1.7-7-0.1
			C332,718.1,333.1,716.7,334,715.7z"/>
		<path class="st9" d="M316.9,726c0.4-2.1,0.9-4.1,1-6.2c0.2-2.9,1.7-3.1,3.9-2.2C321.3,721,321.8,725.1,316.9,726z"/>
		<path class="st8" d="M678.9,552c-2-3.5,0.9-6.9,0.2-10.4c-0.1-0.7,0.6-1.3,1.3-1c0.5,0.2,1.2,0.8,1.3,1.3c0.5,1.9,0.7,3.8,1.1,5.7
			C677.6,545.6,680.9,551.1,678.9,552z"/>
		<path class="st9" d="M453.7,712.2c2,5.4,1.7,6-4.2,7C450.3,716.4,451.6,714.2,453.7,712.2z"/>
		<path class="st12" d="M267.1,736.9c1,2.2,2.1,4.4,3.1,6.6c0.4,0.8,0.8,1.6-0.2,2.1c-0.8,0.4-1.6-0.1-2.2-0.7
			C265.3,742.6,266.4,739.7,267.1,736.9z"/>
		<path class="st9" d="M414.2,715.1c1.1,0.4,1.5,2.1,3,1.8c0,0.5,0.1,1,0,1.5c-0.2,1.4,0.7,3.2-0.8,4c-1.1,0.7-2.5-0.3-3.5-1.2
			c-1.4-1.3-0.4-2.7,0.1-4C413.2,716.4,413.7,715.7,414.2,715.1z"/>
		<path class="st9" d="M460.7,739.9c-6.4-1.6-6.5-1.8-2.3-6.2C459.8,735.5,460.1,737.5,460.7,739.9z"/>
		<path class="st9" d="M596.2,705.4c2.4,1.5,4.7,2.9,7.1,4.4c-0.9,1.1-1.6,2.7-3.5,1.3C597.8,709.7,595.4,708.5,596.2,705.4z"/>
		<path class="st11" d="M315,715.1c-0.7,4.3-1.4,8.6-2,12.9c-3,1.1-2-1.4-1.7-2.3C312.1,722.1,313,718.4,315,715.1z"/>
		<path class="st12" d="M196.3,754.8c-2.4-1.6-3.3-3.4-2.9-5.7c0.1-0.7,1-0.8,1.6-0.4C197.2,750.1,197.3,752.1,196.3,754.8z"/>
		<path class="st6" d="M581.8,696c-1.6-0.8-3.2-1.6-4.8-2.4c0.5-1.4,1.4-2.9,3.1-2.2C581.9,692.2,581.8,694.3,581.8,696z"/>
		<path class="st5" d="M786.8,536c-0.5,0.3-1.1,0.6-1.6,0.9c-0.1-2.4,0.4-4.8,1.5-7c0.4,0,0.7,0,1.1,0
			C787.5,532,787.1,534,786.8,536z"/>
		<path class="st12" d="M566.1,665c-0.4,0.8-0.9,1.7-2,1.7c-0.1,0-0.5-0.5-0.4-0.6c0.4-1,1.3-1.3,2.3-1.3L566.1,665z"/>
		<path class="st12" d="M347.1,680c0.1-0.7,0.2-1.4,0.3-2.4C348.1,678.8,347.7,679.4,347.1,680C347,680,347.1,680,347.1,680z"/>
		<path class="st12" d="M244,760c0.4,0.1,0.8,0.2,1.3,0.3C244.6,761.2,244.4,760.4,244,760C244.1,759.9,244,760,244,760z"/>
		<path class="st14" d="M878.4,703.5c-0.6,0-1.8,0.2-1.8,0.1c-0.2-0.9,0.7-0.7,1.1-0.9C877.9,703,878.2,703.3,878.4,703.5z"/>
		<path class="st2" d="M220.1,702.9c0.1,0.1,0.3,0.3,0.4,0.4c-0.1,0-0.2,0-0.3-0.1C220.1,703.2,220.1,703.1,220.1,702.9
			C220,703,220.1,702.9,220.1,702.9z"/>
		<path class="st12" d="M556,685c-0.4,0.3-0.7,0.7-1.1,1C555.3,685.6,555.6,685.3,556,685z"/>
		<path class="st12" d="M250.1,714.9c-0.1-0.1-0.3-0.1-0.4-0.2C249.8,714.8,249.9,714.9,250.1,714.9
			C250,715,250.1,714.9,250.1,714.9z"/>
		<path class="st12" d="M565.9,664.9c0.3-0.3,0.7-0.6,1-1l0.1,0.1C566.7,664.3,566.3,664.7,565.9,664.9
			C566.1,665,565.9,664.9,565.9,664.9z"/>
		<path class="st12" d="M566.9,663.9c0.3-0.3,0.7-0.7,1-1l0.1,0.1C567.7,663.3,567.3,663.7,566.9,663.9L566.9,663.9z"/>
		<path class="st11" d="M698,661c-0.1,0.1-0.1,0.3-0.2,0.4C697.8,661.2,697.9,661.1,698,661C697.9,661,698,661,698,661z"/>
		<path class="st12" d="M225.1,723.9c0.1,0.2,0.3,0.3,0.4,0.5c-0.1,0-0.2,0-0.3-0.1C225.1,724.2,225.1,724.1,225.1,723.9
			C225.1,724,225.1,723.9,225.1,723.9z"/>
		<path class="st8" d="M682.8,548c0.6,0.2,1,0.4,0.3,1C683,548.6,682.9,548.3,682.8,548z"/>
		<path class="st6" d="M750.9,730c0.3-0.3,0.5-0.6,0.8-0.9C751.5,729.4,751.2,729.7,750.9,730z"/>
		<path class="st14" d="M352.1,775c0-0.2,0.1-0.4,0.1-0.6c0.1,0.1,0.2,0.1,0.4,0.2C352.4,774.7,352.2,774.8,352.1,775
			C352,774.9,352.1,775,352.1,775z"/>
		<path class="st13" d="M435,402.5c-0.2-3,1.5-5.1,3.9-5.8c12.5-3.5,23.8-9.9,36-13.9c6.5-2.2,13.4-1.2,20.1,0.2
			c5.4,1.1,6.3,4.1,2.9,8.5c-3,3.9-7.2,6.4-11.4,8.7c-7.6,4.1-15.2,8.2-21.2,14.7c-2.8,3-6.2,3.4-10,1.4c-5.9-3.1-11.8-6.1-17.8-9
			C435.5,406.2,434.7,404.6,435,402.5z"/>
		<path class="st15" d="M528,403.8c5.8,0.2,11.6-0.5,17.3,1.2c5.3,1.6,7.5,4.8,5.7,10.1c-3,8.7-8.3,16.6-17.5,18.8
			c-11.6,2.7-21.2,8.1-29.4,16.5c-1.4,1.4-2.8,2.9-5.1,2.7c5-7.6,11.1-14.5,14.9-22.8c1.5-3.3,3-6.6,3.8-10.2
			c1.1-2.1,0.4-5.1,3.4-6.3c0.3-0.1,0.6-1,0.5-1.2c-3.3-3.9,1.1-5.3,2.4-7.7c1.7,0.1,1.3,2.1,2.6,2.9
			C527.2,406.3,527.6,405.1,528,403.8z"/>
		<path class="st13" d="M355.5,479c4.9,0.3,8.4,0.6,11.2-2.3c0.8-0.8,2.2-0.9,3.2-0.1c1.3,1,0.5,2-0.1,3c-0.3,0.5-0.7,1.4-0.4,1.8
			c3.3,4.7,1.4,5-2.9,3.7c-1.1-0.3-1.6,1-1.9,1.9c-0.4,1.1-0.6,2.2-0.9,3.4c-2.4,9.9-2.4,10.1-12.5,10.3c-8.6,0.2-17.2,0.1-25.7,2
			c-3.3,0.7-4.6-1.9-6.2-4c-1.7-2.1,0.2-3.2,1-4.7c5.6-10.2,16-11.5,25.8-13.8C349.6,479.4,353.2,478.5,355.5,479z"/>
		<path class="st13" d="M352.9,384.7c0.9-4.6,3.6-9,8.8-11.5c5-2.4,10.4-3.3,15.8-4c0.6-0.1,1.5-0.2,2,0.1
			c5.6,3.9,11.8,1.3,17.7,1.6c2.3,0.1,5-0.4,6.1,2.3c1,2.4-1.1,3.9-2.5,5.5c-2.1,2.3-3.4,4.9-3.8,7.9c-0.5,4-2.9,5.3-6.3,3.9
			c-10.3-4.2-20.4-2.7-30.7-0.2C355.1,391.6,352.9,390,352.9,384.7z"/>
		<path class="st13" d="M407.3,423.1c0.8,0.2,1.8,0.3,2.7,0.7c4.6,2.2,9.1,4.8,14,6.4c1.4,0.5,2.9,1.4,2.7,3.1c-0.2,1.6-2,1.5-3.1,2
			c-1.5,0.7-2.9,0.4-4.3,0s-3.1-0.6-4.3,0.5c-3.7,3.6-8.6,3.4-13.1,4c-3.9,0.6-7.9,0-11.9,1.1c-1.3,0.4-2.7,0.2-3.5-1.2
			c-0.5-1-0.4-2,0.3-2.8c5.2-5.6,11-10.6,18.2-13.5C405.7,423.1,406.4,423.1,407.3,423.1z"/>
		<path class="st1" d="M348,555c0.3,6.2-1.4,11.6-2.6,17.1c-1.5,6.5-5.2,10.8-12.1,12.4c-5.5,1.3-10.8,3.3-16.2,4.9
			c-6.2,1.9-8.3,0.5-8.1-5.7c0.6-15.2,6-27.5,20.3-34.9c4.5-2.3,9.2-4.4,12.5-8.7c1.5-2,3.7-1,4,1.3C346.4,546,348.9,550.5,348,555z
			"/>
		<path class="st1" d="M253.1,635.1c-0.9-5.5,2.2-9.9,5.6-14c3.9-4.9,8.1-9.6,12-14.5c0.8-1,1.4-1.9,2.8-1.2c0.8,0.4,1.4,1,1.2,2
			c-1.7,6.5,1.8,12.2,2.9,18.3c0.7,4.2,0,7.2-3.6,9.3c-5.4,3.2-10.5,6.5-14.2,11.9c-1.6,2.5-3.9,1-4.9-1.3
			C253.6,642.3,252.8,639,253.1,635.1z"/>
		<path class="st1" d="M205,529.1c3.2-1.2,6.5-1,9.8-1c12.4,0.1,24.9,0.1,37.3,0.2c-0.5,2.7-2.7,3.1-4.8,3.8c-5.6,2-11.2,4-16.8,5.9
			c-1.6,0.6-3.3,1-4.3,2.4c-2.4,3.2-5.9,3.2-9.1,2.4c-4.5-1.1-8.9-0.5-13.4-0.7c-1.5,0-3.3,1.7-4.4-0.6c-0.9-1.8-0.3-3.5,0.5-5.3
			C201.1,533.4,204.7,532.4,205,529.1z"/>
		<path class="st0" d="M163.6,660.2c-4.7-0.9-7.6-3.9-9.4-8.1c0.8,0,1.7,0,2.5,0C164.4,652.2,164.4,652.2,163.6,660.2z"/>
		<path class="st0" d="M341.8,637.9c0,0.1-0.1,0.3-0.1,0.4c-0.1-0.1-0.3-0.3-0.4-0.5c0,0,0.2-0.2,0.3-0.3
			C341.7,637.7,341.8,637.8,341.8,637.9z"/>
		<path class="st0" d="M820.3,564.7c-3.7-0.3-7.4-0.6-11.1-0.8c2.8-5.3,6.9-9.7,10.5-14.4c0.7-0.9,1.4-2.1,2.8-1.7
			c1.6,0.5,1.6,2.1,1.3,3.4C822.6,555.7,821.4,560.2,820.3,564.7z"/>
		<path class="st15" d="M592.9,295.7c2.3,5.5-0.7,10.7-1,16.1c-0.1,2.6-1.1,5.2-1.4,7.8c-0.8,9.2-6.9,13-14.9,14.1
			c-6.6,0.9-13.1,2.1-19.4,4.3C566.5,322.2,578.4,307.8,592.9,295.7z"/>
		<path class="st15" d="M662.2,266.1c-2.4,2.2-5,4-8.1,5c-9.3,2.6-18.7,0.9-28,0.9h0.1c0.1-0.2,0.1-0.4-0.1-0.6
			c5.5-3.1,11.3-5.6,17.2-7.8c9.8-3.5,18.3-10,28.6-12.2c2.1-0.4,4.2-1,6.3-1.5c-0.1,0.7-0.2,1.4-0.2,2.1h0.1c-0.8-0.1-1.1,0.3-1,1
			l0,0c-0.8-0.1-1.1,0.3-1,1l0,0c-0.8-0.1-1.1,0.3-1,1l0,0c-0.8-0.1-1.1,0.3-1.1,1v-0.1c-1.2,0.1-2,0.7-2,2l0.1,0.1
			c-1-0.2-1.5,0.4-1.9,1.1l0,0c-1.3,0.7-2.3,1.6-3.1,2.9l0,0c-0.3,0.3-0.7,0.7-1,1l0,0c-0.6,0.1-1,0.4-1,1l0,0c-0.7,0-1.1,0.3-1,1
			v-0.1C663,264.8,662.4,265.2,662.2,266.1z"/>
		<path class="st15" d="M614.6,279.1c4.5,1.8,4.3,4.9,2.1,8.4c-2.4,3.8-5.6,6.9-9.1,9.7c-1.7,1.4-3.6,2.6-5.8,1
			c-2-1.4-1.7-3.4-1.4-5.4c0.2-1.3,0.5-2.6,0.8-3.9C605.2,285,609.3,281.3,614.6,279.1z"/>
		<path class="st12" d="M677.8,252c0.1-0.7,0.2-1.4,0.2-2.1c0.5-0.8,1.2-0.7,2-0.6C679.8,250.7,679.3,251.7,677.8,252z"/>
		<path class="st12" d="M626,271.3c0.2,0.2,0.2,0.4,0.1,0.6c-0.4,0-0.7,0-1.1,0.1C625.3,271.8,625.7,271.6,626,271.3z"/>
		<path class="st15" d="M677.9,378c-2.8,3.6-6.9,5.6-10.6,8.1c-2.5,1.6-5.2,2.9-6.9,5.6c-1.2,1.8-3.2,2.3-5.3,1.9
			c-5.3-1.1-10.3-2.9-14.5-6.4c-4.3-3.5-4.8-6.4-2.3-11.4c2-4.2,5.3-7.2,9-9.8c4.4-3.1,8.2-6.7,10.7-11.6c2.5-4.8,6.9-7.6,12-9.1
			c4.5-1.4,8.9-2.6,13-5.1c1.9-1.1,4.1-1.9,6.1-0.5c2.2,1.5,1.2,3.8,1.1,6c-0.1,1.9-0.9,3.5-1.4,5.3
			C683.7,359.2,681.5,368.9,677.9,378z"/>
		<path class="st15" d="M627.9,371.2v0.4c-0.8,0.7-1.4,1.4-1,2.5V374c-0.8-0.1-1.2,0.2-1,1l0,0c-0.8-0.1-1.2,0.2-1,1v-0.1
			c-6.7,2.7-13.3,5.4-20,8.1l0,0c-0.8,0-1.7,0.1-2.1,1h0.1c-1.2-0.1-2.4-0.3-3,1l0,0c-3.6-0.1-7.5,2.6-10.9-1v0.1c0.2-0.9,0-1.7-1-2
			v0.1c-2.3-7.9-1.5-15.5,2-22.9l0,0c1-0.3,1.3-1,1-2v0.1c1.5-0.4,2.1-1.5,2-3.1h-0.1c0.8,0.1,1-0.4,1-1.1v0.1c2.2-1,2.8-2.9,3-5.1
			v0.1c0.9-0.4,1.3-1,1.1-2v0.1c3.3-2.7,6.9-4.2,11.3-4.5c3.9-0.3,7,1.8,10.5,2.5v-0.1c-0.1,0.8,0.4,1,1,1l0,0c0,0.7,0.4,1,1,1l0,0
			c0.3,1.1,0.9,1.8,2,2v-0.1c0,0.7,0.3,1.1,1,1.1h-0.1c-0.2,1,0.2,1.6,1.1,2l0,0c0,0.9,0.2,1.6,1,2l0,0
			C628.5,359.7,629,365.4,627.9,371.2z"/>
		<path class="st15" d="M605.8,324.9c1.1-6.7,4.5-11.5,7.4-16.4c3.6-6,8.2-11.3,12.7-16.7c2.7-3.2,5.4-6.3,7.4-10
			c2.4-4.6,7.2-4.6,9.9-0.3c6.1,10.1,6.6,20.7,2.2,31.6c-1.3,3.2-3.9,4.9-7.1,5.8c-5.6,1.5-11.2,2.7-17.1,2.4
			C616.2,321.1,611.3,322.8,605.8,324.9z"/>
		<path class="st15" d="M542.6,479.2c-4.3,0-7.8,0-11.3,0c-1.7,0-3.4-0.3-4-2.2c-0.6-1.9,0.5-3.2,1.7-4.4c0.5-0.5,1-0.9,1.5-1.3
			c9.1-5.2,15.4-13,20.4-22.1c2-3.6,5.9-3.7,9.2-4.1c5.3-0.5,10.6-0.4,16-0.3c3.4,0.1,5,2.1,5.1,5.6c0,3.4-1.2,6.2-3.6,8.5
			c-5.4,5.4-11,10.7-16.4,16.1C555.6,480.9,548.5,478.7,542.6,479.2z"/>
		<path class="st15" d="M568.8,366.2c-0.6,8.1-1.3,16.2-0.8,24.4c0.2,2.8-1.1,4.3-3.7,5.1c-6.4,2-13,3-19.7,2.3
			c-5.9-0.6-8.4-5.4-8.1-13.2c0.3-8.5,5.9-13.5,11.6-18.3c3.7-3.1,7.9-5.5,11.9-8.2c2.2-1.4,4.6-2.4,7.1-1.1
			c2.6,1.4,1.6,4.1,1.6,6.3C568.8,364.6,568.8,365.4,568.8,366.2z"/>
		<path class="st7" d="M668.1,304c-1.7-5-1.4-10.2-0.8-15.3c0.1-0.9,1.4-2.3-0.9-2.3c-4.6,0-2.5-2.7-1.2-3.9c5-4.4,11-5.7,17.6-4.7
			c5.6,0.9,7.2,5.2,8.7,9.7c1,3,0.4,5.9-1.1,8.6c-2.9,5.2-5.8,10.5-11.6,13C674,310.1,670.5,308.1,668.1,304z M669.3,284.7
			c0-0.1,0-0.3-0.1-0.3c-0.1-0.1-0.3,0-0.4-0.1c0,0.2,0.1,0.3,0.1,0.5C669,284.8,669.1,284.7,669.3,284.7z"/>
		<path class="st15" d="M668.1,304c2.4,4.1,5.9,6.1,10.7,5.1c1.8,1.7,2,3.5,0.8,5.8c-2.1,3.9-4,8.1-6.1,12c-2.8,5.3-15.7,9.1-21,6.2
			c-2.6-1.4-4.3-3.8-3.1-6.6c3.4-7.8,8-14.9,14-21C664.7,304.4,666.4,304.1,668.1,304z"/>
		<path class="st7" d="M626.5,519.7c-8.8,43.8-32.9,77.8-68,105.7c0.2-2.7,1.5-3.7,2.7-5c10.6-11.5,21.2-23,31.5-34.7
			c11-12.4,17.3-27.5,23.2-42.7c2.2-5.6,4.1-11.2,6.3-16.8C623.1,523.8,624.1,521.3,626.5,519.7z"/>
		<path class="st15" d="M477.6,503.1c-5.1,0-6.4-2-4.4-6.3c1.6-3.5,4.4-6.3,6.9-9.1c3.3-3.7,7.4-6.7,10.3-10.8
			c0.7-1,1.7-1.9,2.9-1.5c1.6,0.5,1.6,1.9,1.5,3.3c-0.3,2.3,0.6,4.2,1.5,6.2c2.2,5.2-0.2,12-5.2,14.6
			C486.7,501.8,482,502.8,477.6,503.1z"/>
		<path class="st11" d="M677.9,378c3.6-9.1,5.8-18.7,10.9-27.2c0.3,5.1-0.4,10.1-0.5,15.1C688.3,371.4,683.3,375.6,677.9,378z"/>
		<path class="st6" d="M655.8,558.7c3.1,5.1,3.2,10.9,3.5,16.6C656.8,570,655.7,564.5,655.8,558.7z"/>
		<path class="st12" d="M626,272c9.3,0,18.8,1.7,28-0.9c-6.2,4.3-13.3,3.2-20.1,2.6C631.4,273.4,628.2,274.2,626,272z"/>
		<path class="st12" d="M619.9,345.1c-3.5-0.6-6.6-2.8-10.5-2.5c-4.3,0.3-8,1.8-11.3,4.5c-0.2-1.3,0.4-2.2,1.3-3
			C603.2,340.6,616.2,341.2,619.9,345.1z"/>
		<path class="st12" d="M604.9,384c6.7-2.7,13.3-5.4,20-8.1C619.3,381.1,612.2,382.9,604.9,384z"/>
		<path class="st12" d="M590.1,360.1c-3.4,7.4-4.3,15-2,22.9C584.1,377.5,585.2,364.7,590.1,360.1z"/>
		<path class="st12" d="M627.9,371.2c1.1-5.8,0.6-11.5-1-17.1C630.7,359.5,630.8,365.3,627.9,371.2z"/>
		<path class="st12" d="M589.1,384.9c3.3,3.6,7.2,0.9,10.9,1C594,389.3,590.9,389,589.1,384.9z"/>
		<path class="st12" d="M597.1,349.1c-0.2,2.2-0.8,4.1-3,5.1C594.1,351.9,595.6,350.5,597.1,349.1z"/>
		<path class="st12" d="M593.1,355.1c0.1,1.5-0.5,2.6-2,3.1C590.9,356.6,591.6,355.6,593.1,355.1z"/>
		<path class="st12" d="M666.9,262c0.7-1.3,1.8-2.3,3.1-2.9C669.9,261,668.9,262,666.9,262z"/>
		<path class="st12" d="M671.8,257.9c0.1-1.3,0.8-1.9,2-2C673.9,257.4,673.3,258.1,671.8,257.9z"/>
		<path class="st12" d="M599.9,386c0.7-1.3,1.9-1.1,3-1C602.3,386.3,601.1,386,599.9,386z"/>
		<path class="st12" d="M623.9,349.1c-1.1-0.3-1.7-1-2-2C623.3,347,624,347.7,623.9,349.1z"/>
		<path class="st0" d="M648,676c-0.4,0.8-1.1,1.1-1.9,1.1l-0.2-0.3c0.4-0.8,1.2-1,2-1L648,676z"/>
		<path class="st12" d="M602.9,385c0.4-0.9,1.2-1,2.1-1C604.6,384.9,603.8,385,602.9,385z"/>
		<path class="st12" d="M588.1,382.9c1,0.3,1.2,1.1,1,2C588.1,384.6,588,383.8,588.1,382.9z"/>
		<path class="st12" d="M662.2,266.1c0.3-0.9,0.9-1.2,1.8-1.1C663.6,265.8,662.9,266,662.2,266.1z"/>
		<path class="st12" d="M626.9,374c-0.4-1.1,0.3-1.8,1-2.5C627.9,372.5,628,373.5,626.9,374z"/>
		<path class="st12" d="M591.1,358.1c0.2,1-0.1,1.7-1,2C590,359.2,590.1,358.4,591.1,358.1z"/>
		<path class="st12" d="M670,259.1c0.4-0.7,0.9-1.4,1.9-1.1C671.6,258.9,670.8,259,670,259.1z"/>
		<path class="st12" d="M626.9,354.1c-0.8-0.4-1.1-1.2-1-2C626.8,352.4,627,353.2,626.9,354.1z"/>
		<path class="st12" d="M625.9,352.1c-0.9-0.4-1.3-1-1.1-2C625.8,350.4,626,351.2,625.9,352.1z"/>
		<path class="st12" d="M598.1,347.1c0.2,1-0.1,1.7-1.1,2C597,348.2,597.1,347.4,598.1,347.1z"/>
		<path class="st0" d="M647.9,675.9c0.2-0.1,0.4-0.3,0.5-0.4c-0.1,0.2-0.3,0.4-0.4,0.6C648,676,647.9,675.9,647.9,675.9z"/>
		<path class="st12" d="M676.9,253c-0.1-0.8,0.3-1.1,1-1C677.6,252.3,677.2,252.7,676.9,253z"/>
		<path class="st0" d="M616.9,663.9c0.2-0.1,0.4-0.3,0.5-0.4C617.3,663.7,617.2,663.8,616.9,663.9C617,664,616.9,663.9,616.9,663.9z
			"/>
		<path class="st12" d="M675.9,254c-0.1-0.8,0.3-1.1,1-1C676.6,253.3,676.2,253.7,675.9,254z"/>
		<path class="st12" d="M674.9,255c-0.1-0.8,0.3-1.1,1-1C675.6,254.3,675.2,254.7,674.9,255z"/>
		<path class="st12" d="M673.8,256c0-0.8,0.3-1.1,1.1-1C674.6,255.3,674.2,255.6,673.8,256z"/>
		<path class="st12" d="M621.9,347.1c-0.7,0-1-0.4-1-1C621.2,346.4,621.6,346.8,621.9,347.1z"/>
		<path class="st12" d="M665.9,263c0.3-0.3,0.7-0.7,1-1C666.6,262.3,666.3,262.7,665.9,263z"/>
		<path class="st12" d="M664.9,264c0-0.7,0.4-1,1-1C665.6,263.3,665.2,263.7,664.9,264z"/>
		<path class="st12" d="M663.9,265c0-0.7,0.4-1,1-1C664.6,264.3,664.2,264.7,663.9,265z"/>
		<path class="st12" d="M624.9,376c-0.1-0.8,0.2-1.2,1-1C625.6,375.3,625.2,375.6,624.9,376z"/>
		<path class="st12" d="M625.9,375c-0.1-0.8,0.2-1.2,1-1C626.6,374.3,626.2,374.6,625.9,375z"/>
		<path class="st12" d="M620.9,346.1c-0.7,0-1.1-0.3-1-1C620.2,345.4,620.6,345.8,620.9,346.1z"/>
		<path class="st12" d="M594.1,354.1c0,0.7-0.2,1.1-1,1.1C593.4,354.8,593.7,354.4,594.1,354.1z"/>
		<path class="st12" d="M624.9,350.1c-0.8,0.1-1-0.4-1-1.1C624.2,349.4,624.6,349.8,624.9,350.1z"/>
		<path class="st0" d="M567.9,659.8c0.4-0.5,1.1-1,1.4-0.4c0.4,0.8-0.6,0.6-1,0.9C568.1,660.1,568,659.9,567.9,659.8z"/>
		<path class="st0" d="M355.8,642.8c0.2-0.7,0.5-1.4,0.7-2c0.1,0.1,0.3,0.2,0.3,0.3c0.1,0.8,0.1,1.5-0.7,2
			C356.1,643.1,355.8,642.8,355.8,642.8z"/>
		<path class="st0" d="M789.9,660c0-0.7,0.4-0.9,1-1C790.6,659.3,790.3,659.7,789.9,660z"/>
		<path class="st6" d="M669,584c0.3,0.1,0.6,0.1,0.9,0.2c-0.1,0.1-0.2,0.3-0.3,0.4C669.4,584.4,669.2,584.2,669,584L669,584z"/>
		<path class="st10" d="M669.3,284.7c-0.1,0-0.3,0.1-0.4,0.1c0-0.2-0.1-0.3-0.1-0.5c0.1,0,0.3,0,0.4,0.1
			C669.2,284.4,669.2,284.6,669.3,284.7z"/>
	</g>
</g>
</svg>
