<?xml version="1.0" encoding="utf-8"?>
<!-- Generator: Adobe Illustrator 24.1.0, SVG Export Plug-In . SVG Version: 6.00 Build 0)  -->
<svg version="1.1" id="Layer_1" xmlns="http://www.w3.org/2000/svg" xmlns:xlink="http://www.w3.org/1999/xlink" x="0px" y="0px"
	 viewBox="0 0 1250 1250" style="enable-background:new 0 0 1250 1250;" xml:space="preserve">
<style type="text/css">
	.st0{fill:none;stroke:#FFC2C2;stroke-width:40;stroke-miterlimit:10;}
	.st1{fill:#FFC2C2;stroke:#FFC2C2;stroke-width:40;stroke-miterlimit:10;}
	.st2{fill:#FFE6C5;stroke:#FFE6C5;stroke-width:40;stroke-miterlimit:10;}
	.st3{fill:#DAC0FF;}
	.st4{fill:#FF00E1;}
	.st5{fill:#5B04BF;}
	.st6{fill:#78FFBE;}
	.st7{fill:#9F4FFC;}
	.st8{fill:#FEFF6D;}
	.st9{fill:none;stroke:#8200FF;stroke-width:6;stroke-miterlimit:10;}
	.st10{fill:#8200FF;stroke:#8200FF;stroke-miterlimit:10;}
	.st11{stroke:#000000;stroke-miterlimit:10;}
	.st12{fill:none;stroke:#000000;stroke-width:6;stroke-miterlimit:10;}
	.st13{fill:none;stroke:#000000;stroke-width:5;stroke-miterlimit:10;}
</style>
<g id="Layer_1_1_">
</g>
<g id="Layer_5">
	<path class="st0" d="M296.3,881.5c5.3,40.2,35.5,79.3,53.7,116c18.2,36.7,52.6,68.3,92.4,84.5c24.7,10.1,51.9,13.2,78.8,14.8
		c78.4,4.6,157.6-3.2,233.1-23.2c64.4-17,130.8-46.6,161.6-102c27.4-49.3,21.1-109,5.4-162.6s-39.9-105.4-46.8-160.5
		c-5.7-45.6,0.9-92.5,18.5-135.3c-41.1,40.3-101.2,63.1-160.8,60.8c-51.8-32.4-95.7-75.8-127.4-125.9
		c-24.6-38.8-41.7-81.3-61.1-122.6c-19.2-40.7-40.7-80.5-64.4-119.1c-14.1-22.9-33.4-48-61.6-49.1c25.7,48.1,16.5,106.4-4.6,156.4
		s-53.3,95.4-74.4,145.4c-27.6,65.3-35.3,136.2-42.8,206.2c-6.1,57.2-12,114.8-6.5,172s23.4,114.7,60.7,160.4"/>
	<rect x="341.3" y="569.2" class="st1" width="527.7" height="391.5"/>
	<rect x="316.8" y="707.4" class="st1" width="7.7" height="200.2"/>
	<path class="st1" d="M400.8,1017.9L400.8,1017.9c-16.1,0-29.1-13-29.1-29.1l0,0c0-16.1,13-29.1,29.1-29.1l0,0
		c16.1,0,29.1,13,29.1,29.1l0,0C429.9,1004.9,416.8,1017.9,400.8,1017.9z"/>
	<path class="st1" d="M499.3,672.7L499.3,672.7c-16,0-29.1-13-29.1-29.1l0,0c0-16,13-29.1,29.1-29.1l0,0c16,0,29.1,13,29.1,29.1l0,0
		C528.4,659.7,515.4,672.7,499.3,672.7z"/>
	<path class="st1" d="M547.4,1091.4h-58.5c-16,0-29.1-13-29.1-29.1v-86.6c0-16.1,13-29.1,29.1-29.1h58.5c16,0,29.1,13,29.1,29.1
		v86.6C576.5,1078.4,563.5,1091.4,547.4,1091.4z"/>
	<path class="st1" d="M426.7,693.1h-58.5c-16.1,0-29.1-13-29.1-29.1v-86.5c0-16,13-29.1,29.1-29.1h58.5c16,0,29.1,13,29.1,29.1v86.6
		C455.8,680.1,442.8,693.1,426.7,693.1z"/>
	<path class="st1" d="M673.8,1090h-58.5c-16,0-29.1-13-29.1-29.1v-86.6c0-16.1,13-29.1,29.1-29.1h58.5c16.1,0,29.1,13,29.1,29.1
		v86.6C702.9,1077,689.8,1090,673.8,1090z"/>
	<path class="st1" d="M750.7,1053.7h-58.5c-16,0-29.1-13-29.1-29.1V938c0-16.1,13-29.1,29.1-29.1h58.5c16,0,29.1,13,29.1,29.1v86.6
		C779.8,1040.7,766.7,1053.7,750.7,1053.7z"/>
	<path class="st1" d="M842.4,1035.2h-58.5c-16,0-29.1-13-29.1-29.1v-86.6c0-16.1,13-29.1,29.1-29.1h58.5c16,0,29.1,13,29.1,29.1
		v86.6C871.4,1022.2,858.4,1035.2,842.4,1035.2z"/>
	<path class="st1" d="M898.2,971.3h-58.5c-16,0-29.1-13-29.1-29.1v-125c0-16,13-29.1,29.1-29.1h58.5c16,0,29.1,13,29.1,29.1v125
		C927.3,958.3,914.2,971.3,898.2,971.3z"/>
	<path class="st1" d="M627.1,658.3h-58.5c-16,0-29.1-13-29.1-29.1v-86.6c0-16,13-29.1,29.1-29.1h58.5c16,0,29.1,13,29.1,29.1v86.6
		C656.2,645.2,643.1,658.3,627.1,658.3z"/>
	<rect x="456.7" y="400.5" class="st1" width="116.6" height="144.7"/>
	<path class="st1" d="M493.3,461h-58.5c-16.1,0-29.1-13-29.1-29.1v-86.6c0-16,13-29.1,29.1-29.1h58.5c16,0,29.1,13,29.1,29.1v86.6
		C522.3,448,509.3,461,493.3,461z"/>
	<path class="st1" d="M462.8,300.9L462.8,300.9c-16,0-29.1-13-29.1-29.1v-26.3c0-16,13-29.1,29.1-29.1l0,0c16,0,29.1,13,29.1,29.1
		v26.3C491.8,287.9,478.8,300.9,462.8,300.9z"/>
</g>
<g id="Layer_6">
	<path class="st2" d="M437.3,880.1c-15.3-38.7-13.8-81.8-9.5-123.1c1.3-12.4,2.9-24.9,7.8-36.3c4.1-9.7,10.5-18.2,15.7-27.3
		c28.6-49.5,24.2-110.6,18.9-167.5c58,89.2,173.4,137,277.5,114.7c-6.3,44.8,14,88.4,29,131.1s24,93.4-1.8,130.6
		c-10.7,15.4-26.3,26.6-42.3,36.2C640.3,993.5,484.7,1000.2,437.3,880.1z"/>
</g>
<g id="Layer_4">
	<path class="st3" d="M617,493.9c-0.1-1.2-0.2-2.4-0.4-3.7c-0.8-6.3-10.8-6.4-10,0c0.2,1.2,0.3,2.5,0.4,3.8
		c0.3,4.6-0.1,8.8-2.4,13.2c-2.6,5-6,9.7-9.1,14.4c-6.4,9.7-13,19.2-20.6,28c-0.9,0.3-1.7,0.9-2.4,1.9c-3.7,5.2-8.2,9.7-12.9,14
		c-2.1,2-4.3,3.9-6.5,5.9c-1.6,1.4-6.5,7.4-8.8,6.9c-4.8-1.1-7.4,4.2-5.7,7.5c-1.5,0.1-2.9,0.1-4.4,0c-6.4-0.4-6.4,9.6,0,10
		c-1.4,1.6-2.7,3.5-4.4,4.9c-2.5,2.1-5.4,3-8.5,3.4c-6.4,0.9-3.6,10.5,2.7,9.6c1.1-0.2,2.1-0.4,3.1-0.7c1.1,2,3.6,3.6,6,3.2
		c9.2-1.5,18.6-2.4,27.6-4.8c2.3-0.6,4.5-1.4,6.7-2.3c6.6-1.7,12.9-5.5,17-9.8c1.3-1.4,1.6-3.1,1.2-4.7c1.3-0.2,2.5-0.7,3.8-1.7
		c3-2.2,4.7-6.6,8.5-7.3c5.5-1,4.2-8.1-0.2-9.5c3.9-4.4,6.5-9.9,8.5-15.6C613.3,539.5,618.9,516.2,617,493.9z"/>
	<path class="st3" d="M595.9,432.1c-4.2,9.1-8.4,18.2-13.9,26.5c-6.1,9.2-14,15.8-22.8,22.4c-9.2,6.9-18.5,13.8-27.8,20.7
		c-3.7,2.8-6.9,5.6-9.6,9.4c-2.3,3.2-4,6.9-6.1,10.2c-1,1.4-2,2.7-3,4.1c-1.1,1.5-1,3.2-0.2,4.6c-1.5,1.7-3,3.4-4.5,5.2
		c-7.5,8.9-14.5,18.2-20.9,27.9c-3.2,4.9,3.6,9.5,7.5,6.3c1.3,0.4,2.6,0.4,3.8-0.2c7-3,13.9-6,20.9-9.1c3.2-1.4,6.4-3.1,9.8-4
		c4-1,5.1,0.6,8.6,1.7c6.2,1.9,9.3-4.3,12-8.6c4-6.4,8-12.9,12-19.3c8-12.9,16-25.7,24-38.6c7-11.2,16-22.5,13.9-36.4
		c0-0.3-0.1-0.6-0.2-0.8c2.4-5.8,4.2-11.8,5.6-18C606.2,430.8,598.4,426.7,595.9,432.1z"/>
	<path class="st3" d="M1064.8,791.6c-0.3-4-0.8-8-1.8-12c-0.9-3.3-2.2-6.2-2.3-9.6c-0.2-7.5-3.8-11.3-10.6-14.1
		c-7.1-2.9-13.1-6.9-20.8-8.4c-5-1-10.4-1.9-15.6-1.8c-4.5-0.7-9-0.8-13.8-0.1c-6.5,1-12.7,3-19.2,3.9c-2.8,0.4-5.6,0.8-8.4,1.8
		c-3.3,1.1-7,3.4-10.6,2.9c-2.6-0.3-4.6,1.1-5.6,2.9c-3.2,0.2-6.5,1.4-9.6,3c-7.2,3.5-14.1,7.3-21.5,10.5
		c-6.2,2.6-12.3,5.4-17.6,9.6c-1.2,0.9-2.4,1.9-3.4,3c-2.5,1.2-4.6,3-6.7,5c-2.8,2.7-5.9,4.9-9,7.3c-5.8,4.5-12.7,10.9-15.8,17.7
		c-0.1,0.3-0.2,0.5-0.3,0.8c-1.5,1.5-2.8,3-4.2,4.6c-0.8,0.9-1.1,1.9-1.2,2.9c-9.3,7.1-16,17.2-21.3,27.7c-3.7,7.3-7,14.9-10.6,22.3
		c-2,4.1-4,8.3-5.8,12.6c-4.4,6.1-9,12.2-13.7,18c-0.6,0.7-0.9,1.4-1.1,2.2c-18,13.1-35.5,27-55.7,36.6c-0.9,0.4-1.5,1-2,1.7
		c-6.8,2.2-13.8,1.9-20.9,1.7c-7.8-0.2-15.6-0.6-23.4-1.1c-15.8-1.1-31.5-2.9-47.1-5.3c-0.3,0-0.5-0.1-0.8-0.1
		c-2.8-0.9-6.9,0.6-7.4,4.5c-0.2,1.8-0.5,3.6-0.7,5.4c-7.2-9.8-12.8-21.2-18.9-31.4c-3.6-6-6.7-13-12.2-17.7
		c-5.2-4.4-11.7-7.3-17.7-10.5c-1.4-0.8-2.8-0.8-3.9-0.5c-1.9-0.8-3.8-1.4-5.8-1.8c-1.2-0.2-2.3,0-3.2,0.5c-0.3-0.3-0.7-0.6-1.2-0.8
		c-7-3.5-13.9-4.8-21.5-6.6c-3.5-0.8-6.9-2.7-9.9-5c-0.2-0.8-0.6-1.5-1.2-2.2c-2.3-2.6-4.7-5.1-7.2-7.5c-0.1-1.6-0.9-2.7-1.9-3.5
		c-0.1-0.1-0.1-0.2-0.2-0.2c-5.4-6.3-9.9-13.3-13.4-20.9c-3.7-7.8-7.8-16-10.1-24.4c-0.1-0.4-0.3-0.8-0.5-1.1c1-1.1,1.5-2.6,1-4.4
		c-1.7-6.5-3.5-12.9-6.2-19c-2.6-5.9-5-11.4-6.1-17.6c0.4-0.5,0.7-1.2,0.8-2.1c1-7.3,2-14.6,3.2-21.9c0.5-3.2,0.9-6.5,1.8-9.6
		s2.5-5.8,3.8-8.8c2.6-6.1,4.6-12,7.8-17.9c2.6-4.9,5.1-9.8,6.7-15c1.1-0.5,2-1.5,2.4-3.1c4.1-16.7,8.2-33.6,8.7-50.8
		c0.2-6.7,0.3-14.8-4.5-20c-4.8-5.2-13.6-3.3-19.9-3.3c-3.1,0-5.9,3.2-4.8,6.3c3.6,11,2.5,22.5,1.2,33.8c0,0.3,0,0.6,0,0.9
		c-5.8,8.1-14.7,14.2-21.4,21.5c-6.3,6.8-6.9,18.1-8,26.9c-1.1,0.5-2.1,1.5-2.4,3.2c-2.6,13.9-6.5,27.4-11.8,40.5
		c-2.6,6.3-5.6,12.5-8.5,18.7s-5.6,12.7-10.4,17.8c-1.1,1.2-1.5,2.6-1.4,3.9l-17.4,40.1c-2.3,5.2-6.7,11.9-6.2,17.9
		c0.2,2.4,1.2,4,2.5,5.8c-0.5,4-0.6,8-0.4,12.1c0.2,4.3,4.8,5.7,7.7,4.2c0.9,17.6,0.9,35.6,5.6,52.6c2,7.2,5.6,13.9,7.1,21.2
		c2,9.4,3.1,19,3.5,28.7c0,1.2,0.5,2.2,1,2.9c-0.7,0.8-1.1,1.8-1.1,3.1c0.1,1.8,0.1,3.6-0.1,5.3c-0.4-11.5-4.1-22.7-6.6-34
		c-1.6-7.3-1.4-15-3.4-22.2c-2-7.1-7-12.5-12.1-17.5c-0.1-0.1-0.3-0.3-0.4-0.4c0.4-0.9,0.7-1.8,1-2.7c1.4-4.4-4.1-7.7-7.4-5.7
		c-0.7-0.4-1.5-0.7-2.4-0.7c-2.7,0-5.1,2.3-5,5c0.1,4,1.1,7.7,2.8,11.3c0.2,0.3,0.4,0.6,0.6,0.9c-1.1,3.8-2.2,7.6-3.3,11.3
		c-1,3.4,1.4,5.7,4.1,6.1c-0.9,6.7-2.9,13.2-5.8,19.4c-1.1,1.8-2,3.6-2.9,5.5c-1.1,2.4-0.4,4.7,1.2,6.1c-0.9,2.3-1.9,4.7-3,7
		c-2.9,6.5-5.9,14.6-11.4,19.4c-2.7,2.4-6.2,3.6-9.8,3.3c-2.4-0.2-4.6-1.2-6.8-1.9c0.2-0.3,0.4-0.6,0.7-0.9c3.1-4.1,0.3-9.1-4.9-8.4
		c-10.8,1.6-17,10.9-21.8,19.8c-1.2,2.2-0.6,4.4,0.8,5.9c-2.7,3.5-5.4,7-8.1,10.6c-1.3,1.7-0.7,4.7,0.8,6.1c0.2,0.4,0.5,0.8,0.7,1.2
		c-0.5,3,1.3,6.6,4.8,6.3c12.2-0.8,24.5-1.5,36.8-2.3c1.2-0.1,2.1-0.5,2.9-1.1c0.1,1,0.6,2,1.2,2.8c-1.2,1.8-1.4,4.2,0.3,6.3
		c0.2,0.3,0.3,0.7,0.5,1c1.9,4.2,7.9,2.5,9.1-1.2c1.2-3.8,5.8-7.5,8.7-10.1c2.1-1.9,4.2-3.7,6.4-5.4c-5.7,7-13.9,12-16.6,20.9
		c-1.4,4.5-1.1,9.7,1.5,13.7c3.3,5,7.6,4.2,12.3,1.9c2.8-1.4,4.9-2.3,7.7-0.5c2.1,1.4,3.5,3.6,5.6,5c4.2,2.8,10-0.1,13.9-2.3
		c4.6-2.5,6.2-7,7.2-11.9c0.5-2.7,1.1-5.2,1.7-7.7c-0.6,5.2-0.1,10.6,0,15.9c0.1,6.4,10.1,6.4,10,0c0-1.3-0.1-2.8-0.2-4.3
		c2,0.2,4.3-0.2,5.8,1.1c2.1,1.8,2.1,5.7,2.3,8.2c0.4,5.2,6.4,6.5,9.3,2.5c1.2-1.6,2.3-3.3,3.3-5c1.6,0.1,3.4-0.6,4.5-2.4
		c2.8-4.4,4.9-9,6.3-14c5.2-6.1,6.5-14.1,7-22.1c0.1-2.1,2.3-4.6,0.5-5.4c4-8.8-2.4-15.8-4.8-24.9c-2.5-9.2-2.2-19.2-6.1-27.9
		c-0.2-0.5-0.6-0.9-1-1.3c0.2-0.6,0.3-1.3,0.2-2.2c-1.6-12.8,1.5-25.9,0.8-38.8c-0.5-11-2-22.6,1-33.3c1.2,6.9,2.7,14.2,7.2,19.4
		c6,6.8,16.1,10.4,24,14.6c4.1,2.1,8.1,4.3,12.7,5.1c4.4,0.7,9,0.3,13.5,0.1c3.6-0.2,7.2-0.5,10.8-0.9c-1.4,7.1-4.6,13.8-6.4,20.8
		c-1.8,7.2-2.9,14.6-3.8,22c-0.9,7.2-2.5,14.7,0.9,21.4c2.9,5.9,8.5,10.1,13.7,14c11,8.2,23.9,14,37.3,17.1c-2.8,0.1-5.6,0.4-8,0.8
		c-3.9,0.5-9.9,0.2-12.8,3.3c-0.1-0.3-0.2-0.6-0.3-0.9c0-4.5-3-8-7.5-8.7c-2.4-0.4-4.7,0.1-6.9,1c-0.8-0.2-1.7-0.4-2.6-0.5
		c-4.8-0.4-8.3,2.1-11.5,5.5c-3.2,3.5-7,7.3-8.5,11.8c-0.6,1.8-0.9,3.8-0.6,5.7c-0.7,1.4-1.3,2.8-1.8,4.3c-1.4,3.9,2.1,6.4,5.3,6.1
		c0.9,0.7,1.9,1.2,3.1,1.3c4.7,0.4,11.7,3.9,7.6,9.4c-3.8,5.3,4.9,10.1,8.6,5.1c4-5.8,9.2-11.4,10.6-18.5c1-4.8,0.5-10.2,2.1-14.9
		c-0.2,2.4,0,4.9-0.1,6.9c-0.5,10.9,0,21.9,3.8,32.2c1.8,4.8,8.3,4.1,9.7,0.6c0.1,0,0.2,0.1,0.2,0.1c3.6,0.8,8.2,0.5,11.7-0.9
		c3.2-1.3,5.2-3.7,7-6.6c2.7-4.2,5.6-8.5,7.6-13c3.5-7.6,2.4-17.7-2.5-24.6c-1-1.4-2.2-2.4-3.6-3.2c3.7,0.5,7.3,0.6,10.7-0.1
		c2.2-0.5,4.3-1.6,6.3-3c-1.6,2.2-3,4.4-4.2,6.9c-1.9,4-1.8,6.5-1.1,10.9c1.4,8.5,1.9,17.6,5.1,25.6v0.1l0,0
		c0.2,0.4,0.3,0.8,0.5,1.2c2.4,5.4,10.2,1.4,9.1-3.8c-0.3-1.5-1-3.9-0.7-5.8c4.4,2.5,8.5,5.5,12.3,9c3.4,3.2,8,0.7,8.5-3.5
		c0.9-7.8,1-15.8-0.2-23.6c-1.2-7.3-7.6-8.5-12.2-13.6c-1.7-1.9-3-4.2-5.7-4.7c-0.1,0-0.1,0-0.2,0c-0.7-2.3-3-4.1-5.3-3.8
		c1.6-1.7,3.1-3.3,4.5-4.8c4.7-4.8,9.9-9.6,13.2-15.5c0,0.2,0.1,0.5,0.1,0.7c0.5,2.3,2.2,3.4,4,3.6c0.7,0.4,1.5,0.7,2.4,0.7
		c3.5,0.2,6.8,2.3,10.1,3.4c3.7,1.3,7.5,2.2,11.3,2.8c3.9,0.6,7.9,1,11.8,1.2c0.6,0.5,1.2,0.9,2,1.1c14.1,3.6,28.2,1.5,42.5,1.3
		c12.3-0.2,24.8,1.5,36-4.9c2.4-1.3,2.8-3.7,2.2-5.7l0.1-0.1c2.7-3.7,5.4-6.8,9.1-9.5c1-0.7,1.9-1.5,2.8-2.2
		c3.2-1.9,6.2-4.1,8.6-6.7c2.1-2.3,4-4.8,5.8-7.3c3.6-3.1,7.2-6.2,10.2-10c5.3-6.6,11.9-11.9,17.1-18.5c5.5-6.9,8.3-15.5,14.4-22
		c1.7-1.8,1.7-4,0.8-5.7c13.5-25.4,27.7-50.3,42.7-74.8c1.7-2.4,3.5-4.7,5.2-7.1c5.9-7.8,12.7-14.8,15.2-24.3c1.2-2,2.4-4.1,3.7-6.1
		c3.3-5.2,7.2-9.6,11.5-14c1.8-1.8,3.5-3.7,4.9-5.7c0.1,0,0.1,0,0.2-0.1c7-3,13.3-7,19.3-11.7c2.8-2.2,5.7-4.5,8.8-6.2
		c1.9-1,3.9-1.9,5.9-2.8c1.3,0,2.8-0.2,4.4-0.7c6.1-1.8,12.6-2.8,18.8-3.7c5.7-0.8,11.5-1.2,17.2-2c5.8-0.9,13.4-4.8,19-2
		c2.2,0.9,4.2,0.4,5.7-0.9c1.8,0.9,3.6,1.8,5.5,2.6c2,0.9,4.6,1.4,6.2,2.8c2.2,1.9,0.7,5,1.3,7.6c1.3,5.9,3.6,11.1,4,17.2
		C1055.2,798,1065.2,798.1,1064.8,791.6z M408.7,1024.6c-0.9,1.8-2.1,3.4-3.1,5.1c-0.1-0.3-0.2-0.6-0.4-0.9c1.4-2.2,2.9-4.4,4.4-6.6
		C409.4,1023,409.1,1023.8,408.7,1024.6z M446.9,1021.4c-2.1-1.2-4.2-2.2-6.6-2.6c-1.6-0.3-3,0-4,0.8c-0.5-1.3-1.5-2.4-3.2-3.1
		c-4.7-1.7-12.4-3.7-17.7-1.5c0.8-1,1.7-1.9,2.6-2.9c0.1-0.1,0.2-0.3,0.3-0.4c0.8,0.2,1.5,0.4,2.1,0.5c4.4,1,8.8,2.1,13.2,3.3
		c4.8,1.3,10.2,2.6,15,1.2c-1.2,1.9-1.1,4.1,0.4,6C448.2,1022.3,447.5,1021.8,446.9,1021.4z M468.1,1035.9c-0.5,0.7-1,1.4-1.4,2.2
		c0.3-0.7,0.6-1.5,0.9-2.2c0.6-1.4,0.7-2.9,0.3-4.2c0.5-0.2,1-0.4,1.6-0.6c2.1-0.9,4.3-1.6,6.5-2.2
		C473,1030.7,470.3,1033,468.1,1035.9z M496.4,827.1c-0.6-1.1-1.3-2.2-1.9-3.4c0.7,1,1.4,2.1,2,3.2c0.1,0.1,0.1,0.2,0.2,0.3
		C496.6,827.2,496.5,827.2,496.4,827.1z M719.5,1006.7c0-0.1,0-0.1-0.1-0.2c1.4,0.1,2.7,0.2,4.1,0.3
		C722.2,1006.8,720.8,1006.8,719.5,1006.7z"/>
	<path class="st3" d="M548.7,258.4c-2.7-16.3-9.8-32.3-9.4-49c0.1-6.4-9.9-6.4-10,0c-0.1,6.6,0.8,13,2.2,19.3
		c-0.5,0.5-0.9,1.2-1.1,2c-15.6,63.8-35.9,126.4-58.8,188c-2.5,1.7-4.1,4.4-5.3,7.2c-1.8,1.6-2.6,3.9-2.4,6.3c0,0.1-0.1,0.3-0.1,0.4
		c-0.3,0.7-0.4,1.3-0.3,1.9c-7.1,6.9-10.2,18.3-14.5,26.9c-3.4,6.7-7.6,12.6-12.1,18.4c-0.6-0.6-1.3-1-2.2-1.2
		c-2.3-0.5-4.5-0.8-6.7-0.8c-0.2-8.7-1.4-17.4-3.7-25.8c0.2-0.6,0.3-1.3,0.2-2.1c-0.2-1.4-0.4-2.5-0.8-3.5
		c-1.6-17.9-4-35.7-7.2-53.3c-0.5-2.7-2.4-3.7-4.5-3.6c-0.4-6.5-1.1-13.1-2.5-19.5c-2.2-9.4-6.5-17.7-12.2-25.4
		c-5.9-8-12.9-15.6-16.5-25c-1-2.6-3.8-3.8-6.2-3.4c0-0.6,0.1-1.2,0.1-1.8c0.3-6.4-9.7-6.4-10,0c-1.1,22.6-2.8,45.2-5.1,67.7
		c-0.9,9-2,18-3.1,27c-1.2,3.2-2.4,6.3-3.8,9.5c-4.3,10.1-7.9,19.7-6.3,30.8c0.2,1.2,0.9,2.1,1.9,2.8c0.5,9.6-7.2,17.8-10.8,26.3
		c-4.4,10.7-7.8,21.9-11.5,32.8c-3.7,11.1-7.4,22.2-11,33.3c-3.4,10.4-6,21.6-11.8,31c-1.5,2.4-0.7,4.6,0.9,6c-0.4,0.9-0.5,2-0.3,3
		c5.1,19.2,10.6,38.2,15.3,57.5c2.1,8.6,3.6,17.5,1.1,26.2c-2.2,7.8-6.7,14.9-8.4,22.9c-0.6,2.9-0.8,5.8-0.6,8.5
		c-3.5,0.8-6,5.2-2.7,8.3c2.5,2.3,5.1,4.5,7.7,6.6c3.1,5,7.5,9.5,12.3,13.5c11,9.1,24.9,19.2,39.8,16.2c1.4,2.1,4.4,3.3,6.7,1.7
		c9.6-7.1,20.3-12.5,30.9-18.1c10.7-5.6,21.4-10.7,32.8-14.8c18.8-6.8,38.9-13,52.5-28.5c0.6-0.7,1-1.4,1.2-2.1
		c0.7-0.2,1.3-0.6,1.9-1.1c4.2-4.1,8.4-8.2,12.6-12.2c3.7-3.6,7.9-7.2,10.8-11.5c5.9-8.7,4.3-20.7,2.7-30.5
		c-1.6-9.4-6.2-18.6-15.2-22.8c-3.9-1.8-8.2-2.6-12.4-1.7c-2.5,0.5-5.1,2.7-7.7,3.7c0.3-1.4,0.4-2.8,0.3-4.2
		c3.1-0.4,6.6,0.2,9.6-0.5c3.5-0.9,6.4-3,9-5.4c6.8-6.5,12.6-14.4,18.7-21.6c3.8-4.5-0.9-10.1-6.1-7.8c-0.9,0.4-1.9,0.8-2.8,1.2
		c-1.3-0.1-2.6,0.2-3.8,1.3c-0.2,0.2-0.5,0.5-0.8,0.7c-3.4,1.5-6.7,2.9-10.1,4.4c-6.8,0.5-13.2,3.2-18.3,8.4c-0.6,0.7-1,1.3-1.3,2
		c-0.6,0-1.1,0-1.7,0c-2.4-0.1-4.5,1.9-5,4.2c-0.4-0.3-0.8-0.5-1.2-0.8c-0.6-0.3-1.2-0.6-1.8-0.8c-0.5-0.2-1-0.3-1.5-0.2
		c0-1.6,0.2-3,0.2-3.4c0.4-3.8-3-5.3-5.9-4.6c1.8-10.6,7.8-20.5,17.4-26.9c2.4-1.6,3.7-5.8,1-7.8c-0.8-0.7-1.7-1.3-2.5-1.9
		c4.7-8.1,10.4-15.5,17.1-22.2c1.7-1.7,1.8-3.7,1-5.4c10.7-15.8,19.7-32.6,23.6-51.2c0.2-0.7,0.4-1.3,0.5-2
		c7.7-20.3,13.9-41,18.4-62.2c0.3-1.5,0-2.9-0.7-3.9c0.9-1.4,1.8-2.7,2.4-4c2.7-5.6,4.4-11.5,5.4-17.7c1.9-12.2,1.2-24.5,0.1-36.8
		c1.5-9.3,3-18.7,4-28C552,292.3,551.5,275.2,548.7,258.4z M339.5,709.9c-3.3-1.3-6.2-2.8-8.2-5.2c1.4-0.8,2.4-2.2,2.3-4.2
		c0-2.3,0.1-4.7,0.4-7c0.4,1.6,1.4,2.8,2.7,3.5c0.5,4.9,2.1,9.5,4.6,13.6C340.7,710.4,340.1,710.1,339.5,709.9z M364.7,421.1
		c0.1-0.6,0.1-1.2,0.2-1.7c0.1,0,0.2,0,0.3,0C365,419.9,364.9,420.5,364.7,421.1z M495.4,612.4c1.4-0.2,2.8-0.1,4,0.2
		c-4.2,0.8-8.7,2-10.7,5.1c-0.7,1.1-1,2.4-1.1,3.7c-0.5-1.5-1.2-3-2-4.4C489.1,616.3,491.7,612.9,495.4,612.4z M432.2,545.8
		c-0.4,0.4-0.7,0.7-1.1,1.1c-0.1-0.1-0.2-0.2-0.3-0.3C431.3,546.3,431.8,546,432.2,545.8z M404.1,463.2c0.1,0.6,0.3,1.2,0.4,1.8
		c-0.3-0.2-0.6-0.5-0.9-0.7c-0.4-0.6-0.9-1.2-1.3-1.8C403,462.7,403.6,463,404.1,463.2z M393.5,469c0.7,1.3,1.5,2.6,2.2,3.9
		c-1.3-1.7-2.6-3.4-3.9-5.1C392.4,468.2,393,468.6,393.5,469z M378.5,439.9c0.2,0.7,0.4,1.5,0.6,2.2c-0.6-0.2-1.1-0.5-1.6-0.7
		C377.8,440.9,378.2,440.4,378.5,439.9z M369.1,599.8c0-9.3,0.2-18.5,0.7-27.8c3.7,6.3,6.9,12.9,9.6,19.8
		C375.9,594.4,372.5,597.1,369.1,599.8z M392.2,528.6c0.8-3.8,1.1-7.7,0.4-11.5c-1-5.4-4.9-9.7-5.9-15.1c-0.5-2.4-2.6-3.5-4.7-3.5
		c-1.6-4.6-3.4-9.2-5.5-13.7c-1.7-3.7-3.9-7-5.9-10.5c-2.2-3.8-2.4-6.5-1.9-10.9c0.1-1,0.1-1.9,0-2.8c0.2,0.1,0.3,0.2,0.5,0.3
		c5.8,4.1,11,8.1,15.4,13.8c8.1,10.6,17.4,19.5,27.2,28.6c1.6,1.5,3.2,3,4.8,4.5c-1,1.1-1.5,2.6-1.2,4.4c0,0.1,0.1,0.2,0.1,0.4
		c-0.5,3.1-1,6.2-2.4,9.1c-1.5,3.2-3.8,6.1-6,9c-2.6,3.5-5.4,6.8-8.4,9.9C396.6,536.6,394.5,532.6,392.2,528.6z M469.7,648.3
		c0.1,7.5-2.4,15.3-6.6,21.5c-0.1,0.2-0.3,0.4-0.4,0.6c-0.7-0.1-1.4,0-2.2,0.3c-9,3.6-18.1,6.7-27.4,9.3c-10.9-0.2-21.6,0-31,5.6
		c-2.9-13.7-2-27.8,2.7-41c2.7-7.6,6.5-13.7,13.6-17.8c7.3-4.2,14.7-6.2,23.1-4.6c7.1,1.4,15.5,2.8,20.9,8
		C467.1,635,469.6,641.6,469.7,648.3z M518.9,356.5c0.1-1,0.3-1.9,0.5-2.9c0,0.4,0,0.9,0,1.3C519.3,355.5,519.1,356,518.9,356.5z
		 M522.3,345.4c-0.1,0-0.2,0.1-0.3,0.1c0.2-0.7,0.5-1.3,0.8-2C522.6,344.1,522.5,344.7,522.3,345.4z M524.4,292.3
		c-0.1,0-0.2,0.1-0.3,0.1c0.4-1.4,0.8-2.9,1.2-4.3C525.1,289.5,524.8,290.9,524.4,292.3z M519.8,307.6c-0.5,1.6-1.1,3.2-1.6,4.8
		c0.6-2,1.2-3.9,1.8-5.8C519.9,306.9,519.9,307.3,519.8,307.6z M505.4,435.8c-0.1,0-0.1-0.1-0.2-0.1c0.4-0.9,0.8-1.8,1.2-2.7
		C506.1,433.9,505.7,434.9,505.4,435.8z"/>
</g>
<g id="Layer_3">
	<path class="st4" d="M477.1,736.8c-4.9,3-10.2,5.1-15.7,6.7c-2.9,0.8-5.7,1.5-8.7,1.5c-0.9,0-8.4-0.7-8.5-1.1
		c-0.5-5.7-7.8-6.7-9.8-1.3c-1.1,3-3.7,5.5-5.3,8.3s-2.9,5.8-4.2,8.8c-0.4,1-0.4,1.8-0.3,2.6c-1.3,2-0.6,4.4,0.8,6
		c4.5,5.5,11.4,7.5,17.9,9.8c4.1,1.5,8.2,2.9,12.3,4.3c2.9,1,6.9,3.3,10,1.5c3-1.7,3.9-6.2,5.2-9c1.7-3.7,3.4-7.3,5.3-11
		c3.5-6.9,7.1-13.8,8.4-21.5C485.1,738.5,481.2,734.4,477.1,736.8z"/>
	<path class="st4" d="M443.2,813.9c-10.2-0.1-18.9-6.7-28.6-9.2c0.2-0.8,0.3-1.6,0.4-2.4c0.7-6.4-9.3-6.3-10,0
		c-0.6,5.3-4.4,9.7-4.9,15c-0.5,5.5,3.3,10.4,6.6,14.5c0.6,0.8,1.4,1.3,2.1,1.6c0.1,0.1,0.3,0.1,0.4,0.2c5,2,10.1,3.7,15.2,5.1
		c3.7,1,9.3,3.5,12.6,0.4c2.7-2.5,1.8-6.7,3.8-9.6c2.4-3.5,6.4-4.5,7.2-9.2C448.5,817.1,446.7,814,443.2,813.9z"/>
	<path class="st4" d="M441.1,877.3c-1.3-2.4-4.1-5.9-6.5-7.2c-3.1-1.6-6.5,0.4-9.6,0.9c-5.1,0.9-10.1,0.4-15.1-0.9
		c-5.6-1.5-8.3,6-4.3,8.9c-0.3,0.6-0.4,1.3-0.4,2.1c1.8,17.1,24.7,14.2,34,5.1C441.8,883.7,442.8,880.5,441.1,877.3z"/>
	<path class="st4" d="M521.1,922.2c-5-0.7-8.8-2.8-12-6.7c-4.1-5-11.1,2.2-7.1,7.1c0,0,0,0.1,0.1,0.1c-1.3,1.2-2.1,3-1.5,5
		c1,3.5,0,7.9-0.3,11.5l-0.9,13c-0.3,4.1,5.8,6.9,8.5,3.5c3.5-4.4,5-9.4,9.4-13.1c4.4-3.7,6.1-8.7,7.4-14.2
		C525.1,926,523.9,922.6,521.1,922.2z"/>
	<path class="st4" d="M550.8,941.6c0.5-5.9-8.1-6.4-9.8-1.3c-0.7,2-0.8,4.1-0.9,6.1c-1.1,4.8-3.1,9.2-6.2,13.1
		c-0.2,0.3-0.4,0.6-0.6,0.9c-4.8,1.1-6.3,8.7-0.7,9.6c1.3,0,2.5,0.4,3.5,1.3c3.1,2.6,8.6,1.1,8.5-3.5c-0.1-3.9,3.3-7.4,4.4-11.3
		c0.7-2.6,0.6-5.4,0.7-8.2C550.3,946.1,550.6,943.9,550.8,941.6z"/>
	<path class="st4" d="M701.2,1018.8c-1.9-6.5-10.7-4.9-15.9-5.1c-0.3,0-2.2-0.2-3.1-0.1c-0.7-0.3-2-0.9-2.4-1
		c-2.2-0.4-4.2,0.3-5.7,2c-2,2.2-2.7,5.5-3.7,8.2c-1.3,3.4-2.6,6.8-3.9,10.2c-1.2,3.1,0.8,5.3,3.3,5.9c-0.1,1.7,0.4,3.4,1.7,5
		c3.7,4.2,10.5,2,15.1,1.3c2.7-0.4,5.7-0.4,7.9-2.2c2-1.7,3-4.6,3.9-7C700.2,1031.4,702.6,1023.8,701.2,1018.8z"/>
	<path class="st4" d="M763.8,1014c-5,0.4-8.6,2.5-12.9,4.9c-1,0.6-2.1,1.2-3.2,1.7c-1-0.7-2.3-0.9-3.9-0.3c-2.9,1-5.5,1.4-8.5,1.3
		c-0.4,0-0.8,0-1.2,0.1c-2.9-4.7-11.4-2.1-9.2,3.6c1.2,3,1.3,5.3,0.2,8.3c-1.5,4.1,3.8,7.9,7.3,5.7c2.8-1.8,7.1-1.1,10.4-2
		c3.8-1.2,7.4-3.1,11-4.7c6.3-2.8,12.1-5.3,14.6-12.2C769.7,1017.4,766.9,1013.7,763.8,1014z"/>
	<path class="st5" d="M490.5,692.8c-6.4,4.2-11.2,10-18,13.7l0,0c-6,1.2-11,6-16.6,8.2c-6.9,2.7-8.8,9.7-14,14.6
		c-3.6,3.4-0.2,8.3,3.6,8.5c-0.5,2.2-0.1,4.4,2,6.3c5.4,4.9,14.9,0.7,20.5-1.6c4.2-1.8,8.3-3.5,12.5-5.3c3.2-1.4,7-2.4,9.2-5.3
		c2-2.8,2.1-7,2.6-10.3c0.8-5.1,1.6-10.3,2.4-15.4c0.2-1.4-0.1-2.6-0.7-3.6c0.5-0.4,1.1-0.8,1.7-1.2
		C500.9,697.9,495.9,689.2,490.5,692.8z"/>
	<path class="st5" d="M457,781.2c-10.1-0.6-19.4-4.6-26.9-11.5c-3.9-3.6-9.4,0.6-8.6,4.6c-1.1,0.4-2.1,1.2-2.6,2.1
		c-1.4,2.7-2.8,5.4-4.2,8.1c-0.5,0.9-0.6,1.8-0.6,2.6c-2.1,0.9-3.8,3-3.3,5.8c2.7,15.7,24.2,18.2,36.9,19.9c3.6,0.5,5.3-3.5,4.8-6.3
		c-0.5-3.3,3-6.8,4.6-9.2c2-3,3.5-6.3,4.6-9.7C462.9,784.2,460.1,781.4,457,781.2z"/>
	<path class="st5" d="M433.7,842.1c-5.4-0.9-10.7-1.9-16.1-3.1c-5.3-1.2-8.6-3.2-12.3-7.1c-4.4-4.7-11.5,2.4-7.1,7.1
		c0.2,0.2,0.4,0.4,0.6,0.6c-0.5,0.8-0.9,1.7-0.9,2.9c-0.1,5.4,0,10.8,0.5,16.2c0.4,4.4,1.2,8.3,5.2,10.7c3.8,2.2,8.3,3.9,12.7,4.2
		c5.5,0.4,10.4-2,15.8-2.4c2.7-0.2,5-2.1,5-5c0.1-6.4,0.2-12.8,0.2-19.2C437.4,844.9,435.9,842.4,433.7,842.1z"/>
	<path class="st5" d="M446,907.2c-1.6-5,0.6-10.8-1.1-15.7c-1.9-5.7-9.2-4-13.4-2.4c-1.8,0.7-2.8,2-3.2,3.4
		c-2.1-0.6-4.3-0.8-6.6-0.5c-2.7,0.4-4.1,3.8-3.5,6.2c0.8,2.9,3.5,3.9,6.1,3.5c2.1-0.3,5.6,2.9,7.2,4.2c2.2,1.8,4.2,4,6,6.2
		C440.9,916,447.5,911.8,446,907.2z"/>
	<path class="st5" d="M531,930.3c-3.1-1.3-6.1-0.3-7.4,3c-1.6,4.3-2.7,8.5-5.8,12.1c-2.2,2.5-4.5,7.7-7.6,8.9
		c-5.3,2.1-3.8,10.1,0.9,10c0.1,2.5,1.7,4.9,4.7,4.6c10.1-0.9,17.4-5.1,20.7-15.1c1.5-4.7,3.4-10.5,3.4-15.4
		C540.1,933.1,535,932,531,930.3z"/>
	<path class="st5" d="M562.2,930.8c-2.7,1.4-5.3,2.5-8.2,3.4c-3.7,1.1-4.6,5.6-2.3,8.2c0.6,3.9-0.6,9.6-0.9,13c0,0.1,0,0.3,0,0.4
		c-1.1,4.4-1.9,9-4.1,12.7c-1.5,2.5-0.5,4.9,1.3,6.3c1.4,3.7,6.8,5.5,8.8,1.1c2.7-5.8,3.4-12.7,3.9-19.2c0-0.1,0-0.1,0.1-0.2
		c2.2-6.6,5.1-12.8,8.3-18.9C571.3,933.2,566.7,928.4,562.2,930.8z"/>
	<path class="st5" d="M671,1008.8c-2.9-1.1-5.6-2.2-8.5-0.6c-2.5,1.4-4.8,3.6-7,5.4c-1.4,1.1-2.4,2.6-2.5,4.3
		c-1.9,2.1-2.2,5.8,0.9,7.8c1.3,0.8,2.6,1.7,3.9,2.4c0.2,2.3,1.8,4.6,4.8,4.6c3.9,0,5.4-3.6,4.6-6.5c2.6-3,4.8-6.5,6.7-10
		C675.7,1013.2,674,1010,671,1008.8z"/>
	<path class="st5" d="M720.1,1020c-4.1-0.2-7.9-0.9-11.8-2.1c-2.5-0.8-5.6,0.9-6.2,3.5c-0.9,4.1-4.1,7.2-6.4,10.6
		c-1.1,1.7-1,3.4-0.2,4.8c-2.5,3.1-1.4,8.7,3.5,8.1c3.3-0.4,6.6-1,9.9-1.6c3.1-0.5,6.5-0.7,9.3-2c6.3-3,4.5-9.4,6.5-14.9
		C726.1,1023.1,723.1,1020.1,720.1,1020z"/>
	<path class="st6" d="M651.8,909c-4.7-10-9.7-22.2-8.6-33.4c0.4-4.4-5.7-6.5-8.5-3.5c-6.4,6.8-15.5,7.2-24.2,6.8
		c-6.4-0.2-6.4,9.8,0,10c2.2,0.1,4.5,0.1,6.7,0c0.5,0.5,1.2,0.9,2,1.1c5.7,1.8,10,5.7,13.9,10.1c3.8,4.3,7.7,8.8,10.1,14
		C645.9,919.8,654.4,914.8,651.8,909z"/>
	<path class="st6" d="M717.5,934.1c-6.4-7.6-12.8-15.1-19.1-22.7c-2.8-3.4-8.6-0.6-8.5,3.5c0.1,5.9-4.2,10.8-8.2,14.8
		c-4.2,4.2,1.5,10.5,5.9,7.9c8.6,2.9,17.4,4.5,26.4,4.9C718.6,942.9,720.1,937.2,717.5,934.1z"/>
	<path class="st6" d="M795.7,912.5c-2.8-3.8-6.4-6.4-10.1-9.4c-3.7-2.9-8.7-5.8-11.3-9.8c-3.3-5-9.9-1.6-9.1,3.8
		c1.8,13-4.4,23.4-10.9,34c-1.4,2.2-0.8,4.4,0.7,5.8c1.1,3,5,4.8,8.1,2c8.9-8,20-14.7,30.9-19.7
		C796.2,918.3,797.2,914.5,795.7,912.5z"/>
	<path class="st6" d="M836,854.1c-2.9-0.7-5.3-1.7-7.7-3.4c-4-2.8-8,1.8-7.3,5.7c0.8,4.9,0.8,9.8,0.2,14.8c-2.3,4-4.2,8.1-5.2,12.6
		c-1.5,6.3,8.2,8.9,9.6,2.7c2.2-9.4,8.6-16.8,13.4-24.9C840.6,858.8,839.2,854.8,836,854.1z"/>
	<path class="st6" d="M868.8,803.3c-2.4-1.4-4.2-2-6-4.3c-3.2-4.1-9.6,0.4-8.4,4.9c0.3,1.3,0.8,2.5,1.4,3.7c0.3,0.5,0.6,1,0.9,1.5
		c0,0,0,0.1,0.1,0.1c0.2,2.4,0,4.9,0,7.3c0,6.4,10,6.4,10,0c0-1.1,0-2.2,0-3.2c1.1-0.2,2.1-0.6,3-1.4
		C872.8,809.6,871.8,805.1,868.8,803.3z"/>
	<path class="st6" d="M906.6,771.6c-2-1.9-5.1-1.9-7.1,0c-0.8,0.8-1.6,1.5-2.5,2.1c0.1,0,0.1-0.1,0.2-0.2c-0.9,0.7-1.7,1.5-2,2.7
		s-0.2,2.8,0.5,3.8c0.7,1.1,1.7,2,3,2.3c1.2,0.3,2.8,0.3,3.8-0.5c1.4-1,2.7-2.1,4-3.3C908.5,776.9,908.6,773.4,906.6,771.6z"/>
	<path class="st6" d="M944.6,748.2c-6.4,0-6.5,10,0,10S951.1,748.2,944.6,748.2z"/>
	<path class="st6" d="M645.6,732.4c-7.1,6-14.2,12.1-21.2,18.1c-7.1,1.4-12.4,5.8-17.4,11.3c-6.2,6.8-13.2,12.1-20.6,17.5
		c-7.1,5.2-13.4,11-19.9,16.9c-6.7,6.2-14.4,12.3-23.9,13.2c-1.6,0.2-2.8,0.9-3.5,1.9c-3.5-1.4-8.4,1.2-6.7,5.7
		c2.5,6.8,4.7,13.8,7.6,20.5c1.2,2.8,3,5,4.6,7.5c1.3,2.1,2.3,4.4,3.1,6.7c0.2,1.5,0.7,2.9,1.5,4.1c3,4.5,11.1,1.8,9.1-3.8
		c-0.3-0.8-0.6-1.7-0.9-2.5c-0.4-3.4,2.5-9.9,3.6-12.2c1.9-4.2,4.4-8.1,7.4-11.6c5.6-2.8,10.2-7.3,13.1-13.2c3.9-0.9,8-1.2,12-1.3
		c13-0.3,28.4-0.5,37.2,10.6c2.4,3,7.6,1.2,8.4-2.2c3.2-13.7,6-27.5,8.4-41.4c1.2-6.9,2.2-13.9,3.2-20.9c0.9-6.4,0.8-13.9,3.3-19.9
		C656,732.2,648.9,729.5,645.6,732.4z"/>
	<path class="st6" d="M744,811.9c-9.4-15.3-16.9-31.5-22.5-48.5c-0.2-0.6-0.3-1.2-0.5-1.7c0.2-0.7,0.1-1.5-0.2-2.2
		c-7.5-20.2-14.6-40.8-15.9-62.4c-0.1-2.5-1.7-4-3.6-4.5c-0.1-1.7-0.3-3.3-0.4-5c0.1-5.9,0-11.9-0.4-17.8c-0.4-6.4-9.9-6.5-10,0
		c-0.1,6.1,0,12.1,0.4,18.1c-0.3,13.8-1.8,27.5-4.8,40.9c-2.1,9.5-4.8,18.8-8.1,27.8c-3.4,9.2-8.1,18.1-10.3,27.7
		c-0.2,1.1-0.2,2,0.1,2.8c-1.4,2.1-2.8,4.1-4.4,6c-4,5,3,12.1,7.1,7.1c0.1-0.2,0.3-0.3,0.4-0.5c0.7,0.3,1.5,0.5,2.4,0.4
		c12.4-1,23.8-1.2,35.8,2.5c5.5,1.7,11.1,3.3,16.6,5.1c3,1,4.5,1.8,6.2,4.5c1.3,2,2.4,4,4.2,5.7C740.2,821.7,747.1,816.8,744,811.9z
		"/>
	<path class="st6" d="M859.4,766.6c-0.6-4.3-3.4-7.5-6.7-10.2c-2-1.6-4.1-3-5.6-5.1c-1.4-2.1-2.2-4.5-3.2-6.8
		c-2-4.5-4.9-10.6-9-14.8c0-1.2-0.5-2.3-1.7-3.3c-12.2-9.8-19.5-24.5-27.5-37.6c-4.3-7.1-8.5-14.1-12.7-21.3c-0.9-1.5-1.8-3-2.6-4.6
		c-1.9-6-5.4-11.3-10.4-15.3c-1.3-1.1-2.8-1.4-4.1-1.2c-4-4.5-8.1-9-12.4-13.2c-0.2-0.2-0.3-0.3-0.5-0.5c-0.1-1.5-0.9-2.9-2.4-3.6
		c-7.4-3.6-14.5-7.6-21.4-12.1c-6.2-4.1-12.1-9.1-19.7-10.3c-0.4-0.1-0.8-0.1-1.2-0.1c-0.7-0.9-1.4-1.7-2.2-2.5
		c-4.5-4.6-11.6,2.5-7.1,7.1c5.6,5.8,7.3,13.7,8.2,21.5c1,8.5,1.7,16.7,4.1,25c1.5,5.3,2.8,10.5,4,15.8c0.1,2,0.2,4.1,0.3,6
		c0.4,7.3,2.2,14.1,4.5,20.9c0.4,3,0.8,5.9,1.2,8.9c0.1,0.6,0.2,1.1,0.4,1.6c0.9,8,1.7,16,2.7,24c0.9,7.5,1.8,15.3,4.5,22.4
		c0.1,0.3,0.3,0.7,0.4,1c0,1.6-0.1,3.2-0.1,4.9c0,1.1,0.2,2.1,0.7,2.8c-0.2,0.8-0.3,1.7-0.1,2.6c1.4,7.5,1.7,15.1,0.9,22.7
		c-0.2,1.8,0.8,3.2,2.1,4c-0.9,1.4-1.7,3-2.2,4.7c-1.8,6.2,7.9,8.8,9.6,2.7c1.3-4.5,6.5-8.1,9.7-11.3l12.5-12.4c1-1,1.4-2.2,1.4-3.4
		c10.8-7.5,24.7-12.5,37.7-13.6c14.8-1.2,27.5,4.1,40.5,10.5C856.2,774.3,860,770.9,859.4,766.6z M820.4,730.1
		c0-0.6,0.1-1.1,0.1-1.7c0.2,0.2,0.4,0.4,0.6,0.6C820.8,729.4,820.6,729.7,820.4,730.1z"/>
	<path class="st6" d="M582.1,699.5c0-2.5-1.5-5-4.8-4.8c-8.1,0.4-16.1,0-24.1-1.4c-2.8-0.5-5.1,0.8-6.1,3.5
		c-2,5.6-6.4,10.1-9.5,15.1c-3.4,5.4-6.1,11.1-8.9,16.8c-0.6,1.3-0.6,2.8-0.1,4.2c-0.6,0.3-1.1,0.6-1.7,0.8c-5.8,2.7-0.8,11.3,5,8.6
		c18.6-8.7,34.8-23.9,49-38.5C582.1,702.4,582.4,700.9,582.1,699.5z"/>
	<path class="st6" d="M587.8,616.2c-6.3-0.1-11.9-1.8-18-2.7c-5.5-0.8-9,3.4-14.2,4.4c-3.8,0.8-4.4,4.7-2.7,7.3c0,0.6,0,1.2,0.1,1.8
		c1.9,7.5,2.5,14.9,1.8,22.6c-0.4,4.8,5.5,5.9,8.5,3.5c10.5-8.3,18.2-19.4,28-28.4C594.7,621.7,592,616.3,587.8,616.2z"/>
	<path class="st7" d="M868.4,765.9c-4.5-9.7-8.8-19.5-14.1-28.8c-0.5-0.8-1-1.6-1.5-2.5c0.2-0.8,0.2-1.6-0.2-2.5
		c-1.7-4.2-3.1-9.3-5.5-13.2c0-0.7-0.2-1.3-0.6-2c-1.5-2.6-3.1-5-4.9-7.3c-3.2-5.8-5.4-12.3-8.2-18.2c-4.2-8.9-8.8-17.5-13.7-26
		c-0.3-0.5-0.7-0.9-1.1-1.3c0.2-1,0-2.2-0.6-3.3c-6.8-11.7-14.2-22.6-22.5-33.3c-1.2-1.6-3.2-2.7-5.1-2.4c0,0,0-0.1-0.1-0.1
		c-2.8-3.3-4.8-7-7.9-10c-3.8-3.7-7.5-7.9-11.7-11.2c-2.1-1.7-4.7-2.2-7.2-1.8c-0.2-0.5-0.5-0.9-0.8-1.2c-0.3-1.1-1.1-2.2-2.2-3
		c-8.8-6.5-19.9-8.5-30-12.1c-5.7-2-11.5-2.7-17.3-4.1c-6.2-1.5-12-3.5-18.4-3.4c-0.8,0-1.4,0.2-2,0.4c-0.7-0.5-1.4-0.8-2.2-0.9
		c-2.5-3.2-9-2.2-9,3c-0.2,14.5-4.5,28.6-4.3,43.1c0,1.3,0.5,2.4,1.3,3.3c-1.2,3.5-1.5,7.8-2,10.8c-1.7,10.5-3.4,21.1-5.1,31.6
		c0,0.3-0.1,0.6-0.1,0.8c-1.5,1.8-2.6,4-3.7,5.5c-5.3,7.8-10.2,15.7-14.8,23.9c-0.4,0.7-0.6,1.6-0.6,2.5c-6,6.4-12.3,12.5-19,18.3
		c-3,2.6-6.1,4.8-9.3,7.1s-5.6,5.5-9.2,7c-1.9,0.8-2.6,2.2-2.6,3.7c-2.6,1.2-4.9,3.3-7,5c-8,6.2-14,14.6-22.5,20.1
		c-1.8,1.2-2.4,2.8-2.3,4.5c-0.9,0.8-1.8,1.6-2.7,2.4c-1.9-0.5-3.8,0.1-4.9,2.5c-1.2,2.7-3.3,4.2-5.6,5.9c-0.5,0-1,0.1-1.5,0.3
		c-10.1,4-21.5,9.7-32.4,6.1c-1.4-0.5-2.6-0.3-3.6,0.3c-0.4-0.9-0.9-1.7-1.3-2.6c-2.9-5.8-11.5-0.7-8.6,5c1.8,3.7,3.7,7.3,5.5,11
		c1.6,3.1,2.3,6.2,3.5,9.4c2.9,7.3,9.6,2.7,14.1,0.2c0.7-0.4,1.3-1,1.8-1.8c3.1-0.3,5.9-3.1,8.2-4.8c1-0.7,2-1.5,3-2.3
		c3.5-1.6,6.9-3.4,9.7-5.9c2.9-2.5,5.5-5.2,8.5-7.5c2-1.5,3.9-3,5.4-5c0.9-0.1,1.7-0.5,2.5-1.2c4-3.3,7.8-6.2,12.1-9.1
		c4.2-2.8,7.8-6.3,12.3-8.6c4.4-2.3,8.6-4.3,12.5-7.5c2.5-2,5.8-4.7,6.2-8c8.6-5.8,17.2-11.4,24.8-18.7c1.6-1.6,3.1-3.6,5-4.9
		c0.5-0.4,1.1-0.7,1.7-0.9c-0.7,7.9-1.2,15.9-2.8,23.7c-1.7,8.3-4.9,16.1-3.9,24.7c0.1,0.9,0.4,1.7,0.8,2.3c-0.8,0.9-1.2,2-1.2,3.2
		c-0.2,7.5-3.3,15.1-5.3,22.3c-0.4,1.2-0.2,2.3,0.1,3.2c-0.6,0.6-1.2,1.1-1.9,1.7c-5,4.1,2.1,11.1,7.1,7.1
		c9.6-7.8,13.8-18.7,17.6-30c1.8-0.8,3.4-2.5,4.2-4.8c2.5-6.8,3.1-14.4,4.5-21.5c1.4-7.3,3.1-14.5,5-21.7c0.9-3.3,2.4-6.8,2-9.8
		c0.8-0.8,1.2-1.9,1.1-3.4c-0.3-5.1,1.5-9.7,2.7-14.6c1-4,1.7-8.1,2.2-12.1c0.5-4.5,1-9.2,1-13.8c0.7-0.8,1.1-1.8,1.1-3.1
		c0.1-9.5,1.7-18.8,2.9-28.2c0.4,1.2,0.8,2.3,1.1,3.5c1.9,8.9,5.3,17.9,5.8,27c0.1,1,0.3,1.8,0.8,2.5c-1.3,3.8,1.1,8.6,2.1,12.2
		c1.6,5.4,2.8,11,4.8,16.2c1.1,2.8,2.6,5.3,3.2,8.2c0.6,2.8,0.8,5.7,0.8,8.5c0.1,2.8,2,4.3,4.1,4.7c0.1,1.3,0.4,2.6,0.6,3.8
		c0.5,2.2,1.5,4.1,2.3,6.2c0.9,2.1,1.1,4.3,1.5,6.5c0.9,5,3,9.6,4.5,14.4c1.7,5.4,1.6,11,2.8,16.4c1.1,4.9,5.2,9.5,4.7,14.7
		c-0.7,6.4,9.4,6.3,10,0c0.6-6-2.9-10.2-4.6-15.6c-1.7-5.4-1.4-11.2-2.8-16.7c0.3-0.8,0.5-1.8,0.3-2.8c-0.9-5.8-1.7-11.6-2.6-17.3
		c-0.5-3.2-1-6.4-1.4-9.6c-0.2-1.4-0.3-2.9-0.8-4.3c0.1-0.2,0.2-0.3,0.2-0.5c3.5-10-4.3-20-5.2-29.9c-0.5-5.3-0.2-15-4.1-19.5
		c0.6-2.7,0.3-5.8,0.1-8.3c-0.2-3.2-0.4-6.6-1.2-9.7c-0.8-3.5-2.7-6.7-4.2-10c-3.4-7.5-4-15.2-5.1-23.2c-0.4-3.1-1.5-5-3.1-6
		c0.2-0.5,0.3-1.1,0.2-1.7c-0.7-5.8-1.9-11.3-3.8-16.6c5.6,1.2,11.6,5,16.6,7.1c6,2.6,12.2,5.1,17.9,8.3c5.6,3.2,10.8,7.1,16,11
		c2.6,1.9,5.2,3.8,7.9,5.6c1.7,1.1,6.4,2.9,7,4.9c0.8,2.7,3.6,3.8,6,3.4c0.1,1.1,0.5,2.2,1.4,3.2c7.9,8.8,14.3,18.5,19.6,29
		c0.5,1,1.3,1.7,2.3,2c0.2,0.8,0.6,1.6,1.2,2.3c10.8,13.6,16.3,30.9,27.9,44.1c0.5,0.6,1.1,1,1.8,1.3c-0.2,1.4,0.1,2.8,1.2,4.2
		c2.8,3.3,6,6.2,9.4,8.7c2.1,3.2,4,6.7,5.8,10c4.6,8.3,8.3,17.1,12.3,25.7C862.5,776.8,871.2,771.7,868.4,765.9z"/>
	<path class="st7" d="M614.6,464.2c-0.4-5.2-8.9-7.2-9.8-1.3c-1.9,11.6-8.2,22.7-13.7,33c-5.7,10.7-12,21-19,30.9
		c-11.5,16.4-24.6,31.6-39.1,45.5c-2.5-1.8-6.4-0.7-7.7,2.7c-0.3,0.7-0.5,1.3-0.8,1.9c-1.1,1-2.6,1.9-3.6,2.8c-2,1.7-4.1,3.4-6.2,5
		c-4.2,3.5,0.3,9.1,4.8,8.2c1.2,1.5,3.1,2.5,5.1,1.7c12.7-4.9,22.2-14.1,31.5-23.7c10.6-10.8,21-22,31-33.5
		c8.9-10.3,16.7-21,21.7-33.8C613.5,491.1,615.4,477.6,614.6,464.2z"/>
	<path class="st7" d="M454.9,941.3c-2.3-6.7-4.2-14.2-7.5-20.4c-3.1-6.1-10.7-10.3-16.1-14c-4.1-2.8-9.5,2.7-6.8,6.8
		c0.9,1.3,1.8,2.7,2.6,4c0,0.1,0.1,0.1,0.1,0.2c0.9,5,0.2,11,0.2,16c0,5.8-0.2,11.6-0.8,17.4c-1.1,11.2-3.8,22.5-9.1,32.4
		c-2.2,4.2-5,9.2-8.9,12c-3.4,2.5-10.5,3.1-14.6,2c-3.9-1-5.3-5.6-9.6-5.7c-4.8-0.2-9.2,4.4-12.1,7.6c-1.9,2-1.7,4.4-0.5,6.2
		c-1.8,2.1-3.5,4.2-5.3,6.3c-3.5,4.1-8.2,8.4-7.8,14.2c0.1,0.7,0.2,1.4,0.5,1.9c0.4,0.9,1.1,1.7,2,2.2c0.4,0.2,0.9,0.5,1.3,0.8
		c0.1,0.1,0.5,0.4,0.6,0.5c0.2,0.2,0.5,0.4,0.7,0.7c0.2,0.2,0.4,0.5,0.7,0.7c0,0.1,0.1,0.1,0.1,0.1c0.4,0.6,0.8,1.2,1.1,1.8
		c1.3,2.3,4.6,3.2,6.8,1.8c0.2-0.1,0.4-0.3,0.6-0.4c0.1,0.1,0.3,0.3,0.5,0.4c7.1,5.5,17.4-1.4,25.3-0.1c2,0.3,4.7-0.2,5.6-2.3
		c2.9-6.6,5.9-17.8,12.9-21c7.7-3.5,16.4,0.5,23.5,3.6c2,0.9,4.4,0.9,6.1-0.8c6.5-6.7,12.8-14.3,13.2-23.9c0.2-0.6,0.4-1.2,0.4-1.9
		C461,974.1,460.2,956.9,454.9,941.3z"/>
	<path class="st7" d="M574.9,1012.6c-0.8-0.1-4.3-5.1-5.2-6.2c-2.4-2.6-4.8-5.3-7.1-7.9c-1.9-2.2-5.1-4.7-6.4-7.3
		c-1-2-0.2-4.1,0.2-6.6c0.4-2.4-0.6-5.7-3.5-6.2c-3.9-0.6-6.9-3.2-10.6-4.4s-7.4-1.1-11.2-0.6c-2.8,0.4-3.8,2.4-3.6,4.5
		c-1.6,0.9-2.7,2.6-2.6,4.4c0.3,9.7,2,18.3,6.5,26.9c2.1,4,4.6,7.8,6.8,11.7c0.5,0.9,1,1.8,1.3,2.7c-3.1-0.7-6.3-1.3-9.5-1.7
		c-4.2-0.6-10.3-2.1-14.2-0.1c-4.5,2.2-3.8,8.2-4.7,12.4c-1.4,6.1-3.5,12.1-5.6,18c-1.2,3.2,1.8,6.2,4.8,6.3
		c7.4,0.4,14.8,0.2,22.1-0.7c5.7-0.7,13.8-1.1,18.5-4.7c4.5-3.4,3.5-9.5,5.1-14.3c1-1.9,2-3.9,3-5.8c2.3-3.2,5.3-5.9,8.8-7.9
		c1.2-0.7,1.9-1.6,2.2-2.5c1.7,0,3.4-0.1,5,0C581.4,1022.8,581.1,1013.3,574.9,1012.6z"/>
	<path class="st8" d="M467.4,643.8c-0.4-5.9-3.8-10.1-8-14c-9-8.3-22-10.2-33.9-7.6c-12.3,2.6-17.3,17.1-21.2,27.5
		c-0.6,1.7-0.4,3,0.4,4c-0.9,4.1-1.9,9.2-0.5,12.5c-0.3,0.7-0.6,1.5-0.7,1.8c-1,2.5-1.4,5.1-1.4,7.8c0,5.3,6.8,6.2,9.2,2.8
		c4.3-0.7,9.3-1.3,13.6-2.8c1.1-0.2,2.2-0.3,3.3-0.4c0.9,0.3,1.8,0.5,2.9,0.3c6.7-1,13.1-2.9,19.4-5.7c5-2.2,10.3-4.8,13-9.7
		C466,655.6,467.8,649.3,467.4,643.8z M414.7,667.5c0.2-0.8,0.2-1.6,0.1-2.4c-0.2-1.4-1.4-2.9-1.5-3.7c0-1,0.3-2.5,0.6-4
		c4.9,0.8,11.2,2.3,11.1,5.3c-0.1,1.4-0.8,2.5-1.9,3.3C420.3,666.4,417.5,666.9,414.7,667.5z"/>
	<path class="st7" d="M438.6,419.4c-1.1-10.9-2.9-21.6-5.5-32.3c-1-4.2-5.8-4.4-8.3-2.1c-0.4-8.2-1.6-16.3-4.8-24
		c-4.8-11.4-12-22-18.9-32.2c-6.9-10-14.6-19.2-24.3-26.5c-2-1.5-4-1.1-5.4,0.2c-0.3-0.2-0.6-0.5-1-0.7c-5.3-3.6-10.4,5-5.1,8.6
		c23.9,16.2,36.4,43.5,43.4,70.7c2.8,11,5.2,22.1,7.3,33.2c0,0.6-0.1,1.2-0.1,1.8c-0.1,1.4,0.3,2.5,1,3.3c0.1,0.4,0.2,0.9,0.3,1.3
		c3.4,18.8,6.1,37.7,9.4,56.3c1.1,6.3,10.7,3.7,9.6-2.7c-2.3-12.9-4.5-25.9-6.8-38.8c1.3-0.8,2.3-2.3,2.4-4.1c0-0.1,0-0.2,0-0.2
		c2.8,1.5,6.8,0.5,7.3-2.9C442.5,426.5,442.3,420.8,438.6,419.4z M426.2,403.9c0-0.5,0-1-0.1-1.5c0.1,0.8,0.3,1.7,0.5,2.5
		C426.4,404.5,426.3,404.2,426.2,403.9z"/>
	<path class="st7" d="M559.1,325c-0.6-16.1-1.1-32.2-2-48.4c-0.9-15.8-2.2-31.5-4.5-47.1c-2.3-15.7-6.5-30.7-10-46.1
		c-1.5-6.3-11.1-3.6-9.6,2.7c1,4.5,2.1,9,3.2,13.5c-2.1,1.7-3.1,5-1,7.7c3.5,4.4,3.4,10.8,3.7,16.1c0.4,6.3,1.5,12.3,2.9,18.4
		c3.2,13.5,3,26.7,2.9,40.5c-0.2,28.9-0.5,57.8-0.7,86.8c0,0.2,0,0.4,0,0.6c-5.2,15.3-7.6,31.6-11.4,47.2
		c-4.5,18.7-9.6,37.2-15.2,55.6c-0.2,0.7-0.3,1.3-0.2,1.9c-6.2,14.8-14.4,28.8-24.2,41.5c-0.4,0.5-0.6,0.9-0.8,1.4
		c-2.1,3.1-3.7,6.9-5.4,10c-3.4,6.2-6.5,12.5-9.1,19c-5.3,9.2-10.5,18.3-15.7,27.6c-3.1,5.6,5.5,10.7,8.6,5c2.3-4.2,4.6-8.3,7-12.4
		c2.2,0.3,4.5-0.7,5.2-3.5c0.4-1.5,0.8-3,1.2-4.5c5.2-1,8.7-9.6,11.2-13.8c1.3-2.1,2.6-4.2,4-6.3c4-5.2,7.9-10.4,11.9-15.6
		c3.9-5.1,8.6-10.2,11.9-15.6c1.8-3,2.1-5.9,0.7-8.4c2.3-3.5,4.5-7,6.4-10.6c6.2-12,10.8-25.3,15.1-38.1c8.2-24.1,12-49.4,11.2-74.8
		c0.8-0.6,1.4-1.5,1.6-2.8C561.1,356.6,559.7,340.7,559.1,325z"/>
</g>
<g id="Layer_2_1_">
	<path class="st9" d="M651.7,931.9c8,4.6,17.9,3.7,27,5.2c5.1,0.9,10.1,2.6,15.1,3.6c6.3,1.3,12.8,1.6,19.2,1.9
		c13.2,0.6,26.6,1.1,39.4-2.2c15.5-4,25.5-11.7,39.4-19.7c14.6-8.3,25.3-22.1,33.9-36.5c8.6-14.4,15.4-29.9,24.4-44
		c3.5-5.5,7.4-10.9,11.2-16.2c2.6-3.6,5.2-7.3,7.8-10.9c3.1-4.3,6-8.2,9.5-12.2c9.6-10.6,21.8-18.4,34-25.8
		c9.4-5.8,19-11.5,29.3-15.5c7.1-2.7,14.4-4.6,21.8-6.5c5.6-1.4,11.2-2.9,16.8-4.3c14.1-3.6,28.7-7.2,43-4.9
		c7.4,1.2,14.4,4,21.3,6.7c5.9,2.3,12.2,5,15.3,10.5c1.6,2.9,2.2,6.3,2.5,9.7c0.9,9.5,0.2,19.2-1.8,28.5c-0.5,2.4-0.6,5.8-2.6,7.2
		c-1-12.2-4.1-24-7.2-35.8c-0.2-0.9-0.5-1.8-1-2.5c-0.7-0.8-1.6-1.3-2.6-1.7c-9.3-3.8-19.5-4.6-29.5-3.9c-10,0.7-19.8,2.9-29.6,5.1
		c-4.4,1-8.8,2-12.9,3.6c-5.3,2.1-10.2,5.3-14.9,8.5c-13.5,9.3-32,15.7-36.8,31.4c-2.3,7.6-6.8,14.3-11.2,20.9
		c-9.2,13.7-18.2,27.5-27,41.5c-5.7,9-11.3,18.2-16,27.8c-2.9,6-5.5,12.2-9.2,17.7c-2.2,3.2-4.2,6.1-5.1,9.8
		c-2.3,8.9-8.8,16-15,22.8c-12.1,13.1-24.2,26.1-36.4,39.1c-3.3,3.5-6.6,6.9-10.1,10.2c-4.7,4.5-9.9,8.4-15.1,12.3
		c-6.4,4.9-12.9,9.7-19.8,13.9c-7.8,4.7-16.2,8.4-24.9,11c-8,2.4-16.2,3.9-24.5,5.1c-10.4,1.5-20.9,2.5-31.3,1.5"/>
	<path class="st9" d="M678.5,933.9c2-2.8,4.1-5.6,6.1-8.4c1.7-2.3,3.4-4.7,4.8-7.2c2.8-5.1,4.2-10.8,5.6-16.5
		c4.5,14.9,19.1,25.9,25.5,40.2"/>
	<path class="st9" d="M753.7,939.6c-0.3-2.4,0.6-7.2,1.5-9.5c2.8-7,6.1-13.8,8.2-21c2.1-7.2,2.9-15.1,0.5-22.2
		c5.1,3.8,10.2,7.7,15.3,11.5c2.2,1.7,4.5,3.4,6.4,5.4c3.5,3.8,7.7,9.5,12.3,11.8"/>
	<path class="st9" d="M813.1,901.9c0.5-1.5,1.3-5.7,1.9-7.1c2.1-4.8,2.8-10.1,3.5-15.3c0.5-4.2,1.1-8.5,1.6-12.7
		c0.5-3.6,0.9-7.3,0.5-10.9s-1.8-7.2-4.5-9.7c8.3,3.4,16.8,6.3,25.5,8.7"/>
	<path class="st9" d="M857.2,830.3c1.1-12.7-0.2-25.6-3.7-37.8c8,3.5,13.5,12.1,22.1,13.5"/>
	<path class="st9" d="M894.7,785.8c-0.3-2.3,1.1-5.8,2.1-8c1.8-3.9,2.3-8.4,1.5-12.6c1.4,1,2.8,1.9,4.2,2.8
		c3.5,2.2,6.9,4.4,10.4,6.6"/>
	<path class="st9" d="M938.2,760.6c0.3-2.5,0.5-5,0.8-7.5c0.1-0.7,0.1-1.3,0.4-1.9c0.3-0.7,0.8-1.4,1.3-2c0.8-1.1,1.5-2.3,2.1-3.6
		c3.3,3.3,7.6,6.9,11.4,9.6"/>
	<path class="st9" d="M985.3,749.4c-0.4-3.2,0.4-6.6,2-9.4c2.2,1.7,4.5,3.5,6.7,5.2"/>
	<path class="st9" d="M1025.8,744.4c1.7,0.2,3.4-0.1,4.9-0.7c0.8,0.7,1.5,1.3,2.3,2"/>
	<path class="st9" d="M516.9,761.5c2.6,7.8,3.1,15.5,9.9,20c7.1,4.8,18.9,3.3,26.5,0.7c10.7-3.8,19.6-11.2,28.3-18.6
		c14.5-12.2,28.9-24.4,43.4-36.6c15-12.7,30.4-25.8,39.4-43.2c8.6-16.5,10.8-35.5,12.8-54c2.2-20,3.5-39.8,5.7-59.8
		c-1.2,4.2,5.4,6.5,9.7,7.2c28.7,5,58.3,11.7,81.4,29.6c13.2,10.2,23.5,23.6,33,37.3c30.1,43.7,52.4,92.7,65.8,144.1
		c-7.1-13-22.5-18.7-36.8-22.7c-13.1-3.7-27.4-6.7-40.1-2c-6,2.2-11.2,6.1-16.3,9.9c-9.1,6.7-18.3,13.5-25.2,22.4
		s-11.3,20.4-9.4,31.5c-14.3-23.8-46.2-32.2-73.4-26.8c-15.4,3.1-32.1,12.7-33.4,28.3c-4.6-9.6-15.1-15-25.6-17
		c-16.1-3.1-34.2,1.1-45.4,13.1c-11.2,12-14.4,33.3-4.2,46.2"/>
	<path class="st9" d="M897.8,1108.3c0,0.3,0,0.7,0,1"/>
	<path class="st9" d="M559,864.8c1.2,7.1,8.9,11.5,15.6,14.3c12.6,5.2,27.1,4.3,39.6,9.6c9.2,4,16.7,11,23.9,18
		c8.1,7.7,16.5,16,19.5,26.8c1.8,6.5,1.5,13.4,1.2,20.2"/>
	<path class="st9" d="M864.6,777.6c-9.3-31.7-34-50.4-51.7-78.4c-10.7-16.8-18.5-35.6-31.2-50.9c-19.3-23.2-48-36.1-75.6-48.3
		c20.1,71.1,30.1,147.1,39.4,220.4c-22-58.4-43.5-118.2-51.6-180c-1.7,45-10.4,96.9-24.9,139.4c-5.5,16.1-13.7,33.7-29.8,39.1
		c10.2-31.1,11.7-61.5,16.1-93.9c-7.5,6.7-15.4,12.7-23.4,18.8c-17.8,13.5-35.6,27-53.4,40.6c-14.1,10.7-29.4,22.2-45.2,30"/>
	<path class="st9" d="M563.4,872.1c-10.1-12.8-20.2-25.8-26.5-40.8c-6.8-16.3-8.9-34.4-17.4-49.9c-2-3.6-4.4-7.6-3.2-11.6"/>
	<path class="st9" d="M682.6,1047.1c-11-7.7-24.2-17-35.2-24.8"/>
	<path class="st9" d="M663.8,981.3c7.6,13.6-1.3,29.2-12.5,37.4c-11.3,8.3-19.1,13.2-18.4,29.7c0.3,7.7,3.3,14.9,6.2,22
		c2.6,6.3,6.1,13.3,12.7,14.8c-1.1-7.7-1.6-15.1-0.2-22.7c2.1,3.4,4.4,6.7,7,9.8c2.7,3.2,5.7,6.4,6.9,10.4s-0.3,9.2-4.3,10.5
		c-4.9-7.2-10.5-14-16.8-20.1c0.9,0.2,1.8,0.7,2.4,1.5"/>
	<path class="st9" d="M565.1,1078.4c2.1-5.7,1.3-12,0.6-18.1c-4.4,0.1-8.8-0.2-13.1-0.9c-3,8.9-4.2,30.3,6.1,34.7
		C560.7,1089.3,563.2,1083.6,565.1,1078.4z"/>
	<path class="st9" d="M668.8,1040.8c7.1,11.2,6,26.9-2.6,37"/>
	<path class="st9" d="M550.1,1063c3.4-7.2,2.4-15.7,4.8-23.2c4.1-13,19.1-21.5,32.3-18.3c9.6,4.2,4.3,13.9,1.1,23.8
		c-4.9,15.2,0,28.2-21.3,31.5"/>
	<path class="st9" d="M605.9,1079.1c-5.4,0.9-11.3,0.3-15.9-2.7c-2.4-7.8-3.7-16-3.6-24.1c0-7.1,0.4-15.9,6.3-19.7
		c12.9-8.4,34.8-3.5,38.4,11.5C635.4,1062.3,624,1076.1,605.9,1079.1z"/>
	<path class="st9" d="M638.9,1028.5c-10,0.5-22.2,1.1-31.9-1.3c-7.4-1.8-14.2-5.3-21-8.8c-7-3.6-14.1-7.3-19.5-12.9
		c-6.5-6.8-10.1-16.3-9.7-25.7c0.2-5.8,1.9-11.4,3.5-16.9c3.7-12.4,7.3-24.9,11-37.4"/>
	<path class="st9" d="M658.6,952.7c-4.3-11.9-11-25.9-18.1-36.5c-4.5-6.7-10.6-14.1-15.1-20.8"/>
	<path class="st9" d="M654.8,925.5c0.5-9.6-4.8-18.3-8-27.4c-3.7-10.4-4.5-21.8-2.6-32.6c-15,9.9-36.6,16.6-54.6,17.5"/>
	<path class="st9" d="M568.4,929.9c-8.5,0-16.5,7.3-24.6,4.9c-1.5-0.4-3-1.2-4.4-2c-9.8-5.4-19.6-10.8-29.4-16.2
		c-1-0.6-2.1-1.2-2.8-2.2c-0.9-1.2-1-2.9-1.2-4.4c-0.5-3.7-1.6-7.2-3.2-10.6"/>
	<path class="st9" d="M631.3,1032.8c1-0.3,2,0.7,1.9,1.7c-1.7-0.8-3.4-1.8-4.9-2.9c1,0.7,2.6,0.5,3.4-0.4"/>
	<path class="st9" d="M594.3,1027.4c-0.7-0.2-1-1.2-0.4-1.7"/>
	<path class="st9" d="M663.3,1006.2c18,5.9,36.4,10.7,55.2,12.5s38.1,0.4,56-5.7c2.2,0.4,7.5-2.2,9.2-3.6"/>
	<path class="st9" d="M664.3,1032.5c1.5-0.9,2.8-2.1,3.8-3.5c1.2-1.6,2-3.5,2.8-5.4c1.1-2.7,2.2-5.3,3.4-8c0.5-1.1,1.6-2.7,2.3-3.7"
		/>
	<path class="st9" d="M691.9,1043.3c1.8-1.9,3.3-4.2,4.4-6.7c0.7-1.6,1.2-3.4,1.8-5.1c1.3-4.2,2.5-8.3,3.8-12.5"/>
	<path class="st9" d="M722.7,1040c0.9-2.9,2-5.7,3.5-8.4c-2.6-2.9-0.2-7.8-1.7-11.4"/>
	<path class="st9" d="M694.7,1040.1c-1,1.1-2,2.2-3,3.3s-2,2.3-3.2,3.2c-1.2,0.9-2.6,1.7-4.1,1.9c-1.7,0.2-3.3-0.2-4.9-0.7
		c-2.7-0.7-5.4-1.5-7.7-2.9c-0.8-0.5-1.5-1.1-2-1.9c-0.8-1.5-0.5-3.3-0.8-5"/>
	<path class="st9" d="M531.6,971.2c-9.7,3.9-10.2,17.9-5.6,27.3c4.6,9.4,12.4,17.4,14.3,27.7c-8.5-4.7-18.5-6.5-28.1-5.1
		c0,0,2-0.1,1.6,0.9c-0.4,1,2.8-0.1-0.6,1.2"/>
	<path class="st9" d="M505.8,1056c12.9,0.7,32.4-0.4,45-2.8"/>
	<path class="st9" d="M528,970.7c-7.8-3.3-15.5-6.7-23.3-10"/>
	<path class="st9" d="M502.7,907.5c-4.5,22.8-3.9,46.6,1.7,69.1c2.7,10.9,6.6,21.6,8.2,32.8c3.9,26.1-6.5,55-28.9,69.1"/>
	<path class="st9" d="M466.4,1071.7c-4.2-2.6-5.5-8.1-5.4-13.1c0.1-3.5,0.6-6.9,1.6-10.2c0.7-2.3,1.7-4.6,2.6-6.9
		c1.1-2.7,2.3-5.4,3.4-8.1c0.5-1.2,1.1-2.5,2-3.4c1.2-1.1,2.8-1.5,4.3-1.8c4.2-0.9,8.4-1.4,12.7-1.7c0.2,0,0.5,0,0.7,0.2
		c0.2,0.2-0.2,0.5-0.3,0.3"/>
	<path class="st9" d="M467.8,1074.5c-0.6,0.2-1.2-0.3-1.6-0.7c-1.2-1.2-1.1-3.1-2.3-4.3"/>
	<path class="st9" d="M460.8,1061c-1.6,0.8-2.7,2.3-4,3.6c-3.7,3.8-8.7,6.3-14,6.8"/>
	<path class="st9" d="M419.7,1070c-0.2-2.1-2.2-3.5-3.9-4.8c-2.1-1.7-3.9-3.8-5.2-6.1"/>
	<path class="st9" d="M401,1047.4c2.6-6.6,6.4-17.4,8.9-24c1.3-3.2,2.7-6.7,5.7-8.6c1.9-1.2,4.2-1.6,6.5-1.7
		c5.9-0.2,11.8,1.6,16.6,5.1"/>
	<path class="st9" d="M456.7,1024.3c-1.6,0.7-3.4,0.2-5-0.6c-1.5-0.8-2.8-2-4.3-2.9c-2.8-1.8-6.1-2.6-9.4-2.4
		c-0.5,0-1.1,0.1-1.6,0.3c-0.8,0.4-1.4,1.2-1.8,2c-5.4,8.7-11.4,17.1-17.8,24.9c-2.2,2.7-4.5,5.4-5.1,8.8c-0.6,3.1,0.3,6.3,1.9,9.1
		s3.8,5,5.9,7.3"/>
	<path class="st9" d="M524.9,927.2c1.2,5.6-1.5,11.3-5.1,15.8c-3.5,4.5-8,8.2-11.2,13c-0.9,1.3-4.5,1.1-5.6,2.3
		c3.9,2,6.2,5,10.1,6.9c2.1,1,4.4,1.8,6.6,2.5c7.9,2.5,15.8,5,23.6,7.6c4.2,1.3,8.4,2.7,12.7,2.9"/>
	<path class="st9" d="M402.5,1038.3c-9.5,0-19.1-0.1-28.6-0.1c-2.5,0-5,0-7.3,0.9c-1.8,0.7-3.4,2-5.1,2.9c-2.9,1.5-6.4,2-9.6,1.5
		c2.1-15.4,11.9-28.5,19.8-41.9c2-3.3,3.9-6.8,7-9.2s7.6-3.3,10.8-1.2c3.2,2.2,2.9,5.8,6.7,6.8c3.9,1.1,10.5-1.2,13.4-3.8
		c2.5-2.3,3.8-5.5,5-8.7c1.9-4.9,3.7-9.8,5.2-14.8c1.9-6.6,3.3-13.6,7.6-19.1c0-11-0.8-21.4-0.8-32.4c0-4,0-8.1-0.8-12
		c-0.7-3.2-2-6.3-3.8-9.1c9.1,7.4,16.7,15.5,27,21.1"/>
	<path class="st9" d="M445.3,865.1c-2,19.1-0.7,38.5,3.7,57.1c3.6,15,9.1,29.5,11.3,44.8c1.2,8.3,1.3,16.6,1.2,25
		c0,3.2-0.1,6.5-1.1,9.6c-0.9,2.9-2.6,5.4-4.5,7.9c-3.4,4.5-6,7.7-10.5,11.2"/>
	<path class="st9" d="M540.6,934.2c1.1,5.5-0.2,11.2-2.6,16.3c-2.4,5.1-5.7,9.6-9.1,14.1c-0.5,0.6-1,1.3-1.8,1.4
		c-0.8,0.1-1.7-0.8-1.2-1.4"/>
	<path class="st9" d="M543.8,974.7c1.6-4.2,3.2-8.5,4.9-12.8c1.2-3.2,2.5-6.5,2.7-9.9c0.2-2.9-0.3-6,0.9-8.7c-2-2.5-2.7-6-2-9.1"/>
	<path class="st9" d="M656.2,940.3c-0.1-3.1-0.6-6.4-2.6-8.8c-0.7-0.9-1.6-1.6-2.3-2.4c-0.9-1-1.7-2-2.5-3.1c-1.4-2.1-2.8-4.2-4-6.4
		c-1.4-2.5-2.8-5.2-5.3-6.6"/>
	<path class="st9" d="M680.5,931.6c-2.2,2.2-4.8,3.9-7.6,5.1"/>
	<path class="st9" d="M424.7,904.1c-9.9-7.1-19.6-21.2-22.8-33c-3.2-11.8-3.5-24.2-3.2-36.4c0.1-6.3,0.4-12.7,1.9-18.9
		c1.8-7.5,5.4-14.6,8.9-21.5c6.3-12.5,12.7-25,19-37.5c2.6-5.1,5.2-10.3,7.8-15.4c4-7.9,8-15.9,12-23.8"/>
	<path class="st9" d="M414.7,892c10.2,1.4,22.9,0.8,28.1-8.2c-7.2-14-8.8-30.8-4.5-46c2.2-7.7,5.8-15,9.4-22.1
		c7.9-15.7,15.9-31.5,24.3-46.9c5.2-9.4,10.5-18.8,14.1-28.9c2.7-7.7,4.2-15.8,5.8-23.9c1.9-10.1,3.9-20.2,5.8-30.3"/>
	<path class="st9" d="M435.6,677.1c7-0.9,13.5-4,19.9-7.1c3-1.4,6.1-3,8.1-5.6c1.9-2.6,2.5-6,3-9.2c0.8-5,1.5-10.2,0.1-15.2
		c-2-7-8-12.5-14.7-15.2s-14.3-3.2-21.6-2.9c-3.3,0.1-6.8,0.4-9.7,2c-3.1,1.7-5.2,4.7-7.2,7.5c-2.6,3.7-5.2,7.3-6.8,11.5
		c-1.8,4.4-2.5,9.1-3.1,13.8c-1.2,8.3-3.1,18.3-0.5,26.5C414.2,677.5,423.4,678.7,435.6,677.1z"/>
	<path class="st9" d="M400.8,867.1c9.7,6.2,22.4,7.2,33,2.6"/>
	<path class="st9" d="M435.5,842.5c-13.9,0.2-29.2-5.3-35.6-17.7"/>
	<path class="st9" d="M411.4,794c0.5,7.5,6.8,13.7,13.9,16.4s14.9,2.6,22.4,2.5"/>
	<path class="st9" d="M424.7,763.9c8.6,11.5,23.4,18,37.7,16.5"/>
	<path class="st9" d="M485,736.4c-5.5,0.9-10.4,3.8-15.5,5.8c-5.9,2.3-12.3,3.5-18.6,3.4c-1.4,0-3-0.2-4-1.1
		c-0.7-0.7-1.1-1.7-1.5-2.6c-1-1.9-2.8-3.4-4.9-4.1"/>
	<path class="st9" d="M421.7,656.3c-4.1,0-7.6,4.2-7,8.2c0.1,0.4,0.2,0.8,0.4,1.1c0.4,0.5,1.1,0.8,1.8,0.9c2.6,0.7,5.9,1.2,7.6-1
		c1.4-1.8,0.6-4.7-1.2-6.2c-1.8-1.5-4.1-2-6.4-2.5"/>
	<path class="st10" d="M602.4,613c-8.1-0.7-16.2-2.5-23.8-5.5c9.7-7.2,18.1-16.2,24.7-26.1c20-29.6,26.2-66,19.8-100.8
		c-2.6-14.2-6.7-28.1-9.5-42.2c1.8-11.3,2.5-23,1.8-34.9c-0.3-5.4-8.4-7.1-9.8-1.3c-0.8,3.5-1.9,6.8-3,10.1c-1.1,0.8-1.9,2.1-1.8,4
		c0,0.2,0,0.4,0,0.7c-12.8,30.8-40,52.9-67.1,72.3c7.2-17.1,13.3-34.7,18.1-52.6c16.4-61,16.3-124.3,8.2-186.6
		c-2.4-18.2-5.3-36.4-8.6-54.5c-1.7-9.2-3.2-18.4-5.3-27.5c-1.4-5.9-4.3-12-10.8-13.4c-3.3-0.7-6.2,1.5-6.3,4.8
		c-1.7,42-7.8,83.6-18.3,124.3c-7.2,28.2-16.8,55.5-27.8,82.2c-1.2-2-2.8-3.7-4.4-5.5c-3.5-3.9-7-7.8-10.5-11.7
		c-7.2-8-14.5-16.1-21.7-24.1c-3.3-3.7-9.9,0.2-8.4,4.9c0.3,1,0.6,2.1,1,3.1c-0.8,1.3-0.9,3,0.2,4.8c0.8,1.4,1.6,2.8,2.5,4.3
		c7.9,29.1,10.3,59.3,7.3,89.4c-0.2,2.2,0.8,3.7,2.3,4.3c-2.2,4.7-4.5,9.3-6.7,14c-2-30.4-9-60.4-18.4-89.3
		c-9.8-29.8-27.4-62.7-61.4-68.4c-3.4-0.6-6,1.4-6.3,4.8c-6.4,73.6-13.2,148.5-39.1,218.3c-7.2,19.5-16.1,38.3-26.6,56.2
		c-1.6,2.7-0.3,5.3,1.8,6.6c7.8,20.5,14.1,41.6,18.5,63.1c2.2,10.8,3.1,21.4,0.1,32.2c-2.9,10.6-8.1,20.3-13.2,29.8
		c-0.8,1.5-1.1,3.6,0,5c11.8,16.2,26.5,29.7,43.7,39.9c0.8,0.5,1.5,0.7,2.2,0.7c6,3.2,13.7,3.9,20.3,4.1c8,0.2,15.6-2.2,22.7-5.7
		c7.4-3.6,14.1-8.3,21.1-12.6c8.1-4.9,16.6-8.5,25.5-11.7c3.2-1.1,6.3-2.3,9.3-3.5c0.8,0.6,1.8,1,3.1,1c2.9,0,4.5-2,4.8-4.2
		c11.1-4.7,21.6-10.3,31.7-17.7c13.3-9.7,28.5-20,38-33.5c9.2-13,7.7-28.2,3.6-42.7c5.9,1,11.6,1,17.3,0.4c0.1,0.2,0.1,0.3,0.2,0.5
		c8.6,19.6,4.5,41.5,0.2,61.6c-0.3,0.5-0.6,1-0.7,1.5c-6.5,24.7-25,44.5-29.9,69.8c-0.4,0.7-0.5,1.5-0.4,2.5c0.2,2.2-0.8,4.6-1,6.8
		c-0.2,2.6,0,5.2,0.5,7.7c0.5,2.2,1.3,4.5,2.8,6.2c0.6,0.6,1.2,1.2,1.9,1.6c0.9,0.5,3.2,1.9,1.1,0.1c4.8,4.2,11.9-2.8,7.1-7.1
		c-0.9-0.8-1.7-1.2-2.7-1.6c0-0.2,0-0.5,0-0.7c-1.3-9.5,5.8-17.5,12.6-23c7.2-5.8,15.2-10.7,22.5-16.5c7.3-5.9,14.3-12.3,20.6-19.3
		c5.4-5.9,10.4-12.8,9.8-21.2c-0.2-2.5-2.2-5.2-5-5c-9.8,0.8-19.4,0-28.8-2.4c1.3-6.6,2.5-13.2,3.3-19.8c8.9-3.8,16.9-9.3,23.2-16.8
		s11.1-23.2,22.2-24.5C608.7,622.2,608.9,613.6,602.4,613z M608.4,461c4.4,18.6,8.6,37.2,7,56.7c-1.8,21.2-8.7,44.4-21.5,62.3
		c-1.5-0.3,0.5,0-0.6,1.3c-0.1,0.1,7.3,0.5,7.4,0.5c-0.4,0.3-7.6-0.1-8,0.1c-0.1,0.1-0.3,0.1-0.4,0.2c-0.1,0,2.6-0.2,2.5-0.2
		c-0.2,0-3.9,1.8-2.8,1.6c-1.2,0.2-2.4,4-3.3,4.7c-0.8-0.2-3.8,4.9-4.8,5.3c-5.9,2.1-9.5,6.5-14.6,9.8c-5.8,3.7,2.4,3.4,3.6-1.8
		c1-4.5-3.6,1.4-7.5,3.2c-6.9,3.2-21.9-10-28.8-6.8c-0.7,0.3-8.4-6.9-8.8-6.4c-4.2,0.3-8.5,0.6-12.7,1c4.3-4.2,7.2-9.6,10.2-14.8
		c1.3-2.2,2.5-4.3,3.8-6.5c1.8,1.8,4.7,2.4,7,0.2C567.8,540.6,595.7,503.2,608.4,461z M578.6,595.2c-2.1,1.9-4.4,3.7-6.7,5.3
		c-0.4,0.3-0.9,0.6-1.3,0.9C573.2,599.4,575.7,597,578.6,595.2z M602.9,435c0.2,1.1,0.4,2.2,0.6,3.4c-7.6,44.6-34,84.3-65.5,117.1
		c0.5-3.8-3.9-6.5-7.5-4.9c-14,6.2-28,12.4-41.9,18.7c14.3-19.8,26.9-40.8,37.4-62.8c0.5-0.1,1.1-0.4,1.7-0.8
		C555.5,486.1,585.3,464.5,602.9,435z M471.9,368.1c1,1.4,1.6,2.3,1.7,3.3c-0.6-1.3-1.4-2.5-2.2-3.8c-0.1-0.2-0.3-0.4-0.4-0.6
		C471.3,367.3,471.6,367.7,471.9,368.1z M515.2,657.3c-7.5,12.4-21.8,21.7-33.2,30.3c-13.5,10.1-27.5,17.8-43.4,23.3
		c-7.5,2.6-15,5.2-22.2,8.5c-7,3.2-13.3,7.3-19.8,11.4c-6.6,4.2-13.4,8.5-21.1,10.6c-4.4,1.2-8.7,1.4-13.2,1
		c-3.8-0.4-9.7-0.5-12.8-3c-0.8-0.7-1.7-1-2.6-1.2c-14.3-8.7-26.9-19.9-37-33.3c4.8-8.9,9.4-18,12.2-27.6
		c3.3-11.2,3.3-22.3,1.4-33.7c-4-24-11.3-47.6-20.1-70.3c-0.1-0.2-0.2-0.4-0.3-0.6c36.9-64.7,50.9-138.9,59-212.1
		c2.1-19.3,3.9-38.7,5.6-58c28.6,8.1,42,38.6,50.3,65.1c10.3,33.2,17.5,67.6,17,102.5c-0.1,4.7,7.1,7.1,9.3,2.5
		c18.7-39.3,38.5-78.3,54.3-118.9c15.5-39.8,26.7-81.3,33.4-123.5c2.8-17.6,4.8-35.4,6.1-53.2c0.2,1.5,0.3,2.7,0.5,3.5
		c1.5,7.7,3,15.4,4.3,23.1c2.8,15.6,5.3,31.3,7.4,47c4,30.9,6.2,62.2,5.2,93.4c-1.8,55.2-15,109.7-39.1,159.4
		c-12.8,26.4-28.5,51.4-46.9,74.3c-0.9,0.4-1.8,0.8-2.7,1.2c-4.5,2.1-2.5,7.7,1.3,8.9c1.8,1.6,4.4,2,6.3-0.4
		c0.4-0.5,0.9-1.1,1.3-1.6c15-6.9,30.1-13.7,45.2-20.4c-0.9,1.5-1.8,3.1-2.7,4.6c-3.1,5.3-6,11.4-10.6,15.7
		c-8,7.4-20.8,7.4-30.7,11.4l0,0l0,0c-0.4,0.2-0.8,0.3-1.2,0.5c-5.6,2.5-1.3,10,3.9,9.1c8.2-1.3,16.4-2.4,24.6-3.4
		c-5.5,2.5-11,5.1-16.5,7.6c-5.8,2.7-0.8,11.3,5,8.6c6.4-2.9,12.7-5.9,19-8.8c0.6,1.6,1.2,3.2,1.8,4.9c0.1,0.7,0.3,1.3,0.7,2
		C518.6,630.8,522.4,645.4,515.2,657.3z M522.2,611.1c-0.5-1.3-0.9-2.5-1.4-3.8c-0.1-0.2-0.1-0.3-0.2-0.5c4.6-2.1,9.2-4.2,13.7-6.3
		c1.2-0.6-1.6,16.8-1.3,15.7c3.7-1.7-18.4-8.7-14.8-10.5c1,5.7,24.4,13.1,30.5,14.5c3.3,0.8,15.3-15.1,17.7-16.2
		C553.1,611.9,537.4,615.2,522.2,611.1z M576.8,696.8c-2.3,6.7-9.4,12.4-14.1,17c-7.1,6.8-14.8,13.1-22.8,18.8c-4,2.8-8.2,5.8-12,9
		c6.9-16.2,17.5-31,23-47.9C559.3,696,568,697,576.8,696.8z M577.9,633.6c-5,8.2-11.6,14.9-19.9,19.4c0.4-11-0.9-21.8-5-32.4
		c5.5-1.5,10.7-3.8,15.8-6.6c0.4,0.3,0.8,0.6,1.3,0.8c5.7,2.5,11.5,4.4,17.5,5.8C583.7,624.2,580.8,628.8,577.9,633.6z"/>
	<path class="st11" d="M366.7,594.5c0,0.6,0,1.2,0.1,1.8c0.1,6.4,10.1,6.5,10,0c0-1-0.1-2.1-0.1-3.1c4.2-2.5,7.3-7.1,7.3-12.2
		c0-8.5-7.3-14.2-15.1-15c-3.4-0.4-5.4,3.5-4.8,6.3"/>
	<path class="st11" d="M407.9,528.2c2.5-4.8,5.7-9.2,9.5-13.2c1.9-2,2.2-4.9,0.4-7.1l-43.3-49.2c-3.8-4.3-10.6,0.6-8.1,5.7
		c8,16.7,16,33.5,24,50.2c0.7,4.4,1.4,8.9,2.1,13.3c-1.1,4.6-1.6,9.3-1.8,14c-0.1,5.7,7.7,7.3,9.7,1.9c0.3-0.8,0.6-1.6,0.9-2.5
		c0.9-0.5,1.7-1.3,2.2-2.3"/>
	<path class="st11" d="M457.4,449.3c-1.3-3.1-4.1-5.7-6.3-8.1c-2.6-3-5.2-5.9-7.8-8.9c-5.2-5.9-10.4-11.9-15.5-17.8
		c-1.3-1.5-2.8-1.8-4.2-1.5c-1.3-2.2-2.5-4.4-3.8-6.6c-3.2-5.6-11.9-0.5-8.6,5c3.2,5.5,6.4,11.1,9.6,16.6
		c2.9,18.8,5.8,37.6,8.7,56.4c1,6.3,10.6,3.7,9.6-2.7c-0.2-1.5-0.5-3-0.7-4.5c1.1-0.5,2.1-1.5,2.4-3.2c1.2-6,4.6-10.7,10.1-13.5
		C455.7,458.3,459.9,455.2,457.4,449.3z"/>
	<path class="st10" d="M341.8,707.1c-0.5,0-1-0.2-1.6-0.4c-0.1-0.3-0.2-0.7-0.4-1.1c-0.6-1.3,0.6-4,2.2-4.2c4.5-0.5,7.4-6.8,2.5-9.3
		c-7.1-3.6-15.9,1-17.3,8.8c-1.6,8.9,6.6,15.3,14.6,16.1c2.7,0.3,5-2.5,5-5C346.8,709.1,344.5,707.3,341.8,707.1z"/>
	<path class="st9" d="M501.9,913.7c-0.3-6.4,0.2-12.8,1.5-19.1c2.3,4.9,0.2,11.2,2.7,16"/>
	<path class="st9" d="M524.5,924.5c0.1,1.5,0.2,3,0.5,4.5"/>
	<path class="st9" d="M520.8,967.1c1.1,0,2.1-0.5,3.1-1.1c1.7-1,3.4-2.1,5-3.2"/>
	<path class="st12" d="M403.8,1068.1c1.1-0.7,2.2-1.4,3-2.4c1.2-1.5,1.5-3.6,1.8-5.5c0.2-1.6,0.3-3.2,0.3-4.7c0.1-2.5,0-5.1-1.4-7.2
		c-1.4-2.1-4.3-3.4-6.4-2.2c-1,0.6-1.7,1.6-2.4,2.6c-3.8,5.8-7.5,11.7-11.3,17.5c-1.4,2.1-2.9,4.4-3.4,7c3.4,2,5.3,2.4,9.1,0.9
		C396.9,1072.5,400.4,1070.3,403.8,1068.1z"/>
	<path class="st12" d="M439.1,1077.1c0.9-1.2,1.6-2.6,2-4.1c0.8-3.7-1.2-7.7-4.5-9.4c-3.3-1.7-7.7-1.2-10.6,1.2
		c-1.6,1.4-2.8,3.2-3.8,5.1c-1.8,3.4-3.1,7.2-3.7,11c-0.2,1-1.1,4.3-0.3,5.1c0.6,0.6,3.8-0.1,4.6-0.3
		C429,1084.9,435.3,1082.3,439.1,1077.1z"/>
	<path class="st12" d="M484.1,1068.2c0.5,2.5,0.9,5.1,0.1,7.5c-0.4,1.2-1,2.2-1.6,3.3c-1.8,3.6-2.5,7.7-2,11.7
		c-1.1-1.1-2.3-2.3-3.4-3.4c-0.8-0.8-1.6-1.6-2.4-2.5c-4.4-5.1-6.6-12.1-5.9-18.8c0.4-3.6,4.9-6.9,8.5-6.4
		C481.7,1060.2,483.4,1064.4,484.1,1068.2z"/>
	<path class="st12" d="M607.2,1063.5c-4.6,9.3-5.1,20.5-1.3,30.2c0-4.9,3.3-9.3,3.7-14.1c0.2-2.4-0.3-4.9-0.8-7.3
		c-1-4.4-1.9-8.8-2.9-13.2c-0.1-0.5-0.3-1.1-0.8-1.2s-0.5,1-0.1,0.8"/>
	<path d="M481.7,1064.6c-2.1-3.4-6.8-3.9-9.8-1.5c-2.9,2.4-3.2,6.2-2.7,9.7c0.3,1.8,0.8,3.5,1.6,5.2c0.9,1.6,1.5,2,1.3,3.8
		c-0.3,2.7,2.5,5,5,5c3,0,4.7-2.3,5-5c0.1-1.2,0.1-2.4-0.2-3.6c0.5-0.7,0.8-1.7,0.8-2.8C482.9,1071.9,483.6,1067.7,481.7,1064.6z"/>
	<path d="M435.4,1064.9c-4.1-2.2-9.1,0.1-11.8,3.4c-2.8,3.3-4.5,7.9-5.2,12.1c-0.5,2.7,0.7,5.4,3.5,6.2c1.1,0.3,2.4,0.2,3.5-0.4
		c1.2,0.3,2.5,0.2,3.6-0.6c3.3-2.3,6.8-5.4,8.8-9C439.8,1072.7,439.6,1067.3,435.4,1064.9z"/>
	<path d="M407.7,1051.1c-0.9-3.6-5.8-4.9-8.4-2.2c-2.8,3.1-5.8,6-8.8,8.9c-2,1.9-1.9,4.3-0.7,6c-0.8,0.8-1.4,1.7-2.5,2.2
		c-5.8,2.8-0.7,11.4,5.1,8.6c2-0.9,3.1-2.8,4.8-4c2.1-1.4,4.4-1.9,6.3-3.8C407.8,1062.6,409.1,1056.8,407.7,1051.1z"/>
	<path d="M567.6,1056c-4.1-2.3-11.3-1-15.9-1.1c-1.7,0-3,0.7-3.8,1.7c-0.6,0.4-1.1,0.9-1.5,1.6c-3.9,6.3-1,14.9,0.8,21.4
		c1.8,6.6,3.8,12.8,8.2,18.1c3,3.6,8.3,0.4,8.5-3.5c0.7-9.9,8.2-18,8.1-28.2C572.1,1062.5,570.9,1057.8,567.6,1056z"/>
	<path d="M606.2,1075.1c-6.4,0-6.5,10,0,10C612.6,1085.1,612.6,1075.1,606.2,1075.1z"/>
	<path d="M668.7,1077c-2.6-6.6-8.8-10.4-12-16.6c-0.2-0.5-0.6-0.9-0.9-1.2c0-0.4,0-0.9,0-1.3c-0.3-6.4-10.3-6.4-10,0
		c0.2,3.9,0.2,7.7-0.3,11.6c-0.4,3.4-1.3,6.3,0.3,9.6c1.4,2.9,3.7,5.5,5.4,8.3c1.9,3.2,3.5,6.5,5,9.9c1.9,4.3,7.9,2.4,9.1-1.2
		c1.2-3.4,3.4-5.9,4.2-9.5C670.1,1083.3,669.9,1080.1,668.7,1077z"/>
	<path class="st13" d="M363.1,1042.6c1,0,1.9-1,2.1-2s0-2.1-0.4-3.1c-1-2.8-3-5.2-5.4-6.8c-1-0.7-2.2-1.2-3.4-1.4
		c-0.7-0.1-1.5-0.1-2.1,0.3c-0.5,0.3-0.8,0.7-1.1,1.2c-3.9,5.5-6.7,11.8-8.1,18.3c5.3,0.8,10.6-0.7,15.7-2.1
		c1.1-0.3,2.2-0.6,3.1-1.2c0.9-0.6,1.7-1.6,1.8-2.7c0-0.8-0.2-1.5-0.5-2.2c-0.9-2.2-1.7-4.5-2.6-6.7"/>
	<path d="M363.4,1039.2c-0.3-1.2-1.2-2.3-1.6-3.3c-0.6-1.6-1.1-2.8-2.2-4.2c-1.8-2.2-5.2-1.6-7.1,0c-2,1.6-2.3,3.9-2.7,6.2l0,0
		c-0.5,0.4-0.9,0.9-1.3,1.3c-0.7,0.8-1.5,1.5-2.3,2.2c-2.2,1.6-3.3,4.3-1.8,6.8c1.3,2.2,4.6,3.4,6.8,1.8c1.3-0.9,2.5-2,3.7-3.1
		c0.8,0.2,1.7,0.2,2.5-0.1C360.9,1045.6,364.6,1043.5,363.4,1039.2z"/>
	<path class="st7" d="M503,622.7c-6.4,0-6.5,10,0,10C509.4,632.7,509.4,622.7,503,622.7z"/>
	<path class="st7" d="M505.4,636.4c-6.4,0-6.5,10,0,10C511.8,646.4,511.8,636.4,505.4,636.4z"/>
	<path class="st7" d="M499.7,651.8c-6.4,0-6.5,10,0,10S506.2,651.8,499.7,651.8z"/>
	<path d="M448.5,450.8c-3.5,4.4-7.1,8.9-10.1,13.7c-1.4,2.3-2.6,4.7-3.7,7.2c-1,2.5-1.7,5.5-3.5,7.6c-4.2,4.8,2.8,11.9,7.1,7.1
		c3.6-4.1,4.5-9.2,7-13.9c2.8-5.3,6.5-10,10.2-14.6C459.5,452.8,452.5,445.7,448.5,450.8z"/>
	<path d="M425.1,410.8C425,410.8,425,410.8,425.1,410.8c-0.1-0.1-0.2-0.2-0.3-0.2c-0.4-0.3-0.8-0.7-1.1-1c-0.3-0.3-0.6-0.7-0.9-1
		c-0.1-0.2-0.2-0.3-0.3-0.5c-1.5-2.2-4.4-3.3-6.8-1.8c-2.1,1.4-3.4,4.5-1.8,6.8c1.7,2.5,3.7,4.5,6.2,6.3c1,0.7,2.7,0.8,3.9,0.5
		c1.2-0.3,2.4-1.2,3-2.3C428.2,415.1,427.3,412.4,425.1,410.8z"/>
	<path d="M469,347.2c-7.9-8.8-16.2-17.1-24.6-25.4c-0.1-0.1-0.2-0.2-0.3-0.2c-1.2-5.1-9.9-4.7-9.9,1.3c0,18.3,4.2,36.1,8.2,53.9
		c2,9,3.9,18,5,27.1c0.9,7.2,1.6,14.9,0.4,22.2c-0.5,1.6-1,3.3-1.2,5c-0.9,6.2,7.6,9,9.6,2.7c0.5-1.5,0.9-3.1,1.2-4.7
		c1.4-3.8,3.7-7.3,5.7-11c2.6-4.8,5-9.6,7.2-14.6c4.6-10.2,8.8-20.9,11.8-31.7C485,361.9,475.1,354,469,347.2z"/>
	<path d="M429.1,661c0-0.1,0-0.1,0-0.2c-0.1-0.6-0.3-1.1-0.5-1.6c0-0.1-0.1-0.3-0.1-0.4c-0.3-0.8-0.7-1.4-1.2-1.9
		c-2.2-3-5.9-4.8-9.6-4.6c-2.8,0.1-5.4,1.4-6.8,4c-1.3,2.4-1.3,5.7-0.4,8.2c1.8,5,7.2,8.6,12.5,6.9c2.4-0.7,4.5-2.4,5.7-4.6
		C429.7,664.8,429.6,662.9,429.1,661z"/>
</g>
</svg>
