<?xml version="1.0" encoding="utf-8"?>
<!-- Generator: Adobe Illustrator 24.1.0, SVG Export Plug-In . SVG Version: 6.00 Build 0)  -->
<svg version="1.1" id="Layer_1" xmlns="http://www.w3.org/2000/svg" xmlns:xlink="http://www.w3.org/1999/xlink" x="0px" y="0px"
	 viewBox="0 0 3024.5 942.8" style="enable-background:new 0 0 3024.5 942.8;" xml:space="preserve">
<style type="text/css">
	.st0{fill:#414042;}
</style>
<g>
	<g>
		<path class="st0" d="M410.2,53.8c9.3,1,18.5,1.8,27.8,2.9c79.3,9.6,150.6,38.9,212.6,89.2c78,63.3,125.3,145,142.2,243.9
			c13.1,76.6,9.5,152.5-21.1,224.8C717.4,743.3,621.5,824.5,484.2,851c-208.7,40.3-401.1-93.5-448-288.8
			C14.9,473.7,24.5,388,61.3,305c0.9-2,1.8-3.9,2.9-6.4c-5.2-3.8-10.5-7.5-15.7-11.3c-5.1-3.7-10.2-7.4-15.7-11.4
			c3-5.3,5.9-10.5,9-15.7c36.5-61.3,83.5-112.4,144.8-149.7C234.8,81.1,286.9,63.2,343,56.6c9.1-1.1,18.2-1.9,27.2-2.9
			C383.5,53.8,396.9,53.8,410.2,53.8z M269,408.5c-36.1,23-61.7,54-74.6,94.4c-20.7,64.7-10.1,125.8,26.8,181.8
			c44.5,67.5,110.2,99.3,189.3,105c31.5,2.3,62.6-1.9,92.9-10.5c97.6-27.5,166.5-89,205.7-181.5c35.6-83.9,36.8-170.2,4.3-255.8
			C655.1,188.4,492.5,97.2,330.5,126.8c-72.7,13.3-133.8,47.4-181.8,104c-8.2,9.7-15.4,20.3-22.3,29.4c2.4,3.3,4.1,5.6,5.4,7.5
			c12.9-8.2,24.9-16.3,37.4-23.6c44.7-26,92.6-42.3,144.3-46c54.9-3.9,107.5,5.6,156.1,31.6c89.8,48.1,144.1,121.7,153.6,224.7
			c5.2,56-7.8,108.7-37.4,156.6c-46.7,75.6-133.5,113.1-218.9,94.7c-44.7-9.7-82.2-31.8-107.7-70.4c-38.8-58.8-39.5-120.3-8.2-182.5
			c6.7-13.4,15.8-25.6,24.2-39.2c-0.8-0.7-2.6-2.2-4.4-3.7C270.3,409.5,269.8,409.1,269,408.5z M460.9,574.6c1-1.2,1.6-2.1,2.4-3
			c13-15.2,20.2-32.7,21.4-52.7c2.9-51.4-39.5-93.1-90.8-89.8c-58.7,3.7-102.7,57.6-96.4,116.3c8,74,88.2,116.9,154.2,82.3
			c15.1-7.9,27.6-19,37.6-33.3C479.6,587.7,470.3,581.3,460.9,574.6z M109.6,588c2.4-0.9,4.3-1.7,6.2-2.1c2.6-0.7,3.1-2.1,3-4.7
			c-3-49.3,6.5-96.1,29.6-139.9c46-87.5,142.9-133.8,239.5-114.7c52.9,10.5,97.2,36.4,134.6,74.6c8.6,8.8,16.4,18.3,24.7,27.6
			c1.2-0.4,2.6-0.8,4-1.4c1.5-0.6,3-1.3,4.6-1.9c-0.4-1.6-0.7-2.9-1-4.2c-9.1-31.9-25.5-59.5-48.2-83.5
			c-64.3-67.8-168.5-93.6-260.8-57.5C134.2,324,76.8,439.1,96.4,543.2C99.1,558.4,103,573.4,109.6,588z"/>
		<path class="st0" d="M2178,656c-15.2-3.3-31-5.4-45.8-10c-85.4-26.4-137-104.5-129.7-193.5c4.2-50.2,22.6-92.9,60.7-126.5
			c0.5-0.5,0.9-1.4,1.7-2.4c-3.8-4.2-7.9-8.4-12.1-13.1c18.9-19.2,41.3-32,66.1-40.4c57.7-19.4,115.3-20.3,170.6,7.9
			c63,32.2,95.9,85.9,103.4,155c5.9,54.1-5.9,104.5-39.2,148.4c-32.4,42.5-76.1,65.8-128.8,72.6c-2.8,0.3-5.6,1-8.6,1.7
			C2203.7,656,2190.7,656,2178,656z M2125.1,383.7c-28.2,23.3-39.4,52.8-38.3,88c1.6,49.7,34.3,90.6,82.1,101.7
			c53.4,12.2,103.2-9.1,126.3-54.4c14.3-28,17.7-57.9,12.1-88.5c-8.2-45.1-32.5-77.7-78.2-90.3c-29.7-8.2-59.1-5.2-86.8,8.4
			c-10.7,5.2-20.1,13.1-31,20.3C2116.6,374.8,2120.6,379,2125.1,383.7z"/>
		<path class="st0" d="M928.7,264c27.6,0,55.3,0,83.8,0c0,3.7,0,7,0,10.5c0,70-0.2,140,0.2,210c0,11.9,0.9,24,3.5,35.5
			c8.4,38.3,36.7,59,75.8,56.5c43.9-2.8,69.6-29.9,71-77c1-31.7,0.3-63.5,0.5-95.4c0-43.4,0-87,0-130.4c0-3.1,0-6.3,0-9.8
			c28.3,0,55.6,0,83.3,0c0.2,3,0.5,5.4,0.5,8c0,74.9,0,149.8,0,224.8c0,37.1-8.7,71.7-31.3,101.7c-25,33.4-59.7,50-100.3,55.6
			c-2.8,0.3-5.6,1.2-8.4,1.7c-12.8,0-25.7,0-38.5,0c-2.3-0.5-4.4-1.4-6.6-1.6c-63.5-6.8-110.2-46.7-126.9-108.7
			c-2.8-10.3-4.4-21-6.5-31.5C928.7,430.8,928.7,347.5,928.7,264z"/>
		<path class="st0" d="M1826.3,656c-14.9-3.5-30.3-5.8-44.6-11c-36.2-12.9-61.6-37.6-76.1-74c21.9-16.3,43.6-32.4,66.1-49.2
			c1.9,3.8,3.5,7,5.2,10.3c17,33.6,53.7,52.1,87,43.4c15.6-4,26.8-13.1,30.1-29.4c3.3-16.4-1.7-30.6-15.9-39.5
			c-12.1-7.9-25.4-14-38.5-20.1c-21-9.8-43.6-17.1-63.5-28.7c-53-30.6-70.3-91.3-42.2-142.3c12.4-22.6,31.1-38.5,55.1-47.8
			c45-17.1,89.8-15.2,133,5.6c23.3,11.2,39.9,29.6,51.1,53.9c-22,15.4-43.7,30.4-66,45.8c-3.1-5.4-5.9-10.5-9.1-15.2
			c-16.4-24.8-46-35.3-73.5-26.1c-12.2,4.2-21.7,11.4-24.3,25c-2.6,13.8,2.6,25.4,14.2,32.4c14.9,8.9,30.8,16.4,46.5,23.4
			c18.4,8.2,37.6,14.3,55.6,23.1c39.9,19.2,62.6,50.4,62.1,95.9c-0.5,47.1-19.1,84.5-61.8,106.7c-14.9,7.7-32.4,10.7-48.6,15.9
			c-2.3,0.7-4.5,1-6.6,1.7C1849.5,656,1838,656,1826.3,656z"/>
		<path class="st0" d="M1289.6,262.6c52.3,0.9,104.1,1,155.9,3c20.3,0.7,39,8.6,56.5,19.2c57.4,34.8,48.5,127-5.4,151.5
			c-1.4,0.7-2.8,1.7-5.2,3.1c3.1,1.4,5.2,2.3,7.2,3.1c62.5,28.3,80.8,105,38.3,159.2c-21.7,27.5-51.3,40.8-85,45.1
			c-17.5,2.3-35.5,2.1-53.2,2.1c-36,0.3-72.3,0.2-109,0.2C1289.6,520.5,1289.6,392.5,1289.6,262.6z M1373.3,574.4
			c1,0.5,1.6,0.9,2.1,0.9c14.5,0,29.2,0.5,43.7,0c8-0.3,16.3-1.2,24.1-3.3c21-5.8,31.7-21.2,32-44.4c0.3-23.6-10.3-39.7-31.5-45.7
			c-23.1-6.5-46.7-2.3-70.5-3.3C1373.3,511.3,1373.3,542.6,1373.3,574.4z M1373.3,418.2c17.5,0,34.1,0.7,50.6-0.2
			c21.5-1.2,35.3-16.3,36.6-37.4c1.2-22.4-11-39.7-32.9-42.2c-17.7-2.1-35.9-0.3-54.2-0.3C1373.3,364.6,1373.3,391.1,1373.3,418.2z"
			/>
		<path class="st0" d="M2512.5,342.4c0,30.4,0,59.3,0,89.1c54.2,0,108.3,0,163.1,0c0,21.7,0,42.5,0,64.4c-54.1,0-108.1,0-163.1,0
			c0,51.4,0,101.7,0,152.6c-28.3,0-55.8,0-83.6,0c0-128.3,0-256.2,0-384.6c87.8,0,175.1,0,263,0c0,25.9,0,51.6,0,78.4
			C2632.4,342.4,2572.9,342.4,2512.5,342.4z"/>
		<path class="st0" d="M2834,342.4c-37.1,0-72.4,0-108.5,0c0-26.4,0-52.3,0-78.6c99.7,0,199.1,0,299,0c0,25.9,0,51.6,0,78.4
			c-35.2,0-70.5,0-106.9,0c0,102.5,0,204,0,306.2c-28.3,0-55.5,0-83.6,0C2834,547,2834,445.5,2834,342.4z"/>
		<path class="st0" d="M1675.1,648.8c-27.8,0-55.1,0-82.9,0c0-128.3,0-256,0-384.6c27.5,0,54.9,0,82.9,0
			C1675.1,392.3,1675.1,520,1675.1,648.8z"/>
	</g>
</g>
</svg>
