<?xml version="1.0" encoding="utf-8"?>
<!-- Generator: Adobe Illustrator 24.1.0, SVG Export Plug-In . SVG Version: 6.00 Build 0)  -->
<svg version="1.1" id="Layer_1" xmlns="http://www.w3.org/2000/svg" xmlns:xlink="http://www.w3.org/1999/xlink" x="0px" y="0px"
	 viewBox="0 0 1200 1200" style="enable-background:new 0 0 1200 1200;" xml:space="preserve">
<style type="text/css">
	.st0{fill:#C73838;}
	.st1{fill:#CB4343;}
</style>
<g>
	<g id="Layer_2_1_">
		<g>
			<g>
				<path class="st0" d="M201.6,388.2c0-47.9,0.1-95.8-0.1-143.8c0-6.3,1.6-8,7.9-8.1c42.1-0.3,70.8,22,93.5,54.6
					c8.7,12.5,15.5,26.1,21.5,40.1c4,9.2,5.8,18.5,5.7,28.6c-0.3,52.1-0.1,104.3-0.2,156.5c0,12.5,1.2,24.8,5.3,36.6
					c7.5,21.6,24.3,32.3,47.8,30.6c21.7-1.5,41.1-18.2,44.9-38.5c5.2-28-11.2-53.4-37.9-58.7c-12.1-2.4-22.9,1.1-33.1,7.1
					c-5.2,3.1-7.5,3.8-7.5-3.9c0.2-42,0.1-84,0.1-126c0-4,0.2-6.4,5.5-7.2c94-13.9,180.8,46.3,200.6,139.5
					c22.3,105.2-53.2,205.6-160.4,213.3c-74.5,5.3-141.4-30.4-172.6-92.3c-14.7-28.7-20.5-59.6-20.8-91.4
					C201.4,479.5,201.7,433.8,201.6,388.2C201.7,388.2,201.6,388.2,201.6,388.2z"/>
				<path class="st0" d="M805.5,497.4c-12.7-8.5-24.9-13.9-39.2-11.2c-26.2,4.9-44.3,30.2-40.1,55.9c4.5,27.1,30.3,45.4,57.7,40.9
					c22.7-3.7,36.3-19.3,39.6-46c1.2-8.7,1.7-17.5,1.7-26.2c0.2-46.8,0.7-93.6-0.2-140.4c-0.4-19.3,4-36.6,12.6-53.4
					c12.4-24.4,27.4-46.6,50.2-62.6c17.1-12,35.9-18.2,57-18.1c7,0,8.9,1.9,8.8,8.9c-0.2,90.8-0.1,181.5-0.2,272.3
					c0,20.9-1.8,41.6-7.1,62c-19.2,73.6-77.4,122.3-155.1,129.6C715,716.3,640.6,674.4,611,605c-51.1-120.2,32.5-229.5,128.1-247.4
					c20.4-3.8,40.9-3.1,61.5-1.2c4.2,0.4,5,2.1,5,5.8C805.5,406.7,805.5,451.2,805.5,497.4z"/>
				<path class="st0" d="M1020.3,533c0-53.8,0.1-107.6-0.2-161.4c0-6.9,2.1-8.4,8.5-8.3c39.3,0.4,67.4,20.5,89.5,50.9
					c12.4,16.9,21.4,35.6,28.5,55.3c1.4,4,2,8.1,2,12.4c-0.1,71-0.1,142,0.1,213c0,6.4-1.2,8.6-8.2,8.6c-37.5-0.4-74.9-0.3-112.4,0
					c-6.4,0.1-8-1.8-8-8C1020.4,641.2,1020.3,587.1,1020.3,533z"/>
				<path class="st0" d="M1084.7,331.6c-37.5,0-63.8-25-63.9-60.6c-0.2-33.6,29-61.6,64.2-61.7c35.1,0,63.9,27.9,63.8,61.9
					C1148.6,306.7,1122.2,331.6,1084.7,331.6z"/>
				<path class="st0" d="M638.1,819.5c-11.2,0-20.5,0-29.8,0c-2,0-4.1,0.2-5.6-1.2c-2.7-2.6-5.3-5.9-5.5,1.5c0,0.5-6.7,0.5-10.2,1.2
					c-23.5,4.8-38-1-48.9-19.8c-9.6-16.5-6.8-35.7,8.3-51.7c3.8-4,1.7-6-0.2-9.2c-10.9-18.5-5.1-41,13.3-52.1
					c17.3-10.4,40.1-4.9,51.3,12.4c1.2,1.9,2.3,3.9,3.2,5.9c6.1,14.8,3.6,18.6-12.1,18.6c-3.1,0-6.2-0.1-9.3,0
					c-3.5,0.1-6.5,0.1-7.4-4.7s-4.7-6.7-9-4.4c-4.5,2.3-2.7,6.3-0.6,9.5c7.2,11.1,14.8,22,21.9,33.1c3.6,5.8,9,3.7,13.7,3.8
					c15.4,0.2,17.6,1.2,12.5,15.2c-4.4,12.5-0.5,20.6,6.3,29.5C632.7,810.6,634.8,814.5,638.1,819.5z M579.4,786.3
					c-2.3-3.2-4.7-6.6-7.3-9.9c-1.3-1.7-2.2-4.9-4.6-4c-2.7,0.9-3.8,4-3.9,6.9c-0.3,6.2,6.6,11.9,12.3,10.3
					C577.5,789.2,579.1,788.8,579.4,786.3z"/>
				<path class="st1" d="M82.9,788.9c9.1,6.3,11.9,12.3,9.3,20c-2.8,8.6-9.7,11-17.8,11.4c-23,1.2-23,1.2-23-22
					c0-10.1,0.1-20.2-0.1-30.3c-0.1-4.1,1-6.3,5.6-6c6.4,0.4,12.9,0.1,19.4,0.6c6.6,0.5,12,3.3,13.7,10.4
					C91.6,779.7,89.8,785.2,82.9,788.9z M59.7,802.7c-0.9,6.8-1,12,8.7,11.2c12-1,16.4-3.2,16.1-11.1c-0.2-7.5-4.3-9.4-16.1-10.2
					C59.7,792,58.1,795.7,59.7,802.7z M66.3,786.5c4.1-0.3,6.4-0.3,8.6-0.7c4.7-0.9,7.8-3.6,7.6-8.6c-0.1-4.9-3.1-7.6-8-8.1
					c-2-0.2-3.9-0.3-5.9-0.5c-6.3-0.8-9.9,0.3-9.4,8.2C59.6,783.4,59.7,788.3,66.3,786.5z"/>
				<path class="st1" d="M87.4,862c0.9,0,2.9,0.1,4.8,0.3c24.1,1.5,36,21.3,26,43.5c-3,6.6-8.2,10.5-15,12.6
					c-9.1,2.8-18.4,1.6-27.6,1.9c-3.7,0.1-4-2.1-4-4.9c0-16,0.1-32-0.1-48c0-4,1.4-5.6,5.4-5.3C80.2,862.2,83.3,862,87.4,862z
					 M79.8,891.2c0,5.9,0,11.8,0,17.7c0,2.4,0.1,4.1,3.3,4.7c17.7,3.8,29.7-5.9,29.2-23.8c-0.5-15.8-8.3-21.9-26.6-21.3
					c-4.2,0.1-6.2,1.2-5.9,5.7C80,879.9,79.8,885.5,79.8,891.2z"/>
				<path class="st1" d="M399.9,897.6c0-5.6,0.1-11.3,0-16.9c-0.1-4.8,4.7-5.8,5.8-3.8c3.1,5.5,5.1,1.5,7.8,0.4
					c6.4-2.5,12.7-3.2,17.9,2.5c2.1,2.3,3.2,4.2,6.2,0.7c4.8-5.6,11.4-6.5,17.8-3.9c6.5,2.6,8.3,8.8,8.3,15.4
					c0.1,7.6,0.1,15.2,0.1,22.8c0,2.4,0.7,5.2-3.4,5.3c-4,0.1-3.7-2.5-3.7-5c0-7.3,0.1-14.7-0.1-22c-0.2-5.7-1.6-11.1-8.7-11.2
					c-6.9-0.1-11.3,3.7-11.7,10.7c-0.5,7.3-0.3,14.6-0.4,22c0,2.9,0.3,5.7-4.2,5.6c-4.1-0.2-3.4-2.9-3.4-5.3c-0.1-7.3,0-14.7-0.1-22
					c-0.1-6-1.9-10.9-8.9-10.9c-6.6,0-10.8,3.8-11.3,10.2c-0.6,7.3-0.2,14.6-0.4,22c-0.1,2.6,1.1,5.9-3.6,6c-4.5,0.1-4-2.9-4-5.7
					C399.9,908.9,399.9,903.3,399.9,897.6z"/>
				<path class="st1" d="M356.8,916.8c0,5.9-0.1,11,0,16c0,2.7-0.9,4.1-3.8,4.1c-3.1,0-3.8-1.7-3.8-4.3c0-17.4,0-34.9,0-52.3
					c0-3.5,3-5.5,4.6-3.8c4.6,5.1,7.8,0.5,11.7-0.4c7.8-1.8,14.7-0.2,19,7.2c5.7,9.8,5.8,19.9,0.2,29.7
					C379.3,922.4,370.4,923.6,356.8,916.8z M356.9,898.3c-0.2,4,0.3,7.9,2.4,11.4c3.1,5,7.9,6.8,13.1,4.8c7.6-2.9,8.5-9.8,8.4-16.9
					c-0.1-7.2-1.8-13.7-9.8-15.8c-5.2-1.3-9.3,1.2-11.9,5.8C357.2,891,356.7,894.6,356.9,898.3z"/>
				<path class="st1" d="M205.8,780.5c0-6.5,0-11.5,0-16.6c0-2.4,0.1-4.4,3.4-4.5c3.7-0.1,4,2,4,4.8c0,17.1-0.1,34.3,0.1,51.4
					c0.1,4.5-3.3,6.5-5.4,4.3c-3.8-4.1-5.9-1.1-9,0.1c-2.3,0.9-4.9,1.6-7.3,1.5c-8.2-0.5-13.3-5.1-16-12.8
					c-3.6-10.3-1.4-23.2,5.5-29c6.3-5.3,13.3-5.3,20.3-1.4C202.4,778.9,203.4,779.3,205.8,780.5z M205.9,798.9
					c0.2-10-4.9-17.1-12.2-17.2c-7.1-0.1-12,6.4-12.3,16.1c-0.3,10.3,4.3,17.1,11.7,17.4C200.8,815.6,205.7,809.3,205.9,798.9z"/>
				<path class="st1" d="M320.8,815.1c0.9-0.2,4.1-1.1,7.4-1.7c1.5-0.3,3.6-3.1,4.7,0.4c0.5,1.9,0.3,3.6-1.9,5
					c-7,4.6-22.7,3.5-29.6-2.4c-7.4-6.3-9.7-19.7-4.9-29.6c4.1-8.5,13.3-12.6,23.5-10.7c8.9,1.7,16.1,12,14.8,20.8
					c-0.5,3.3-2.4,3.2-4.7,3.2c-7.3,0-14.6,0.4-21.9-0.1c-7.1-0.4-6.9,3.1-4.7,7.6C306.5,813.7,312,815.6,320.8,815.1z M314.1,794.8
					c1.4,0,2.9,0.3,4.2-0.1c2.8-0.9,7.6,2.5,8.2-2.7c0.5-4.6-2.6-7.8-7.1-9.4c-4.7-1.7-8.9-0.7-12.7,2.2c-2.6,1.9-4.8,4.7-4,7.9
					c0.9,4,4.7,1.5,7.2,2C311.3,795,312.7,794.8,314.1,794.8z"/>
				<path class="st1" d="M499.1,900.1c-3.1,0-6.2-0.2-9.3,0.1c-2.1,0.2-5-1.2-6.1,1.2c-1.3,2.7,0.1,5.6,1.8,7.8
					c6.1,7.9,14.1,6.3,22.3,4.5c1.8-0.4,4.6-4.2,6.1,0.2c1.2,3.6-1.7,4.8-4.4,5.8c-20.8,7.4-37.6-5.9-34-26.8
					c1.9-10.6,9.7-17.2,20.6-17.4c10.4-0.1,17.1,5.8,19.2,16.3c1.2,6,0,9.2-7,8.2C505.4,899.7,502.2,900.1,499.1,900.1z
					 M495.6,894.6c1.1,0,2.3,0.3,3.4,0c2.9-0.9,7.7,2.4,8.5-2.3c0.8-4.9-2.6-8.3-7.4-10c-3.5-1.2-6.7-0.7-9.8,0.8
					c-3.8,1.8-7.1,4.8-6.4,9c0.8,4.9,5.5,1.5,8.4,2.4C493.2,894.8,494.5,894.6,495.6,894.6z"/>
				<path class="st1" d="M250.5,900.1c-3.1,0-6.2-0.1-9.3,0.1c-2.1,0.1-5-1.2-6.2,1.2c-1.3,2.7,0,5.5,1.7,7.8
					c6.4,8.3,14.7,6.4,23.1,4.3c1.6-0.4,4.1-3.4,5.3,0.4c0.8,2.4-0.3,4-2.8,5.3c-8.3,4.1-22.1,2.9-28.8-2.9c-7-6-9.3-17.2-5.6-27.2
					c3.5-9.7,11.7-14.5,22.7-13.2c8.7,1,14.4,7.1,16.1,16.9c0.9,5.1,0,8.2-6.2,7.5C257.3,899.8,253.9,900.1,250.5,900.1z M247,894.6
					c1.1,0,2.3,0.3,3.3-0.1c2.9-1.1,8.2,3.1,8.6-3c0.3-4.9-3.2-8-7.9-9.4c-4-1.2-7.8-0.3-11.1,2c-2.9,1.9-5.5,4.8-4.7,8.3
					c1,4.3,5.1,1.5,7.7,2.2C244.1,894.8,245.6,894.6,247,894.6z"/>
				<path class="st1" d="M130.1,898.8c-0.1-16.1,10.9-25.8,26-22.8c8.8,1.7,16,12.4,14.6,21c-0.6,3.4-2.7,3-4.9,3.1
					c-7.6,0.1-15.2,0.3-22.8,0c-5.3-0.2-5.6,2.4-4.2,6.2c1.9,5.2,5.9,8.1,11.4,8.7c4.8,0.6,9.5-0.3,14.1-1.8
					c1.5-0.5,3.7-2.9,4.5,0.7c0.4,2,0.2,3.9-2.2,4.8c-8.7,3.3-17.5,4.4-26.1-0.2C132.9,914.4,129.9,907.4,130.1,898.8z M150.5,894.6
					c1.1,0,2.3,0.3,3.4,0c2.9-0.9,7.7,2.4,8.5-2.3c0.8-4.9-2.6-8.3-7.4-9.9c-4.1-1.4-7.9-0.6-11.3,1.6c-3.2,2-6.1,5.1-4.8,9
					c1.1,3.4,4.9,1.2,7.5,1.6C147.7,894.8,149.1,894.6,150.5,894.6z"/>
				<path class="st1" d="M595.2,1011.9c1.4,3.4,1.3,6.1-2.7,7.3c-10.1,3-20.2,4-28.6-3.7c-7.9-7.3-8.2-16.9-5.2-26.5
					c3.1-9.8,12.4-14.8,23.5-13.2c8.9,1.3,14.7,8.6,15.3,18.4c0.2,4.4-0.9,6-5.5,5.9c-7.6-0.3-15.2,0.1-22.8-0.1
					c-4.2-0.1-4.6,1.7-3.7,5.2c2.2,7.7,9.6,11.4,19.9,9.6C588.7,1014,591.9,1012.8,595.2,1011.9z M577.2,994.4L577.2,994.4
					c1.4-0.1,2.9,0.2,4.2-0.1c2.9-0.8,7.8,2.3,8.5-2.1c0.7-4.6-2.6-8.3-7.3-10c-4.6-1.7-8.9-0.6-12.6,2.2c-2.8,2.1-5.2,5.3-4.2,8.5
					c1,3.3,4.8,1,7.4,1.5C574.3,994.6,575.8,994.4,577.2,994.4z"/>
				<path class="st1" d="M297.7,898.4c0-14.4,7.5-22.9,20-22.8c12.5,0,20.2,8.8,20.2,22.9c-0.1,13.9-8.1,23-20.2,23
					C305.4,921.5,297.7,912.7,297.7,898.4z M329.9,898c0.4-3.3-0.4-6.9-2.2-10.1c-2.8-4.9-7.1-7.3-12.7-5.8c-8,2.3-9.4,8.9-9.5,16
					c0,7.3,1,14.4,9.5,16.7c5.5,1.5,9.9-0.8,12.7-5.8C329.6,905.7,330.1,902.1,329.9,898z"/>
				<path class="st1" d="M514.2,998.8c0,5.6-0.2,11.3,0.1,16.9c0.2,4-3.3,6.1-4.8,4.2c-4.6-5.7-7.6-0.6-11.1,0.6
					c-9.1,3-17.5-0.8-19.9-9.9c-2.7-10.2-0.8-20.7-1.2-31.1c-0.1-2.6,1.6-3.2,3.9-3.2c3.2,0,3.6,1.9,3.6,4.4c0,7-0.1,14.1,0.1,21.1
					c0.2,6.4,0.7,12.8,9.5,13.1c7.3,0.2,11.7-4.3,12.3-13c0.4-6.2,0-12.4,0.3-18.5c0.1-2.6-1.8-6.8,3.4-7c5.9-0.2,3.7,4.5,3.8,7.3
					C514.4,988.6,514.2,993.7,514.2,998.8z"/>
				<path class="st1" d="M490.5,810.5c4.5-11,8.2-19.8,11.6-28.7c1.3-3.6,3-6.7,7.1-5c4.3,1.8,0.6,4.9-0.2,7
					c-5.5,14.4-11.4,28.7-17.2,43c-2.6,6.5-6.7,11.1-14.5,10.4c-1.7-0.1-3.5,0.1-3.8-2.2c-0.2-2.2,0.4-3.4,2.9-4.2
					c9.7-3.3,11.6-8,7.8-17.5c-4.1-10.1-8.3-20.2-12.3-30.4c-0.7-1.9-3.8-4.6,0.4-6c3.1-1.1,5.2,0.6,6.4,3.7
					C482.2,789.8,486,799,490.5,810.5z"/>
				<path class="st1" d="M526.9,899c0-6.2,0.1-12.4,0-18.6c-0.1-4.3,4.4-5.3,5.3-3.7c3.4,6.1,6,1.6,9,0.3
					c10.3-4.7,20.9,0.7,21.9,11.9c0.8,8.9,0.3,18,0.4,27c0,2.5-0.3,4.3-3.6,4.3s-3.6-1.8-3.6-4.3c0-7,0.1-14.1,0-21.1
					c-0.1-6.7-1.4-12.6-9.8-12.9c-7.3-0.2-11.8,4.7-12.1,13.2c-0.2,5.9,0.1,11.8-0.2,17.7c-0.1,2.8,2.1,7.4-3.9,7.3
					c-5.3-0.1-3.4-4.2-3.5-6.9C526.7,908.6,526.9,903.8,526.9,899z"/>
				<path class="st1" d="M394.9,775.6c2.8,0.4,5.9,0.7,8.9,1.3c2.5,0.5,4,2.1,3.5,4.9c-0.7,4.3-3.5,1.5-5.1,1.2
					c-4.7-1-9.4-1.9-14.1-0.3c-2.7,0.9-4.3,2.5-4.3,5.5c0,2.7,1.5,4.2,3.8,4.9c4.3,1.3,8.7,2.3,12.9,3.8c5.5,1.9,9.2,5.4,8.9,11.8
					c-0.2,6.2-3.9,9.7-9.3,11.7c-7,2.6-13.9,1.2-20.8-0.4c-3.1-0.7-4.1-3-3.3-5.8c1.2-3.9,3.7-1,5.3-0.5c4.4,1.4,8.8,2,13.3,1.5
					c3.7-0.4,6.7-2,7.1-5.9c0.3-3.7-2.2-5.5-5.5-6.4c-2.7-0.7-5.4-1.6-8.1-2.2c-7-1.6-12.2-5-11.6-13c0.6-8.4,6.5-11.2,14-11.8
					C391.8,775.7,393.2,775.7,394.9,775.6z"/>
				<path class="st1" d="M349.1,1011.5c6.2,2.7,12.2,4.2,18.5,3.3c3.3-0.5,6-1.8,6.5-5.5c0.5-3.8-1.7-5.6-5.1-6.6
					c-3.8-1-7.6-2-11.3-3.2c-5.7-1.8-9.2-5.5-8.9-11.8c0.3-6.5,4.2-10.3,10.3-11.7c5.3-1.2,10.6-0.7,15.9,0.2
					c3.1,0.5,5.5,2.1,4.4,5.7c-1.1,3.8-3.7,0.8-5.4,0.6c-4.2-0.7-8.3-1.5-12.5-0.3c-3,0.8-5.3,2.2-5.4,5.6c-0.1,2.9,1.8,4.6,4.5,5.3
					c3.8,1.1,7.6,2.1,11.3,3.2c5.9,1.8,10.1,5.3,9.9,11.9c-0.2,6.8-4.5,10.4-10.8,12.2c-6.5,1.9-12.8,0.6-19.1-0.7
					C347.6,1018.7,348.2,1015.5,349.1,1011.5z"/>
				<path class="st0" d="M300.9,998c0-5.9,0-11.8,0-17.7c0-1.6-0.1-3.6,2.2-3.8c1.6-0.2,4-0.8,4.4,1.2c0.8,4.3,1.9,3,4.5,1.3
					c12.5-8,24-2.3,24.9,12.4c0.5,7.8,0.3,15.7,0.3,23.6c0,2.5,0.5,5.2-3.5,5.2c-3.9,0.1-3.7-2.4-3.7-5c0-7,0-14.1,0-21.1
					c0-6.6-1.8-11.9-9.5-12.3c-6.9-0.3-11.9,4.4-12.4,12.1c-0.4,7-0.1,14.1-0.2,21.1c0,2.4,0.6,5.2-3.5,5.1
					c-4.1-0.1-3.5-2.8-3.5-5.2C300.8,1009.2,300.9,1003.6,300.9,998z"/>
				<path class="st1" d="M199.1,911c3.7-10,7.4-19.7,10.9-29.5c1.3-3.5,3.1-6.6,7.1-4.9c4.1,1.8,0.6,4.8-0.2,6.9
					c-3.6,10.3-7.7,20.5-11.3,30.8c-1.3,3.7-2.7,6.1-7.5,6.1c-4.5,0-5.6-2.4-6.9-5.7c-3.9-10.5-8-20.9-11.6-31.5
					c-0.6-1.9-4.6-5.1,0.4-6.7c3.7-1.1,5.4,1.3,6.5,4.7c2.9,8.5,6.3,16.8,9.4,25.2C196.5,908,196.7,909.8,199.1,911z"/>
				<path class="st1" d="M266.7,811.3c3.7-10.1,7.5-20,11.1-30c1.3-3.8,3.6-6.2,7.4-4.5c3.3,1.6,0.4,4.4-0.4,6.3
					c-3.8,10.6-7.9,21.1-11.7,31.6c-1.2,3.4-2.3,5.7-6.8,5.8c-4.8,0.1-6.1-2.4-7.5-6.1c-3.8-10.6-8-21-11.7-31.6
					c-0.6-1.8-3.8-4.7,0.1-6.2c3.3-1.3,5.6,0.4,6.9,4.1c2.5,7.7,5.4,15.4,8.5,22.9C263.6,806.3,263.7,809.4,266.7,811.3z"/>
				<path class="st1" d="M407.8,1020.1c-11.1-0.3-14.2-3.3-14.7-14.2c-0.3-5.9,0-11.8-0.1-17.7c0-2.1,0.8-4.5-2-5.8
					c-4.9-2.2-5-4.2,0.1-6.4c3.6-1.5,1.6-4.9,1.9-7.5c0.3-2.4,0.3-4.4,3.5-4.5c3.5-0.1,4.7,1.6,4.2,4.6c-1.1,6.6,1.9,8.4,8,7.7
					c2.3-0.2,6.4-1.7,6.5,2.8c0.2,4.6-3.9,3.4-6.3,3.1c-6.7-0.8-9,1.8-8.3,8.4c0.5,5,0.3,10.1,0.1,15.2c-0.3,5.6,2,8.3,7.8,8.3
					c2.6,0,7.3-1.6,6.7,3.6C414.5,1022.3,410,1019.2,407.8,1020.1z"/>
				<path class="st1" d="M544.3,1020.1c-12.1-0.2-15.1-3.1-15.6-14.6c-0.2-5.3,0-10.7-0.1-16c-0.1-2.8,1.3-6.4-3.4-7.4
					c-1.9-0.4-2.4-3.8-1.5-4c8.7-1.4,1.2-12,8.1-13.9c3.2-0.9,4.8,1,4.3,4.2c-1,6.2,1.2,8.7,7.7,8c2.5-0.3,7.2-1.9,6.9,3.3
					c-0.3,4.2-4.5,2.8-6.8,2.5c-6.5-0.8-8.6,1.7-7.8,8c0.5,3.6,0.3,7.3,0,11c-0.7,8,0.4,14.3,10.8,12.9c2.1-0.3,4.2,0.4,3.9,3.1
					C550.4,1022.5,545.8,1018.6,544.3,1020.1z"/>
				<path class="st1" d="M592.8,920.2c-11.3-0.2-14.4-3.1-14.8-14c-0.2-5.9,0-11.8-0.1-17.7c0-1.9,0.7-4.3-1.4-5.4
					c-5.4-2.7-6.1-4.6,0.1-7.4c2.5-1.1,1.1-4.6,1.3-7.1c0.1-2.4,0.2-4.4,3.5-4.5c2.8,0,4.5,1,3.9,3.9c-1.9,8.9,3.7,8.7,9.7,8.4
					c2.1-0.1,4.9-0.6,5,2.8c0.1,3.4-2.7,3.4-4.8,3c-9.5-1.9-10.9,3.2-9.9,10.8c0.3,2.5,0.2,5.1,0,7.6c-0.6,8.1,0,15,11.1,13.5
					c2.2-0.3,4.1,0.8,3.6,3.4C599,922.4,594.9,919.2,592.8,920.2z"/>
				<path class="st1" d="M462.2,1020.1c-12-0.2-15.3-3.4-15.6-14.6c-0.1-6.2,2.4-14.2-0.6-18.2c-5.6-7.5,0.9-12.7,0.6-18.9
					c-0.1-2.3-0.2-4.4,3.3-4.5c3.6-0.1,4.5,1.8,4,4.7c-1.1,6.8,2.3,8.1,8.2,7.7c2.3-0.2,6.4-1.8,6.4,2.9c0,4.6-4.1,3.2-6.4,3
					c-6.9-0.8-8.9,2.1-8.3,8.6c0.5,5,0.2,10.1,0.2,15.2c-0.1,5.6,2.4,8.2,8.1,8.1c2.4-0.1,6.4-1.6,6.4,3.1
					C468.5,1022.7,463.6,1018.5,462.2,1020.1z"/>
				<path class="st1" d="M457.9,820.4c-11.5-0.2-14.7-3.4-14.9-14.8c-0.1-5.6,0-11.3,0-16.9c0-2.6,0.9-5.6-3.4-6.4
					c-2.5-0.5-2.5-4.3-1.2-4.6c6-1.5,4.5-6,4.6-9.8c0.1-2.4,1-3.5,3.5-3.5c2.4,0,4.1,0.8,3.6,3.3c-1.7,8.9,3.5,9.5,10.1,8.9
					c2.1-0.2,4.8-0.6,4.8,3c-0.1,3.5-2.8,3.3-4.9,2.9c-9.4-1.8-10.9,3.1-10.1,10.8c0.5,4.2,0.2,8.4,0.1,12.7c-0.1,5.5,2,8.4,7.9,8.3
					c2.6,0,7.2-1.7,6.8,3.5C464.5,822.7,460,819.3,457.9,820.4z"/>
				<path class="st1" d="M346,797.8c0-5.6,0.1-11.2,0-16.9c-0.1-4.8,4.5-5.9,5.7-3.9c3.4,5.8,5.6,1.2,8.4,0.3
					c2.6-0.8,5.4-1.3,8.2-1.5c2.9-0.2,3.8,1.6,3.7,4.3c-0.2,3.1-2.1,2.4-4.1,2.5c-10.6,0.4-13.9,3.7-14.3,14.3
					c-0.2,6.5-0.1,12.9,0,19.4c0,2.6-0.6,4.2-3.7,4.2c-3,0-3.9-1.4-3.9-4.1C346,810.2,346,804,346,797.8z"/>
				<path class="st1" d="M277.6,990.2c0-7.9,0.1-15.8,0-23.6c0-3,0.5-4.8,4.1-4.8c3.3,0,4.3,1.5,4.3,4.6c-0.1,16.3-0.1,32.6,0,48.9
					c0,2.9-0.5,4.8-4.1,4.8c-3.5,0-4.3-1.5-4.2-4.6C277.6,1007.1,277.6,998.7,277.6,990.2z"/>
				<path class="st0" d="M285.9,890c0,8.5,0,16.9,0,25.4c0,2.7,0,5-3.9,4.8c-3.5-0.2-3.2-2.5-3.2-4.7c0-16.9,0-33.8,0-50.7
					c0-2.4-0.6-5.2,3.5-5.3s3.5,2.7,3.6,5.2C285.9,873.1,285.9,881.5,285.9,890z"/>
				<path class="st1" d="M235.1,799.1c0,5.3,0,10.6,0,16c0,2.4,0.7,5.2-3.3,5.3c-3.9,0.1-3.9-2.2-3.9-4.9c0-11.2,0-22.4,0-33.6
					c0-2.4-0.6-5.3,3.4-5.4c4.6-0.2,3.7,3.1,3.8,5.8C235.2,787.9,235.1,793.5,235.1,799.1z"/>
				<path class="st0" d="M113.3,798.4c0,5.9-0.1,11.8,0,17.8c0,2.6-0.4,4.3-3.7,4.2c-3.4-0.1-3.4-2.1-3.4-4.5c0-11.6,0-23.1,0-34.7
					c0-2.3-0.2-4.6,3.2-4.7c3.9-0.2,3.8,2.3,3.8,5C113.3,787.2,113.3,792.8,113.3,798.4z"/>
				<path class="st0" d="M431.7,998.3c0,5.6,0,11.3,0,16.9c0,2.7,0.1,5.1-3.8,4.9c-3.5-0.1-3.2-2.4-3.2-4.6c0-11.5,0-23.1,0-34.6
					c0-2.3-0.1-4.5,3.3-4.6c4-0.1,3.7,2.6,3.7,5.1C431.7,987,431.7,992.6,431.7,998.3z"/>
				<path class="st0" d="M428.1,798.4c0,5.9,0,11.8,0,17.8c0,2.5-0.2,4.3-3.6,4.3s-3.4-2-3.4-4.4c0-11.6,0-23.1,0-34.7
					c0-2.2-0.3-4.6,3.1-4.8c3.9-0.2,3.9,2.2,3.8,4.9C428,787.1,428.1,792.7,428.1,798.4z"/>
				<path class="st1" d="M428.4,968.7c-4.4,0.2-3.7-2.8-3.8-5.2c-0.1-2.4,0.1-4.3,3.4-4.4c3.7-0.1,3.9,2,3.9,4.8
					C431.8,966.5,431.8,969.2,428.4,968.7z"/>
				<path class="st1" d="M109.5,759.6c4-0.5,3.8,2.1,3.9,4.7c0.1,2.8-0.4,4.9-4,4.7c-3.2-0.1-3.4-2.2-3.3-4.5
					C106.2,762,105.6,759.1,109.5,759.6z"/>
				<path class="st1" d="M231.6,759.5c4.1-0.2,3.4,2.7,3.5,5.1c0.1,2.5-0.4,4.3-3.5,4.3c-4.4,0.1-3.8-3-3.9-5.7
					C227.7,760.5,228.9,759.2,231.6,759.5z"/>
				<path class="st1" d="M428.1,763.8c0.1,3,0,5.1-3.3,5.2c-3.8,0.1-3.8-2.3-3.8-5c0-2.4,0-4.4,3.4-4.5
					C428.2,759.4,428.3,761.7,428.1,763.8z"/>
			</g>
		</g>
	</g>
	<path class="st1" d="M126.7,798.5c0-14.4,7.5-22.9,20-22.8c12.5,0,20.2,8.8,20.2,22.9c-0.1,13.9-8.1,23-20.2,23
		C134.4,821.6,126.7,812.8,126.7,798.5z M158.9,798.1c0.4-3.3-0.4-6.9-2.2-10.1c-2.8-4.9-7.1-7.3-12.7-5.8c-8,2.3-9.4,8.9-9.5,16
		c0,7.3,1,14.4,9.5,16.7c5.5,1.5,9.9-0.8,12.7-5.8C158.6,805.8,159.1,802.2,158.9,798.1z"/>
</g>
</svg>
