<?xml version="1.0" encoding="utf-8"?>
<!-- Generator: Adobe Illustrator 24.1.0, SVG Export Plug-In . SVG Version: 6.00 Build 0)  -->
<svg version="1.1" id="Layer_1" xmlns="http://www.w3.org/2000/svg" xmlns:xlink="http://www.w3.org/1999/xlink" x="0px" y="0px"
	 viewBox="0 0 960 960" style="enable-background:new 0 0 960 960;" xml:space="preserve">
<style type="text/css">
	.st0{fill:#3E4346;}
	.st1{fill:#84A22B;}
	.st2{fill:#44484B;}
	.st3{fill:#8CA544;}
</style>
<g>
	<g>
		<path class="st0" d="M292.7,453.8c0.4-10.6,3.4-19.6,13.6-25.3c6.8-3.8,10.5-9.7,11.5-18.2c1.4-12.9,5.4-25.3,12-36.6
			c4-7,3.8-14.8,4.4-22.4c0.3-4.2-0.3-8.5,0.1-12.8c0.9-9.7-4.1-15.7-11.8-20.3c-15.4-9.2-30.2-19.6-46-28.1
			c-5.7-3-10.3-7.5-15.2-11.6c-11.7-9.9-24.9-9.1-38.6-5.6c-18.7,4.9-37.3,4.4-55.8-0.9c-4.3-1.2-8.3-2.9-11.9-5.7
			c-9.5-7.5-19.7-14.1-28.3-22.8c-4.8-4.9-8.7-10.7-12.6-16.3c-4.7-6.8-1.5-13.9,2.1-19.9c5.5-9.1,10.7-18.1,14.6-28.2
			c3.2-8.4,8.8-16,11.9-24.6c0.4-1.2,1.4-2.2,2.2-3.2c6.1-7.5,11.8-6.8,15.9,2c1,2.2,1.8,4.6,2.9,6.8c1.8,3.6,4.1,7.1,8.1,8.2
			c13.2,3.6,25.9,9.5,40.1,8.4c8.3-0.7,16.1-3.1,23.7-6c1.7-0.6,5.5-2.5,1.6-4.6c-11.2-6-13.4-16.8-15.5-27.6
			c-1.4-7.4-1.9-14.9-2.8-22.4c-0.4-2.9-1.3-6.4,2.2-7.7c3.7-1.3,6.8,0.9,8.5,4.1c2.4,4.4,5.3,8.2,9.1,11.3c0.1,1,0.6,1.3,1.6,1.2
			c2.4,2.2,4.7,4.3,7.1,6.5c1.2,3.2,4.4,4.7,6.4,7.2c0.8,1,2.2,2.8,3.6,1.5s1.3-3.7-0.1-4.9c-3.2-2.7-4.2-6.9-7-9.8
			c-0.2-0.7-0.4-1.4-0.6-2c0.4-0.7,0.4-1.3-0.3-1.9c0-3.1,0-6.3,0-9.4c0.8-0.4,0.9-0.9,0.1-1.5c0.3-1.4,0.5-2.8,0.8-4.2
			c3.8-5.7,4.9-5.7,8.2-0.1c6.2,11.2,14,21.3,21.8,31.4c3.7,4.7,7.6,5.7,12.4,2.2c13-9.5,28.4-10.3,43.3-12.9
			c11.6-2,26.2,5.9,31.1,16.2c3.2,6.7,8.3,9.1,15.1,9.6c11.2,0.9,22.5,0.7,33.7,2.8c12.5,2.4,24.1,7.3,36.3,10.7
			c6.2,1.7,12.4,2.7,18.8,3.2c29.9,2.2,58.7-3,86.8-13.1c6.4-2.3,13.1-4,19.8-5.6c8.1-1.9,16,0.4,23.7,2.3
			c16.8,4.2,33.3,9.6,50.2,13.7c11.7,2.8,23.6,3.9,35.4,5.3c11.4,1.3,21.4,5.7,30.7,12.1c16.1,11.2,30.9,24.2,46.2,36.5
			c15.7,12.6,22.1,30.5,24.5,49.9c1.8,14.6,3.7,29.2,4.6,44c0.6,10.3,4.9,19.6,10.1,28.4c4.5,7.5,8.9,14.8,16,20.3
			c7.4,5.7,6.1,16.2,4.1,22.7c-1.2,3.9-3.9,2.8-6.2,1.3c-5.9-3.9-11.1-8.7-14.5-15c-3.8-6.9-6.7-14.1-8.2-22
			c-1.8-9.3-7.1-17.6-9.2-26.9c-1.5-6.7-3.1-13.4-4.6-20.1c-0.2-1-0.1-2.6-1.6-2.6s-1.5,1.6-1.6,2.6c-2.1,22-12.9,41-21.1,60.9
			c-2.8,6.9-2.6,8,3.4,12.8c6.8,5.4,15.3,6.4,23.1,9.4c3.2,1.2,6.5,2.3,9.4,4.2c9.3,5.9,11.8,14.9,6.5,24.6c-3.3,6-6.6,12-8.2,18.8
			c-2.3,10.1,0.2,15.6,9.8,19.1c4.6,1.7,7.2,4.9,8.3,9.5c3.6,16.4,1.8,31.9-7.7,46.1c-3.4,3-7.3,2.5-11.1,1.5
			c-5.1-1.4-10.3-1.6-15.6-1.4l0,0c-1.2-1.3-3.1-1.8-4.4-1.4c-2.5,0.9-3.6-0.6-5-1.9c0.3-2.9-0.2-5.7-1.5-8.1
			c-6.5-12-7.3-25.3-9.9-38.3c-1.2-6.1-2.1-12.3-5.3-17.8c-1.6-2.7-3.5-4.6-7.2-2.6c-12,6.6-22.4,15.1-31,25.9
			c-5,6.3-5.9,13.1-3,20.3c1.4,3.7,1.8,7.2,1.3,11c-5,3.4-10.6,4-16.3,3c-13.4-2.4-27.1-2.8-40.4-6c-0.6-1.4-1.2-2.8-2.8-3.4
			c-0.7-1-0.8-2.9-2.8-1.5h-0.1c-0.4-3.7-4.3-4.8-5.6-7.8c0.2-0.9-0.2-1.4-1-1.9c0-2,0.1-4.1,0.1-6.1c0.8-0.4,1-1.1,0.9-1.9
			c0.4-0.4,0.8-0.8,1.2-1.3c1.1,0,1.7-0.7,2-1.6c1-0.5,1.9-1.1,2.9-1.6c1.9,0.2,3.3-0.9,4.8-1.8c5.3-0.8,10.6,0.8,15.9-0.2
			c1.1,0.3,1.9-0.1,2.4-1.1c0.3-0.3,0.5-0.6,0.8-0.8c1.6-0.6,2.1-1.9,2.4-3.4c0.2-0.5,0.4-1,0.6-1.5c1.3-1.6,2.2-3.3,2.1-5.5
			c0.2-0.7,0.3-1.3,0.5-2c1.2-1.1,1.5-2.4,1.2-3.9c0.2-0.7,0.3-1.4,0.5-2c0.8-0.8,1-1.8,0.6-2.9c0.6-1.2,0.8-2.6,0.6-3.9
			c0.5-0.6,0.5-1.2,0.1-1.9c0.1-8-0.1-16,0.3-24c0.3-6.4-2.4-10.3-7.6-13.6c-9.8-6.4-18.1-14.5-24.3-24.5
			c-3.3-5.3-3.5-11.5-4.8-17.4c-1.2-5.2-3.4-5.9-7.5-2.8c-3.9,3-7.7,6-11.5,9.1c-23.8,19.3-51.8,26.1-81.7,27.2
			c-9,0.3-17.4-2.5-26.2-3.7c-13.4-1.8-26.8-3.8-40.1-6.8c-8.3-1.9-16.6-3.5-25-5c-2.7-0.5-6.2-1.1-7.3,2.2
			c-2.7,8.4-6,16.8-2.7,25.8c4.8,13.2,7.7,26.6,6.9,40.8c-0.5,9,0,18,0,26.9c-0.1,0.7-0.2,1.3-0.2,2c-7.2,1.7-14.6,0.4-21.6-0.8
			c-4.8-0.8-10-0.9-14.5-3.3c0.6-7.7-0.7-14.9-4.5-21.8c-3.9-7.2-8.5-14.3-9.5-22.5c-1-8.7-5.2-14.9-11.3-20.4
			c-1.9-1.7-3.5-3.8-5.2-5.8c-4.7-5.4-6.9-5-10.3,1.3c-5.3,9.9-10,20.2-17.2,29.1c-1.8,2.2-2.9,4.8-1.9,7.8
			c2.7,8.1,1.1,16.2,0.6,24.4c-2.1,0.4-3.3,2.5-5.8,2.2c-7-0.7-14-0.8-20.9-1.8c-10.2-1.4-20.3-2.7-30.6-3.2
			C293.5,455.7,293.1,454.8,292.7,453.8z"/>
		<path class="st1" d="M293.9,456.7c10.3,0.5,20.4,1.9,30.6,3.2c6.9,0.9,14,1.1,20.9,1.8c2.5,0.2,3.7-1.9,5.8-2.2
			c2.8,2.9,6.2,4,10.1,4.3c10.2,1,20.5,1.3,30.7,3.3c6,1.2,12.3,2,18.5,0.4c4.5,2.4,9.7,2.5,14.5,3.3c7,1.2,14.3,2.5,21.6,0.8
			c5.2,1.2,10.4,2.7,15.7,3.5c12.6,1.8,25.4,2.3,38,4c24.1,3.2,48.3,5.4,72.5,8c19.8,2.1,39.5,4.8,59.4,6.2c0.1,1.4,0.9,1.9,2.2,2.1
			c7.7,1,15.5,2.3,23.3,2c8.1-0.3,16.3-0.5,23,5.6c0.4,0.4,1.3,0.2,1.9,0.2c15.9-0.3,31.6,0.4,47.2,3.7c7.2,1.5,14.7,0.7,22.2,1.7
			c7,0.9,14.6,2.9,21.9,0.5l0,0c0.1,0.8,0.3,1.7,1.3,1.9c5.6,0.7,10.8,2.9,16.7,2.2c9.2-1.1,18.3,0.3,27.2,2.2
			c6.8,1.5,13.4,4,20.6,3.7c4.4-0.2,8.8-0.1,13.3,0c5.9,0,7.6,1.7,7.6,7.6c0,13.8,0,27.5,0,41.3c0,1.8-0.8,4.2,2.4,4.4
			c0,0.6,0,1.2,0,1.8c-3.5,0.3-2.5,3-2.3,4.8c0.4,3.7-1,5.6-4.7,5.5c-3.4-0.1-6.8-0.4-10.1-0.4c-242.9,0-485.9,0-728.8,0
			c-3.4,0-6.8,0.2-10.3,0.3c-2.8,0.1-8.2,0.8-7.9-3.4c0.3-4.5-0.8-8.7-0.8-13.1c0.2-39,0.1-78,0.1-117c0-2.6,0-5.2,0-7.9
			c0-3.6,2-5.7,5.2-4.5c10,3.6,20.4,1,30.5,1.8c1.5,0.1,3,0.1,4.4,0.5c5.5,1.3,10.9,3.3,16.7,1.5c3-0.9,5.2,1.8,7.8,1.8
			c11.5,0,22.8,3.5,34.4,2.1c3.1-0.4,6.1,0.3,8.4,2c2.8,2,5.8,1.6,8.8,2c8.7,1.2,18.3-3.4,26.2,3.7c0.4,0.3,1.3,0.1,1.9,0.1
			c4.8,0.3,9.9,1.6,14.2,1.4C269.1,455,281.4,459.7,293.9,456.7z M483.5,577.9c122.3,0,244.6,0,366.9,0c1.1,0,2.3,0,3.4,0
			c1,0,2.1,0,2.4-1.2c0.1-0.5-0.3-1.3-0.7-1.6c-0.7-0.6-1.8-1.3-2.6-0.4c-1.6,1.7-3.7,1.2-5.6,1.2c-243.1,0-486.3,0-729.4,0
			c-1.5,0-2.9-0.2-4.4-0.4c-0.9-0.1-1.7-2.4-2.5-0.2c-0.6,1.5,0.4,2.5,2.1,2.5c1.5,0,3,0,4.4,0C239.5,577.9,361.5,577.9,483.5,577.9
			z"/>
		<path class="st2" d="M565.2,649.9c5.1-0.2,8.8,2.4,11,7.8c3,7.3,6.2,14.4,9.5,21.5c0.7,1.6,1.7,3.6,3.7,3.6s2.7-2.1,3.4-3.8
			c3.1-6.7,6.1-13.4,9.2-20.1c0.7-1.5,1.4-3,2.3-4.3c4.3-6.3,12.5-6.4,16.8-0.2c3.8,5.6,5.9,12,8.9,18c1.1,2.2,2,4.5,3.1,6.7
			c0.9,1.7,1.4,4.2,3.7,4.1c2.4-0.1,3.1-2.7,3.9-4.6c2.9-6.9,5.8-13.9,8.6-20.9c2-5.1,5.4-7.8,11.1-7.9c7.4-0.1,9.1,2.1,6.2,8.8
			c-4.2,9.9-8.5,19.8-12.7,29.8c-3.3,7.7-6.6,15.3-10,22.9c-1.3,3-2.9,5.5-6.6,5.7c-3.9,0.2-5.4-2.5-6.7-5.4
			c-4.4-9.5-8.8-18.9-13.3-28.4c-0.9-2-1.7-5-4.3-4.8c-2.3,0.1-3.3,2.8-4.3,4.9c-4,8.6-8.1,17.2-12.2,25.7c-0.6,1.3-1.3,2.7-2.1,3.9
			c-4.2,6.3-8.7,6-11.9-0.8c-3.4-7.1-6.5-14.3-9.6-21.5c-4.8-11-9.6-21.9-14.1-32.9C556,651.6,557.5,649.8,565.2,649.9z"/>
		<path class="st3" d="M293.9,456.7c-12.5,3-24.8-1.7-37.4-1.3c-4.3,0.1-9.4-1.2-14.2-1.4c-0.7,0-1.6,0.2-1.9-0.1
			c-7.9-7.2-17.4-2.5-26.2-3.7c-3-0.4-6,0-8.8-2c-2.4-1.7-5.4-2.3-8.4-2c-11.6,1.3-22.9-2.1-34.4-2.1c-2.6,0-4.9-2.8-7.8-1.8
			c-5.8,1.8-11.2-0.3-16.7-1.5c-1.4-0.3-2.9-0.3-4.4-0.5c-10.1-0.9-20.4,1.8-30.5-1.8c-3.2-1.2-5.2,0.9-5.2,4.5c0,2.6,0,5.2,0,7.9
			c0,39,0.1,78-0.1,117c0,4.4,1.1,8.6,0.8,13.1c-0.3,4.2,5.1,3.5,7.9,3.4c3.4-0.2,6.8-0.3,10.3-0.3c242.9,0,485.9,0,728.8,0
			c3.4,0,6.8,0.3,10.1,0.4c3.8,0.1,5.1-1.7,4.7-5.5c-0.2-1.8-1.2-4.6,2.3-4.8c0.1,0.5,0.3,0.9,0.3,1.4c0.6,10.9-0.7,12.1-11.7,12.1
			c-63.1,0-126.2,0-189.3,0c-185.1,0-370.2,0-555.3,0c-8.6,0-10-1.4-10-9.9c0-44.1,0-88.2,0-132.3c0-1.1,0-2.3,0.1-3.4
			c0.2-5.4,1.3-6.8,6.9-6.2c12.5,1.3,25.1,1.6,37.6,3.7c10.1,1.7,20.5,1.8,30.8,3c22.1,2.4,44.2,4.8,66.2,7.3
			c15.2,1.8,30.7,2.3,45.8,5.4c2.9,0.6,5.9,0.9,8.5-1.2C293.1,454.8,293.5,455.7,293.9,456.7z"/>
		<path class="st2" d="M658.7,857.2c-1.5,0.8-3.2,0.4-4.8,0.4c-117.2,0-234.3,0-351.5,0c-2.5,0-4.9,0-7.3-0.9
			c-1.6-0.6-2.3-1.9-2.3-3.4c0-1.6,1-2.7,2.6-3.2c2.2-0.7,4.5-0.6,6.8-0.6c112.6,0,225.2,0,337.8,0c5.4,0,10.8,0,16.2,0
			c1.6,0,3.3,0.1,4.9,0.4c1.9,0.4,4.4,0.7,4.3,3.2c-0.1,2.5-1.8,4.1-4.6,3.8c-1.3-2.8-3.7-1.5-5.6-1.5c-115.9-0.1-231.7-0.1-347.6,0
			c-1.6,0-3.3-0.4-4.9,0.5c1.8,1,3.6,0.5,5.3,0.5c114.9,0,229.8,0,344.7,0.1C654.6,856.4,656.9,855.6,658.7,857.2z"/>
		<path class="st2" d="M772.2,684.2c0-8.7-0.1-17.4,0-26c0.1-6.5,1.8-8.1,8.3-8.2c7.7-0.1,15.4-0.5,23.1,0.1
			c33.6,2.7,40,32.6,29.3,51.9c-5,9-13.9,13.5-23.9,14.4c-10.1,0.9-20.3,0.4-30.4,0.5c-4.5,0-6.5-2.2-6.5-6.7
			C772.3,701.6,772.2,692.9,772.2,684.2L772.2,684.2z M788.6,683.4L788.6,683.4c-0.1,3.8-0.1,7.5-0.1,11.3c0,9.4,0.5,9.8,9.9,9.9
			c0.2,0,0.3,0,0.5,0c9.8,0.1,16.8-4.1,20-12.1c3.4-8.3,1.2-18.7-5.5-24.7c-4.9-4.4-11.1-5.4-17.3-5.9c-5.1-0.4-7.3,1.6-7.5,6.7
			C788.5,673.6,788.6,678.5,788.6,683.4z"/>
		<path class="st1" d="M347.4,684c0-8.5-0.1-17.1,0-25.6c0.2-7,1.7-8.5,8.4-8.6c10.3-0.1,20.7,0,31,0.1c2.6,0,5.4,0,7.1,2.5
			c1.4,2,1.6,4.3,0.8,6.6c-0.9,2.6-3.5,2.9-5.7,3c-5.7,0.2-11.5-0.1-17.2,0c-6.6,0.1-10.5,7.4-7,13c1,1.7,2.8,1.6,4.4,1.6
			c5.9,0.1,11.8,0.2,17.7,0.2c5.1,0,8.1,2.2,7.7,6.1c-0.4,4.4-3.6,5.9-7.7,5.9c-5.6,0.1-11.2-0.1-16.7,0.1c-5.3,0.2-6.3,1.5-6.2,7.5
			c0.1,6.7,0.8,7.7,6.5,7.8c6.1,0.1,12.1,0,18.2,0.2s7.8,2.5,6.9,8c-0.5,3-2.5,4.2-5.1,4.4c-12.8,0.6-25.6,0.6-38.3,0.1
			c-3.8-0.1-4.6-3.3-4.6-6.4C347.4,701.7,347.5,692.9,347.4,684L347.4,684z"/>
		<path class="st1" d="M144.3,714.6c-0.5-1.2-1.7-0.9-2.6-1.1c-1.3-1.9-3-3.2-5.3-3.7c-0.1-0.2-0.3-0.3-0.5-0.3
			c-2.3-3-4.4-6.2-7.3-8.7c0.1-0.3,0-0.6-0.2-0.9c-0.2-0.8-0.3-1.6-0.6-2.3c-5.1-11.6-3.7-22.5,3.6-32.8
			c10.6-14.8,31.8-17.7,47-13.3c2.3,0.7,4.8,1,6.8,2.7c3.6,3.1,3.1,7.1,2.3,10.9c-0.7,3.2-3.6,1.6-5.8,1.3c-0.2-1.4,0.4-3.6-1.5-3.6
			c-6.7,0.1-13.5-1.6-20.1,0.9h0.1c-1.1-0.1-2.2-0.3-3,0.8c-0.5,0.1-1,0.2-1.6,0.3c-1.5-0.2-3.1-0.5-3.4,1.7
			c-0.2,0.2-0.4,0.3-0.6,0.2c-2.2-0.4-3.5,0.3-3.3,2.7c-0.3,0.4-0.7,0.7-1,1.1c-1.7,0.4-4.1-1-4.8,1.9c-1.2,5.1-2.6,10.2-2.1,15.6
			c0.2,3.1,0.9,5.3,4.2,6.1c0.2,0.1,0.2,0.3,0.1,0.5c-0.5,2.4,0.1,3.8,2.9,3.4h-0.1c0.4,0.3,0.9,0.6,1.3,0.9
			c0.8,0.1,1.3,0.5,1.5,1.3c-0.1,3.5,1.5,5.3,5,5.8c6.3,1,12.6-0.3,18.8-0.4c1.6,0,4.9-0.7,5.7-3.6c0.2-0.2,0.4-0.3,0.7-0.2
			c0.8,0.1,1.6,0.1,2.4,0.2c2,0.1,4.5-0.6,5.3,2.2c0.7,2.4-1.1,3.5-2.8,4.4c-2.3,1.2-1.3,3.4-1.6,5.2c-0.6,0.3-1.1,0.7-1.7,1
			C169.4,719.1,156.9,718.3,144.3,714.6z M144.3,664.5c2.2,0.1,5,0.1,5.2-2.4c0.3-2.6-3.3-1.5-4.4-3.3
			C143.8,661,144.5,662.8,144.3,664.5c-0.7,0.1-1.5,0.1-1.5,1.2c0,0.1,0.2,0.3,0.3,0.3C144.2,666.1,144.1,665.2,144.3,664.5z"/>
		<path class="st2" d="M710.2,684.1c0-8.5-0.2-17.1,0.1-25.6c0.2-6,2.7-8.4,8.4-8.6c5.9-0.2,8.7,2.7,8.8,9.2
			c0.1,11.6,0.1,23.3,0.1,34.9c0,9.1,1.4,10.5,10.5,10.6c5.9,0,11.8,0.1,17.7,0.1c4,0,5.6,2.1,5.5,5.8c0,3.6-1.2,6.2-5.3,6.2
			c-12.9,0.1-25.9,0.2-38.8,0c-5.3-0.1-6.9-2.2-6.9-8C710.1,700.5,710.2,692.3,710.2,684.1L710.2,684.1z"/>
		<path class="st3" d="M329.6,677.4c-0.2,0.6-0.3,1.1-0.5,1.7c-1.4,1.3-2.9,2.6-4,4c-1.9,2.3-2.8,4.8,0.2,7.1c4,6.2,6.8,13,10,19.5
			c2.2,4.5,0.7,7.2-4.3,7.6c-8.8,0.7-12-1.4-15.9-10.2c-1.6-3.7-2.8-7.7-5.5-10.8c-1.1-1.2-2.1-2.7-3.5-3.3c-2.1-1-4.2-3-6.8-1.6
			c-2.4,1.4-1.9,4-1.9,6.2c-0.1,4.3,0,8.5,0,12.8c-0.1,5.4-1.9,6.9-8.3,7c-6.1,0.1-8.4-1.5-8.5-6.9c-0.2-6.5-0.1-13.1-0.1-19.6
			c0-10.6-0.1-21.3-0.1-31.9c0-6.8,1.9-8.9,8.7-9c8-0.1,16,0.1,24.1,0c2.9,0,5.1,1.8,7.6,2.7c2.8,2.4,5.6,4.9,8.5,7.3
			c-0.1,0.3,0,0.5,0.2,0.6C331.9,666.1,331.8,671.7,329.6,677.4z M285.1,655.1c-3.1,1.6-4.1,4.2-2.5,6.6c1.5,2.4,1.4,4.6,1.4,7
			c0,13.8,0,27.5,0,41.3c0,2.9,1.3,5.5,3.8,5.2s6.3-0.6,6.1-5.2c-0.2-5.4-0.1-10.8,0-16.2c0.1-5.2,4-7.3,8.8-6.1
			c3,0.7,7.7,5,9.3-1.7c0.8-3.5,2.5-3.9,5.5-3.8c3.7,0.1,5.6-2.9,3.3-5.6c-2-2.3-3.5-4.6-4-8.5c-1.6,2.5-1.4,4.4-1.2,6
			c0.7,4.6-1.7,6.5-5.7,6.5c-4-0.1-8-0.1-12,0c-2.5,0.1-4.1-1.5-4-4.5c0.2-3.4-0.1-6.9,0.1-10.3c0.3-6,4.5-8.5,10-5.8
			c1.1,0.5,2.2,0.7,3.3,0.6c4.3-0.4,6.3,3.7,9.7,5c4,1.5,6.9,3.2,6.8,8.1c0,1.2,1,3.9,3.2,1.9c4.7-4.4,2.6-13-3.5-15
			c-0.8-0.3-1.6-0.5-1.8-1.4c-1.5-6.4-6.1-7-11.6-6.5c-3.4,0.3-7-0.4-10.3,0.2c-4.3,0.7-9.1,1.1-10.2,7.1c-0.3,1.5-1.7,2.8-3.2,5.3
			c-0.2-2.7-0.2-4.2-0.4-5.6C285.8,658.2,286.4,656.7,285.1,655.1z M304.5,677.5c6.1,0,9.2-2.7,9.1-7.7c-0.1-3.9-5.5-8-10.7-8
			c-4.2,0-6.1,2.7-6,8.8C296.9,676,298.6,677.6,304.5,677.5z M321.5,692.5c0.1,2-1.1,4.5,1,5.1c3.6,1,2.7,3.6,2.8,5.8
			c0.1,2.3,0,4.6,0,6.9c0,1.3-0.3,2.8,1.5,3.2c1.3,0.3,2.7,0.6,3.7-0.4c1.2-1.2,1-2.9,0.4-4.2c-0.6-1.5-1.2-3.1-1.9-4.3
			C326.7,700.7,328.1,694.6,321.5,692.5z"/>
		<path class="st2" d="M436.3,786.9c0-6.5-0.2-13.1,0.1-19.6c0.3-6.1,1.8-7.3,7.9-7.6c5.4-0.2,10.8-0.1,15.8,2.6
			c7.1,3.8,10,12.8,5.2,19.8c-3.8,5.7-2.5,9.7,1.1,14.4c3,3.9,5.4,8.2,7.9,12.4c0.8,1.3,1.6,3.2-0.2,4.5c-1.5,1-3.1,0.4-4.6-0.6
			c-2.8-1.9-4.5-4.7-6.3-7.4c-2.6-4.1-5.1-8.4-8.9-11.7c-2-1.7-4-3.1-6.6-2.1c-2.9,1-2.9,3.8-3,6.2c-0.2,3.1,0.1,6.3-0.3,9.3
			c-0.3,2.6-0.4,6.4-4,6.3c-3.4-0.1-3.8-3.5-4-6.3c-0.2-3.4-0.2-6.9-0.2-10.3C436.2,793.5,436.2,790.2,436.3,786.9
			C436.2,786.9,436.3,786.9,436.3,786.9z M444.5,774.8c-0.1,5.8,1.5,8.2,5.7,8.4c5,0.2,8.5-2.9,8.7-7.7c0.2-4.8-3-7.9-8.3-8.1
			C446.3,767.3,444.7,769.3,444.5,774.8z"/>
		<path class="st2" d="M661.2,810.2c0.1,1.8-0.3,3-1.6,3.7c-1.2,0.6-2.2,0.1-3.2-0.6c-2.6-1.9-4-4.7-5.1-7.6
			c-1.9-4.8-5.3-7.2-10.5-7c-2.1,0.1-4.3,0.1-6.4-0.1c-6.5-0.5-11.1,1.8-12.9,8.5c-0.5,1.7-1.7,3.2-2.7,4.6c-1.2,1.7-2.9,3-5,1.9
			s-1.9-3.4-1.2-5.2c1.9-4.7,4.1-9.3,6.1-13.9c4-9.3,7.8-18.6,11.9-27.9c1.1-2.6,1.9-6.2,5.5-6.2c3.5,0,4.2,3.5,5.5,6.1
			c6.7,12.9,11.9,26.4,18.1,39.5C660.4,807.4,660.8,809.1,661.2,810.2z M636.7,791.2c2.4-0.6,6,0.4,6.1-3.9c0-3.8-4.5-11.1-6.7-11
			c-2,0.1-5.6,6.7-5.7,10.6C630.3,791.6,634,790.7,636.7,791.2z"/>
		<path class="st0" d="M678.4,683.9c0-8.7-0.1-17.3,0-26c0.1-6.1,2-7.9,8-7.9c5.9,0,8.1,2.1,8.2,7.9c0,17.2,0,34.4-0.1,51.5
			c0,6.3-1.5,7.5-8.1,7.4c-6.7,0-7.9-1.1-8-7.5C678.3,700.9,678.4,692.4,678.4,683.9z"/>
		<path class="st2" d="M348.1,809.6c-0.4,1.7,0,3.3-1.6,3.8c-1.5,0.5-2.8-0.1-4-1.2c-2.2-2.1-3.2-5-4.4-7.6c-1.9-4.1-4.8-6-9.2-5.9
			c-1.8,0-3.6,0.2-5.4-0.1c-7.8-1-13.1,1.8-15.3,9.6c0,0.2-0.1,0.3-0.2,0.4c-1.6,2.4-3.1,6.1-6.5,4.5c-3-1.5-1.6-4.9-0.5-7.5
			c5.4-12.6,10.8-25.3,16.3-37.9c1.3-3,2.2-7.3,6.2-7.4c4.1-0.1,5,4.3,6.3,7.3c5.8,12.6,11.4,25.4,17,38.1
			C347.5,807.1,347.8,808.6,348.1,809.6z M323.6,791.1c6.7,0,8-1.9,5.1-7.8c-1.3-2.7-2-7-5.4-6.9c-3.6,0-3.4,4.6-4.6,7.2
			C316,789.8,317,791.1,323.6,791.1z"/>
		<path class="st2" d="M575.3,759.6c4,0.2,8.5,0.2,12.5,2.3c2.4,1.3,5.4,2.7,4.1,6.1c-1.4,3.7-4.4,1.6-6.7,0.9
			c-11.6-3.8-21.2-1.7-27.2,6.2c-4.4,5.9-6,12.4-2.9,19.4c3.3,7.4,9.2,11.3,17.1,12.2c4.9,0.5,9.8-0.1,14.5-2c2.2-0.9,5-2.3,6.4,0.9
			c1.2,2.8-1,4.5-3.2,5.8c-9.6,5.6-25.6,4.1-34.3-3.2c-9.3-7.8-12.4-19.2-8.3-30.5C551.2,766.6,562.1,759.5,575.3,759.6z"/>
		<path class="st3" d="M459.1,710.7c-0.1-0.6-0.3-1.2-0.4-1.9c-1-9-2.3-18.1,2.4-26.6l0,0c1.7-0.3,1.9-1.6,2-3l0,0
			c1.7-0.9,2.9-2.3,4-3.9c9.6-6.6,24.6-3,26.4,9.3c1.3,8.8,1.8,17.6-4.5,25.2c-0.9,1.1-1.6,2.4-2.4,3.7c-6.1,4.7-13.1,5-20.3,3.8
			h-0.1C463.8,715.1,461.5,712.9,459.1,710.7z M465.8,698.3c0,1.3-0.1,2.6,0,3.9c0.3,3.9,2.2,6.9,5.8,8.3c3.6,1.3,6.4-0.8,8.5-3.4
			c5.5-6.5,6.8-14,4.4-22c-1.7-5.8-7.1-7.1-11.9-3.7C466.9,685.7,466.1,691.9,465.8,698.3z M488.6,690c0,1.8,0,3.6,0,5.3
			c0,1.5,0.5,2.6,2.2,2.5c1.5-0.1,1.7-1.3,1.7-2.5c0-2.4,0.2-4.9,0-7.3c-0.2-2.1,0.1-5.6-2.5-5.4c-2.5,0.2-1,3.5-1.3,5.4
			C488.5,688.7,488.6,689.4,488.6,690z"/>
		<path class="st2" d="M378.9,786.5c0-6.9,0-13.8,0-20.6c0-4.2,1.9-6.3,6.3-6.2c5.6,0.1,11.1,0,16.7,0c2.3,0,4.6,0.4,4.8,3.1
			c0.2,3-2.2,3.7-4.6,4c-3.1,0.3-6.2,0.5-9.3,0.5c-3.9,0-5.7,1.9-5.7,5.7c0,3.9-0.5,8.3,5,9.1c3.4,0.5,6.9,0.4,10.3,0.6
			c2,0.1,4.2,0.4,4.2,3.1c0,2.5-2,3.2-4.1,3.4c-2.8,0.2-5.6,0.3-8.3,0.5c-5.5,0.4-6.9,1.9-7.1,7.3c-0.1,3.8,0,7.5-0.3,11.3
			c-0.2,2.5-1,5.3-4,5.4c-3.3,0.1-3.6-3.1-3.7-5.4C378.8,801,378.9,793.7,378.9,786.5z"/>
		<path class="st3" d="M199.4,707.8c0.2-0.2,0.2-0.4,0.2-0.7c2.3-2.6,3.4-5.7,3.9-9.1c0.2-0.2,0.2-0.3,0.2-0.6
			c2-2.3,2.4-5.3,3.7-7.9c3.3-7.1,5.3-14.9,9.4-21.7c0.1,0.8,0.6,2,0.2,2.4c-3.6,3.9,0.6,10.7-5,13.9c-0.3,0.2-0.4,1.1-0.2,1.3
			c3,2.9,0,3.6-1.7,4.9c-1.5,1.2-2.1,3-2.9,4.7c-2.1,4.2-0.7,9.6-4.9,13.2c-2,1.7-1.1,4.6,1.1,6.3c1.7,1.3,3.2,1.8,4-0.9l0,0
			c2.3-0.1,4.1,0.7,4.7-3.3c1-6.1,5.5-8.5,12.1-8.5c6.7,0,13.4,0,20.2,0c1.6,0,3.2-0.2,4.6,1.2c1.4,1.4,2.8,4,5.2,2
			c2.4-1.9,5-4.9,4.1-7.8c-1.9-6.5-3-13.3-6.6-19.4c-1.5-2.6-4.8-5.8-1.7-9.6c0.9,1.9,1.9,3.7,2.8,5.6c3.2,6.5,5,13.6,9.4,19.5
			c-0.1,0.2,0,0.4,0.2,0.6c0.9,4.8,3,9,5.8,12.9l0,0c0.2,1,0.3,1.9,0.5,2.9c1.6,5.7,0.9,6.8-4.9,6.8c-3.1,0-6.2-0.5-9.2-0.8
			l-0.1-0.1c0.1-1.3-0.4-2-1.8-2.1l0,0c0-1.4-0.7-2.4-1.8-3.2c0-0.3,0-0.5-0.3-0.7c-0.8-4-3.8-5-7.3-5.1c-5.4-0.1-10.8,0.3-16.1-0.1
			c-6-0.5-9.6,2.1-11.7,7.4c-1.3,3.4-3.8,4.5-7.2,4.7C199.1,717.1,198.3,716.3,199.4,707.8z M263.5,713.7c1.4,0,2.8-0.2,2.7-2
			s-1.3-3.3-3-3.2c-1.3,0.1-2.6,1.4-2.7,3C260.3,713.7,262,713.7,263.5,713.7z"/>
		<path class="st3" d="M443.4,709.8c-0.7,6-1.5,12-2.1,18c-0.2,2-1.1,3.7-1.8,5.6c-1,2.8-3.3,3.1-5.6,2.6c-2.5-0.5-2.8-3-2.4-4.8
			c3-12.3,2.6-25,5-37.3c1-5.4,3.3-10.9-3.8-14.3c-1.9-0.9-1.5-3.9,0.5-4.9c6.5-3.4,7.4-10.2,10.2-15.9c1.6-0.4,1.9-1.6,2.1-3v0.1
			c2.3-1.7,4.5-3.4,6.8-5c0.3,0.1,0.6,0,0.9-0.2c4.5-0.6,9-1.6,13.5,0c1.8,0.7,3.2,1.7,2.9,3.9c-0.3,2.1-1.7,3-3.8,3
			c-2.3,0-4.6-0.1-6.8,0.3c-5,0.9-7.9,4.3-9.4,8.9c-1.3,3.7,1.4,5.6,3.9,7.5c-2.3,1.2-3.9-1.8-6.3-0.8c-2.8,1.2-5.8,1.7-8.9,1
			c-1.6-0.4-3.5-0.4-4.2,1.5c-0.8,2.3,1.3,3.2,2.7,4c1.3,0.7,2.5,0.9,2.8,2.8c1.1,8.7-0.9,17.2-2.7,25.4c-1.6,7.3-0.1,14.9-3.1,21.9
			c-0.4,1-0.4,2.8,1.4,3.2c1.7,0.4,2-0.9,2.6-2.2c2.8-5.8,2.1-12.2,3.6-18.2c0.8-2.9,0.5-6.1,2-8.9
			C443.2,705.9,443.3,707.8,443.4,709.8z"/>
		<path class="st3" d="M512.6,673.6c3.8,0.3,7.5,1.5,11.4-0.5c1.9-1,4.7,0,5.5,2.7s-0.7,4.5-3.2,5.2c-9.5,2.5-12.9,9.3-13.8,18.4
			c-0.4,4.4-1.4,8.7-2.6,12.9c-0.7,2.3-1.4,5.4-5,4.9c-3.5-0.5-3.7-3.5-3.4-6.1c1.5-11.3,3.1-22.6,5-33.8
			C507,674.1,509.7,673.4,512.6,673.6z"/>
		<path class="st3" d="M244.3,654.2c0,0.2,0,0.4,0.2,0.5c1.5,3.9,2.9,7.8,4.4,11.6c-1.4,0.3-3-0.4-4,1.2c-0.8,1.3,1.2,13.9,2.7,14.2
			c3.9,0.9,2.8,3.8,3,6.2c0.2,1.9-0.6,4,0.7,5.7c0.9,1.1,1.6,2.2,0.7,3.5c-0.3,0.4-1.2,0.7-1.7,0.6c-1.9-0.2-1.6-1.8-1.7-3
			c-0.1-1.6-0.4-3.2-2.5-2.1c-2,1-4,2.2-5.7,3.7c-4.1,3.8-11.6,5-17.2,2.2c2-0.6,5.2-2.6,3.2-3.4c-5.1-2-3.8-6.8-4.6-9.8
			c-1.4-5.3-0.6-11.3-0.6-17c0-1.5,1.1-2.1,2.4-1.6c1.6,0.6,0.3,1.4,0,2.2c-1,3.6-1,7.2,0.2,11.9c1.3-3,2.7-4.9,3-7
			c0.5-3.8,2.3-5.6,6.1-5.4c4.2,0.2,3.8,3.2,3.8,6c-0.4-0.3-0.9-0.5-1.2-0.8c-0.9-1.3-1.2-3.3-3.4-3c-2.1,0.2-2.2,2.2-2.7,3.7
			c-1.5,4.2-2.8,8.4-4.2,12.6c-0.5,1.7-1.4,3.9,0.7,4.8c4.3,2,8.9,1.6,13.4,0.6c1.9-0.5,2.5-2,2.4-3.8c-0.1-1-0.6-1.9-0.7-2.8
			c-0.2-2-2.3-3.3-2.1-5.4c1.8-0.2,1.9-1.5,1.8-2.9c-0.1-4,0.4-8.1-0.6-12c1.1-1.1,3.1,2.4,3.3-0.7c0.1-1.8-0.4-5-1.5-5.4
			c-4.6-1.7-3-5.3-3.3-8.4c0.3-0.1,0.7-0.2,1-0.3c0.2,0.2,0.5,0.3,0.8,0.2C241.3,652.4,242.7,653.5,244.3,654.2z"/>
		<path class="st2" d="M513.8,786.5c0,7,0.2,14.1-0.1,21.1c-0.1,2.4,0,6-3.6,6c-3.6,0-4.1-3.5-4.1-6.2c-0.2-13.8-0.2-27.5,0-41.3
			c0-2.8,0.4-6.1,4.2-6c4.2,0.1,3.5,3.8,3.6,6.3C514,773.1,513.8,779.8,513.8,786.5L513.8,786.5z"/>
		<path class="st3" d="M862.9,572.1c-3.2-0.1-2.4-2.5-2.4-4.4c0-13.8,0-27.5,0-41.3c0-5.9-1.7-7.5-7.6-7.6c-4.4,0-8.9-0.2-13.3,0
			c-7.2,0.4-13.8-2.2-20.6-3.7c-8.8-1.9-18-3.3-27.2-2.2c-5.8,0.7-11.1-1.5-16.7-2.2c-0.9-0.1-1.2-1-1.3-1.9
			c5.2-0.2,10.4,0.1,15.6,1.4c3.8,1,7.7,1.5,11.1-1.5c1.5,2.1,3.8,2.2,6.1,2.5c16.2,1.9,32.3,4,48.6,5.4c7,0.6,8.1,2.5,8.1,9.7
			c0,13.6,0,27.1,0,40.7C863.3,568.9,863,570.5,862.9,572.1z M843.5,517.7c0-0.2,0.1-0.3,0.1-0.5c-3.9,0-7.7,0-11.6,0
			c0,0.2,0,0.3,0,0.5C835.8,517.7,839.6,517.7,843.5,517.7z"/>
		<path class="st0" d="M658.7,857.2c-1.9-1.6-4.1-0.8-6.1-0.8c-114.9,0-229.8,0-344.7-0.1c-1.7,0-3.5,0.5-5.3-0.5
			c1.6-0.9,3.3-0.5,4.9-0.5c115.9,0,231.7,0,347.6,0c1.9,0,4.4-1.3,5.6,1.5C660.1,857,659.4,857.1,658.7,857.2z"/>
		<path class="st2" d="M270.4,778.3c5.2,0,9.5,3.7,9.5,8.4c0.1,5.1-4.4,9.3-9.9,9.3c-5.2-0.1-8.8-3.8-8.7-9.1
			C261.5,781.4,264.8,778.2,270.4,778.3z"/>
		<path class="st2" d="M707,786.8c0,5.7-3.3,9-9.2,9.1c-5.2,0.1-8.6-3.5-8.6-9.1c0-5.4,3.5-8.8,8.9-8.8
			C703.6,778,707,781.4,707,786.8z"/>
		<path class="st3" d="M179.7,701.9c-0.8,2.9-4.1,3.5-5.7,3.6c-6.3,0.1-12.5,1.4-18.8,0.4c-3.5-0.6-5.2-2.3-5-5.8
			c2.2,0.1,3.6,2.4,5.9,2c0.2,0.2,0.4,0.2,0.6,0.1c1.3,1.6,3.1,1.5,4.9,1.9C167.8,705.3,173.7,703.2,179.7,701.9z"/>
		<path class="st3" d="M144.4,694c-3.2-0.8-3.9-3.1-4.2-6.1c-0.4-5.4,1-10.5,2.1-15.6c0.7-2.9,3.1-1.5,4.8-1.9
			c-0.8,1.2-1.6,2.4-2.3,3.7c-2.7,5.9-2.8,11.9-0.5,17.9C144.4,692.7,144.4,693.3,144.4,694z"/>
		<path class="st3" d="M187.2,712.5c-1.2,0.4-2.4,0.8-3.6,1.2c0.3-1.8-0.8-4,1.6-5.2c1.8-0.9,3.5-2.1,2.8-4.4
			c-0.8-2.8-3.2-2.1-5.3-2.2c-0.8,0-1.6-0.1-2.4-0.2c0.2-0.5,0.5-1,0.7-1.6c0.2,0.1,0.4,0,0.6-0.1c9-0.2,10.7,2.5,6.3,10.7
			C187.7,711.2,187.5,711.9,187.2,712.5C187.3,712.5,187.2,712.5,187.2,712.5z"/>
		<path class="st3" d="M179,666.3c-6-3.1-12.5-2.8-18.9-2.6c6.6-2.5,13.4-0.8,20.1-0.9c1.9,0,1.3,2.2,1.5,3.6c-0.7,0-1.3,0.1-2,0.1
			C179.5,666.3,179.3,666.2,179,666.3z"/>
		<path class="st3" d="M154.1,666.5c-0.7-0.1-1.3-0.1-2-0.2c0.3-2.2,1.9-1.9,3.4-1.7c-0.2,0.5-0.4,1.1-0.7,1.6
			C154.6,666.3,154.3,666.4,154.1,666.5z"/>
		<path class="st3" d="M632.2,493.2c4.6-0.1,9.1,0.7,13.5,1.6c2,0.4,4.3,1.3,5.4-1.6c13.3,3.2,27,3.5,40.4,6c5.7,1,11.3,0.4,16.3-3
			c1.3,3.2,3.5,4.9,7.1,5.5c14.9,2.4,30,2.4,44.9,5.2c1.7,0.3,3.2-0.1,4.7-1c1.4,1.2,2.5,2.7,5,1.9c1.3-0.5,3.2,0,4.4,1.4
			c-7.3,2.4-14.9,0.4-21.9-0.5c-7.4-0.9-15-0.1-22.2-1.7c-15.6-3.3-31.3-4-47.2-3.7c-0.6,0-1.5,0.1-1.9-0.2
			c-6.6-6.1-14.9-5.8-23-5.6c-7.9,0.2-15.6-1-23.3-2C633.1,495.1,632.3,494.6,632.2,493.2z"/>
		<path class="st3" d="M483.5,577.9c-122,0-243.9,0-365.9,0c-1.5,0-3,0-4.4,0c-1.6,0-2.6-1-2.1-2.5c0.8-2.2,1.7,0.1,2.5,0.2
			c1.4,0.2,2.9,0.4,4.4,0.4c243.1,0,486.3,0,729.4,0c1.9,0,3.9,0.5,5.6-1.2c0.9-0.9,1.9-0.3,2.6,0.4c0.4,0.4,0.8,1.1,0.7,1.6
			c-0.3,1.2-1.4,1.1-2.4,1.2c-1.1,0-2.3,0-3.4,0C728.1,577.9,605.8,577.9,483.5,577.9z"/>
		<path class="st3" d="M144.3,664.5c0.2-1.7-0.4-3.5,0.8-5.6c1.1,1.8,4.6,0.7,4.4,3.3C149.2,664.6,146.4,664.6,144.3,664.5
			L144.3,664.5z"/>
		<path class="st3" d="M144.5,694.5c1.4,0.7,2.6,1.7,2.9,3.4C144.6,698.3,144,696.8,144.5,694.5z"/>
		<path class="st3" d="M151.5,666.6c-0.8,1.3-1.9,2.2-3.3,2.7C148,666.9,149.3,666.2,151.5,666.6z"/>
		<path class="st3" d="M144.3,664.5c-0.1,0.7-0.1,1.6-1.2,1.5c-0.1,0-0.3-0.2-0.3-0.3C142.7,664.6,143.6,664.6,144.3,664.5
			L144.3,664.5z"/>
		<path class="st3" d="M160.1,663.6c-0.8,1.2-1.9,0.9-3,0.8C157.9,663.3,159,663.5,160.1,663.6z"/>
		<path class="st3" d="M147.3,697.8c0.4,0.3,0.9,0.6,1.3,0.9C148.2,698.5,147.7,698.1,147.3,697.8z"/>
		<path class="st1" d="M285.1,655.1c1.3,1.6,0.7,3.1,0.9,4.5c0.1,1.4,0.2,2.8,0.4,5.6c1.5-2.5,2.9-3.8,3.2-5.3
			c1-5.9,5.8-6.4,10.2-7.1c3.4-0.5,6.9,0.1,10.3-0.2c5.4-0.4,10.1,0.1,11.6,6.5c0.2,0.9,1,1.1,1.8,1.4c6.1,1.9,8.2,10.6,3.5,15
			c-2.1,2-3.2-0.7-3.2-1.9c0.2-4.9-2.8-6.6-6.8-8.1c-3.3-1.3-5.3-5.3-9.7-5c-1.1,0.1-2.2-0.1-3.3-0.6c-5.5-2.6-9.7-0.2-10,5.8
			c-0.2,3.4,0.1,6.9-0.1,10.3c-0.2,3,1.5,4.6,4,4.5c4-0.1,8-0.1,12,0s6.4-1.9,5.7-6.5c-0.2-1.6-0.5-3.5,1.2-6c0.5,3.9,2,6.2,4,8.5
			c2.3,2.7,0.5,5.7-3.3,5.6c-3-0.1-4.7,0.4-5.5,3.8c-1.6,6.7-6.3,2.4-9.3,1.7c-4.8-1.1-8.7,1-8.8,6.1c-0.1,5.4-0.2,10.8,0,16.2
			c0.2,4.6-3.7,4.9-6.1,5.2c-2.5,0.3-3.8-2.4-3.8-5.2c0.1-13.8,0-27.5,0-41.3c0-2.4,0.1-4.7-1.4-7C281,659.3,282,656.7,285.1,655.1z
			 M287.7,668c-0.1-0.7-0.4-1.2-1-1c-0.3,0.1-0.6,0.7-0.6,1.1c0,0.5,0.3,1,0.9,0.8C287.4,668.7,287.6,668.2,287.7,668z"/>
		<path class="st1" d="M321.5,692.5c6.6,2.1,5.2,8.2,7.5,12.2c0.7,1.3,1.3,2.9,1.9,4.3c0.5,1.3,0.8,3-0.4,4.2c-1,1-2.5,0.7-3.7,0.4
			c-1.7-0.4-1.4-2-1.5-3.2c0-2.3,0-4.6,0-6.9c-0.1-2.3,0.9-4.8-2.8-5.8C320.4,697,321.6,694.5,321.5,692.5z"/>
		<path class="st1" d="M488.6,690c0-0.6-0.1-1.3,0-1.9c0.4-1.9-1.2-5.2,1.3-5.4c2.6-0.2,2.4,3.3,2.5,5.4c0.2,2.4,0.1,4.8,0,7.3
			c0,1.2-0.2,2.3-1.7,2.5c-1.8,0.1-2.2-1-2.2-2.5C488.6,693.6,488.6,691.8,488.6,690z"/>
		<path class="st1" d="M248.9,666.3c0.3,0.7,0.6,1.3,1,2c-3.1,3.8,0.2,7.1,1.7,9.6c3.5,6.1,4.6,12.9,6.6,19.4
			c0.9,2.9-1.6,5.9-4.1,7.8c-2.4,1.9-3.8-0.7-5.2-2c-1.4-1.4-3-1.2-4.6-1.2c-6.7,0-13.4,0-20.2,0c-6.6,0-11.1,2.4-12.1,8.5
			c-0.7,3.9-2.4,3.2-4.7,3.3c-0.1-0.6-0.1-1.3-0.9-1.5c-0.2,0-0.6,0.4-0.5,0.5c0.1,0.8,0.8,0.8,1.5,0.9c-0.8,2.7-2.3,2.2-4,0.9
			c-2.3-1.8-3.1-4.7-1.1-6.3c4.2-3.6,2.8-9,4.9-13.2c0.9-1.7,1.4-3.6,2.9-4.7c1.7-1.3,4.7-2,1.7-4.9c-0.2-0.2,0-1.2,0.2-1.3
			c5.6-3.2,1.4-10,5-13.9c0.4-0.4-0.1-1.6-0.2-2.4c1.5-4.1,3-8.3,4.6-12.3c1.4-3.5,4.2-5.3,8.1-5.1c3.1,0.1,6.2,0.3,9.3,0.4
			c0.3,3.1-1.3,6.7,3.3,8.4c1,0.4,1.6,3.5,1.5,5.4c-0.2,3.1-2.2-0.3-3.3,0.7c0.9,3.9,0.5,7.9,0.6,12c0,1.4-0.1,2.7-1.8,2.9
			c-0.2-0.3-0.2-0.6-0.2-0.9c-0.4-1.8,1.3-4.4-2.1-4.9l0,0c0.1-2.8,0.4-5.8-3.8-6c-3.8-0.2-5.6,1.5-6.1,5.4c-0.3,2.1-1.6,4-3,7
			c-1.2-4.7-1.2-8.3-0.2-11.9c0.2-0.8,1.6-1.6,0-2.2c-1.2-0.4-2.4,0.1-2.4,1.6c0,5.7-0.8,11.7,0.6,17c0.8,3-0.5,7.7,4.6,9.8
			c2.1,0.8-1.1,2.8-3.2,3.4c5.6,2.8,13.1,1.6,17.2-2.2c1.6-1.5,3.7-2.6,5.7-3.7c2.2-1.1,2.4,0.5,2.5,2.1c0.1,1.3-0.2,2.8,1.7,3
			c0.6,0.1,1.4-0.2,1.7-0.6c0.9-1.3,0.1-2.4-0.7-3.5c-1.3-1.7-0.5-3.8-0.7-5.7c-0.2-2.4,1-5.3-3-6.2c-1.4-0.3-3.5-12.9-2.7-14.2
			C245.8,666,247.5,666.7,248.9,666.3z M237.5,666.9c-0.1,0.3-0.2,0.5-0.3,0.8c0.3,0.1,0.6,0.4,0.8,0.3s0.2-0.5,0.4-0.8
			C238,667.1,237.7,667,237.5,666.9z"/>
		<path class="st1" d="M263.5,713.7c-1.5,0-3.2,0-3-2.2c0.1-1.6,1.4-3,2.7-3c1.7-0.1,2.9,1.4,3,3.2S264.9,713.7,263.5,713.7z"/>
		<path class="st1" d="M455.1,674.4c0.9,3.3-0.1,5.5-3.7,6c-3.7,0.5-5.6,2.7-5.6,6.2c0,5.9-1.9,11.5-2.6,17.3c-1.5,2.8-1.2,6-2,8.9
			c-1.6,6-0.8,12.5-3.6,18.2c-0.6,1.3-0.9,2.5-2.6,2.2c-1.8-0.4-1.8-2.1-1.4-3.2c3.1-7,1.5-14.6,3.1-21.9c1.8-8.2,3.8-16.7,2.7-25.4
			c-0.3-1.9-1.5-2.1-2.8-2.8c-1.4-0.8-3.5-1.7-2.7-4c0.7-1.9,2.6-1.8,4.2-1.5c3.1,0.7,6.1,0.2,8.9-1c2.4-1,4,2,6.3,0.8
			C454,674.3,454.5,674.4,455.1,674.4z"/>
		<path class="st1" d="M843.5,517.7c-3.8,0-7.6,0-11.5,0c0-0.2,0-0.3,0-0.5c3.9,0,7.7,0,11.6,0C843.5,517.3,843.5,517.5,843.5,517.7
			z"/>
		<path class="st3" d="M287.7,668c-0.2,0.2-0.3,0.8-0.6,0.9c-0.6,0.3-0.9-0.3-0.9-0.8c0-0.4,0.3-1,0.6-1.1
			C287.3,666.7,287.6,667.2,287.7,668z"/>
		<path class="st3" d="M238.7,679.3c-1.1-1.4-1.8-3.1-2-4.9C240,675,238.3,677.6,238.7,679.3z"/>
		<path class="st3" d="M207.2,713.7c-0.6-0.1-1.3-0.1-1.5-0.9c0-0.2,0.4-0.6,0.5-0.5C207.1,712.4,207.1,713.1,207.2,713.7
			L207.2,713.7z"/>
		<path class="st3" d="M237.5,666.9c0.3,0.1,0.5,0.2,0.8,0.3c-0.1,0.3-0.2,0.7-0.4,0.8c-0.2,0.1-0.5-0.2-0.8-0.3
			C237.2,667.4,237.3,667.2,237.5,666.9z"/>
	</g>
</g>
</svg>
