<?xml version="1.0" encoding="utf-8"?>
<!-- Generator: Adobe Illustrator 24.1.0, SVG Export Plug-In . SVG Version: 6.00 Build 0)  -->
<svg version="1.1" id="Layer_1" xmlns="http://www.w3.org/2000/svg" xmlns:xlink="http://www.w3.org/1999/xlink" x="0px" y="0px"
	 viewBox="0 0 340 340" style="enable-background:new 0 0 340 340;" xml:space="preserve">
<style type="text/css">
	.st0{fill:#FFFFFF;}
	.st1{fill:#203667;}
	.st2{font-family:'Montserrat-SemiBold';}
	.st3{font-size:22px;}
</style>
<g>
	<g>
		<path class="st0" d="M74,32.36c64,0,128,0,192,0c0,72,0,144,0,216c-64,0-128,0-192,0C74,176.36,74,104.36,74,32.36z M158.92,35.39
			c-8.3,1.07-23.86,2.6-39.23,5.21c-12.99,2.2-25.42,6.53-36.77,13.55c-3.24,2-5.08,4.24-4.59,8.42c0.62,5.28,0.49,10.64,0.78,15.97
			c1.55,29.22,6.23,57.85,17.11,85.16c10.96,27.5,26.73,51.7,52.63,67.19c22.1,13.22,21.93,14,44.58-0.13
			c22.26-13.89,35.94-35.24,46.12-58.87c13.73-31.86,19.53-65.51,21.29-99.93c0.28-5.46,4.11-11.93-1.5-16.43
			c-4.47-3.59-9.95-5.93-15.03-8.71c-1.29-0.71-2.8-1.02-4.21-1.5C216.12,37.2,191.28,35.6,158.92,35.39z"/>
		<path class="st1" d="M158.92,35.39c32.36,0.2,57.2,1.8,81.17,9.93c1.41,0.48,2.92,0.79,4.21,1.5c5.09,2.79,10.57,5.13,15.03,8.71
			c5.61,4.5,1.78,10.97,1.5,16.43c-1.75,34.42-7.56,68.07-21.29,99.93c-10.18,23.63-23.86,44.97-46.12,58.87
			c-22.65,14.13-22.48,13.35-44.58,0.13c-25.9-15.49-41.67-39.69-52.63-67.19c-10.89-27.31-15.57-55.94-17.11-85.16
			c-0.28-5.32-0.16-10.69-0.78-15.97c-0.49-4.18,1.35-6.42,4.59-8.42c11.35-7.02,23.78-11.35,36.77-13.55
			C135.06,38,150.62,36.46,158.92,35.39z M161.99,52.07c-5.82,0.53-15.48,1-25.02,2.35c-14.44,2.05-28.33,6.11-40.52,14.48
			c-1.68,1.15-3.26,3.96-3.16,5.91c0.61,12.62,0.93,25.33,2.78,37.79c4.3,28.88,14.33,55.68,31.8,79.35
			c9.11,12.34,20.01,22.69,34.12,29.34c5.77,2.72,11.22,3,17.21,0.67c15.43-6,26.75-16.8,35.3-30.49
			c21.48-34.41,29.84-72.62,31.44-112.61c0.41-10.21-0.86-11.55-10.5-15.34c-1.08-0.43-2.19-0.79-3.3-1.16
			C210.63,55.07,188.38,52.67,161.99,52.07z"/>
		<path class="st0" d="M161.99,52.07c26.39,0.6,48.65,3,70.15,10.29c1.1,0.37,2.21,0.73,3.3,1.16c9.64,3.79,10.91,5.13,10.5,15.34
			c-1.6,39.99-9.96,78.2-31.44,112.61c-8.55,13.7-19.87,24.49-35.3,30.49c-5.99,2.33-11.45,2.05-17.21-0.67
			c-14.11-6.65-25.01-17-34.12-29.34c-17.47-23.67-27.5-50.47-31.8-79.35c-1.85-12.47-2.17-25.18-2.78-37.79
			c-0.09-1.96,1.49-4.76,3.16-5.91c12.19-8.37,26.08-12.44,40.52-14.48C146.51,53.07,156.16,52.6,161.99,52.07z M170.33,61.31
			c-5.16,0.29-12.32,0.47-19.44,1.12c-15.66,1.43-30.92,4.36-44.79,12.45c-3.09,1.8-4.43,3.7-4.27,7.41
			c1.17,27.17,6.4,53.46,17.26,78.44c8.58,19.74,20.78,36.48,39.39,48.38c10.46,6.69,19.33,5.47,28.84-1.12
			c14.12-9.78,22.6-23.78,29.35-38.95c11.47-25.76,17.1-53.07,20.12-80.95c1.33-12.27,0.47-13.4-11.15-17.88
			C208.5,63.6,190.55,61.64,170.33,61.31z"/>
		<path class="st1" d="M170.33,61.31c20.22,0.33,38.17,2.29,55.33,8.9c11.62,4.48,12.47,5.61,11.15,17.88
			c-3.02,27.88-8.65,55.19-20.12,80.95c-6.75,15.17-15.23,29.17-29.35,38.95c-9.52,6.59-18.39,7.81-28.84,1.12
			c-18.61-11.9-30.81-28.64-39.39-48.38c-10.86-24.98-16.09-51.27-17.26-78.44c-0.16-3.71,1.18-5.61,4.27-7.41
			c13.87-8.08,29.13-11.01,44.79-12.45C158.01,61.78,165.17,61.6,170.33,61.31z M172.31,124.12c-16.22-0.11-33.58,19.79-31.52,33.86
			c0.94,6.41,3.41,8.66,9.88,8.59c2.29-0.02,4.9,0.02,6.79-1.02c7.93-4.36,15.75-4.19,23.78-0.53c1.18,0.54,2.57,0.67,3.87,0.93
			c11.6,2.4,17.71-4.12,14.52-15.52c-0.45-1.59-0.97-3.19-1.66-4.69C192.47,133.82,183.64,126.11,172.31,124.12z M152.73,85.93
			c-6.11-0.01-10.46,4.69-10.5,11.36c-0.06,9.14,6.16,16.32,14.09,16.28c6.1-0.04,11.28-5.35,11.3-11.57
			C167.64,94.23,159.96,85.94,152.73,85.93z M118.72,117.72c-0.03,7.83,7.78,15.66,15.71,15.75c6.43,0.07,11.76-5.27,11.69-11.73
			c-0.08-7.41-6.95-13.18-15.86-13.33C122.89,108.29,118.74,111.64,118.72,117.72z M195.73,123.39c0.08,6.57,6.72,12.78,13.58,12.71
			c6.79-0.07,12.77-7.22,12.74-15.24c-0.02-6.56-4.27-10.49-11.28-10.44C202.78,110.48,195.65,116.62,195.73,123.39z M173.74,101.7
			c-0.01,7.62,4.92,12.73,12.24,12.69c6.54-0.04,11.85-6.28,11.89-13.98c0.03-6.71-5.02-12.97-10.5-13.02
			C180.11,87.31,173.75,93.99,173.74,101.7z"/>
		<path class="st0" d="M172.31,124.12c11.33,1.99,20.16,9.7,25.66,21.62c0.69,1.5,1.21,3.09,1.66,4.69
			c3.19,11.41-2.91,17.92-14.52,15.52c-1.3-0.27-2.68-0.39-3.87-0.93c-8.03-3.66-15.85-3.82-23.78,0.53c-1.89,1.04-4.51,1-6.79,1.02
			c-6.47,0.07-8.94-2.18-9.88-8.59C138.73,143.91,156.09,124.02,172.31,124.12z"/>
		<path class="st0" d="M152.73,85.93c7.23,0.01,14.91,8.3,14.88,16.06c-0.02,6.23-5.2,11.54-11.3,11.57
			c-7.93,0.05-14.15-7.14-14.09-16.28C142.27,90.62,146.62,85.92,152.73,85.93z"/>
		<path class="st0" d="M118.72,117.72c0.03-6.09,4.17-9.43,11.53-9.31c8.91,0.15,15.78,5.92,15.86,13.33
			c0.07,6.46-5.26,11.81-11.69,11.73C126.49,133.38,118.68,125.55,118.72,117.72z"/>
		<path class="st0" d="M195.73,123.39c-0.08-6.76,7.05-12.91,15.05-12.97c7.01-0.05,11.26,3.88,11.28,10.44
			c0.02,8.02-5.95,15.17-12.74,15.24C202.46,136.17,195.82,129.95,195.73,123.39z"/>
		<path class="st0" d="M173.74,101.7c0.01-7.71,6.37-14.38,13.63-14.32c5.48,0.05,10.53,6.32,10.5,13.02
			c-0.04,7.7-5.35,13.95-11.89,13.98C178.66,114.43,173.73,109.32,173.74,101.7z"/>
	</g>
</g>
<text transform="matrix(1 0 0 1 82.8787 273.7406)"><tspan x="0" y="0" class="st1 st2 st3">Darwin Animal </tspan><tspan x="43.05" y="26.4" class="st1 st2 st3">Doctors</tspan></text>
</svg>
