<?xml version="1.0" encoding="utf-8"?>
<!-- Generator: Adobe Illustrator 24.1.0, SVG Export Plug-In . SVG Version: 6.00 Build 0)  -->
<svg version="1.1" id="Layer_1" xmlns="http://www.w3.org/2000/svg" xmlns:xlink="http://www.w3.org/1999/xlink" x="0px" y="0px"
	 viewBox="0 0 1200 1200" style="enable-background:new 0 0 1200 1200;" xml:space="preserve">
<style type="text/css">
	.st0{fill:#734A34;}
	.st1{fill:#C25132;}
	.st2{fill:#222121;}
	.st3{fill:#6D432C;}
	.st4{fill:#B82B37;}
	.st5{fill:#FDFDFD;}
</style>
<g>
	<g>
		<path class="st0" d="M773.5,1065.7c-4.2-21.2-8.4-42.4-12.4-63.6c-0.3-1.7-2.9-4.8,1.3-5.4c3-0.4,5.9-0.9,6.6,4.1
			c2.4,15.4,5.6,30.8,8.4,46.1c0.2,1.1,0,2.4,1.6,3.5c2.5-12.1,4.9-24,7.4-35.9c0.9-4.2,2.1-8.4,2.5-12.7c0.4-3.8,2.5-3.9,5.4-4
			c3.2-0.1,4.3,1,4.9,4c2.7,14.7,5.5,29.4,8.3,44.1c0.3,1.5,0.7,2.9,1.8,4.4c2-10,4-20,6-30c1.3-6.7,2.9-13.3,3.8-20.1
			c0.5-3.8,2.6-4.2,5.5-3.8c3.7,0.5,1.5,3.1,1.2,4.6c-4,19.9-8.3,39.7-12.4,59.6c-0.4,1.8-1,3.4-2.1,4.9c-2.3,0-4.7,0-7,0
			c-3.5-18-7-35.9-10.5-53.9c-4.3,15-7.4,29.8-10.5,44.6c-0.7,3.2-0.6,6.6-2.9,9.3C778.2,1065.7,775.9,1065.7,773.5,1065.7z"/>
		<path class="st0" d="M633.6,1065.7c0-21.3,0-42.6,0.1-63.9c0-1.8-1.6-4.9,2-5.1c2.9-0.2,6-1.3,8,2.9c7.1,15,14.6,29.9,22,44.8
			c0.4,0.7,0.8,1.4,1.3,2.3c1.5-1.4,0.9-2.9,0.9-4.2c0.1-13.7,0-27.3,0.1-41c0-2.3-0.9-4.9,3.3-5s3.6,2.3,3.6,4.8
			c0,19.8,0,39.6,0,59.4c0,1.8,0.1,3.6-1.4,5.1c-2,0-4,0-6,0c-8.7-17.5-17.3-34.9-26-52.4c-1,15.8-1,31.2-1,46.7c0,2,0.2,4-1,5.7
			C637.6,1065.7,635.6,1065.7,633.6,1065.7z"/>
		<path class="st0" d="M562.6,1065.7c0-21.3,0-42.6,0.1-63.9c0-1.8-1.6-4.9,2-5.1c2.9-0.2,6-1.2,8,2.9c7.1,15,14.6,29.9,22,44.8
			c0.3,0.7,0.8,1.4,1.4,2.5c1.3-1.6,0.8-3.1,0.8-4.5c0-13.8,0-27.6,0-41.5c0-2.4-0.3-4.5,3.4-4.5c3.5,0,3.6,1.6,3.6,4.3
			c-0.1,20,0,40,0,59.9c0,1.8,0,3.6-1.4,5c-2,0-4,0-6,0c-8.6-17.5-17.3-34.9-25.9-52.4c-1,15.8-1,31.3-1,46.7c0,2,0.2,4-1.1,5.7
			C566.6,1065.7,564.6,1065.7,562.6,1065.7z"/>
		<path class="st0" d="M196.3,1064.6c-2.1-1.3-1.1-3.3-1.1-5c-0.1-19.3-0.1-38.7,0-58c0-1.8-1.6-4.9,2.1-5c2.9-0.1,6-1.1,8,3
			c6.9,14.6,14.2,29,21.4,43.5c0.6,1.3,1.4,2.5,3,3.7c0-5.4,0-10.7,0-16.1c0-10.2,0.1-20.3,0-30.5c0-2.7,0.6-3.8,3.6-3.8
			c3.1,0,3.5,1.3,3.5,3.9c-0.1,20.3-0.1,40.7,0,61c0,1.5-0.3,2.9-0.9,4.3c-2.3,0-4.7,0-7,0c-0.2-0.8-0.3-1.6-0.6-2.4
			c-7.9-16-15.8-31.9-23.7-47.8c-0.3-0.7-0.6-1.6-2-1.3c0,15,0,30.2-0.1,45.3c0,1.7,1.2,4.1-1.5,5.2
			C199.2,1064.7,197.8,1064.6,196.3,1064.6z"/>
		<path class="st0" d="M523.6,1065.7c-12.6-5.1-15.5-15.7-15.8-27.8c-0.2-7.6-0.3-15.3,0.9-22.9c2.5-15.5,16.2-23.4,30.9-17.9
			c5.7,2.1,9.7,6.1,11.3,11.9c3.9,14.4,3.8,28.9,0,43.3c-1.9,7.2-7.9,10.6-14.2,13.4C532.2,1065.7,527.9,1065.7,523.6,1065.7z
			 M516,1030.8c0.3,6,0,12,1.6,17.8c1.9,6.9,6.2,10.3,12.8,10.3c6.8,0,11.6-3.5,13-10.7c2.3-11.8,2.3-23.8-0.1-35.7
			c-1.4-6.9-6.2-10.3-12.8-10.3c-6.7,0-11,3.3-13,10.2C515.9,1018.5,516.3,1024.7,516,1030.8z"/>
		<path class="st0" d="M846.5,1065.7c-5.9-3.7-11.8-7.4-13.4-15c-2.7-13.2-3.1-26.5,0.1-39.6c2.5-10.5,10.6-15.7,22.1-15.4
			c10.6,0.3,18,6,20.1,16.6c2.4,12.2,2.2,24.5,0,36.7c-1.6,8.9-7.7,13.9-15.9,16.7C855.2,1065.7,850.8,1065.7,846.5,1065.7z
			 M868.5,1031c0.1-5.8,0.1-11.7-1.2-17.4c-1.7-7.4-6.2-11.3-13.1-11.3c-7-0.1-11.7,3.5-13.2,11.1c-2.2,11.4-2.2,22.9-0.1,34.2
			c1.4,7.8,6.3,11.5,13.5,11.3c6.9-0.2,11.3-4.1,12.9-11.6C868.5,1042,868.6,1036.5,868.5,1031z"/>
		<path class="st0" d="M155.7,1065.7c-12.8-5.7-15.2-16.8-15.4-29.2c-0.1-8-0.4-16,1.4-23.8c2.5-11.2,10.2-17.1,22-17
			c11.3,0.1,18.9,6.1,20.9,17.4c2.1,11.7,1.9,23.5-0.1,35.2c-1.5,9.1-7.5,14.3-15.9,17.3C164.3,1065.7,160,1065.7,155.7,1065.7z
			 M148.6,1030.3c0,5.7-0.1,11.3,1.1,16.9c1.6,7.7,6.1,11.8,13.2,11.8c7.2,0,11.9-3.8,13.3-11.6c2-11.2,2.1-22.6-0.1-33.8
			c-1.5-7.7-6.4-11.5-13.6-11.3c-6.8,0.1-11.2,4.1-12.9,11.6C148.6,1019.3,148.6,1024.8,148.6,1030.3z"/>
		<path class="st0" d="M324.6,1065.7c-0.9-1.7-0.8-3.5-0.8-5.3c0-19.6,0.1-39.3-0.1-58.9c0-4,1.2-5.2,5-4.9c5,0.3,10-0.1,15,0.2
			c7.7,0.4,12.9,4.3,14.3,11.6c1.8,9.6,2,19.2-7.8,25.3c-2.3,1.4-0.9,2.8-0.3,4.2c3.3,7.6,6.7,15.2,10.1,22.8
			c0.7,1.6,1.9,3.2,0.6,5.1c-2.7,0-5.3,0-8,0c0.5-1.6-0.4-2.9-1-4.2c-3.1-7.3-6.6-14.5-9.2-22c-1.8-5.1-5.7-3.9-8.9-3.5
			c-3.4,0.4-1.7,3.7-1.8,5.7c-0.2,4.8,0,9.6-0.1,14.4c-0.1,3.2,0.8,6.6-1,9.7C328.6,1065.7,326.6,1065.7,324.6,1065.7z
			 M331.6,1016.1c0,2.5,0.3,5-0.1,7.5c-0.7,4.5,1.2,6,5.5,5.3c1.1-0.2,2.3,0,3.5,0c6.2-0.2,9.2-2.7,10-8.8c0.3-2.6,0.4-5.3,0-7.9
			c-1-7.5-5.4-10.1-16-8.7c-5.8,0.8-1.8,5.8-2.8,8.7C331.3,1013.3,331.6,1014.8,331.6,1016.1z"/>
		<path class="st0" d="M886.5,1065.7c-0.1-22-0.1-44-0.3-66c0-2.3,0.7-3.3,3.1-3.2c5.7,0.2,11.3-0.1,17,0.2c8,0.4,13,4.9,14.3,12.8
			c1.5,9.2,1.2,18.2-7.9,23.9c-2.2,1.4-1.3,2.6-0.6,4.2c3.3,7.5,6.6,14.9,9.9,22.4c0.8,1.8,1.8,3.6,1.5,5.7c-2.7,0-5.3,0-8,0
			c-3.8-9.2-7.7-18.4-11.5-27.6c-1.8-4.2-5.5-2.1-8.3-2.2c-2.9-0.1-1.8,2.7-1.8,4.2c-0.1,6.2,0,12.3-0.1,18.5c0,2.4,0.6,5-1.3,7.1
			C890.5,1065.7,888.5,1065.7,886.5,1065.7z M893.8,1015.9c0,1.3,0,2.7,0,4c0,9.6,0,9.6,9.8,9c3.8-0.2,6.8-1.6,8.2-5.3
			c1.9-5,1.9-10.1-0.1-15.1c-1.8-4.5-8.9-6.9-15.8-5.1c-4.3,1.2-1.3,5.1-2,7.6C893.5,1012.5,893.8,1014.2,893.8,1015.9z"/>
		<path class="st0" d="M931.5,1065.7c0-21.5,0-43-0.1-64.4c0-3,0.1-4.9,4.1-4.8c3.8,0,3.9,1.8,3.8,4.6c-0.1,8.3,0,16.6,0,25
			c2.2,0.1,2.4-1.7,3.1-2.8c5.1-7.4,10.4-14.7,15.1-22.3c2.5-4.1,5.5-5.4,10.1-4c-0.7,3.2-3.1,5.3-4.8,7.9
			c-4.4,6.5-8.9,12.9-13.6,19.1c-2,2.6-1.8,4.4-0.1,7c6.2,9.5,12.1,19.1,18.1,28.7c1.2,1.8,2.5,3.6,2.1,5.9c-2.7,0-5.3,0-8,0
			c-6.6-11.9-14-23.2-21.7-34.4c-0.5,7.7-0.3,15.2-0.5,22.7c-0.1,3.9,0.8,8-0.8,11.8C936.1,1065.7,933.8,1065.7,931.5,1065.7z"/>
		<path class="st0" d="M441.6,1065.7c-1.3-5.5-2.7-11-3.8-16.5c-0.5-2.6-1.8-3.3-4.1-3.1c-0.3,0-0.7,0-1,0
			c-5.1,0.1-11.3-1.5-15.1,0.9c-3.6,2.2-2.9,9.1-4.4,13.8c-0.6,1.8-0.3,4-3.3,4.1c-3.3,0.1-4.8-0.2-3.7-4.3
			c5.4-19.9,10.7-39.8,15.6-59.8c1-4,3.1-4.1,6.3-4.3c3.2-0.1,4.7,0.8,5.4,4.1c4.9,20,10.1,40,15.1,60c0.4,1.7,1.4,3.5,0,5.2
			C446.3,1065.7,443.9,1065.7,441.6,1065.7z M418.5,1039.6c5,0,9.5,0,13.9,0c1.8,0,2.9-0.4,2.3-2.5c-2.4-9.9-4.8-19.9-7.2-29.8
			c-0.3,0-0.5,0-0.8,0.1C424.1,1018,421.3,1028.6,418.5,1039.6z"/>
		<path class="st0" d="M380.6,1065.7c-4.8-19.2-9.6-38.3-14.5-57.5c-0.5-2.1-1.4-4.2-1.5-6.3c-0.1-1.7-3.1-4.4,0.6-5.1
			c3-0.6,6.3-1.4,7.4,3.8c3.8,17.2,8.2,34.2,12.4,51.8c1.9-1.7,1.9-3.6,2.3-5.2c4-15.6,8.1-31.2,11.8-46.9c0.8-3.2,2.3-3.8,5.1-3.8
			c2.9,0,2.8,1.2,2.3,3.4c-5.6,21-11.2,42.1-16.9,63.1c-0.3,0.9-0.7,1.8-1.1,2.7C386,1065.7,383.3,1065.7,380.6,1065.7z"/>
		<path class="st0" d="M251.6,1065.7c-4.2-1.5-8.1-3.3-5.4-9.1c2.3,0.6,4.7,1.3,7.1,1.8c6.6,1.2,11.8-0.7,14-5
			c2.5-4.8,1.4-11.3-3.1-15.6c-3.5-3.3-7.5-6-11.3-9.1c-5.3-4.3-7.7-9.9-7.4-16.7c0.4-9,5.3-14.5,14.2-15.9c4-0.6,8,0.1,11.9,0.8
			c3.5,0.6,2.7,3.3,2.6,5.5c-0.2,3.2-2.4,1.2-3.7,1.1c-1.6-0.1-3.3-0.7-4.9-0.8c-4.7-0.3-9.1,0.2-11.3,5.3
			c-1.9,4.3-0.7,9.6,3.3,13.2c3.2,2.9,6.9,5.3,10.3,7.9c5.9,4.6,8.7,10.7,8.7,18.2c-0.1,10.2-5.7,15.7-15,18.3
			C258.3,1065.7,255,1065.7,251.6,1065.7z"/>
		<path class="st0" d="M100.7,1018.7c1.7-1.6,1.5-3.9,2.1-5.9c4-13.7,16.7-20.3,30.3-15.9c3.4,1.1,2.5,3.5,2.4,5.6
			c-0.2,3.2-2.5,1.2-3.7,1c-12.6-2.4-19.4,1.8-21.7,14.1c-1.7,9.4-1.8,18.9,0.6,28.2c2.6,10.2,9.1,14.1,19.4,12.5
			c1.6-0.3,4.5-3.5,5.4,0.8c0.8,3.7-0.8,5.7-4.6,5.7c-0.4,0-0.7,0.5-1.1,0.8c-3.3,0-6.7,0-10,0c-9.6-3.1-15.7-9.4-17.6-19.5
			c-0.2-1.2,0.1-2.8-1.4-3.5C100.7,1034.7,100.7,1026.7,100.7,1018.7z"/>
		<path class="st0" d="M460.6,1065.7c0.1-19.8,0.1-39.6,0.2-59.4c0-2.2-0.8-2.9-2.9-2.8c-2.7,0.1-5.3-0.1-8,0.1
			c-2.7,0.1-4.3-0.2-4.3-3.6c0-3.2,1.6-3.4,4-3.4c10.1,0.1,20.3,0.1,30.4,0c2.4,0,4,0.1,4,3.3c0,3.4-1.5,3.7-4.3,3.7
			c-11.1,0.1-11.1,0.2-11.1,11.1c0,15.1,0,30.3,0,45.4c0,2,0.3,4-1.2,5.6C465.3,1065.7,462.9,1065.7,460.6,1065.7z"/>
		<path class="st0" d="M490.6,1065.7c0-21.6,0-43.3-0.1-64.9c0-3.1,0.7-4.4,4.1-4.3c3,0.1,4,0.9,4,4c-0.1,20.3-0.1,40.6,0,60.9
			c0,1.5-0.3,2.9-0.9,4.3C495.3,1065.7,492.9,1065.7,490.6,1065.7z"/>
		<path class="st1" d="M741.7,1064.6c-0.1,0.6,0.2,1,0.8,1c-2.3,0-4.7,0-7,0c0.6,0,1-0.4,1-1C738.2,1064.6,740,1064.6,741.7,1064.6z
			"/>
		<path class="st1" d="M200.7,1064.7c0.3,0.3,0.6,0.7,1,1c-2,0-4,0-6,0c0.2-0.3,0.4-0.7,0.6-1
			C197.8,1064.6,199.2,1064.7,200.7,1064.7z"/>
		<path class="st2" d="M487.9,663.7c-8.2-6.3-15.5-13.6-21.5-22.1c-0.8-1.2-2.1-2.1-3.3-3c-1.6-1.2-3.3-2.3-4.9-3.4
			c-27.3-18.6-37.7-43.8-31.1-76.5c7.5-37,20.5-72,35.9-106.2c13.4-29.6,26.1-59.5,33.1-91.4c4.7-21.3-0.1-33.1-18.7-44.8
			c-17.8-11.2-37.9-15.8-58.3-19.7c-33.3-6.2-64.9-0.6-95.7,12.3c-2.1,0.9-4.2,1.7-7.3,2.9c2-6.3,4.9-10.9,9.2-14.6
			c13.6-11.6,29.7-18.3,46.7-23c39.5-10.9,77.5-7.7,113.7,12c2.9,1.6,5.8,3.3,8.6,5c22.7,13.4,31.1,33.3,27.8,59.2
			c-3.1,24.8-10.6,48.4-18,72c-12.1,38.3-26.7,75.6-40,113.5c-6.5,18.3-9.7,37.1-5.8,56.5c3.5,17.2,12.4,24.7,29.7,27.5
			c15.9,2.5,30.7-1.6,45.6-5.9c0.7-0.2,1.7-0.3,1.7-1.4c0-1.2-1-1.2-1.7-1.4c-5.2-1.3-10.2-3-14.9-5.7c-12.3-7.1-21-16.8-21-31.7
			c0-14.9,8.5-25.1,21-31.6c20.3-10.6,40.9-10.4,60.5,1.5c24.9,15.1,24.8,44.6,0.2,60.3c-7.3,4.6-15.4,7-25.2,8.7
			c10.2,3.1,18.8,6.5,28,7.8c29.1,4.1,50.6-13.5,55.1-44.5c4-28.2-1-55-10.5-81.4c-8.4-23.2-19.1-45.4-27-68.8
			c-6.8-20.4-12.6-41-15-62.5c-0.7-6.5-0.8-13-0.4-19.5c1.1-15.1,9.1-26.1,20.6-35.1c15-11.6,32.1-19.4,50.2-23.8
			c42.5-10.3,82.6-3.6,119.8,19.6c9.2,5.8,12.7,10.7,15.2,18.5c-1.8,1.1-3.1-0.4-4.5-1c-15.9-6.4-32.1-12.2-49.2-14.5
			c-27.4-3.7-54.1,0.7-80.3,8.8c-12.3,3.8-24,9-34,17.4c-11,9.2-15.9,20.7-12.3,35.1c0.8,3.1,1.3,6.2,2,9.3
			c6.7,27.6,17.4,53.8,28.9,79.7c11.5,25.6,21.9,51.5,26.9,79.2c4.5,24.9,3.2,49.1-8.1,72.2c-9,18.5-22.4,31.8-42.6,38.2
			c-7,2.2-11.3,9-16.6,13.9c-3.2,2.1-6.3,4.2-9.5,6.4c-9.1,5.5-18.5,10.1-29.1,11.8c-20.2,3.2-39.7,0.1-58.5-7.5
			c-1.4-0.6-2.8-1.1-4.1-1.7C495.7,668.3,491.8,666,487.9,663.7z"/>
		<path class="st1" d="M878.4,907c-1.1,1.5-0.5,3.2-0.6,4.8c-0.1,13.5-0.1,27,0,40.5c0,3.1-0.6,4.4-4.1,4.4c-18.3-0.2-36.6-0.1-55,0
			c-3.1,0-4-1-4-4c0.1-57,0.1-113.9,0-170.9c0-2.7,0.8-3.8,3.7-3.8c29.5,0.5,59-0.8,88.4,0.8c8.2,0.4,16.1,2.5,23.8,5.4
			c41.5,15.8,45.5,64.8,25.5,92.2c-4.4,6-9.2,11.4-15.2,15.7c-2.5,1.8-2.6,3-0.9,5.5c15.8,23.4,37.4,36.4,66,37
			c8.2,0.2,16.3,0.3,24.4-0.9c14.9-2.2,25.5-10.3,31.7-23.8c4.9-10.6,1.4-24-8.1-31.5c-6.4-5.1-13.7-8.2-21.7-9.6
			c-6.2-1.1-11.7,0.6-17,4c-5.6,3.5-11.6,4.1-17.4,0.4c-5.5-3.5-7.8-8.9-7.6-15.3c0.2-4.6,2.2-8.2,5.9-11.1
			c9.9-7.7,21.1-11.5,33.5-10.7c22.5,1.4,41.7,10.4,56.3,27.6c22.1,26.2,15.7,71.9-12.6,94c-13.9,10.8-30.2,15.4-47.3,17
			c-43.3,4-81.7-7.8-114.3-37.1c-10-9-19.8-18.3-29.7-27.4C881.1,908.9,880.3,907.3,878.4,907z M877.8,847c0,3.5,0,7,0,10.5
			c0,1.5,0,3.1,2.2,3.1c5-0.2,10,0.6,14.9-0.5c5.5-1.2,8.9-5,9.7-10.6c1.4-9.6-3.4-15.8-12.6-16.5c-14.2-1-14.2-1-14.2,12
			C877.8,845.7,877.8,846.4,877.8,847z"/>
		<path class="st1" d="M555.2,875.3c-2.5,10.1-5.1,20.2-7.6,30.3c-3.8,15.5-7.7,31-11.4,46.6c-0.8,3.3-2,4.6-5.6,4.5
			c-11.7-0.3-23.3-0.3-35,0c-3.8,0.1-5.1-1.4-6-4.8c-6.1-24-12.5-48-18.8-72c-0.4-1.5-0.1-3.4-2.3-4.6c-0.3,5.9-0.6,11.5-0.8,17
			c-0.6,19.8-1.3,39.6-1.7,59.4c-0.1,4-1.4,4.9-5.2,4.9c-16.7-0.2-33.3-0.1-50,0c-3.1,0-4.3-0.5-4-4.1
			c5.4-56.5,10.6-113.1,15.8-169.6c0.3-3.8,1.5-5,5.4-5c17.3,0.2,34.7,0.2,52,0c3.6,0,4.8,1.2,5.6,4.5c8.2,32.6,16.5,65.2,24.9,97.8
			c0.4,1.8,1,3.5,1.5,5.4c2.2-0.9,1.9-2.8,2.3-4.2c8.4-32.6,16.9-65.1,25-97.7c1.2-4.7,3.1-5.9,7.7-5.8c16.3,0.3,32.6,0.2,49,0
			c3.4,0,4.5,0.9,4.8,4.3c3.8,43.1,7.8,86.2,11.8,129.4c1.2,13.4,2.4,26.9,3.8,40.3c0.4,3.8-0.6,4.8-4.4,4.8
			c-16.3-0.2-32.7-0.2-49,0c-3.9,0.1-4.6-1.3-4.7-4.8c-0.6-25.5-1.3-50.9-2.1-76.3C556,875.4,555.6,875.3,555.2,875.3z"/>
		<path class="st3" d="M280.3,165.5c17.7,0,33.4,1.9,48.4,7.5c3.8,1.4,7.8,1.8,11.7,0c26.3-12.3,54.3-18.9,82.5-25.1
			c61.7-13.5,124.2-16.5,186.8-11.6c49.5,3.9,98.4,12.7,145.4,29.6c4.8,1.7,9.7,3.6,14.3,6c5.2,2.7,10.1,2.4,15.4,0.7
			c35.9-11.5,71.3-9.7,105.8,5.3c23.2,10.1,39.4,27.4,48.8,51c0.5,1.4,1,2.8,1.4,4.3c0.3,1.1,1.3,2.3,0.2,3.2
			c-1.3,1.1-2.5-0.2-3.6-0.8c-2-1.2-3.8-2.7-5.7-4.1c-22.2-16.8-46.4-29.5-74.1-34.1c-28.5-4.7-55.7-1.3-81.2,13.1
			c-8.4,4.8-17,3.9-25.4-0.2c-21.6-10.5-44-19.1-67.3-25c-44.6-11.2-90-17.5-136-16.2c-52,1.5-103.2,8.7-152.4,26.5
			c-11.6,4.2-22.8,9.2-33.9,14.6c-9.6,4.6-18.5,4.1-28.1-1c-31.6-16.9-64.7-17.6-98.4-7c-20.6,6.5-38.9,17.3-55.9,30.4
			c-2.3,1.8-5.3,5.3-7.5,3.7c-2.2-1.7,0.6-5.4,1.7-8.1c13.8-34.2,41-51.6,75.6-59.4C259.8,166.4,270.9,165.4,280.3,165.5z"/>
		<path class="st3" d="M591.3,668c3.2-2.1,6.3-4.2,9.5-6.4c5,1.7,8.6,5.6,12.6,8.8c3.7,2.9,7.8,4.6,12.4,4.5
			c14.3-0.1,26.7-4.1,33.6-18c0.1-0.3,0.3-0.6,0.5-0.9c11.4-21.2,21.9-24.4,45.5-17.8c10.6,3,20.6,7.7,30.7,12
			c8.8,3.7,17.3,4.3,26,0c5.5-2.7,8.5-6.5,8-12.9c-0.6-9.8-0.8-19.6-1.3-29.5c-0.3-5.3-0.8-10.7-0.2-16c1.3-11.5,7.8-16.1,19-13.6
			c11.5,2.6,23,5.3,34.6,8c9.7,2.3,19.5,2.4,29.2-0.3c8-2.3,9.9-5.2,9.2-13.4c-0.8-8.6-3.4-16.6-6.7-24.5
			c-5-11.8-10.1-23.6-11.9-36.5c-0.5-3.3-0.5-6.6,0.3-9.9c2.1-9.4,8.1-12.8,17-9.2c10,4.1,19.7,8.9,28.8,15c1.1-1.9-0.5-3-1.3-4.3
			c-2.9-4.7-5.7-9.4-7.7-14.6c-0.5-1.4-1.2-2.8-1.5-4.2c-1.2-6-2.2-12.3,3.1-16.7c5.4-4.5,11.2-1.8,16.3,1.2
			c8.5,4.9,16.8,10.1,25.2,15.2c0.3,0.1,0.7,0.3,1,0.4c-0.1-0.4-0.2-0.8-0.2-1.2c-5.8-15.4-16.1-27.9-26-40.6
			c-11.4-14.6-23.9-28.2-36.2-42c-2-2.2-3.9-4.6-5.4-7.2c-3.1-5.4-1.8-9.2,4-11.5c7-2.8,13.7-6,20.6-9
			c29.6-13.3,45.7-36.6,50.6-68.2c1.4-8.9,2.6-17.8,4-26.7c0.2-1.6-0.3-3.8,1.6-4.4c2-0.6,3.2,1.4,4.4,2.7
			c7.5,8.2,10,18.2,10.9,28.9c1.3,15.7-1.4,30.6-8.9,44.4c-12.5,23-30.1,40.6-55.2,49.6c-3.9,1.4-3.1,2.4-1,4.8
			c19.8,22.5,39.7,44.9,55.6,70.5c6.8,10.9,11.4,23,16.6,34.6c1.7,3.9,1.6,7.9-1.7,11.1c-3.2,3.2-7.1,2.4-10.8,1.1
			c-5.1-1.7-9.6-4.6-14-7.5c-7.3-4.9-14.7-9.7-22.4-14.8c-0.8,2.6,0.5,4,1.4,5.4c4.6,7.3,9.4,14.5,13.9,22c2.3,3.8,4.4,7.9,6.1,12
			c1.6,4.1,1.3,8.3-2.1,11.5c-3.1,2.9-6.8,2.2-10.3,1.1c-4.7-1.4-8.5-4.4-12.3-7.4c-9-7.1-18-14.3-28.7-18.9c-1.3-0.6-2.6-2.1-4-1.2
			c-1.4,0.9-0.6,2.8-0.4,4.2c1.1,9.4,4.6,18,8.2,26.7c4.5,10.8,8.1,21.8,9.8,33.4c2.2,16-4.4,25.5-20.1,29c-13.5,2.9-26.8,2-40-1.6
			c-8.7-2.4-17.5-4.2-26.2-6.5c-4-1.1-5.5,0.1-5.3,4.2c0.5,13.8,0.6,27.6,1.3,41.4c0.8,14.7-5.2,22.7-21.1,27.9
			c-10.3,3.4-20.7,2.4-30.7-2c-7.6-3.4-15.3-6.6-23-9.8c-5.2-2.2-10.7-3.5-16.3-4.7c-7.3-1.5-12.7,1.1-16.5,7.3
			c-2.2,3.5-4.2,7.2-6.4,10.7c-11.7,19.3-39.9,27.8-60.1,17.6c-11.7-5.9-21.7-14.2-30.4-24C593.8,674.9,591.9,671.7,591.3,668z"/>
		<path class="st3" d="M487.9,663.7c3.9,2.3,7.7,4.5,11.6,6.8c-0.5,1.4-0.8,3-1.6,4.2c-18.8,24.2-41.3,40.6-72.1,29.6
			c-8.1-2.9-14.8-7.5-19.5-14.8c-2.8-4.3-5.3-8.9-8-13.2c-4.9-7.8-9-9.5-18-7.9c-12.6,2.2-24,7.9-35.5,13c-10.7,4.8-21.6,6.6-33,3.3
			c-3.1-0.9-6-2.1-8.7-3.6c-8.8-4.9-13.3-12.2-12.9-22.5c0.6-13.6,1.1-27.3,1.4-41c0.2-7.7,0-7.8-7.3-6.1c-12,2.8-23.9,5.9-36,8.4
			c-10.4,2.1-20.9,1.1-31.2-1.6c-11.9-3.1-17.9-11.1-17.5-23.4c0.4-11.3,3.4-22,7.7-32.4c3.9-9.5,8-19.1,10.1-29.2
			c0.5-2.4,1.7-5.8,0.1-7.2c-2-1.7-4.4,1.1-6.6,2c-10,4.5-18.3,11.5-26.8,18.1c-3.6,2.8-7.2,5.5-11.5,6.9c-3.7,1.2-7.6,2-10.7-1.2
			c-3.2-3.3-3.6-7.4-2-11.6c3.5-8.9,9.1-16.6,14.3-24.6c2.9-4.4,5.9-8.7,7-14.4c-4.1,2.6-8.2,5.3-12.3,7.9
			c-7.6,4.8-14.5,10.7-23,13.9c-4,1.5-8.1,2.7-11.7-0.7c-3.9-3.7-3.1-8.1-1.3-12.5c8.9-22,20.4-42.6,35.6-61
			c11.7-14.3,23.3-28.8,35.8-42.4c1-1.1,1.9-2.3,2.8-3.4c-1.5-1.6-3.5-1.6-5.1-2.4c-35.7-16.2-58.3-42.3-62.4-82.4
			c-0.8-8,0.2-16,2.3-23.8c1.4-5.2,3.6-10,7.1-14.2c1.6-2,3.2-5.4,5.9-4.5c2.5,0.7,1.7,4.3,2,6.7c1.8,12.9,3.4,25.7,6.9,38.3
			c5.9,21,17.6,37.5,36.8,48.3c9.7,5.5,19.7,10.4,30.1,14.5c7.1,2.8,8.4,6.9,4.2,13.2c-1.7,2.6-3.9,5-6,7.4
			c-18.5,20.7-37.2,41.4-52.5,64.8c-3.5,5.4-6.7,11-9.1,18.4c4.5-2.9,8-5.3,11.6-7.5c6.8-4.2,13.3-9,20.9-11.5
			c7.9-2.6,13.5,1.4,14.2,9.6c0.6,6.3-1.5,11.8-4.2,17.2c-2.2,4.6-4.9,9-7.9,13.2c2.1,0.9,3.3-0.5,4.7-1.3c7.6-4.6,15.5-8.5,23.6-12
			c10.8-4.7,17.9-0.2,18.9,11.6c0.6,7.6-1.3,14.9-3.8,22c-2.9,8.2-6.1,16.2-9.4,24.2c-3.1,7.3-4.8,14.9-5.7,22.7
			c-0.7,6.4,1.4,10,7.9,12c10.1,3.2,20.3,3.2,30.6,0.8c11.5-2.6,23-5.4,34.5-8c11.2-2.5,17.3,1.6,18.9,13c1.3,9.3-0.6,18.6-0.7,27.9
			c-0.1,6.8-0.2,13.7-0.5,20.5c-0.1,3.7,1.4,6.4,4.4,8.4c7.5,4.8,15.5,7.1,24.2,3.9c8.3-3,16.4-6.5,24.6-9.8
			c8.9-3.5,17.9-6.3,27.5-6.9c9.7-0.7,17.3,2.9,22.9,10.6c3.2,4.4,5.9,9.3,8.8,13.9c7,11.4,24.9,18.3,37.6,14.2
			C477.7,673.8,482.5,668.3,487.9,663.7z"/>
		<path class="st1" d="M634.2,839.6c0-19,0.1-38-0.1-57c0-3.8,1-4.8,4.8-4.8c17.8,0.2,35.7,0.2,53.5,0c4.3-0.1,4.9,1.6,4.8,5.2
			c-0.1,32.8-0.1,65.6-0.1,98.5c0,2,0,4,0,6c0.4,14.3,11.9,21.4,25.1,15.5c4.9-2.2,7.4-6.1,8.2-11.1c0.4-2.6,0.4-5.3,0.4-8
			c0-33.5,0.1-67-0.1-100.5c0-4.3,1-5.7,5.5-5.6c17.5,0.3,35,0.2,52.5,0c3.7,0,5.2,0.6,5.2,4.8c-0.2,34.8-0.1,69.6-0.1,104.5
			c0,14.2-2.4,27.9-9.6,40.3c-9.8,16.8-25.2,25.8-43.6,29.8c-18.5,4.1-37.1,4-55.5-0.2c-31.2-7.1-49-28.5-50.4-61.1
			c-0.8-18.8-0.1-37.6-0.1-56.5C634.4,839.6,634.3,839.6,634.2,839.6z"/>
		<path class="st1" d="M254,867.2c0-28,0.1-56-0.1-84c0-4,0.8-5.4,5.2-5.4c40.8,0.2,81.6,0.2,122.4,0c3.9,0,5.1,0.9,5,4.9
			c-0.3,14.7-0.3,29.3,0,44c0.1,4.4-1.4,5.1-5.4,5.1c-19.7-0.2-39.3,0-59-0.2c-4,0-5.5,0.9-5.4,5.2c0.3,9,0,9,8.9,9
			c16.7,0,33.3,0.1,50-0.1c3.2,0,4.3,0.8,4.3,4.2c-0.2,11.2-0.2,22.3,0,33.5c0.1,3.6-1.1,4.4-4.5,4.4c-17.7-0.2-35.3,0.1-53-0.2
			c-4.3-0.1-5.8,0.8-5.6,5.4c0.3,9.6,0.1,9.6,9.9,9.6c18.5,0,37,0.1,55.5-0.1c3.4,0,4.6,0.7,4.6,4.3c-0.2,15.2-0.2,30.3,0,45.5
			c0,3.4-1.1,4.2-4.3,4.2c-41.3-0.1-82.6-0.1-123.9,0c-4,0-4.6-1.5-4.5-5C254.1,923.5,254,895.4,254,867.2z"/>
		<path class="st1" d="M102.2,867.2c0-27.8,0.1-55.6-0.1-83.4c0-4.3,0.8-6,5.6-5.9c17.3,0.3,34.6,0.3,52,0c4.9-0.1,5.7,1.6,5.7,5.9
			c-0.2,38.5,0,76.9-0.2,115.4c0,4.2,0.8,5.7,5.4,5.6c19.1-0.3,38.3,0,57.5-0.2c3.5,0,4.5,1,4.4,4.5c-0.2,14.3-0.2,28.6,0,43
			c0,3.4-0.8,4.6-4.4,4.5c-40.5-0.1-80.9-0.1-121.4,0c-4.1,0-4.5-1.6-4.5-5C102.2,923.5,102.2,895.3,102.2,867.2z"/>
		<path class="st2" d="M666.3,390.2c0.1-26.6,22.7-48.2,50.3-48c27.8,0.2,50,21.9,49.9,48.5c-0.1,26.3-22.7,47.8-50.1,47.8
			C688.7,438.5,666.3,416.9,666.3,390.2z"/>
		<path class="st2" d="M439,382.3c-0.1,26.6-22.4,47.9-50,47.9c-27.8,0-50.3-21.6-50.2-48.3c0.1-26.6,22.9-48.2,50.6-48
			C416.9,334.2,439.1,355.8,439,382.3z"/>
		<path class="st4" d="M346.4,540.7c4.3-9.6,9.5-17.8,18.5-22.7c10.6-5.8,21.1-12,32.8-15.6c-12.5-0.5-24.8-1.5-37-3.6
			c-14.5-2.6-28.6-6.6-41.6-13.7c-37.7-20.5-51.7-50.2-46.1-91.1c2.9-21.2,11-40.4,23.4-57.8c1.2-1.7,2.3-4.8,4.4-4
			c2.5,1,0.5,3.8,0.2,5.7c-4.3,21.1-5.8,42.3-1,63.5c6.4,28.4,22.6,50,46.6,66c20.1,13.4,42.5,21.1,66,26.2
			c9.6,2.1,10.1,3.2,4.7,11.5c-5.9,9-12.7,16.3-24.2,18.3c-14.4,2.5-27.6,8.6-40.5,15.3C350.9,539.7,349.4,540.9,346.4,540.7z"/>
		<path class="st4" d="M713.9,514.6c10.7,4.1,20.3,9.9,30.3,15c8.5,4.4,13.4,11.8,17.8,19.7c0.5,1,1.3,2.3,0.4,3.2
			c-1,1.1-2.2-0.1-3.1-0.6c-15.7-8.6-32.6-14.1-49.9-18.6c-7.8-2-11.8-8.9-16.1-15c-6.6-9.3-6.2-10,4.7-12.4
			c23.5-5.1,45.8-13,65.8-26.6c36.2-24.8,51-59.7,48.2-102.8c-0.6-9.5-2-18.9-4.1-28.1c-0.3-1.2-1.2-2.9,0.3-3.6
			c1.8-0.9,2.6,1,3.4,2.1c21.9,30.8,31.9,64.5,22.3,101.9c-4.3,16.8-15.6,29.6-29.4,40c-19.8,14.8-42.7,21.3-66.9,24.2
			C729.8,513.7,721.8,514,713.9,514.6z"/>
		<path class="st1" d="M182.3,301.4c0-22.6,6.5-41,19.8-57c3.6-4.4,7.8-8.2,13-10.7c1-0.5,2.1-1.5,3.2-0.5c1.1,1.1,0,2.2-0.5,3.2
			c-4.7,10.3-8.7,20.9-10.6,32.1c-1.4,8.6-1.7,17.2,0,25.8c4.2,21.6,18.6,35.9,40.4,40.3c5.4,1.1,5.6,1.6,2,6.1
			c-5.1,6.2-10.6,12-17.6,16.1c-1.7,1-3.4,1.8-5.6,1.3c-19.7-4.2-40.6-26.2-43.5-46C182.3,308,182.4,303.8,182.3,301.4z"/>
		<path class="st1" d="M915.3,293.4c-0.4,28.8-16.9,50.9-42.8,59c-2.4,0.8-4.5,0.6-6.7-0.6c-7.8-4.5-13.7-11-19.3-17.9
			c-1.5-1.9-2-3.5,1.3-4.1c34.6-6.2,48.2-34.8,42.1-68c-1.9-10.5-5.7-20.5-10.2-30.2c-0.5-1.1-1.9-2.4-0.7-3.5
			c1.1-1.1,2.5,0,3.7,0.6c6.2,3.2,10.9,8.2,15,13.6C909.8,258,915.3,275.8,915.3,293.4z"/>
		<path class="st4" d="M346.4,586.7c2.3-9.5,6-18.4,13.6-25.2c16-14.5,34.2-25.8,53.7-35c1.1-0.5,2.3-1.9,3.5-0.8
			c1.1,1,0.5,2.6,0,3.8c-4.3,11.5-9.1,22.2-21.7,27.7c-15.9,6.9-30.3,16.5-43.8,27.5c-1.3,1-2.7,1.9-4,2.8
			C347.3,587.2,346.8,587,346.4,586.7z"/>
		<path class="st4" d="M757,598.3c-1.6,0.3-2.5-0.9-3.5-1.7c-15.1-12.5-32-22-49.4-30.8c-10.7-5.4-14.1-16.2-17.5-26.7
			c-1-3.1,1.2-2.7,3.1-1.7c16.8,8.5,33.2,17.5,47.8,29.6c8.2,6.8,14.8,14.3,18.3,24.3C756.7,593.4,758.1,595.7,757,598.3z"/>
		<path class="st0" d="M686.7,1030.9c0-10.2,0.1-20.3-0.1-30.5c-0.1-3.1,0.9-4,4-3.9c7.3,0.2,14.6,0.2,22,0c2.9-0.1,3.7,0.9,3.7,3.7
			s-1.3,3.3-3.7,3.2c-4.8-0.1-9.7,0.1-14.5-0.1c-2.4-0.1-3.6,0.5-3.5,3.3c0.2,5.3,0.1,10.7,0,16c-0.1,2.4,0.8,3.2,3.2,3.1
			c3.8-0.1,7.7,0.1,11.5-0.1c2.9-0.2,3.7,0.8,3.7,3.7c0,2.7-1,3.4-3.5,3.3c-3.8-0.2-7.7,0.1-11.5-0.1c-2.7-0.1-3.4,0.9-3.4,3.5
			c0.1,6.2,0.2,12.3,0,18.5c-0.1,2.6,0.7,3.5,3.4,3.5c5.3-0.2,10.7,0.1,16-0.1c3-0.1,3.1,1.5,3.2,3.7c0,2.3-0.6,3.3-3.1,3.2
			c-7.8-0.1-15.6-0.2-23.5,0c-3.1,0.1-3.9-1-3.9-4C686.8,1050.9,686.7,1040.9,686.7,1030.9z"/>
		<path class="st0" d="M285.1,1030.5c0-10,0.1-20-0.1-29.9c0-2.9,0.7-4.1,3.9-4c7.3,0.2,14.6,0.2,22,0c2.8-0.1,3.8,0.8,3.7,3.7
			c0,2.8-1.3,3.3-3.7,3.2c-4.8-0.1-9.6,0-14.5-0.1c-2.4-0.1-3.7,0.3-3.6,3.2c0.2,5.3,0.2,10.6,0,16c-0.1,2.8,1.3,3.3,3.6,3.2
			c3.8-0.1,7.7,0.1,11.5-0.1c2.7-0.1,3.4,1,3.4,3.5c0,2.6-0.8,3.6-3.4,3.5c-3.6-0.2-7.3,0.1-11-0.1c-2.9-0.2-4.2,0.6-4.1,3.8
			c0.2,6,0.2,12,0,18c-0.1,2.8,0.8,3.8,3.6,3.7c5.1-0.2,10.3,0,15.5-0.1c2.6-0.1,3.5,0.9,3.5,3.5c0,2.7-1,3.4-3.5,3.4
			c-7.6-0.1-15.3-0.2-23,0c-3.1,0.1-4-0.9-4-3.9C285.2,1050.7,285.1,1040.6,285.1,1030.5z"/>
		<path class="st3" d="M741.7,1064.6c-1.8,0-3.5,0-5.3,0c-2.7-1.1-1.5-3.4-1.5-5.2c-0.1-17.1-0.2-34.3,0-51.4c0-3.7-0.9-5.2-4.7-4.7
			c-2.1,0.3-4.3,0-6.5,0.1c-2.4,0.1-4.1,0-4.1-3.3c0-3.4,1.5-3.7,4.2-3.7c10.1,0.1,20.3,0.1,30.4,0c2.7,0,3.8,0.6,3.8,3.6
			c0,3.2-1.5,3.4-4,3.4c-11.3,0.2-11.3,0.3-11.3,11.8c0,14.8,0,29.6-0.1,44.4C742.9,1061.4,743.9,1063.4,741.7,1064.6z"/>
		<path class="st5" d="M923,483.3c0.1,0.4,0.2,0.8,0.2,1.2c-0.3-0.1-0.7-0.3-1-0.4C922.5,483.8,922.7,483.6,923,483.3z"/>
	</g>
</g>
</svg>
