<?xml version="1.0" encoding="utf-8"?>
<!-- Generator: Adobe Illustrator 24.1.0, SVG Export Plug-In . SVG Version: 6.00 Build 0)  -->
<svg version="1.1" id="Layer_1" xmlns="http://www.w3.org/2000/svg" xmlns:xlink="http://www.w3.org/1999/xlink" x="0px" y="0px"
	 viewBox="0 0 320 320" style="enable-background:new 0 0 320 320;" xml:space="preserve">
<style type="text/css">
	.st0{fill:#A2323E;}
	.st1{fill:#DAAA4B;}
</style>
<g>
	<g>
		<path class="st0" d="M164.4,150.2c-9.1,4.9-16.4,4.1-21.1-2.2c-4.9-6.6-4.2-17.1,1.6-22.8c5.3-5.2,12.7-5.2,19.9,0.1
			c-0.4-2.8,0.9-3.4,3.4-3.3c6.6,0.2,6.7,0,6.6,6.8c-0.1,8.1,0.5,16.3-0.4,24.4c-0.9,8.4-5.5,13.5-13.8,14.7
			c-6.2,0.9-12.1-0.1-17.8-3c-1.9-1-2.9-2-1-3.9c0.3-0.3,0.6-0.7,0.8-1.1c1.5-3,3.4-4.4,6.5-1.7c0.9,0.8,2.5,1,3.8,1.3
			C160.3,161.2,164.5,157.7,164.4,150.2z M164.8,137.3c0-4.1-3.3-7.6-7.4-7.7c-4,0-7.2,3.3-7.3,7.7c-0.1,4.6,3,7.9,7.3,7.9
			C161.7,145.2,164.7,141.9,164.8,137.3z"/>
		<path class="st1" d="M82.4,223.7c6.1-14.5,12-28.4,17.8-42.3c0.7-1.6,1.7-2.1,3.3-2.2c7.6-0.3,7.6-0.4,10.7,6.8
			c4.8,11.3,9.5,22.6,14.3,34c1.5,3.6,1.4,3.7-2.4,3.7c-0.1,0-0.2,0-0.3,0c-5.7,1.1-9.5-0.7-10.6-6.8c-0.3-1.7-1.6-1.9-3.1-1.9
			c-3.9,0.1-7.9,0.1-11.9-0.1c-2.2-0.1-3.2,0.9-3.9,2.8c-2.2,6-2.2,5.9-8.6,5.9C86.1,223.7,84.5,223.7,82.4,223.7z M106,191.4
			c-1.8,4.9-3.2,8.8-4.7,12.7c-0.5,1.4-0.4,2.2,1.3,2.2c2.3,0,4.5,0,6.8,0c1.3,0,1.9-0.5,1.4-1.9C109.3,200.4,107.9,196.4,106,191.4
			z"/>
		<path class="st0" d="M30.9,131.2c0-6.6,0.1-13.1,0-19.7c0-2.1,0.6-2.7,2.7-2.7c5.8,0.2,11.5-0.1,17.3,0.3
			c10.6,0.7,16.3,9.2,12.7,18.6c-2.1,5.5-6.8,7.6-12.2,8.4c-2.2,0.3-4.5,0.5-6.8,0.4c-2.5-0.2-3.1,0.8-3,3.1c0.2,3.7,0,7.4,0.1,11.2
			c0,1.7-0.4,2.3-2.2,2.4c-8.6,0.4-8.6,0.4-8.6-8.2C30.9,140.5,30.9,135.8,30.9,131.2z M41.7,122.9c1,1.6-2.1,5.4,3,5.2
			c6.1-0.2,8.9-1.7,9-5.4c0-3.7-2.3-4.8-8.6-5.1C40.3,117.3,42.1,120.5,41.7,122.9z"/>
		<path class="st0" d="M198.6,121.1c10,0,17.3,6.8,17.5,16.3c0.1,9.5-7.5,16.9-17.4,16.9c-9.8,0-17.1-7.1-17.2-16.6
			C181.4,128.1,188.6,121.1,198.6,121.1z M191.5,137.6c0.1,4.4,3.2,7.8,7.2,7.9c4.1,0,7.4-3.6,7.4-8.1c-0.1-4.5-3.4-8-7.6-7.8
			C194.4,129.8,191.4,133.2,191.5,137.6z"/>
		<path class="st0" d="M113.1,125.7c2.5-2.4,4.8-4,7.7-4.4c7-0.8,12.4,3.2,12.8,10.3c0.4,6.5,0.1,13.1,0.2,19.6c0,1.4-0.4,1.9-1.9,2
			c-8.4,0.7-8.4,0.7-8.4-7.6c0-3.3,0.1-6.5,0-9.8c-0.1-3.9-1.7-6-4.4-6.1c-2.8-0.1-5.2,2-5.4,5.8c-0.3,4.8-0.3,9.7-0.2,14.5
			c0.1,2.4-0.3,3.3-3.1,3.3c-7.3-0.2-7.3,0-7.3-7.4c0-7,0.1-14,0-21c0-2.1,0.4-3.2,2.7-2.9c1.2,0.2,2.5,0.2,3.7,0
			C111.8,121.7,113.6,122.1,113.1,125.7z"/>
		<path class="st0" d="M269.8,125.8c2.3-2.4,4.4-3.9,7-4.4c7.2-1.3,13,2.9,13.4,10.2c0.4,6.5,0.1,13.1,0.2,19.6c0,1.4-0.4,2.1-1.9,2
			c-0.2,0-0.5,0-0.7,0c-7.8,0.2-7.8,0.2-7.8-7.6c0-3.5,0.1-7-0.1-10.5c-0.1-2.6-0.9-5-4-5.4c-2.7-0.3-5,1.4-5.6,4.7
			c-0.9,5.1-0.4,10.4-0.3,15.5c0,2.4-0.4,3.3-3.1,3.3c-7.3-0.2-7.3,0-7.3-7.4c0-7.1,0-14.2,0-21.3c0-1.8,0.4-2.7,2.4-2.5
			c1.3,0.2,2.7,0.2,4.1,0C268.6,121.7,270.2,122.2,269.8,125.8z"/>
		<path class="st0" d="M85.8,150.5c-4.2,3.8-8.8,4.3-13.7,2.7c-3.9-1.3-6.2-4.5-6.3-8.3c-0.1-4,1.8-6.9,5.4-8.6
			c3.7-1.8,7.8-2.1,11.8-2.5c0.9-0.1,2.2,0.6,2.5-0.9c0.2-1.2-0.4-2.2-1.5-2.8c-3.1-1.9-6-1.1-9,0.3c-0.9,0.4-1.8,2-2.9,1.1
			c-1.7-1.3-3.1-3-4.4-4.7c-0.5-0.6,0.5-1.1,1-1.4c6.2-4.5,13.1-5.4,20.2-2.6c5.1,2.1,6.2,6.9,6.5,11.8c0.3,5.6,0.1,11.3,0.2,16.9
			c0,1.1-0.1,2-1.6,1.9c-2.1-0.1-4.3-0.1-6.4,0C85.5,153.4,86.3,151.6,85.8,150.5z M79.6,147.1c1.8-0.2,3.5-0.5,4.7-1.8
			c1.3-1.4,2.2-3.3,1.6-4.9c-0.6-1.4-2.6-0.5-4-0.5c-1.1,0-2.2,0.3-3.3,0.6c-1.8,0.5-3.5,1.5-3.2,3.7
			C75.7,146.5,77.7,146.9,79.6,147.1z"/>
		<path class="st1" d="M258.3,213.6c0,2.7,0,5.4,0,8.1c0,1.1-0.2,2-1.6,2c-2.1,0-4.3,0-6.4,0c-0.1,0-0.3,0-0.3,0
			c-1.9-3.8-3.8-0.4-5.6,0.1c-4.1,1-8.1,1.1-11.7-1.3c-5.5-3.6-5.4-11.3,0-15c3.9-2.7,8.5-2.6,13-3.2c0.9-0.1,2.2,0.4,2.6-1
			c0.3-1.4-0.6-2.4-1.7-3c-3.1-1.8-6.1-0.9-9,0.7c-0.9,0.5-1.7,1.8-2.9,0.7c-1.4-1.4-3.2-2.6-3.9-4.5c-0.3-0.8,0.7-1.3,1.4-1.8
			c6.1-3.9,12.5-5,19.3-2.4c3.8,1.4,5.6,4.7,6.4,8.6C258.5,205.5,258.3,209.6,258.3,213.6z M245.9,210.2c-2.2-0.2-4.1,0.5-5.9,1.3
			c-1.1,0.5-1.8,1.4-1.8,2.6c0,1.2,0.4,2.2,1.5,2.8c3,1.6,7.5-0.1,8.7-3.3C249.2,211.2,248.9,209.6,245.9,210.2z"/>
		<path class="st1" d="M135,211.7c0-2.9-0.1-5.9,0-8.8c0.1-1.8-0.5-2.6-2.3-2.4c-4.4,0.6-3.1-2.6-3.3-4.8c-0.3-2.6,0.6-3.6,3.2-3.2
			c2,0.3,2.4-0.7,2.5-2.5c0-2.2,0.2-4.6,0.9-6.7c1.8-5.8,9.4-9.6,15.3-8.1c2.4,0.6,1.9,2.3,1.9,4c-0.1,2.5,0.6,5.2-3.8,4.7
			c-2.8-0.3-5.4,5.8-3.6,8.1c1,1.2,2.6,0.7,3.8,0.6c2.7-0.3,3.1,1.2,2.7,3.3c-0.4,1.8,1.5,5.2-2.6,4.7c-3.6-0.4-4.4,1-4.3,4.3
			c0.3,5.5,0,11.1,0.1,16.6c0,1.7-0.5,2.4-2.3,2.4c-10-0.3-8,1.7-8.2-7.6C135,214.7,135.1,213.2,135,211.7
			C135.1,211.7,135,211.7,135,211.7z"/>
		<path class="st1" d="M197.8,210.3c0-9.1,3-14.1,9.3-17c6.2-2.8,12.2-2.2,18,1.2c1.4,0.8,1.4,1.8,0.2,2.9c-0.9,0.8-1.6,1.9-2.4,2.8
			c-1.2,1.6-2.2,2.4-4.4,0.9c-2.7-1.8-6.6-0.7-8.6,1.6c-2.4,3-2.5,7.3-0.2,10.4c1.9,2.5,5.7,3.4,8.9,2.1c1-0.4,1.9-1.8,3-0.6
			c1.7,1.8,3.2,3.8,4.5,5.9c0.3,0.5-0.8,1.3-1.4,1.6c-6.3,3.5-12.7,3.6-19,0.2C200.1,219.4,197.8,214.4,197.8,210.3z"/>
		<path class="st0" d="M232.9,129.7c0,7-0.1,14,0,21c0,1.8-0.3,2.5-2.3,2.6c-8.2,0.2-8.2,0.2-8.2-7.9c0-12.2,0.1-24.4-0.1-36.6
			c0-2.4,0.7-3,3-3c7.5,0.1,7.5,0,7.5,7.3C232.9,118.6,232.9,124.2,232.9,129.7z"/>
		<path class="st1" d="M165.7,196.4c2.8-2.8,5-4.6,8.2-4.7c1.6-0.1,2.6,0.3,2.4,2.2c-0.1,0.9-0.1,1.8-0.1,2.7
			c0.2,2.7-0.1,4.3-3.7,4.1c-3.8-0.2-6.4,3.3-6.5,7.6c-0.1,4.2-0.1,8.4,0,12.5c0.1,2-0.5,2.7-2.6,2.8c-7.6,0.2-7.6,0.2-7.6-7.5
			c0-7,0.1-14-0.1-21c0-2.2,0.6-3.1,2.9-2.8c1.1,0.1,2.3,0.1,3.4,0C164.4,192.3,166.2,192.6,165.7,196.4z"/>
		<path class="st0" d="M240.7,137.3c0-4.3,0.1-8.6,0-12.8c-0.1-2,0.6-2.4,2.5-2.4c7.8-0.1,7.8-0.2,7.8,7.6c0,6.9-0.1,13.7,0,20.6
			c0,2.2-0.3,3.1-2.9,3.1c-7.5-0.1-7.5,0.1-7.5-7.6C240.7,142.9,240.7,140.1,240.7,137.3z"/>
		<path class="st1" d="M191.3,208.3c0,4.3-0.1,8.6,0,12.9c0,1.8-0.3,2.6-2.4,2.6c-7.9,0.2-7.9,0.3-7.9-7.6c0-7,0-14,0-21
			c0-1.8,0.4-2.6,2.4-2.6c7.9-0.3,7.9-0.4,7.9,7.6C191.3,202.9,191.3,205.6,191.3,208.3z"/>
		<path class="st0" d="M251.7,112c0.1,3.2-2.6,5.8-5.9,5.8c-3,0-5.8-2.7-5.8-5.5c-0.1-3.1,2.7-5.8,5.9-5.8
			C249.1,106.5,251.7,109,251.7,112z"/>
		<path class="st1" d="M186.1,177c3.3-0.1,5.9,2.3,5.9,5.6c0,3.1-2.3,5.6-5.4,5.8c-3.1,0.2-6-2.4-6.1-5.5
			C180.3,179.8,182.9,177.1,186.1,177z"/>
		<path class="st1" d="M63.7,217.7c2.5,1.3,5,0.1,7.5,0c0.8,0,2-0.5,2.4,0.5c0.5,1.1-0.5,1.9-1.3,2.5c-1.5,1.1-3.1,2.2-4.8,2.9
			c-1.6,0.6-3.2-0.2-4.3-1.4C62.1,220.6,64,219.2,63.7,217.7L63.7,217.7z"/>
		<path class="st1" d="M73.2,214.1c0.3,1.4-0.4,2.4-1.9,2.8s-1.8-0.3-2.3-1.8c-0.6-1.6-2.4-2.8-3.5-4.3c-0.5-0.6-1.4-1.4-0.6-2.3
			c0.6-0.6,1.5-0.3,2.2-0.1C72.1,209.8,73.2,210.9,73.2,214.1z"/>
		<path class="st1" d="M65.8,213.3c-1.2,0.3-2.1,0.6-2.9,0.7c-1.2,0.1-2.9,1.1-3.5-0.4c-0.5-1.3,1.1-2.3,2.1-3.1
			c1.4-1.2,2.4-0.1,3.3,1C65.1,211.9,65.3,212.4,65.8,213.3z"/>
		<path class="st1" d="M63.7,217.6c-1.7,0.6-1,2.7-2.4,3.7c-1.8-1-2-2.9-1.8-4.5c0.4-2.5,3-0.4,4.3-2.4
			C63.7,216,63.7,216.8,63.7,217.6C63.7,217.7,63.7,217.6,63.7,217.6z"/>
	</g>
</g>
</svg>
