<?xml version="1.0" encoding="utf-8"?>
<!-- Generator: Adobe Illustrator 24.1.0, SVG Export Plug-In . SVG Version: 6.00 Build 0)  -->
<svg version="1.1" id="Layer_1" xmlns="http://www.w3.org/2000/svg" xmlns:xlink="http://www.w3.org/1999/xlink" x="0px" y="0px"
	 viewBox="0 0 340 181.18" style="enable-background:new 0 0 340 181.18;" xml:space="preserve">
<style type="text/css">
	.st0{fill:#A2323E;}
	.st1{fill:#DAAA4B;}
</style>
<g>
	<g>
		<path class="st0" d="M174.42,80.75c-9.13,4.87-16.38,4.11-21.11-2.23c-4.91-6.57-4.18-17.15,1.57-22.76
			c5.33-5.2,12.72-5.24,19.85,0.12c-0.36-2.81,0.94-3.38,3.41-3.32c6.61,0.16,6.69,0.03,6.6,6.83c-0.1,8.13,0.51,16.28-0.35,24.39
			c-0.9,8.44-5.53,13.48-13.82,14.72c-6.16,0.92-12.14-0.07-17.75-2.99c-1.94-1.01-2.9-2.02-0.98-3.9c0.32-0.31,0.59-0.7,0.79-1.1
			c1.53-3.03,3.36-4.4,6.51-1.68c0.94,0.81,2.49,1.02,3.8,1.31C170.3,91.75,174.47,88.32,174.42,80.75z M174.77,67.89
			c0.02-4.12-3.34-7.61-7.38-7.65c-4.04-0.04-7.19,3.27-7.29,7.67c-0.11,4.6,2.99,7.95,7.31,7.93
			C171.71,75.8,174.74,72.53,174.77,67.89z"/>
		<path class="st1" d="M92.4,154.33c6.11-14.54,11.98-28.43,17.78-42.35c0.67-1.62,1.67-2.14,3.34-2.22
			c7.59-0.33,7.62-0.38,10.67,6.85c4.78,11.32,9.52,22.65,14.25,33.98c1.51,3.61,1.41,3.72-2.37,3.74c-0.11,0-0.23-0.02-0.34,0
			c-5.72,1.14-9.51-0.71-10.6-6.81c-0.3-1.71-1.57-1.92-3.07-1.9c-3.95,0.05-7.91,0.11-11.86-0.05c-2.21-0.09-3.22,0.85-3.93,2.81
			c-2.18,5.97-2.24,5.95-8.6,5.94C96.1,154.33,94.53,154.33,92.4,154.33z M116.04,122.02c-1.8,4.87-3.22,8.78-4.7,12.66
			c-0.53,1.38-0.36,2.18,1.33,2.16c2.26-0.02,4.52-0.02,6.78,0c1.33,0.01,1.9-0.47,1.38-1.86
			C119.34,130.99,117.87,126.98,116.04,122.02z"/>
		<path class="st0" d="M40.93,61.79c0-6.55,0.09-13.1-0.04-19.65c-0.04-2.11,0.61-2.72,2.68-2.65c5.76,0.18,11.54-0.09,17.28,0.28
			c10.64,0.67,16.35,9.16,12.73,18.62c-2.12,5.52-6.8,7.56-12.17,8.4c-2.22,0.35-4.52,0.5-6.76,0.36c-2.49-0.16-3.07,0.84-2.96,3.12
			c0.17,3.72-0.01,7.45,0.08,11.18c0.04,1.66-0.36,2.34-2.23,2.42c-8.61,0.37-8.61,0.44-8.61-8.18
			C40.93,71.06,40.93,66.42,40.93,61.79z M51.7,53.44c0.98,1.6-2.11,5.38,2.96,5.23c6.07-0.19,8.94-1.72,8.98-5.37
			c0.04-3.67-2.31-4.78-8.63-5.14C50.28,47.89,52.06,51.06,51.7,53.44z"/>
		<path class="st0" d="M208.62,51.67c10.02-0.03,17.33,6.8,17.46,16.33c0.14,9.48-7.54,16.92-17.4,16.87
			c-9.84-0.05-17.14-7.1-17.22-16.63C191.37,58.7,198.63,51.69,208.62,51.67z M201.49,68.23c0.05,4.44,3.16,7.84,7.19,7.88
			c4.1,0.04,7.45-3.6,7.4-8.05c-0.05-4.48-3.43-7.96-7.6-7.84C204.45,60.35,201.44,63.79,201.49,68.23z"/>
		<path class="st0" d="M123.06,56.32c2.49-2.42,4.75-4.02,7.66-4.37c7.01-0.83,12.38,3.25,12.78,10.27
			c0.37,6.53,0.15,13.09,0.24,19.63c0.02,1.41-0.45,1.88-1.92,2c-8.45,0.66-8.44,0.71-8.44-7.61c0-3.27,0.06-6.55-0.04-9.82
			c-0.12-3.92-1.72-6.03-4.44-6.13c-2.85-0.1-5.17,2.04-5.42,5.78c-0.32,4.83-0.3,9.7-0.15,14.54c0.07,2.38-0.33,3.33-3.05,3.27
			c-7.31-0.17-7.32-0.02-7.32-7.43c0-7,0.07-14-0.04-20.99c-0.03-2.1,0.38-3.19,2.74-2.87c1.22,0.17,2.49,0.15,3.72,0
			C121.8,52.31,123.6,52.66,123.06,56.32z"/>
		<path class="st0" d="M279.8,56.43c2.29-2.41,4.37-3.92,6.99-4.4c7.17-1.31,13,2.93,13.42,10.22c0.38,6.52,0.15,13.08,0.24,19.62
			c0.02,1.42-0.43,2.14-1.93,1.95c-0.22-0.03-0.45-0.01-0.68,0c-7.77,0.19-7.76,0.19-7.77-7.59c0-3.5,0.1-7-0.08-10.49
			c-0.13-2.58-0.88-4.98-4.05-5.37c-2.73-0.33-5,1.42-5.58,4.72c-0.89,5.14-0.35,10.35-0.33,15.53c0.01,2.37-0.36,3.33-3.08,3.27
			c-7.29-0.16-7.29-0.01-7.29-7.45c0-7.11,0.05-14.22-0.03-21.32c-0.02-1.83,0.38-2.74,2.4-2.52c1.34,0.15,2.72,0.16,4.06-0.01
			C278.56,52.29,280.25,52.78,279.8,56.43z"/>
		<path class="st0" d="M95.8,81.04c-4.2,3.75-8.81,4.32-13.72,2.67c-3.9-1.31-6.22-4.46-6.34-8.33c-0.12-4.04,1.78-6.87,5.36-8.64
			c3.73-1.84,7.79-2.12,11.83-2.51c0.88-0.09,2.24,0.6,2.5-0.91c0.21-1.2-0.44-2.22-1.46-2.85c-3.05-1.87-6.03-1.11-9.02,0.28
			c-0.95,0.45-1.8,2.03-2.9,1.14c-1.65-1.32-3.06-2.98-4.38-4.66c-0.5-0.64,0.49-1.09,0.99-1.45c6.25-4.48,13.08-5.44,20.16-2.57
			c5.1,2.06,6.22,6.93,6.5,11.75c0.33,5.62,0.14,11.28,0.2,16.91c0.01,1.14-0.12,1.99-1.59,1.94c-2.14-0.07-4.29-0.11-6.43,0.01
			C95.47,83.95,96.27,82.2,95.8,81.04z M89.59,77.64c1.76-0.24,3.47-0.48,4.69-1.81c1.27-1.39,2.23-3.28,1.55-4.92
			c-0.6-1.45-2.6-0.52-3.97-0.51c-1.11,0-2.24,0.3-3.31,0.62c-1.83,0.54-3.51,1.48-3.21,3.7C85.65,77.1,87.66,77.47,89.59,77.64z"/>
		<path class="st1" d="M268.32,144.2c0,2.71-0.02,5.42,0.01,8.13c0.01,1.15-0.2,2.01-1.63,1.99c-2.15-0.03-4.29-0.01-6.44-0.01
			c-0.11,0-0.3,0.02-0.33-0.04c-1.9-3.78-3.8-0.39-5.62,0.07c-4.1,1.04-8.06,1.08-11.71-1.33c-5.52-3.64-5.45-11.3,0.02-15.03
			c3.94-2.68,8.54-2.58,12.98-3.18c0.94-0.13,2.24,0.36,2.55-1.02c0.31-1.41-0.6-2.35-1.74-3c-3.14-1.76-6.1-0.9-8.98,0.7
			c-0.93,0.52-1.72,1.84-2.9,0.68c-1.42-1.41-3.22-2.58-3.92-4.54c-0.27-0.75,0.68-1.31,1.35-1.75c6.05-3.93,12.53-5,19.31-2.41
			c3.78,1.44,5.6,4.71,6.38,8.58C268.49,136.08,268.32,140.14,268.32,144.2z M255.89,140.83c-2.19-0.21-4.08,0.54-5.94,1.31
			c-1.13,0.47-1.75,1.43-1.79,2.62c-0.04,1.17,0.43,2.16,1.54,2.76c2.99,1.61,7.53-0.14,8.65-3.29
			C259.22,141.75,258.93,140.23,255.89,140.83z"/>
		<path class="st1" d="M145.03,142.31c0-2.94-0.08-5.88,0.03-8.81c0.07-1.76-0.53-2.6-2.31-2.36c-4.35,0.58-3.05-2.57-3.32-4.82
			c-0.3-2.55,0.63-3.58,3.18-3.18c1.97,0.31,2.45-0.66,2.49-2.53c0.04-2.23,0.23-4.55,0.89-6.67c1.81-5.84,9.35-9.64,15.33-8.11
			c2.45,0.62,1.94,2.34,1.9,3.99c-0.05,2.53,0.55,5.16-3.8,4.66c-2.8-0.32-5.35,5.84-3.55,8.05c0.99,1.22,2.58,0.69,3.84,0.56
			c2.72-0.27,3.1,1.24,2.72,3.27c-0.35,1.83,1.51,5.19-2.64,4.71c-3.56-0.42-4.45,0.97-4.29,4.33c0.26,5.52,0,11.07,0.08,16.6
			c0.02,1.73-0.49,2.43-2.3,2.37c-10.02-0.34-8.03,1.74-8.21-7.65c-0.03-1.47,0-2.94,0-4.41
			C145.05,142.31,145.04,142.31,145.03,142.31z"/>
		<path class="st1" d="M207.83,140.93c0-9.1,3.02-14.12,9.3-17c6.19-2.84,12.22-2.24,18.04,1.17c1.45,0.85,1.38,1.77,0.21,2.9
			c-0.89,0.85-1.63,1.86-2.38,2.85c-1.19,1.58-2.16,2.42-4.35,0.95c-2.69-1.79-6.65-0.74-8.55,1.62c-2.38,2.96-2.46,7.33-0.19,10.37
			c1.86,2.49,5.72,3.45,8.87,2.15c0.97-0.4,1.89-1.81,2.96-0.64c1.66,1.81,3.16,3.79,4.48,5.86c0.31,0.48-0.77,1.28-1.45,1.65
			c-6.31,3.48-12.71,3.57-19.03,0.16C210.12,149.94,207.76,144.96,207.83,140.93z"/>
		<path class="st0" d="M242.9,60.29c0,7-0.06,14.01,0.04,21.01c0.03,1.81-0.27,2.53-2.33,2.57c-8.18,0.17-8.18,0.25-8.18-7.91
			c0-12.2,0.07-24.4-0.06-36.6c-0.02-2.41,0.68-3.01,3.03-2.99c7.49,0.07,7.49-0.03,7.49,7.31C242.9,49.22,242.9,54.75,242.9,60.29z
			"/>
		<path class="st1" d="M175.74,127.03c2.79-2.75,5.03-4.58,8.2-4.68c1.64-0.05,2.64,0.35,2.43,2.24c-0.1,0.89-0.14,1.81-0.07,2.7
			c0.23,2.7-0.15,4.3-3.68,4.14c-3.76-0.17-6.36,3.27-6.46,7.65c-0.1,4.17-0.12,8.35,0,12.52c0.06,1.99-0.49,2.74-2.62,2.79
			c-7.63,0.17-7.64,0.25-7.64-7.48c-0.01-6.99,0.08-13.99-0.05-20.98c-0.04-2.22,0.63-3.1,2.86-2.81c1.11,0.14,2.26,0.11,3.38,0.01
			C174.35,122.91,176.17,123.17,175.74,127.03z"/>
		<path class="st0" d="M250.74,67.86c0-4.28,0.09-8.56-0.04-12.84c-0.06-1.98,0.65-2.4,2.51-2.44c7.83-0.14,7.83-0.21,7.83,7.56
			c0,6.87-0.08,13.74,0.05,20.61c0.04,2.19-0.31,3.15-2.86,3.12c-7.48-0.08-7.48,0.05-7.48-7.58
			C250.74,73.49,250.74,70.67,250.74,67.86z"/>
		<path class="st1" d="M201.3,138.87c0,4.29-0.06,8.59,0.03,12.88c0.04,1.77-0.3,2.58-2.38,2.64c-7.94,0.23-7.93,0.32-7.9-7.64
			c0.02-7,0.04-14.01-0.03-21.01c-0.02-1.8,0.4-2.57,2.42-2.64c7.88-0.28,7.88-0.36,7.86,7.64
			C201.3,133.45,201.3,136.16,201.3,138.87z"/>
		<path class="st0" d="M261.73,42.63c0.06,3.16-2.65,5.82-5.87,5.77c-3.02-0.04-5.75-2.66-5.79-5.55c-0.05-3.09,2.74-5.8,5.91-5.76
			C259.09,37.12,261.68,39.62,261.73,42.63z"/>
		<path class="st1" d="M196.06,107.62c3.29-0.11,5.86,2.32,5.9,5.59c0.04,3.05-2.33,5.55-5.45,5.75c-3.08,0.19-6-2.41-6.12-5.46
			C190.26,110.4,192.85,107.72,196.06,107.62z"/>
		<path class="st1" d="M73.65,148.24c2.52,1.28,5.03,0.08,7.54-0.01c0.84-0.03,1.98-0.5,2.43,0.5c0.51,1.14-0.52,1.91-1.31,2.46
			c-1.52,1.07-3.07,2.19-4.77,2.87c-1.58,0.62-3.24-0.16-4.26-1.39c-1.2-1.44,0.71-2.93,0.41-4.48L73.65,148.24z"/>
		<path class="st1" d="M83.17,144.72c0.32,1.44-0.43,2.41-1.94,2.78s-1.84-0.33-2.35-1.81c-0.57-1.64-2.37-2.82-3.51-4.29
			c-0.49-0.63-1.39-1.45-0.58-2.33c0.56-0.61,1.49-0.33,2.24-0.11C82.1,140.4,83.25,141.46,83.17,144.72z"/>
		<path class="st1" d="M75.83,143.87c-1.22,0.31-2.06,0.63-2.94,0.72c-1.22,0.13-2.94,1.12-3.53-0.37
			c-0.51-1.29,1.09-2.32,2.09-3.14c1.45-1.19,2.45-0.06,3.32,1C75.12,142.5,75.34,143.01,75.83,143.87z"/>
		<path class="st1" d="M73.69,148.19c-1.69,0.59-0.97,2.68-2.4,3.71c-1.82-1.01-2.01-2.88-1.76-4.54c0.37-2.49,2.99-0.38,4.29-2.36
			c-0.08,1.56-0.13,2.4-0.17,3.24C73.65,148.24,73.69,148.19,73.69,148.19z"/>
	</g>
</g>
</svg>
