<?xml version="1.0" encoding="utf-8"?>
<!-- Generator: Adobe Illustrator 24.1.0, SVG Export Plug-In . SVG Version: 6.00 Build 0)  -->
<svg version="1.1" id="Layer_1" xmlns="http://www.w3.org/2000/svg" xmlns:xlink="http://www.w3.org/1999/xlink" x="0px" y="0px"
	 viewBox="0 0 700 700" style="enable-background:new 0 0 700 700;" xml:space="preserve">
<style type="text/css">
	.st0{fill:#96C421;}
	.st1{fill:#39891C;}
	.st2{fill:#FEFEFE;}
</style>
<g>
	<g>
		<path class="st0" d="M580,447.5c2.4-8.4,8.2-11.7,15.4-12c5-0.2,8.2-3,11.4-5.8c5.9-5,10.7-10.8,11.9-18.9
			c0.7-4.7-0.5-9.2-1.6-14.3c3.3,1.7,4.6,0.3,5.9-2.4c2.1-4.3,1.4-8.3-1.1-11.7c-10.5-14.3-25.5-13.9-36.7-0.1
			c-0.9,1.1-0.9,2.4-0.5,3.3c3.4,7.9-2.7,11.1-7.5,14.4c-5.9,3.9-9.7,9.4-11.6,15.7c-2.7,8.7-5.9,17.3-10.4,25.2
			c-2.2,3.8-4.4,0.7-6.1-0.4c-2.8-1.8-5.1-4.2-7.7-6.3c-2.7-2.2-4.2-1.2-4.6,2c-0.3,2.6,1.2,6.4-0.8,7.6c-2.4,1.5-6.1,1.1-9.2,1.1
			c-6.8,0-13.8-0.4-20.6-0.2c-3.3,0.1-3.8-1.3-3.9-4.1c-0.1-3,1.6-7.3-1.6-8.7c-2.8-1.2-4.1,3.2-6.1,4.9
			c-11.1,9.8-24.4,11.4-38.3,10.6c-22.2-1.3-36.9-13.5-46.6-32.8c-0.6-1.1-0.9-2.8-2.7-2.4c-1.7,0.4-1.5,2-1.5,3.3
			c0,8.3-0.1,16.8,0,25.1c0,2.5-0.4,4.2-3.4,4.2c-9.5-0.1-19.1-0.3-28.5-0.1c-3.7,0.1-4.4-1.4-4.4-4.7c0.1-24.1,0.2-48.2-0.1-72.3
			c-0.1-6.9-0.4-14.2-3.8-20.4c-6.4-11.9-17.3-11.9-29.2-9.2c-9.9,2.2-14.4,9.6-16.7,19.4c-1.5,6.6-2.1,13.1-2.1,19.8
			c0,20.6-0.1,41.2,0.1,61.7c0,4.3-1.1,5.8-5.6,5.7c-8.7-0.3-17.4-0.2-26.1,0c-3.5,0.1-4.7-1.3-4.7-4.7c0.1-6.3,0.1-12.7,0-19.1
			c0-1.7,0.3-3.7-1.5-4.4c-2.2-0.8-2.7,1.6-3.5,2.8c-14.6,23.3-36.5,29.7-62.3,27.9c-8.2-0.6-16.3-2.1-23.7-5.5
			c-10-4.6-18.8-11-24.8-20.5c-2.2-3.4-3.5-3.6-5.4,0c-9.3,17.9-25.3,24.1-44.3,25.7c-12.7,1.1-25.4,1-37.8-2.1
			c-17.9-4.4-30.3-15.1-36.1-32.8c-0.2-0.5-0.2-1-0.3-1.5c-1.7-8.9-1.6-9,7.3-9c7.5,0,15.1,0,22.6,0c2,0,4.1-0.2,4.5,2.7
			c1.8,11.8,10,17,20.7,19.1c9.8,2,19.4,0.5,27-6.7c6.4-6.1,4.6-16-3.2-20c-10-5.2-21-7.3-31.8-9.8c-10.4-2.4-21-4.3-30.2-10.4
			c-8.1-5.3-13.2-12.4-14.2-22.2c-1.2-12.7,2.2-24.4,11.8-33c7.1-6.3,16.2-10,25.7-11.3c14.1-1.9,28.3-2.6,42.3,0.7
			c13.7,3.2,25.3,9.6,32,22.9c0.7,1.4,0.9,2.8,1.5,4.1c0.6,1.4,0.4,3.6,2.6,3.8c2.1,0.2,3.2-1.5,4.1-3.1
			c4.4-7.6,10.6-13.6,17.8-18.5c15.2-10.4,32-13.1,50.1-10.8c17.9,2.3,30.5,12.4,41.2,26c1.7,2.2,2,5.2,4,7.4
			c0.8,0.9,0.9,2.8,2.6,2.3c1.6-0.5,1.2-2.2,1.2-3.5c0.1-8.3,0.2-16.8,0-25.1c-0.1-3.4,1.2-4.4,4.3-4.3c8.7,0.1,17.4,0,26.1,0
			c3.1,0,4.8,1.1,4,4.6c-0.2,1-0.2,2-0.2,3c-0.1,2.6-0.3,6.2,2,7.2c2.4,1.1,3.3-2.6,4.8-4.2c9.9-9.7,22-14.3,35.7-14.1
			c10.2,0.2,20.1,1.6,29.2,7.1c7.6,4.6,11.6,11.6,14.6,19.4c1.5,4,2.3,8.3,3.8,12.7c3.6-3.4,4.6-8.2,7.1-12.1
			c9.8-15.1,22.9-25,41.4-26.6c9.6-0.8,19,0,27.9,4c5.4,2.4,10.2,5.8,14.4,10.2c0.8,0.8,1.3,2.1,2.8,1.8c1.7-0.4,1-1.8,1.3-2.8
			c1.2-3.7,1-7.5,1-11.3c0.1-34.9,2.1-69.8,3.4-104.7c0.6-16.6,0.8-33.1,2.7-49.6c0.3-3,0.6-5.9,1-8.9c0.8-6.2,6.7-10.5,14-10.1
			c6.5,0.3,10.5,4.5,10.6,11.1c0.7,54,1.2,108,2.2,162c0.2,9.1,0.5,18.4,0.8,27.5c0,1.4-0.5,3.5,1.3,3.9c1.8,0.4,2.2-1.6,2.7-3
			c5.1-13.1,15.2-21.4,28.1-25.7c19-6.3,38.5-5.7,57.8-2.1c9.6,1.8,18.8,5.8,25.1,14.1c3.5,4.5,5.9,9.5,6.1,15.5
			c0.9,25.6,0.2,51.2,0.5,76.8c0.1,7,0,14,2.2,20.8c1.8,5.5,0.4,6.8-5.2,6.9c-8,0-16.1-0.2-24.1,0.1c-4.2,0.1-5.9-1.7-6.5-5.6
			c-0.9-5.4-2.4-5.9-6.7-2.6C606.6,444.6,593.8,446.9,580,447.5z M501.8,376.1c0.6-6.5-0.8-14.1-3.4-21.4c-3-8.4-8.5-15-17-17.5
			c-18.4-5.5-35.6,2-40.4,22.5c-2.3,10.1-3.4,20.1-1,30.4c1.7,7.2,3.9,14.1,8.5,19.8c11,13.8,33.8,14.1,44.3,0.2
			C500.3,400.4,502,389.2,501.8,376.1z M235.6,386.5L235.6,386.5c-6.5,0-13,0-19.6,0c-6.7,0-13.3,0-20.1,0c-5.8,0-6.6,0.4-5.7,6.3
			c2.5,15.7,8.1,24.4,25,27.2c11.2,1.9,23,0.3,30.1-9c5.5-7.2,11.1-8.5,18.9-7.7c2,0.2,4,0.1,6,0c13.5-0.2,10.8,1.3,11.3-11.6
			c0.2-4.3-1.5-5.4-5.5-5.3C262.6,386.7,249.1,386.5,235.6,386.5z M555.2,352.3L555.2,352.3c-4.8,0-9.7,0.2-14.6-0.1
			c-3.3-0.2-4.4,0.9-4.3,4.1c0.2,7.8,0.1,15.7,0.3,23.6c0,2.3-1,5.7,0.8,6.5c2.8,1.4,3.2-2.5,4.7-4c8.8-9,20.4-11.7,32.1-14
			c12.1-2.3,24.5-2.5,36.4-6c8-2.3,11-6.1,10.7-14.4c-0.3-7.5-5.3-13.8-12.3-14.8c-6.8-1-13.7-1.2-20.5,0c-5.7,1-10.6,4.3-11.7,9.3
			c-2.2,9.3-7.8,10.6-15.7,9.6C559.2,352.1,557.1,352.3,555.2,352.3z M100.1,332.3c-1.9-0.4-4.8,0.6-7.8,0.9
			c-5.7,0.6-10.4,4.6-11.4,9.4c-0.9,4.1,2,9.4,6.9,12.2c6.6,3.8,14.1,5,21.3,6.6c13.7,3,27.5,5.1,39.6,12.7c3.4,2.1,5,1,5.4-2.8
			c0.6-5.9,0.3-11.9,2.9-17.6c1.2-2.6-0.9-3.4-3.2-3.4c-6.2,0-12.3-0.1-18.6,0c-5,0.1-10.3,1-10.3-6.6c0-0.5-0.7-1.1-1.1-1.6
			C118.6,333.3,109.9,332.9,100.1,332.3z M219.1,363.6L219.1,363.6c8.3,0,16.7,0.1,25,0c1.7,0,4,0.5,3.9-2.4
			c-0.3-7.4-5.1-17.7-12-21.7c-7.4-4.2-15.2-4.8-23.5-3.4c-11,1.9-20.3,10.9-22.1,22c-0.7,4.1,0.1,5.8,4.6,5.6
			C203.2,363.4,211.1,363.6,219.1,363.6z"/>
		<path class="st1" d="M435.3,639.1c2.8,0.1,5.7,0.3,8.5,0.4c2,0.1,3,0.9,3,3.1c0,2.4-1.5,2.7-3.3,2.7c-16.8-0.4-31.1-6.3-41.3-19.9
			c-16.5-22-18.9-46.9-13.1-73.1c0.7-3.2,2-6.3,2.9-9.5c0.6-2.2,0.5-3.4-2.5-3c-7.9,1.2-15.4,3.7-20.8,9.6c-5,5.5-7.7,12.5-8.8,20
			c-1.2,8.3-0.9,16.7-0.9,25c0,14.6-0.1,29.1,0,43.7c0,3.2-0.5,4.7-4.3,4.6c-9.3-0.3-18.8-0.3-28.1,0c-3.6,0.1-5-0.8-4.8-4.7
			c0.3-8.7,0.1-17.6,0.1-27c-4.5,3.3-5.3,8.1-8,11.7c-10,13.1-23.3,19.6-39.4,21.8c-10.7,1.4-21.4,1.1-31.8-1.2
			c-14.9-3.4-27-11.3-35.6-24.2c-11.5-17.2-14.2-36-11-56c0.3-2.3,0.3-4.6,0.4-6.9c1.1-2.3,2.3-4.5,3.3-6.9c0.4-1,1.2-2.3-0.5-2.8
			c-1.3-0.3-1.3,1-1.6,1.9c-0.8,2.5-1.3,5.1-1.1,7.7c-9.8,24.2-17.4,49.2-25.6,73.9c-1.1,3.3-2.9,6.3-3.4,9.8
			c-0.2,1.8-1.4,2.5-3.1,2.5c-11.8,0.1-23.8,0.5-35.6,0.2c-4.9-0.1-4.5-5.5-5.7-8.6c-4.2-11.4-7.6-23.1-11.5-34.6
			c-5.6-16.5-11.4-32.9-17.1-49.4c-3.7-10.7-7.3-21.5-10.9-32.3c-0.5-1.5-0.5-3.3-0.7-4.9c-0.2-2.1,0.5-3,2.8-3
			c10.2,0.1,20.4,0,30.6,0c3.9,0,4.2,3.6,4.8,5.8c6.9,26.1,16.4,51.6,23.5,77.7c0.5,1.7,1.6,3.2,2.5,5c4.3-5.2,4.3-11.8,6.4-17.7
			c3.4-9.4,5.8-19.3,8.7-28.9c3.8-12.6,7.7-25.2,11.6-37.7c0.9-2.9,2.4-4.5,6-4.3c9.1,0.4,18.4,0.2,27.6,0.1
			c3.3-0.1,3.7,1.3,2.8,3.9c-2.9,8.2-5.8,16.5-8.6,24.8c-0.3,0.8-1.7,1.7-0.3,2.5c1.5,0.9,1.6-0.5,2.3-1.5
			c8.2-14.1,19.8-23.9,35.3-29.5c13.2-4.7,26.8-4.9,39.8-2.1c17.1,3.7,30.2,14,38.3,29.8c0.6,1.2,1.2,2.4,1.9,3.5
			c0.5,0.8,1.2,1.4,1.9,2.2c2-1,1.2-2.7,1.2-4.1c0.1-8.5,0.1-17.1,0-25.6c-0.1-2.7,0.6-3.8,3.6-3.8c9.2,0.1,18.4,0.2,27.6,0
			c3.3-0.1,3.8,1.3,3.8,4.1c-0.1,5.9-0.5,11.9,0.5,18.8c3.9-4.2,5.9-8.7,9.3-12.1c10-9.9,21.8-15.2,36-14.2c3.9,0.3,6.2,1.3,5.5,5.9
			c-0.2,1.6-1.1,4.1,0.9,5c1.8,0.8,3-1.3,4.5-2.2c15.8-9.7,32.3-11.4,49.9-5.6c8.2,2.7,14.5,8,20.2,14.5c1.3-2.1,0.8-3.9,0.8-5.7
			c0-18.3,0.1-36.4,0-54.7c0-3.6,0.9-4.9,4.7-4.8c8.8,0.3,17.8,0.3,26.6,0c4.4-0.2,5.9,0.8,5.8,5.6c-0.3,24.3-0.1,48.5-0.1,72.8
			c0,1.9,0,3.8,0,6.1c4.3-1.5,5-5.1,6.7-7.7c13.6-20.5,32.7-29.3,56.8-29.4c18-0.1,33.2,5.8,45.5,19c5.8,6.2,9.6,13.8,13.1,21.5
			c5.3,11.6,2.3,23.6,3.2,35.3c0.3,3.7-2.6,2.7-4.5,2.7c-19.6,0.1-39.1,0-58.7,0c-8.5,0-17.1,0.2-25.6-0.1c-4-0.1-4.8,1.2-4.4,4.8
			c1.2,10.4,4,20.2,14.4,25.2c13.8,6.6,33.9,6,44.3-9.1c2.1-3,4.4-4.2,8.1-4.1c7.5,0.3,15.1,0.1,22.6,0.1c2.1,0,4.1,0.4,2.9,2.9
			c-4.1,9.1-8.2,18.3-15.9,25.3c-9.1,8.4-19.9,12.9-32.1,14.9c-11.5,1.8-23.2,1.5-34.3-1.4c-14.2-3.7-26.4-11.2-34.4-24.2
			c-1.2-1.9-2.9-3.6-3.6-5.9c-0.3-1.2-1.8-1.7-2.9-1.6c-1.7,0.2-1.1,1.8-1.1,2.8c-0.1,7.8-0.3,15.8,0,23.6c0.2,4.2-1.5,5-5.2,5
			c-8.3-0.2-16.8-0.2-25.1,0c-3.6,0.1-4.6-1.3-4.5-4.7c0.2-3.5,0.4-7.2-1.2-11.2c-2.7,3.4-5.3,6.2-8.1,8.8
			c-3.4,3.2-7.6,4.6-11.5,6.6c-1.6,0.8-2.2,0.3-2.2-1.3c0-2.8-1-5.6,0-8.3c1.3,1,0.1,3.4,2.9,4.1c1.7-4.6,1.1-9.5,0.3-14.1
			c-0.7-3.7,0.2-5.1,3.6-6c10.4-2.7,19.3-7.9,25.6-17c1.3-1.9,2.9-2.2,5.1-1.5c5.1,1.6,9.7,0.2,12.7-4.2c2.9-4.2,3.5-9,1.2-13.8
			c-2.2-4.7-5.7-7.8-11.3-6.9c-3.6,0.6-4.9-1.2-6-4.3c-4-11-10-20.7-20-27.5c-2.2-1.5-3.5-3.8-2.2-6.4c1.9-3.8-0.9-2.9-2.3-2.2
			c-3.1,1.7-6.2,0.5-9.4,1.1c0.5-2.4,3.2-2.2,3.6-4.5c-3.8-1.3-7.4,0.4-11,0.9c-3.2,0.4-5.9,2.4-9.6,0.9c-2.2-0.9-3.1,2.9-5.5,3.5
			c-11,3-18.4,10.7-25,19.6c-3.5,4.7-7.4,9-7.6,15.4c-0.1,2.9-1.4,4.3-4.9,3.5c-6-1.4-10.4,2.2-12.3,7.4c-2.1,5.6,0,14.7,4.2,16.7
			c2.7,1.2,6.1,2.1,9.3,1c2.8-0.9,4.6-0.2,6.4,2.1c6.4,8.6,15.2,14,25.6,16.2c4.6,1,5.9,3,5,7.5c-0.9,4.1-0.9,8.3,0.3,12.4v0.3
			c-2.5,1.1-5,0.6-7.5,0c-1.3-1.3-2.9-0.6-4.4-0.8c-0.1-0.6-0.2-1.2-0.3-1.8l0.1-0.1c1,0,2,0.2,3,0c3.1-0.7,3.9-3.8,3.3-5.7
			c-0.6-2.1-1.9-5.6-5.1-4.9c-2.7,0.5-5.1,2.4-5.2,5.7c-0.1,3.1-0.6,6.5,3.8,7.3C431.8,637.5,433.6,638.3,435.3,639.1z M276.9,584.6
			C276.9,584.5,276.9,584.5,276.9,584.6c-13.9,0-27.7,0-41.6,0c-1.6,0-3.9-0.8-3.9,2.3c0,7.8,2.1,14.9,6.7,21.4
			c8.9,12.5,37.2,15.3,49.3,0.1c5.5-6.9,10.8-7,17.7-6.9c1.3,0,2.7,0,4,0c13.2,0,13.1,0,12.9-12.9c0-3.2-1-3.9-4-3.8
			C304.3,584.6,290.7,584.6,276.9,584.6z M582.3,561.6c8.6,0,17.4-0.1,26,0c3.3,0.1,3.9-1.3,3.5-4.2c-0.4-3.4-2.6-5.9-3.4-9.1
			c-1.4-4.8-4.5-8.4-8.7-11c-8-4.9-16.7-4.8-25.5-2.8c-10.8,2.5-19.1,12-20.5,23c-0.4,3.5,1,4.2,4.1,4.2
			C565.9,561.5,574,561.6,582.3,561.6z M260.4,561.5L260.4,561.5c8.5,0,17.1,0,25.5-0.1c1.5,0,4.3,0.9,3.6-2.4
			c-1.8-8.9-4.8-17.1-13.3-22.1c-7.4-4.3-15.2-4.2-23.1-2.7c-11.7,2.2-19.8,11.6-21.5,22.4c-0.5,3.4,0.1,5.2,4.2,5
			C244,561.3,252.2,561.5,260.4,561.5z"/>
		<path class="st0" d="M449.2,76.6c5.1,3.9,11.4,4.9,17.3,6.7c11.9,3.7,22.3,9.7,29.6,19.8c4.6,6.4,6.6,14.2,6.5,22.2
			c-0.1,5.4-4.9,5.8-8.6,6.6c-7.3,1.5-14.3-0.9-21-3.3c-9.8-3.4-18.6-8.8-25.7-16.4c-11.5-12.1-19.6-26.2-23.9-42.5
			c-1.3-4.9-2.7-9.8-3.5-15.3c9.3,5.6,19.3,8.5,30,8.5c9.6,0,19.1,1.8,28.1,4.4c17.7,5.1,32.8,13.9,36.2,34.4
			c0.7,4.3,1.2,8.7-1.4,12.6c-0.9,1.3-1.7,3.4-3.5,3.3c-1.9-0.2-2.1-2.5-2.4-3.9c-2-9.2-7.6-16.1-14.6-22c-5.9-5-12.8-8.3-20.2-10.6
			C464.6,79.1,457.1,77.1,449.2,76.6z"/>
		<path class="st1" d="M449.2,612.4c-9.5,0.1-21-4.3-30.2-14.5c-1.4-1.6-2.8-2.4,0.1-3.9c1.8-0.9,0.9-2.1-0.5-2.9
			c-5.1-2.9-6.1-7.5-5.2-12.7c2.5-13.9,10.3-22.6,23.3-21.2c5.5,0.6,10.3,3.5,14.7,6.8c1.9,1.4,2.9,1.5,4.7,0.1
			c3.3-2.8,7.2-4.5,11.2-6c9-3.5,20.5,1.7,23.5,10.9c0.9,2.8,2.5,5.2,3.1,8.3c1,5.8-0.3,10.3-5.2,13.8c-0.9,0.6-2.5,1.8-1,2.5
			c4.8,2.4,1,4-0.4,5.5C478,609,466.2,612.4,449.2,612.4z M462.1,585.1c-1.5-2.7-3.7-4.2-6.8-4c-3.7,0.2-7.7-0.7-9.8,3.6
			c-0.3,0.6-0.1,1.8,0.8,2.1c0.5,0.2,1.3,0,1.8-0.3c3.7-2.5,7.2-2.9,10.8,0.1c0.7,0.6,1.6,0.7,2.2,0.1
			C461.6,586.4,461.8,585.7,462.1,585.1z M426.6,580.1c-1.6,0.1-3,0.5-2.9,2.5c0.1,1.8,1.3,2.6,2.9,2.6c1.7,0,2.8-0.8,2.8-2.6
			C429.5,580.6,428.2,580.2,426.6,580.1z M480.5,580.1c-1.2,0.3-2.9,0.2-2.9,2.4c0.1,2.3,1.8,2.6,3.5,2.7s2.3-1,2.4-2.5
			C483.5,580.7,482.6,579.9,480.5,580.1z"/>
		<path class="st0" d="M555.8,104.5c-8.7,0.9-13.5,6.8-17.4,13.7c-1,1.7-1.5,3.6-2.3,5.5c-3.9-3.2-3.9-11.1-0.5-16.7
			c5.2-8.6,13.9-11.5,22.9-13.3c4.5-0.9,9.2-1.5,13.9-1.7c5.2-0.3,9.9-2.2,14.8-4.1c-2.1,22.2-17.2,41-36.8,44.3
			c-2,0.3-3.9,0.7-5.9,0.2c-3.3-0.7-4.9-2.1-4.5-6.2c0.8-8.8,4.8-14.9,12.8-18.5C554.1,106.8,555.1,105.8,555.8,104.5
			c0.5-0.2,1-0.3,1.6-0.4c-0.1-0.1-0.2-0.3-0.3-0.4C556.4,103.5,555.9,103.7,555.8,104.5z"/>
		<path class="st1" d="M515.1,584.9c0,6.2-2.9,9.8-7.1,11.8c-2.4,1.2-5.2,0.8-7.5-1.8c-2.9-3.4-4.2-14.3-1.2-17.1
			c2.4-2.2,5-4.1,8.9-2.3C512.8,577.7,514.8,581.2,515.1,584.9z"/>
		<path class="st1" d="M409.3,585.7c0,8.5-2,11.6-7.4,11.5c-4.4-0.1-10.1-5.8-9.8-11.1c0.3-5.6,5.1-11.2,10-11.2
			C406.8,574.9,409.3,578.7,409.3,585.7z"/>
		<path class="st1" d="M454.8,619.6c3.6,0,6.6,3.7,6.7,8.3c0.1,4.5-2.9,8.4-6.3,8.3c-4.1-0.1-6.5-3.3-6.5-8.7
			C448.6,622.6,450.9,619.6,454.8,619.6z"/>
		<path class="st1" d="M454,640c2.6,0.1,4.9,0.3,4.8,2.5c-0.1,3.3-3.3,1.3-5,2.1c-1.1,0.5-2.7,0.6-2.6-1.6
			C451.3,640.6,452.7,639.9,454,640z"/>
		<path class="st0" d="M196.4,556.1c-0.3-2.7,0.3-5.2,1.1-7.7c0.3-0.9,0.3-2.3,1.6-1.9c1.7,0.4,1,1.8,0.5,2.8
			C198.6,551.5,197.5,553.8,196.4,556.1L196.4,556.1z"/>
		<path class="st2" d="M555.8,104.5c0.1-0.8,0.6-1,1.3-0.8c0.1,0,0.2,0.2,0.3,0.4C556.8,104.2,556.3,104.3,555.8,104.5
			C555.7,104.4,555.8,104.5,555.8,104.5z"/>
		<path class="st1" d="M430.3,634.4c-3-0.9-3.2-2.9-2.3-5.5c0.9-2.8,2.8-2.5,5.2-1.8c-4.4,1.3-1.5,5-2.8,7.2
			C430.4,634.3,430.3,634.4,430.3,634.4z"/>
	</g>
</g>
</svg>
