<?xml version="1.0" encoding="utf-8"?>
<!-- Generator: Adobe Illustrator 24.1.0, SVG Export Plug-In . SVG Version: 6.00 Build 0)  -->
<svg version="1.1" id="Layer_1" xmlns="http://www.w3.org/2000/svg" xmlns:xlink="http://www.w3.org/1999/xlink" x="0px" y="0px"
	 viewBox="0 0 500 500" style="enable-background:new 0 0 500 500;" xml:space="preserve">
<style type="text/css">
	.st0{fill:#0393CE;}
	.st1{fill:#064B61;}
	.st2{fill:#0A4C63;}
	.st3{fill:#165165;}
	.st4{fill:#32646F;}
</style>
<g>
	<g>
		<path class="st0" d="M171.9,232.5c2-2.5,5.2-1.8,6.8-4.2c-4.2-1.6-8.3-4-12.2,0.7c-1,1.2-2.8,1.1-2.9-0.4c-0.7-6.7-6.1-6.3-10.4-7
			c-6.1-1-12.3-1.5-18.5-2c-3.1-0.3-4.6,2.2-6,4.4c-4,6.2-7.7,12.5-11.9,18.5c-8.6,12.2-13,15.6-27.1,22.2c-0.3-2.4,1.4-3.9,2.4-5.6
			c6.2-10.1,11-20.6,10.7-32.8c-0.2-7.3-3.2-13.5-6.3-19.7c-5.5-11-12.1-21.5-19.5-31.4c-1.2-1.7-3.5-3.8-2-5.5
			c1.8-2,4.1,0.1,5.9,1.3c13.5,8.9,25.9,19.4,37.6,30.4c5.5,5.1,10.6,6.5,17.3,3.4c4.7-2.2,9.6-4.2,14.3-6.2
			c1.9-0.8,2.7-2.1,2.8-4.3c0.3-3.2,2-3.9,4.4-1.7c2.6,2.4,5.2,2.7,8.5,2c16.6-3.4,33.3-6.6,50-10c3.2-0.6,6.3-1.7,9.5-2
			c7.9-0.8,9.4-6.1,9.9-11.4c1-9.3-0.1-18.4-2.7-27.4c-0.3-1-1.5-2.2-0.4-3.1c1.1-0.9,2.6-0.3,3.9,0.3c5.1,2.5,9.2,6.3,13.3,10.1
			c6.2,5.8,11.8,12.2,17.3,18.5c2.5,2.9,5.3,4,8.9,4.5c19.6,2.5,39.1,5.3,58.4,9.3c12.8,2.7,25.3,6,37.6,10.5
			c12.6,4.6,24.3,11.2,36.2,17.4c4.4,2.3,8.9,4.5,13,7.3c1.2,0.9,2.4,1.8,3.5,2.8c3.2,3.1,2.9,5.4-1.2,7.4
			c-7.1,3.6-14.6,6.3-22.3,8.2c-2.1,0.5-3.6,1.4-5.2,3c-3.7,3.7-8.9,4.9-13.8,5.9c-16.9,3.6-34.1,3.7-51.3,2.5
			c-8.9-0.6-17.9-1.4-26.8-2.4c-1.6-0.2-2.3,0.4-3.4,1.6c-7.3,8.2-15.6,14.9-25.8,19.2c-0.2,0.1-0.5,0.1-0.7,0.2
			c-2.3,0.7-5,1.8-6.6-0.3c-1.6-2,1-3.7,2.1-5.4c2-2.8,3.4-5.8,4.1-9.1c0.2-0.8,1-1.7,0.1-2.4c-0.7-0.6-1.7-0.2-2.5,0.2
			c-10.7,4.8-22,7.9-33.5,9.7c-13.6,2.1-27.4,3.7-41.2,1.9c-0.4-0.1-0.9-0.2-1.9-0.4c2.8-2.5,5.8-3.1,8.7-4
			c9.1-2.9,18.5-4.6,27.3-8.7c4.3-2,8.3-4.4,11.7-7.8c1.6-1.6,2.3-3-1-3.5c-8.5-1.3-16.9-2.7-25.4-4.1c-1-0.2-2-0.1-2.8,0.6
			c-0.5,0.4-1.1,0.6-1.6,0.8c-2.1,0.9-3.8-1.7-5.1-1.3c-1.6,0.5-2,3.5-4,4.1s-4-0.8-4.8-2.2c-3.4-5.7-8.2-4.9-13.4-3.7
			C180.2,232.6,176.2,233.1,171.9,232.5z"/>
		<path class="st1" d="M315.1,335.4c-13,0-21.8-9-21.7-22.3c0.1-11.1,9.6-19.9,21.7-19.9c12.7,0,22.1,8.9,22,20.8
			C337.1,326.4,327.8,335.4,315.1,335.4z M315.4,303.1c-6-0.1-11.4,4.8-11.5,10.4c-0.1,6.5,4.9,11.9,11.2,12
			c6,0.1,11.3-5.1,11.5-11.4C326.7,308.2,321.6,303.2,315.4,303.1z"/>
		<path class="st1" d="M164.3,334.1c-4.3,0-7.7-0.1-11.2,0c-1.8,0.1-2.2-1.3-3-2.3c-2.7-3.8-4.6-8.1-8.5-12.3c0,4.6-0.1,8.3,0,12
			c0.1,1.9-0.4,2.6-2.4,2.7c-8,0.4-8,0.5-8-7.5c0-8.9,0-17.7,0-26.6c0-5.6,0-5.6,5.7-5.6c4.2,0,8.5-0.1,12.7,0.2
			c5.8,0.4,9.6,3.8,10.6,8.8c1.2,6.1-1,11.1-6.5,13.6c-2,0.9-1.4,1.5-0.5,2.6C156.8,324.3,160.3,328.8,164.3,334.1z M141.7,306.6
			c0,5.4,0,5.4,2.3,5.5c3.5,0.1,5.8-1.8,5.9-4.7c0.1-2.8-2.3-4.8-5.6-5.1C139.9,302,142.4,305.3,141.7,306.6z"/>
		<path class="st1" d="M455.3,333.9c-2.6,0.2-4.4,0.3-6.2,0.5c-4.7,0.5-7.8-1.4-9.9-5.7c-1.5-3.2-3.7-6-6.5-8.8c0,3.7-0.1,7.3,0,11
			c0.1,2.3-0.3,3.3-3,3.3c-7.2-0.1-7.2,0.1-7.2-7.2c0-9.9,0.1-19.7-0.1-29.6c0-2.3,0.6-3,2.9-2.9c5.1,0.2,10.2,0,15.3,0.3
			c5.9,0.4,9.6,3.7,10.8,9.1c1.2,5.7-1,10.8-6.4,13.3c-2.4,1.1-1.2,2-0.4,3C448,324.6,451.4,329,455.3,333.9z M432.6,306.8
			c0,5.2,0,5.2,2.2,5.3c3.6,0.1,6.3-1.9,6.3-4.9s-2.5-5-6.2-5C430.5,302.2,433.6,305.6,432.6,306.8z"/>
		<path class="st2" d="M177.6,310.3c4.3-4.1,7.1-8.3,10-12.4c1.9-2.7,4-3.6,7.2-3.3c2.4,0.2,4.9,0,8,0c-4.9,5.9-9.3,11.3-13.9,16.6
			c-1.5,1.7-1.4,2.8,0,4.4c5.1,6,10,12,15.4,18.6c-4.5,0-8.3,0-12.2,0c-1.5,0-2-1.3-2.8-2.2c-3.7-4.7-7.3-9.4-11.8-13.9
			c0,4.4-0.2,8.8,0.1,13.2c0.1,2.6-0.8,3.1-3.1,3.1c-7.3,0-7.3,0.1-7.3-7.1c0-9.7,0.1-19.5,0-29.2c0-2.5,0.4-3.5,3.2-3.4
			c7.2,0.2,7.2,0,7.2,7.3C177.6,304.3,177.6,306.9,177.6,310.3z"/>
		<path class="st1" d="M47.7,314.1c0-5.6,0.1-11.2,0-16.8c-0.1-2.1,0.7-2.7,2.7-2.8c7.4-0.2,7.4-0.3,7.4,7c0,8.4,0,8.4,8.3,8.4
			c6.7,0,6.7,0,6.7-6.5c0-0.4,0-0.7,0-1.1c0-8.2,0-8.1,8.2-7.7c1.5,0.1,2.2,0.4,2.2,2.1c-0.1,11.9-0.1,23.7,0,35.6
			c0,1.4-0.4,2-1.9,2c-2-0.1-4-0.1-6,0c-1.9,0.1-2.6-0.5-2.6-2.5c0.1-3.7-0.1-7.5,0.1-11.2c0.1-2-0.4-3-2.7-2.8
			c-3.1,0.2-6.2,0.1-9.3,0c-2.2-0.1-3.1,0.6-3,3c0.2,3.7,0,7.5,0.1,11.2c0.1,1.8-0.5,2.3-2.3,2.4c-7.8,0.4-7.8,0.4-7.9-7.3
			C47.7,322.6,47.7,318.3,47.7,314.1z"/>
		<path class="st1" d="M107.4,294.7c4.9-1.6,6.5,1.2,7.9,5.2c3.6,10.3,7.5,20.5,11.5,30.7c1,2.6,1,4-2.3,3.5c-0.9-0.1-1.8-0.2-2.6,0
			c-3.5,0.6-5.7-0.5-6.3-4.3c-0.3-2-1.4-3-3.6-2.7c-1.7,0.2-3.5,0.2-5.2,0c-4.4-0.5-7.8,0-8.6,5.3c-0.3,1.8-1.8,1.7-3.2,1.7
			c-8.3,0-8.3,0.1-5.4-7.4c3.5-9,7.1-18,10.3-27.1C101.1,295.7,102.8,293.1,107.4,294.7z M107.4,306.5c-1.1,3.1-1.9,5.1-2.6,7.2
			c-2,6.2-2,6.2,4.6,5.8c0.1,0,0.2,0,0.4,0c1.4,0.1,1.8-0.4,1.3-1.8C110,314.3,108.9,311,107.4,306.5z"/>
		<path class="st1" d="M260.7,314.3c0-5.6,0.1-11.2,0-16.8c-0.1-2.2,0.3-3.1,2.8-3c5.5,0.2,11,0,16.4,0.3
			c6.6,0.5,10.6,4.9,10.8,11.5c0.3,8.6-2.7,12.9-9.9,14.1c-1.1,0.2-2.2,0.4-3.3,0.5c-6.6,0.4-6.6,0.3-6.7,7.2c0,5.9,0,5.6-5.9,6
			c-3.7,0.2-4.6-1-4.4-4.5C261,324.6,260.7,319.4,260.7,314.3z M270.6,307.5c1.3,1.7-2,5.5,2.9,5.3c4.8-0.1,6.6-1.3,6.7-5
			c0.1-3.9-2-5.4-7.2-5.3C268.8,302.5,271.9,306,270.6,307.5z"/>
		<path class="st2" d="M472.5,293.4c2-0.3,4,0.4,5.9,0.9c6.7,1.6,6.7,1.9,3.4,7.9c-0.9,1.6-1.6,2.2-3.2,1.1
			c-1.8-1.2-3.9-1.3-6.1-1.1c-1.7,0.2-2.8,1.2-3.1,2.8c-0.4,1.6,0.8,2.6,2.1,3.2c1.2,0.6,2.5,1.1,3.8,1.5c9.1,2.7,12,6.4,11,14.1
			c-0.9,6.9-6.9,11.6-15.1,11.6c-4.3,0-8.3-1.4-12.1-3.3c-1.5-0.8-2-1.7-0.9-3.2c0.2-0.3,0.4-0.6,0.5-1c2.5-4.7,2.5-4.7,7-2.4
			c2,1,4.1,1.1,6.2,1c2-0.1,3.4-1.1,3.8-3c0.5-2-0.7-3.4-2.4-4.1s-3.5-1.3-5.3-1.8c-7.1-2.1-9.9-5.7-9.3-11.9
			c0.7-6.7,5.6-11.6,12.2-12.1C471.3,293.3,471.9,293.4,472.5,293.4z"/>
		<path class="st2" d="M232.6,322.6c3.1,2.1,5.9,4.1,9.7,3.8c2.2-0.2,4-0.8,4.4-3.2c0.5-2.5-1.2-3.7-3.2-4.4
			c-1.7-0.7-3.6-1.1-5.3-1.6c-5.7-1.8-8.1-4.5-8.3-9.7c-0.3-6.3,2.4-10.7,7.5-12.9c5.8-2.5,11.2-1,16.6,1.1c1.3,0.5,1.7,1.3,1,2.6
			c-0.8,1.3-1.5,2.6-2.1,4c-0.7,1.6-1.5,2-3.1,1c-2-1.2-4.1-1.6-6.5-1c-1.5,0.3-2.6,1.1-2.8,2.6c-0.3,1.7,0.6,2.9,2.2,3.4
			c2.3,0.8,4.7,1.6,7,2.4c4.8,1.7,7.6,5.1,7.8,10.3c0.2,5.6-2.8,10.6-7.6,12.7c-7,3-13.6,1.7-20.1-1.8c-1.4-0.7-1.6-1.6-0.8-3
			C230.5,326.9,231.4,324.9,232.6,322.6z"/>
		<path class="st2" d="M29.9,293.3c4.5,0.1,7.7,1.1,10.9,2.3c1.9,0.7,2.1,1.7,1.1,3.3c-0.5,0.8-1.1,1.7-1.4,2.6
			c-0.8,2.4-2,3.1-4.2,1.4c-0.5-0.4-1.1-0.5-1.7-0.6c-2.7-0.5-5.8-0.8-6.7,2.2c-1,3.2,2.3,3.8,4.6,4.7c1.2,0.4,2.4,0.7,3.5,1.1
			c5.9,2.1,8.4,5,8.5,9.9c0.2,7.3-2.2,11.2-8.1,13.6c-6.7,2.7-12.9,1.2-19-1.9c-1.5-0.7-2.2-1.6-0.9-3.1c0.3-0.4,0.5-0.9,0.7-1.3
			c2.3-4.4,2.3-4.5,6.8-2.2c1.7,0.9,3.5,1,5.4,1c2.3,0,3.9-0.8,4.4-3.1c0.5-2.5-1.2-3.6-3.1-4.4c-1.6-0.6-3.3-1.1-5-1.6
			c-5.8-1.7-8.3-4.3-8.7-9.3c-0.5-5.6,2.2-10.7,6.9-13.1C26,293.7,28.4,293.1,29.9,293.3z"/>
		<path class="st1" d="M396.2,314.3c0-5.6,0.1-11.2-0.1-16.9c-0.1-2.3,0.5-3.1,2.9-3c5.6,0.2,11.2,0.2,16.8,0c2.4-0.1,3.1,0.7,2.9,3
			c-0.1,1.1-0.1,2.3,0,3.4c0.2,1.9-0.7,2.4-2.4,2.3c-2.6-0.1-5.2,0.1-7.9,0c-3-0.2-2.2,2-2.3,3.5c0,1.5-0.6,3.5,2.2,3.2
			c1.6-0.1,3.3,0.2,4.9-0.1c3.7-0.5,5.2,0.6,5,4.7c-0.1,3.3-0.9,4.5-4.2,4c-1.2-0.2-2.5,0.1-3.7-0.1c-3.6-0.6-4.5,1-4.2,4.4
			c0.1,2,0.6,3,2.8,2.8c1.6-0.2,3.2-0.1,4.9,0c1.6,0.1,3.9-0.8,4.6,0.5c1.1,2,0.5,4.6,0.4,7c0,1.3-1.2,1.1-2,1.1
			c-6.1,0-12.2-0.1-18.3,0c-2.1,0-2.1-1.1-2.1-2.6C396.2,325.8,396.2,320,396.2,314.3z"/>
		<path class="st1" d="M380.1,294.5c3.6,0,7.2,0.1,10.8,0c2-0.1,3.1,0.4,2.8,2.7c-0.1,1.1,0,2.2,0,3.4c0.1,1.8-0.4,2.6-2.5,2.6
			c-6.1,0.1-6.1,0.3-6.1,6.4c0,7.2-0.1,14.5,0.1,21.7c0,2.3-0.5,3-2.9,2.9c-7.4-0.1-7.4,0.1-7.4-7.4c0-6.9-0.1-13.7,0.1-20.6
			c0.1-2.5-0.7-3.5-3.2-3.1c-0.7,0.1-1.5-0.1-2.2,0c-2.4,0.4-3.5-0.5-3.2-3c0.1-0.9,0.1-1.8,0-2.6c-0.3-2.2,0.4-3.1,2.8-3
			C372.8,294.7,376.4,294.5,380.1,294.5L380.1,294.5z"/>
		<path class="st1" d="M345.4,318.3c0-4.1-0.1-8.2,0.1-12.4c0.1-2.3-0.6-3-2.9-2.9c-6.2,0.1-6.2-0.1-5.7-6.4
			c0.1-1.6,0.6-2.1,2.2-2.1c7.6,0.1,15.2,0.1,22.8,0c1.8,0,2.5,0.5,2.3,2.3c-0.1,1-0.1,2,0,3c0.4,2.7-0.7,3.7-3.3,3.3
			c-0.6-0.1-1.3,0.1-1.9,0c-3.1-0.6-3.7,1-3.6,3.7c0.2,8,0,16,0.1,24c0,2.6-0.6,3.4-3.3,3.4c-6.8-0.2-6.8,0-6.8-6.8
			C345.4,324.3,345.4,321.3,345.4,318.3z"/>
		<path class="st3" d="M88.5,343.6c-0.9,1.4-1.4,2.4-2.1,3.2c-2.4,2.7-3.8,5.7-3.2,9.5c0.2,1.5,0,2.7-2,2.7s-1.8-1.3-1.7-2.6
			c0.3-3.1-0.3-6-2.6-8.2c-1-0.9-1.5-3.5-2.9-2.5c-1.4,1.1-4.5,1.4-3.5,4.8c0.5,1.8,0.1,4,0.1,6c0,1.3,0.2,2.5-1.8,2.5
			c-2.1,0-2.1-1.2-2.1-2.7c0-2,0-4,0-6c0-1.7,0.4-3.6-2.4-3.4c-1.3,0.1-1.1-1.1-1.2-1.9c-0.1-1.3,0.7-1.4,1.7-1.4
			c4.1,0,8.9-1.3,12.2,0.4c3.6,1.8,5.7,2.8,8.5-0.3C85.8,343.2,87.1,343.6,88.5,343.6z"/>
		<path class="st3" d="M295.4,358.5c-4.7,2.4-5.6-2.1-8.3-4.3c-0.1,1.5-0.1,2.4-0.1,3.3c0,1.5-1,1.4-2,1.5c-1,0-1.8-0.1-1.8-1.4
			c0-4.2,0-8.5,0-12.7c0-0.3,0.2-0.7,0.4-1c1-0.9,8.2-0.2,9.3,1c2,2.3,2.1,4.8-0.4,6.8c-1.2,1-1.1,1.7-0.2,2.7
			C293.3,355.7,294.3,357,295.4,358.5z M290.2,348.4c-0.2-0.9-0.8-1.6-1.7-1.7c-1.5-0.1-1.4,1-1.4,2c0,0.8,0,1.5,1.1,1.5
			C289.4,350.2,289.9,349.4,290.2,348.4z"/>
		<path class="st3" d="M222.7,354c-0.1,1.5-0.2,2.5-0.2,3.4c0,1.5-0.9,1.5-2,1.5c-1.2,0-1.9-0.3-1.8-1.6c0-4,0-8,0-12
			c0-0.5,0.1-1,0.4-1.4c0.8-1,8.2-0.4,9.3,0.8c1.6,1.9,2.2,4.6,0.4,6.1c-2.6,2.2-1.2,3.4,0.2,5c0.6,0.7,1.1,1.6,1.7,2.4
			C227.3,359.2,227.3,359.2,222.7,354z M225.7,348.7c0-1.5-0.8-1.9-1.9-2.1c-1.6-0.2-1.3,1-1.4,2c-0.1,1.1,0.1,1.9,1.6,1.8
			C225.2,350.2,225.8,349.7,225.7,348.7z"/>
		<path class="st3" d="M33.1,343.7c1.8-0.4,2.4,0.7,2.9,2.1c1.3,3.5,2.6,7,3.9,10.4c0.3,0.9,1.3,1.9,0.1,2.6c-1,0.5-2.3,0.5-3.4-0.6
			c-2.5-2.7-4.9-2.7-7.2,0c-1.1,1.3-2.4,1.1-3.4,0.7c-1.3-0.5-0.4-1.7-0.1-2.5c1.4-3.6,2.8-7.1,4.1-10.7
			C30.6,344,31.5,343.3,33.1,343.7z M32.7,348.6c0,2.2-1.7,3.1-0.6,4.4c0.3,0.3,1.9,0.3,2,0C34.6,351.7,33.8,350.6,32.7,348.6z"/>
		<path class="st2" d="M310.2,351.1c0-1.9,0.1-3.7,0-5.6c-0.1-1.5,0.5-1.9,1.9-1.9c1.5,0,1.9,0.5,1.9,2c0,2-0.6,4.2,2.9,4.1
			c2.5-0.1,3.3-0.8,3.1-3.2c-0.1-1.2-0.7-2.8,1.7-2.9c2.5,0,2,1.6,2,3c0,3.2,0,6.5,0,9.7c0,1.5,0,2.7-2.1,2.6
			c-2-0.1-1.8-1.4-1.7-2.6c0.1-2.1,0.5-4.1-3-3.9c-2.6,0.2-3.2,1-3,3.3c0.1,1.2,1,3.2-1.7,3.2c-2.8,0.1-1.9-2-2-3.4
			C310.1,354.1,310.2,352.6,310.2,351.1z"/>
		<path class="st3" d="M281.7,358.8c-2.1,0.1-3.8,0.9-4.9-1.7c-0.6-1.5-5.1-1.1-6.3,0.2c-1.5,1.7-1.5,1.7-4.5,1.2
			c1.7-4.4,3.5-8.8,5-13.2c0.6-1.6,1.5-1.7,2.9-1.7s2.2,0.3,2.8,1.8C278.3,349.8,280,354.1,281.7,358.8z M276.4,351.1
			c0.2-1.2-0.5-1.4-1.5-1.5c-2-0.2-1.7,1.5-2,2.5s0.7,1.2,1.5,1C275.3,352.8,276.7,352.7,276.4,351.1z"/>
		<path class="st3" d="M20.2,343.5c-0.2,0,0.7,0,1.5,0.2c0.7,0.2,2,0.3,1.5,1.6c-0.3,0.9-0.4,2.4-2.2,1.6c-1-0.5-2.4-0.7-2.8,0.7
			c-0.4,1.6,1.3,1.6,2.2,1.9c2.1,0.8,3.9,1.6,3.9,4.3c0,2.1-0.6,3.9-2.7,4.9c-2.5,1.2-4.8,0.7-7.2-0.4c-1-0.5-1.1-1.3-0.5-2.2
			c0.5-0.7,0.7-1.7,1.9-0.9c0.3,0.2,0.7,0.3,1,0.5c1.2,0.6,2.6,0.8,3.2-0.7c0.7-1.7-1-2-2.1-2.4c-4.1-1.6-5.1-3.4-3.7-6.5
			C15.3,344,17,343.3,20.2,343.5z"/>
		<path class="st3" d="M249.4,343.4c0.3,0,1.1,0,1.8,0.2c0.8,0.3,2.3,0.3,1.7,1.8c-0.3,0.9-0.6,2.3-2.3,1.4c-1-0.5-2.5-0.6-2.9,0.7
			c-0.3,1.3,1.2,1.6,2.2,2c2.2,0.7,4.1,1.7,4.1,4.5c0,2.4-1.1,4-3.3,4.8c-2.5,1-4.8,0.4-7.1-0.9c-1.1-0.7-0.2-1.3,0-1.8
			c0.4-0.8,0.8-1.7,1.9-1c0.6,0.4,1.3,0.7,2,0.9c0.9,0.2,1.8-0.2,2.2-1.1c0.6-1.1-0.4-1.5-1.2-1.9c-0.4-0.2-0.9-0.4-1.4-0.5
			c-2.5-0.8-4.2-2.1-3.7-5.1C244,344.8,245.9,343.4,249.4,343.4z"/>
		<path class="st3" d="M232.3,351c0-0.4,0-0.7,0-1.1c0-6.6,0.7-7.2,7.3-6.3c1,0.1,1.7,0.2,1.6,1.5c-0.1,1.1-0.1,2-1.6,1.9
			c-0.5,0-1,0-1.5,0c-0.8,0.1-1.9,0-1.9,1.3c-0.1,1.3,0.9,1.2,1.8,1.3c1.1,0.1,2.6-0.5,2.6,1.6c0,2.2-1.6,1.5-2.6,1.5
			c-1.2,0.1-1.9,0.4-1.9,1.7c0,1.6,1.3,1.1,2.2,1.3c1.1,0.3,3-0.8,2.9,1.7c-0.1,2.3-1.7,1.6-2.9,1.6
			C232.3,359,232.3,358.9,232.3,351z"/>
		<path class="st3" d="M53.2,351.2c0-0.5,0-1,0-1.5c0-6.6,0.3-6.9,6.8-6.1c1.2,0.1,1.8,0.4,1.8,1.7c0,1.3-0.6,1.7-1.9,1.7
			c-1.1,0-2.9-0.7-2.9,1.3c0,2.1,1.8,1.1,2.9,1.2c1.1,0.1,1.5,0.5,1.5,1.6c0,1.4-0.6,1.6-1.8,1.6c-1.1,0-2.7-0.6-2.7,1.5
			c0,2.2,1.7,1.3,2.8,1.4c1.4,0,2.1,0.4,2,1.9c-0.1,1.3-0.8,1.7-2,1.5c-0.1,0-0.2,0-0.4,0C53.2,359.2,53.2,359.2,53.2,351.2z"/>
		<path class="st3" d="M307.6,347.9c-2.2-0.8-4.6-1.7-6.4,0.6c-1.3,1.6-1.3,3.6-0.2,5.2c1.8,2.6,4.3,1.8,6.7,0.7
			c0.3,4.4-1.1,5.6-5.1,4.7c-4.2-0.9-7.1-5.2-6.3-9.1c1.1-4.9,4.9-7.5,9.6-6.5C308,343.9,308,343.9,307.6,347.9z"/>
		<path class="st2" d="M256.2,351.2c0-0.5,0-1,0-1.5c0-6.5,0-6.5,6.4-6.2c1,0.1,2-0.1,2.1,1.4s-0.5,1.9-1.9,2c-1,0-2.5-0.6-2.6,1.2
			c-0.1,1.9,1.5,1.2,2.4,1.3c1.1,0.1,1.9,0.2,2,1.6c0.1,1.8-1.1,1.6-2.2,1.6s-2.3-0.2-2.3,1.6c0,1.9,1.4,1.4,2.4,1.4
			c1.1,0.1,2.3-0.1,2.3,1.6s-1.1,1.6-2.3,1.7C256.1,359.4,256.1,359.5,256.2,351.2z"/>
		<path class="st3" d="M42.1,351.3c0-0.5,0-1,0-1.5c0-6.8,0-6.8,6.9-6.3c1,0.1,2-0.2,2,1.4c0,1.5-0.6,1.9-2,2c-1,0.1-2.5-0.8-2.7,1
			c-0.2,2.2,1.6,1.4,2.6,1.4c1.2,0.1,1.5,0.6,1.4,1.6c0,1-0.3,1.8-1.5,1.6c-2.9-0.4-2.9,1.5-2.8,3.5c0.1,1.6,0,2.9-2.3,2.9
			c-2.2-0.1-1.8-1.5-1.8-2.8C42.1,354.6,42.1,353,42.1,351.3L42.1,351.3z"/>
		<path class="st4" d="M347.9,351.2c0-4.5,3.7-8,8.2-7.8c4.3,0.1,7.7,3.7,7.8,8c0,4.2-4.1,8-8.3,7.9
			C351.3,359.2,347.8,355.5,347.9,351.2z M362.1,351.3c0-3.4-2.7-6.2-6.1-6.3c-3.5-0.1-6.5,2.8-6.5,6.3c0,3.3,2.9,6.3,6.1,6.4
			C359,357.8,362.1,354.7,362.1,351.3z"/>
		<path class="st4" d="M192.2,351.2c0,4.6-3.4,8.2-7.9,8.1c-4.1,0-7.9-3.8-7.9-7.9c0-4.4,3.6-8.1,8.1-8
			C188.8,343.4,192.2,346.8,192.2,351.2z M190.6,351.1c-0.1-3.5-2.7-6.1-6.2-6.1c-3.6,0-6.4,2.8-6.2,6.4c0.1,3.4,2.9,6.2,6.2,6.2
			C187.8,357.7,190.7,354.6,190.6,351.1z"/>
		<path class="st4" d="M457.8,358.4c-4.1-2-5.7-5-4.9-8.8c0.8-3.6,4.1-6.2,7.8-6.2s6.8,2.5,7.7,6.2c0.9,3.8-0.6,6.8-4.7,8.9
			c-0.3-0.3-0.7-0.6-1-0.8c0.7-0.5,1.5-0.9,2.1-1.5c2.7-2.3,2.8-6.7,0.4-9.3c-2.3-2.5-6.5-2.4-9,0.2c-2.6,2.7-2.3,6.8,0.6,9.2
			c0.8,0.6,1.7,1.1,2.5,1.6C458.8,358,458.3,358.2,457.8,358.4z"/>
		<path class="st3" d="M108,350.9c0-0.6-0.2-1.3,0-1.9c0.6-1.8-1.5-4.5,1.3-5.4c3.1-1,7.4,0.8,8.8,3.4c1.6,2.8,1.6,5.7-0.1,8.5
			c-2,3.1-5.3,3.4-8.6,3.4c-1.4,0-1.5-1-1.5-2.1C108,354.9,108,352.9,108,350.9L108,350.9z M109.6,351.2c0,0.6-0.1,1.3,0,1.8
			c0.3,1.3-0.9,3.2,0.9,3.9c2,0.7,3.9,0,5.4-1.6c2.7-2.7,2.3-7.5-1-9.3c-1.4-0.7-3-1.6-4.6-0.9c-1.5,0.7-0.5,2.5-0.8,3.7
			C109.5,349.7,109.6,350.5,109.6,351.2z"/>
		<path class="st4" d="M402.8,358.5c-2.7,0.8-4.9,0.4-7,0.5c-1.1,0-1.4-0.7-1.4-1.7c0-4,0-7.9,0-11.9c0-1,0.2-1.8,1.4-1.7
			c2.1,0,4.3-0.4,6.9,0.4c-1.4,1.6-2.8,1.1-4,1.1c-1.8,0-2.8,0.3-2.7,2.4c0.1,2.2,1.2,2.4,2.8,2.4c1.1,0,2.2-0.4,3.4,0.5
			c-0.5,1-1.4,0.7-2.1,0.8c-2,0.1-4.2-0.7-4.2,2.9s2.1,3.2,4.4,3.2C401,357.3,401.7,357.3,402.8,358.5z"/>
		<path class="st3" d="M105.2,358.6c-2.3,0.8-4.4,0.4-6.5,0.4c-1.7,0-1.4-1.4-1.4-2.5c0-3.4,0.2-6.7-0.1-10.1c-0.2-2.4,0.8-3,3-2.8
			c1.5,0.2,3,0,5,0c-1.7,3-7.1-1-6.3,4.5c0.6,4.1,4.5,0.2,5.8,2.7c-1.5,1.6-6.1-1.9-5.9,3.8C99,359.9,103.3,356.1,105.2,358.6z"/>
		<path class="st4" d="M432.1,342.7c2.5,5.9,4.6,10.9,7.1,16.7c-3.4-1.3-3-5.3-7-5.2c-3.9,0.1-4.1,3.1-6.3,4.7
			C426.8,353.4,429.9,348.8,432.1,342.7z M429.9,352.6c1.6,0.2,3.4,0.8,3.7-0.3c0.5-1.5-0.5-3.1-1.8-4.4
			C431.2,349.5,430.6,350.8,429.9,352.6z"/>
		<path class="st4" d="M149,358.5c2.1-4.9,4.3-9.8,6.7-15.4c2.6,5.6,4.9,10.5,6.9,16.5c-3.2-1.5-2.8-5.3-6.8-5.3s-3.9,3.4-6,4.8
			C149.6,358.9,149.3,358.7,149,358.5z M155.7,347.8c-1.1,1.6-2.4,3.3-1.7,4.9c0.4,0.9,2.6,0.6,4,0
			C157.5,351,157.3,349.2,155.7,347.8z"/>
		<path class="st3" d="M405.3,358.8c0-4.5,0-9.1,0-13.6c0-1.4,0.9-1.5,2-1.5c2.2,0,4.4,0.2,5.4,2.5c0.7,1.6,0.8,3.8-0.9,4.7
			c-2.8,1.4-1.5,2.7-0.4,4.2c0.8,1.1,1.5,2.2,2.5,3.9c-3.8-0.9-3.9-4.6-6.4-6c-1.3,1.8,0.2,4.1-1,5.8
			C406,358.8,405.6,358.8,405.3,358.8z M406.8,347.8c0.5,1-0.9,3,1.6,2.8c1.5-0.1,2.9-0.6,2.9-2.6c0-2.1-1.3-2.8-3-2.9
			C406.1,345,407.1,346.8,406.8,347.8z"/>
		<path class="st4" d="M345.5,356.7c-0.3,2.3-2.3,2.4-3.8,2.5c-3.3,0.2-6.1-1.4-7.6-4.4c-1.6-3.1-1.1-6.1,1.1-8.7s5.2-3.3,8.5-2.4
			c0.8,0.2,2.4,0.5,1.8,1.8c-0.5,1.3-1.4,0-2.1-0.2c-3-0.9-5.4-0.2-7.2,2.3c-1.7,2.4-1.7,4.9,0.1,7.3c2,2.6,4.5,3.4,7.6,2.1
			C344.2,356.8,344.6,356.1,345.5,356.7z"/>
		<path class="st4" d="M387.4,343.3c0.5,0.1,1.3,0.2,1.9,0.5c0.7,0.4,2,0.7,1.5,1.8c-0.7,1.5-1.3,0-2-0.3c-1.4-0.4-2.8-0.7-3.6,0.8
			c-0.9,1.8,0.4,2.7,1.8,3.4c1.2,0.6,2.5,1.2,3.5,2c1.5,1.3,1.7,3,0.9,4.7c-0.9,1.9-2.5,2.8-4.5,2.8c-1.9,0-3.3-1.1-4.2-2.7
			c-0.2-0.4-0.2-1.1,0.1-1.3c0.6-0.6,1-0.1,1.4,0.5c1.2,1.9,2.7,2.7,4.6,1.2s1.7-3.2-0.2-4.6c-1.1-0.8-2.5-1.2-3.6-1.9
			c-1.6-0.9-2.2-2.3-1.7-4.1C383.8,344.3,385.3,343.5,387.4,343.3z"/>
		<path class="st4" d="M147.1,345.8c-3.5-1.3-6.7-1.6-9.2,1.6c-1.8,2.3-1.8,4.9-0.2,7.3c1.8,2.9,4.5,3.3,9.8,1.6
			c-1.3,2.9-3.5,3.2-5.8,2.8c-3.9-0.7-6.6-3.7-6.8-7.4c-0.2-3.8,1.9-7,5.4-8C142.9,343,145.5,342.9,147.1,345.8z"/>
		<path class="st4" d="M420.6,359.8c-2-5.3-3.8-9.8-5.5-14.3c-0.2-0.5-1-1.5,0.2-1.8c1.1-0.3,1.1,0.7,1.4,1.4c1.2,3,2.3,6,3.7,9.4
			c2.1-2.9,2.4-6,3.7-8.7c0.4-0.8,0.4-2.5,1.7-2c1.3,0.4,0.3,1.6,0,2.4C424.2,350.5,422.5,354.8,420.6,359.8z"/>
		<path class="st4" d="M437,344.7c3.8-1.4,6.7-1.4,10.4,0c-5.1-0.2-4.2,2.9-4.2,5.4c0,2.4,0,4.7,0,7.1c0,0.8-0.1,1.7-1,1.7
			c-1,0-0.9-1-0.9-1.7c0-2.4,0-4.7,0-7.1C441.2,347.6,442.2,344.4,437,344.7z"/>
		<path class="st4" d="M129,358.6c-3.1,1.7-5.7,0.2-6.7-2.4c-1.6-4-0.4-8.3,0-12.5c1.4,2.9,0.9,5.9,1,8.9c0.2,4.2,1.3,5.1,5.5,4.7
			C128.8,357.8,128.1,358.2,129,358.6z"/>
		<path class="st3" d="M480.1,352.6c0.9,0.4,1.3,2.2,2.6,1.5c0.9-0.5,0.3-1.8,0.4-2.8c0.2-2.5-0.4-5.1,1.1-7.5c0,5,0,9.9,0,15.3
			c-1.7-1.8-3.2-3.4-4.8-5.1C479.5,353.4,479.6,352.9,480.1,352.6z"/>
		<path class="st3" d="M474.5,348.7c-1.6-1.3-1.7-0.3-1.8,1.1c-0.2,3,0.6,6-1.2,8.9c0-4.9,0-9.8,0-15.3c1.5,2.1,3.7,3,4.3,5.3
			C475.4,348.7,475,348.7,474.5,348.7z"/>
		<path class="st3" d="M378.3,350.2c0-0.5,0-0.9,0-1.4c0-1.5,0-3,0.1-4.4c1.8-1.3,1.5,0.3,1.5,1.1c0,4.3,0,8.6,0,13.2
			c-2-0.5-2.6-2.2-3.7-3.3c0-0.5,0-1.1,0-1.6c0.3,0.3,0.5,0.5,0.8,0.8c1.4,0.5,1.4-0.4,1.3-1.3c0-0.5,0-0.9,0-1.4
			C378.3,351.3,378.3,350.8,378.3,350.2z"/>
		<path class="st2" d="M197.7,348.1c-2.1-0.2-1.3,1.4-1.3,2.3c-0.1,2.8,0,5.6,0,8.3c-0.4,0-0.7,0-1.1,0c0-4.8,0-9.7,0-14.8
			c1.3,0.6,2.4,1.9,3.3,3.2C198.3,347.5,198,347.8,197.7,348.1z"/>
		<path class="st3" d="M367.9,348.1c0,3.5,0,7.1,0,10.6c-0.4,0-0.7,0-1.1,0c0-4.9,0-9.7,0-14.8c1.3,0.7,2.2,2.1,3.3,3.3
			C369.7,348.4,368.2,346.6,367.9,348.1z"/>
		<path class="st3" d="M206.8,354.1c0-3.4,0-6.9,0-10.3c0.3,0,0.7,0,1,0c0,4.9,0,9.9,0,14.9c-1-0.4-1.7-1.4-2.4-2.4
			C205.2,355,206.6,354.9,206.8,354.1z"/>
		<path class="st3" d="M166.5,350.7c0,2.6,0,5.3,0,7.9c-1.8-2.2-1.2-4.6-1.2-6.9c0.6-1.6,0.3-3.2,0.1-4.8c-0.2-0.2-0.2-0.4,0-0.6
			c0.1-0.6-0.1-1-0.7-1.2c-1-0.2-2.2,0.5-3.7-1.2c3.4-0.4,6.3-0.4,9.4,0.3c-2.1,0.7-4.6,1-4,4.2
			C166.5,349.2,166.5,349.9,166.5,350.7z"/>
		<path class="st3" d="M449.9,343.8c0,5,0,9.9,0,14.9c-0.3,0-0.5,0-0.8,0c0-5,0-9.9,0-14.9C449.4,343.8,449.6,343.8,449.9,343.8z"/>
		<path class="st3" d="M173.1,359.4c-0.9-3.4-1-12.3-0.3-15.6C174.2,345.5,174.5,354.9,173.1,359.4z"/>
		<path class="st4" d="M206.8,354.1c-0.3,0.8-1.6,0.9-1.4,2.1c-2.6-2.7-5.1-5.3-7.7-8c0.3-0.3,0.6-0.6,0.9-0.9
			c1.7,1.6,3.3,3.3,5,4.9C204.5,353,205.1,354.4,206.8,354.1z"/>
		<path class="st4" d="M367.9,348.1c0.3-1.5,1.8,0.2,2.2-0.9c2.3,2,4.4,4,6.1,6.5c0,0.5,0,1.1,0,1.6
			C372.9,353.5,371.6,349.5,367.9,348.1z"/>
		<path class="st4" d="M474.5,348.7c0.4,0,0.9,0,1.3,0c2.1,0.5,3,2.4,4.3,3.8c-0.6,0.3-0.6,0.8-0.7,1.4
			C477.8,352.2,476.2,350.5,474.5,348.7z"/>
		<path class="st3" d="M132.5,344.3c0,2.5,0,5,0,7.4c-0.4,0-0.9,0-1.3,0c0-0.5,0-1,0-1.5s0-1.1,0-1.6c0-1.5,0.1-3,0.1-4.4
			C131.7,344.3,132.1,344.3,132.5,344.3z"/>
		<path class="st3" d="M457.8,358.4c0.5-0.2,1-0.5,1.5-0.7c1.1-0.1,2.2-0.1,3.4-0.2c0.3,0.3,0.7,0.6,1,0.8
			C461.7,359.4,459.7,359.6,457.8,358.4z"/>
		<path class="st4" d="M132.4,354.8c-0.1,1.4-0.5,2.5-1.9,3.1c-0.3-0.3-0.6-0.6-0.9-0.8c0.5-0.8,1-1.5,1.4-2.3
			C131.5,354.8,132,354.8,132.4,354.8z"/>
		<path class="st4" d="M165.5,346.9c0.2,1.6,0.5,3.2-0.1,4.8C165,350.1,164.8,348.4,165.5,346.9z"/>
		<path class="st4" d="M131.2,351.8c0.4,0,0.9,0,1.3,0c0,0.5,0,1,0,1.6c-0.4,0-0.9,0-1.3,0C131.2,352.8,131.2,352.3,131.2,351.8z"/>
		<path class="st4" d="M378.4,344.4c0,1.5,0,3-0.1,4.4C378,347.3,378,345.9,378.4,344.4z"/>
		<path class="st3" d="M131.2,353.3c0.4,0,0.9,0,1.3,0c0,0.5,0,1,0,1.4c-0.5,0-0.9,0-1.4,0C131.1,354.3,131.1,353.8,131.2,353.3z"/>
		<path class="st3" d="M129.6,357c0.3,0.3,0.6,0.6,0.9,0.8l0,0c-0.3,0.2-0.5,0.3-0.8,0.5c-0.2,0.2-0.4,0.3-0.7,0.2
			c-0.9-0.3-0.2-0.8-0.1-1.2C129.1,357.2,129.4,357.1,129.6,357z"/>
		<path class="st4" d="M378.3,353.2c0.1,1,0.1,1.8-1.3,1.3C377.9,354.6,378.1,354,378.3,353.2z"/>
		<path class="st4" d="M166.5,350.7c0-0.7,0-1.5,0-2.2C166.8,349.2,166.8,349.9,166.5,350.7z"/>
		<path class="st4" d="M378.3,350.2c0,0.5,0,1.1,0,1.6C378.3,351.3,378.3,350.8,378.3,350.2z"/>
		<path class="st4" d="M132.5,344.3c-0.4,0-0.8,0-1.3,0C131.7,343.3,132.1,343.2,132.5,344.3z"/>
		<path class="st4" d="M131.2,348.7c0,0.5,0,1.1,0,1.6C131.2,349.8,131.2,349.3,131.2,348.7z"/>
		<path class="st4" d="M164.8,345.1c0.5,0.2,0.7,0.6,0.7,1.2C165.2,345.9,165,345.5,164.8,345.1z"/>
		<path class="st4" d="M129.7,358.3c0.3-0.2,0.5-0.3,0.8-0.5C130.2,358,130,358.2,129.7,358.3z"/>
		<path class="st0" d="M307.1,314.1c0.1-4.7,3.7-8.2,8.3-8c4.3,0.1,8.1,3.9,8.2,8.1c0.1,4.5-4,8.5-8.6,8.5
			C310.5,322.5,307,318.9,307.1,314.1z"/>
	</g>
</g>
</svg>
