<?xml version="1.0" encoding="utf-8"?>
<!-- Generator: Adobe Illustrator 24.1.0, SVG Export Plug-In . SVG Version: 6.00 Build 0)  -->
<svg version="1.1" id="Layer_1" xmlns="http://www.w3.org/2000/svg" xmlns:xlink="http://www.w3.org/1999/xlink" x="0px" y="0px"
	 viewBox="0 0 750 750" style="enable-background:new 0 0 750 750;" xml:space="preserve">
<style type="text/css">
	.st0{fill:#404B3A;}
	.st1{fill:#BB762D;}
	.st2{fill:#FEFEFE;}
</style>
<g>
	<g>
		<path class="st0" d="M290.2,327.9c-2.7,6.4-2.2,13-5.4,19.7c-1.3-3.9,0.3-6.8,0.5-9.7c0.7-9.6,1.8-19.1,3.9-28.5
			c0.3-1.1,0.5-2.4,1.2-3.3c10.4-13.8,21.7-26.6,39.2-31.3c8-2.1,16,0.1,23.3,2.9c10.8,4,21.6,3,32.5,2.5c2.8-0.1,4.2-1.7,5.5-4.1
			c4.9-9.3,11.7-16,23.2-16c4.4,0,8.1,1.4,11.6,3.7c8.4,5.4,17.2,9.9,26.4,13.7c2.6,1.1,5.1,2.2,6.8,4.7c11,16,21.5,32,25.7,51.6
			c1.7,8.1,2.4,16.1,2.9,24.2c0.3,3.9,1.7,5.6,5.4,6.3c2.8,0.5,5.8,0.6,9.5,2.6c-5.4,1.1-9.5,0.6-13.9-0.4c-0.7,6.1,1.5,11,5.6,15.2
			c1.2,1.2,2.8,2.2,1.6,4.2c-1.1,2-2.8,3.4-5.1,3.7c-2.1,0.2-2.9-1.6-3.3-3.2c-2.4-7.9-8.9-14.1-9.3-22.8c0-0.7-0.8-1.5-1.4-1.9
			c-9.3-6.1-14.4-15.4-19.6-24.7c-1.6-2.9-3.7-4.8-7-5.5c-3.4-0.8-6.7-1.9-9.9-3.2c-2.3-0.9-4.3-1-6.7-0.1
			c-8.9,3.2-9.5,4.4-7.4,13.5c2.6,11.8,6.3,23.3,8.5,35.2c1.2,6.5,5.4,11.9,7.9,18c0.5,1.2,1.4,2.3,1.8,3.5
			c1.4,5.8,4.3,9.8,10.7,10.8c3.9,0.6,4,3.5,2.9,6.5c-1.5,4-11.9,10.7-16.1,10.6c-4.1-0.1-7.2-3-7.2-8.5c0.1-5.8-2.6-9.7-6.3-13.4
			c-4.8-4.9-7.6-11.3-11.6-16.8c-0.8-1.1-1.5-2.2-2.1-3.4c-1.7-2.8-4.1-6.2-6.7-6.1c-2.4,0.1-2.8,4.7-4.1,7.3
			c-3.4,6.5-3.9,13.9-6.8,20.6c-1.7,4-1.1,8.4,1.7,12.3c1.2,1.7,2.6,3.6,1.3,5.9s-3.4,2.3-5.7,2.2c-5.3-0.2-10.7,0.8-15.8-1.3
			c-4.3-1.7-5.8-5.6-2.9-9.1c2.7-3.3,3.9-6.8,4.4-10.8c1.7-13.3,4.7-26.4,3.4-40c-0.4-4.1-1.7-4.9-5.1-3.4c-8.6,3.9-17.8,5.1-27,6.4
			c-3.9,0.5-7.5,1.1-10.4,4.2c-0.8,0.9-1.8,1.2-3.1,0.6c-4.4-2-5.2,0.6-5.3,4.2c0,7.2-0.1,14.3,4.6,20.5c0.8,1.1,1.1,2.8,1.3,4.2
			c0.5,4.6,2.5,8.1,6.6,10.4c2.8,1.6,4.6,3.9,3.4,7.4c-1.2,3.4-4,4-6.9,3.7c-5.7-0.4-11.3,0.8-16.9,1c-5.5,0.1-7.6-2.4-5.6-7.4
			c2.7-6.8,3.1-13.4-0.2-20.2c-2.2-4.6-3.3-9.7-5.5-14.3c-3.1-6.5-5.4-6.3-10.1-1.2c-5.4,5.9-8,13.2-11.9,19.9
			c-2.7,4.7-3.7,9.7-2,15.3c1.4,4.6-2.7,8.6-7.7,7.2c-7.1-2-13.3-6.1-17.6-12.3c-2-2.9-1.7-5.4,1.3-8.6c7.4-7.8,15-15.5,19.7-25.4
			c2.7-5.7,1.9-11.7,2.9-17.5c1.3-7.7,3.9-15.1,5-22.8C293.1,333.8,292.6,331,290.2,327.9z M476,355.5L476,355.5L476,355.5
			c-0.1-1.4,0.1-2.7,0-4c-0.4-7.2-3-13.5-7.5-19c-1-1.3-2.4-2.5-4.2-1.7c-2.3,1-0.5,2.7-0.1,3.7C467.6,341.8,470.8,349.2,476,355.5z
			"/>
		<path class="st1" d="M594.7,428.2c-7.8-108.4-86.5-187.1-178.7-202.7c-63.7-10.8-121.5,3.9-171.9,44.4
			c-50.3,40.4-75.9,94.1-82.2,157.8c-4.3-128.3,101.9-227,224.6-222.1C518,210.9,602,323.2,594.7,428.2z"/>
		<path class="st1" d="M176,533.5c-39,0-77.9,0-116.9,0c-1.3,0-2.7,0-4,0c-1.4-0.1-2.8-0.2-2.9-2c-0.1-2.2,1.4-2.3,3-2.4
			c1,0,2,0,3,0c78.4,0,156.8,0,235.2,0.1c2.2,0,6.2-1.4,6.3,1.9c0.1,3.9-4.1,2.4-6.4,2.4C254.3,533.6,215.1,533.5,176,533.5z"/>
		<path class="st1" d="M569.6,529.1c38.6,0,77.3,0,115.9,0c1.5,0,3,0,4.5,0.1c1.1,0,1.9,0.5,2,1.7c0.1,1.4-0.5,2.3-1.8,2.5
			c-1.3,0.1-2.7,0.1-4,0.1c-78.1,0-156.2,0-234.3,0c-1,0-2,0-3,0c-1.4-0.1-2.7-0.3-2.8-2.1c-0.1-1.8,1.2-2.2,2.6-2.2
			c1.3,0,2.7,0,4,0C491.7,529.1,530.7,529.1,569.6,529.1z"/>
		<path class="st0" d="M65.9,469.4c-3.3,8.4-6.1,15.9-9.2,23.3c-0.5,1.3-0.6,3.4-2.5,3.2c-1.9-0.1-1.8-2.1-2.2-3.5
			c-3.1-10.9-6.2-21.9-9.3-32.8c-0.4-1.6-1.9-3.8,0.9-4.3c2.3-0.4,5.3-1.2,6.2,2.8c1.5,6.6,3.4,13.1,5.5,20.9c3-7.6,5.4-14.1,8-20.5
			c0.5-1.2,0.4-3.1,2.4-3.3c2.4-0.2,2.4,1.9,3,3.3c2.6,6.5,5.1,13,8,20.4c1.9-7.1,3.9-13.3,5.1-19.6c0.7-3.8,2.7-4.3,5.9-4.1
			c2,0.1,2.8,0.7,2.2,2.7c-3.4,11.9-6.8,23.8-10.3,35.7c-0.3,1-0.4,2.5-2.1,2.4c-1.5-0.1-1.7-1.6-2.1-2.5
			c-2.5-6.1-4.9-12.3-7.3-18.4C67.7,473.4,66.9,471.8,65.9,469.4z"/>
		<path class="st0" d="M381.3,474.5c-0.8,5.7-1.8,11.4-2.4,17.1c-0.4,4.3-3.4,3.9-6.1,3.5c-3.6-0.4-1.6-3.2-1.4-4.7
			c1.7-10.5,3.7-20.9,5.6-31.3c0.3-1.5-0.1-3.6,2.2-3.9c2.4-0.3,2.2,2.1,2.8,3.4c3.8,7.7,7.4,15.5,11.3,23.6c4-8.3,7.7-16.2,11.4-24
			c0.6-1.3,0.7-3.1,2.8-3c2.4,0.1,1.7,2.3,1.9,3.4c2.2,11.4,4,22.8,6.1,34.1c0.3,1.8-0.1,2.7-1.8,2.4c-2.1-0.4-5.2,1.7-5.8-2.6
			c-0.8-6.1-1.8-12.1-3.6-18.3c-2.7,6.1-5.5,12.1-8.3,18.1c-0.7,1.4-0.8,3.6-2.9,3.5c-1.8-0.1-2-2-2.6-3.3
			c-2.9-6.1-5.6-12.2-8.4-18.3C382,474.4,381.6,474.4,381.3,474.5z"/>
		<path class="st0" d="M694.7,479c1.9-7.1,3.9-13.3,5.1-19.5c0.7-3.7,2.4-4.5,5.7-4.3c2.4,0.2,2.9,1,2.3,3.1
			c-3.3,11.7-6.6,23.5-10,35.2c-0.3,1-0.5,2.5-2,2.6c-1.8,0.1-2-1.6-2.4-2.8c-3.1-7.6-6-15.2-9.5-24c-3.3,8.5-6.1,15.7-9,23
			c-0.6,1.4-0.6,3.8-2.7,3.8c-2.1,0-1.9-2.3-2.4-3.8c-3.1-10.9-6.3-21.9-9.4-32.8c-0.4-1.4-1.6-3.6,1-3.9c2.1-0.2,5.1-1.7,6.1,2.2
			c1.4,5.6,3,11.2,4.5,16.8c0.3,1.2,0.8,2.5,1.4,4.2c2.8-7.2,5.2-13.8,7.9-20.3c0.5-1.2,0.5-3.1,2.7-3.1s2.1,1.9,2.6,3.1
			C689.3,464.8,691.8,471.4,694.7,479z"/>
		<path class="st0" d="M621.1,455.1c9.6-1.1,20.6,8,20.6,20.4c0,11.1-9.7,20.7-20.8,20.5c-11.1-0.1-20.7-9.8-20.6-20.8
			C600.4,463.8,609.3,455.1,621.1,455.1z M608.1,475.3c0,7.3,5.5,12.9,12.7,12.9c7.4,0.1,13.4-5.8,13.3-13
			c-0.1-6.9-6.2-12.9-13.1-12.9C613.8,462.4,608.1,468.1,608.1,475.3z"/>
		<path class="st0" d="M351.1,475.6c0,11.2-9.4,20.6-20.6,20.5c-11.2-0.1-20.3-9.5-20.5-20.7c-0.2-10.5,9.1-20.9,20.9-20.4
			C342.6,455.5,351.2,463.8,351.1,475.6z M330.8,488.3c7.2-0.1,12.9-5.8,12.8-13c-0.1-7.1-6.1-13-13.1-12.9
			c-6.9,0.1-13.1,6.3-13,13.2C317.6,482.4,323.8,488.3,330.8,488.3z"/>
		<path class="st0" d="M455.4,455.1c12,0,20.7,8.6,20.7,20.5c0,11.2-9.5,20.6-20.7,20.5s-20.4-9.5-20.4-20.7
			C435.1,463.8,443.8,455.1,455.4,455.1z M468.5,475.3c-0.1-7.1-6-13-13-13c-6.9,0.1-13.2,6.4-13.1,13.1c0.1,6.9,6.3,12.8,13.3,12.8
			C463,488.2,468.6,482.5,468.5,475.3z"/>
		<path class="st0" d="M498.1,475.3c0-5.6,0-11.3,0-16.9c0-1.5-0.3-3.2,2-3.1c6.3,0.3,12.6-0.9,18.8,0.7c5.1,1.3,7.9,4.7,8.9,9.6
			s-0.9,9-5,11.6c-2.9,1.8-2.9,3.3-1.3,5.8c1.5,2.3,2.9,4.8,4,7.4c0.6,1.4,3.1,3.8,0.9,4.5c-2.2,0.7-5.9,2.2-7.8-1.5
			c-1.8-3.5-3.9-7-5.3-10.6c-1.2-3.1-3.5-3.2-6-2.8c-2.8,0.5-1.5,2.9-1.7,4.5c-0.2,2.1-0.1,4.3,0,6.5c0.1,2.8-0.1,4.5-3.9,4.6
			c-4,0.1-3.7-2-3.6-4.6C498.2,485.6,498.1,480.5,498.1,475.3z M511.6,473.3c1,0,1.7,0,2.3,0c3.7,0.2,6.2-1.2,6.3-5.3
			c0-3.9-2.3-5.6-6-5.7c-2-0.1-4,0-6,0c-0.9,0-2.3-0.2-2.3,1.2c-0.1,3-0.7,6.2,0.2,8.9C506.9,474.5,510,472.8,511.6,473.3z"/>
		<path class="st0" d="M187.2,475.1c0-5.5,0.1-11,0-16.5c-0.1-2.4,0.4-3.7,3.2-3.5c5.4,0.5,10.9-0.6,16.3,0.9
			c9.7,2.8,16.1,11.7,14.9,21.3c-1.3,10.5-9.5,17.8-20,17.8c-4.6,0-10.8,1.6-13.5-0.7c-3.1-2.7-0.7-9.1-1-13.8
			C187.1,478.8,187.2,477,187.2,475.1z M194.3,475.2c0,2.2,0,4.3,0,6.5c0,6.8,0,6.8,7,6.6c7.3-0.3,12.4-5.5,12.5-12.7
			c0.1-6.8-4.9-12.4-11.8-13.1c-7.8-0.8-7.8-0.8-7.8,6.8C194.3,471.2,194.3,473.2,194.3,475.2z"/>
		<path class="st0" d="M551.1,475.3c0-5.7,0-11.3,0-17c0-1.2-0.5-3.1,1.5-3c6.4,0.3,12.9-1,19.3,0.7c5.3,1.4,8,5.2,8.9,10.2
			c0.8,4.5-1.2,8.4-4.9,10.7c-3.3,2.1-3.1,3.9-1.2,6.6c1.4,2,2.5,4.3,3.5,6.6c0.6,1.5,3.4,3.8,0.7,4.7c-2.2,0.8-5.9,1.9-7.8-1.9
			c-1.6-3.5-3.7-6.7-5-10.3c-1.2-3.1-3.4-3.2-6-2.9c-2.9,0.4-1.7,2.8-1.8,4.4c-0.2,2.2-0.1,4.3,0,6.5c0.1,2.6,0.4,4.7-3.7,4.7
			c-4,0-3.7-2-3.6-4.6C551.1,485.6,551.1,480.5,551.1,475.3z M564.5,473.3c0.4,0,0.6,0,0.8,0c3.2,0.1,6.5,0.2,7.7-3.6
			c0.8-2.6,0.3-5.1-2.4-6.4c-3.7-1.9-7.7-1.1-11.6-0.6c-0.2,0-0.4,0.5-0.4,0.8c0,3-0.6,6.2,0.3,8.8
			C559.6,474.5,562.7,472.8,564.5,473.3z"/>
		<path class="st0" d="M143.2,475.3c0-5.5,0.1-11,0-16.5c-0.1-2.9,1.1-3.7,3.8-3.7c2.9,0,4.2,0.7,4.2,3.9c-0.2,8.6,0,17.3-0.1,25.9
			c0,2.6,0.7,3.6,3.3,3.4c2.8-0.2,5.7,0.1,8.5-0.1c2.6-0.2,4,0.5,4,3.5s-1.2,3.6-3.9,3.5c-5.5-0.2-11-0.2-16.5,0
			c-2.7,0.1-3.4-0.9-3.4-3.5C143.3,486.3,143.2,480.8,143.2,475.3z"/>
		<path class="st0" d="M275.9,478.6c0-3.7-0.3-7.4,0.1-11c0.5-4.4-1-6.1-5.4-5.4c-2.6,0.4-4.9,0.4-4.6-3.6c0.2-2.5,0.7-3.5,3.4-3.4
			c6.8,0.2,13.7,0.2,20.5,0c3.3-0.1,3.2,1.6,3.4,4c0.2,2.9-1.2,3.5-3.6,3.1c-5.5-1-7,1.2-6.6,6.6c0.5,7.5,0,15,0.2,22.5
			c0.1,2.9-0.4,4-3.7,4c-3.5,0-3.7-1.6-3.6-4.2C276,487,275.9,482.8,275.9,478.6z"/>
		<path class="st0" d="M119,475.2c0,5.5-0.2,11,0.1,16.4c0.1,3.5-1.7,3.5-4.3,3.6c-3,0.1-3.6-1-3.6-3.7c0.1-10.8,0.1-21.6,0-32.4
			c0-3,0.8-4.1,3.9-4.1c3.2,0,4,1.3,3.9,4.2C118.9,464.6,119,469.9,119,475.2z"/>
		<path class="st0" d="M416.1,532.1c0-0.5-0.1-1,0-1.5c1-2.8-2.5-7.2,1.9-8.6c6.8-2.1,13.4,0.8,15.9,6c2,4.2,0.7,9.6-2.9,12.5
			c-4,3.2-8.7,2.7-13.3,2.6c-1.7-0.1-1.5-1.4-1.5-2.5C416.1,537.8,416.1,535,416.1,532.1z M419.7,532c2,2.2-2.9,7.3,3.7,7.2
			c4.5-0.1,7.2-2.7,7.1-7c-0.1-4.1-3-6.8-7.5-6.7C417.2,525.5,421.7,530.1,419.7,532z"/>
		<path class="st0" d="M394.2,534.7c0-4.1,0-6.9,0-9.8c0-1.6-0.1-3,2.2-3c2.1,0,1.8,1.5,1.8,2.8c0,6.1,0,12.2,0,19.9
			c-5-5.5-9.1-9.9-14-15.3c0,4.4,0,7.6,0,10.8c0,1.3,0.6,3.2-1.9,3.1c-1.9-0.1-2-1.3-2-2.7c0-5.6,0-11.3,0-16.9
			c0-0.8-0.2-1.8,0.8-2.1c1-0.3,1.5,0.6,2,1.1C386.5,526.3,390,530.1,394.2,534.7z"/>
		<path class="st0" d="M316.5,532.4c0-0.3,0-0.7,0-1c0-10.2,1.3-11.2,11.7-9.6c1.1,0.2,1.9,0.2,2,1.5c0.1,1.6-0.7,2-2.1,2
			c-1.5,0-3,0.1-4.5,0c-2.2-0.2-2.9,0.9-2.8,3c0,1.8,0.6,2.9,2.6,2.7c0.2,0,0.3,0,0.5,0c1.7,0.6,5.1-1.6,5,2
			c-0.1,2.8-3.2,1.8-4.9,1.7c-3.4-0.2-3.1,1.9-3.2,4.1c-0.1,1.7,1.1,4.5-2.3,4.3c-3-0.2-1.8-2.7-1.9-4.2
			C316.4,536.8,316.5,534.6,316.5,532.4z"/>
		<path class="st0" d="M363.1,530.3c0,1.8,0.2,3.7,0,5.5c-0.5,4.8-3.8,7.5-8.8,7.4c-4.7-0.1-7.8-2.9-8.1-7.6
			c-0.2-3.8,0-7.6-0.1-11.5c0-1.3,0.2-2.2,1.8-2.3c1.8-0.1,2.2,0.9,2.2,2.4c-0.1,3.2,0,6.3,0,9.5c0,3,0.8,5.3,4.3,5.4
			c3.8,0.1,4.7-2.4,4.7-5.6c0-3,0-6,0-9c0-1.3-0.3-2.7,1.8-2.8c2.3-0.1,2.2,1.4,2.2,3C363.1,526.7,363.1,528.5,363.1,530.3
			L363.1,530.3z"/>
		<path class="st2" d="M475.9,355.4h0.2l-0.1,0.1C476,355.5,475.9,355.4,475.9,355.4z"/>
	</g>
</g>
</svg>
