<?xml version="1.0" encoding="utf-8"?>
<!-- Generator: Adobe Illustrator 24.1.0, SVG Export Plug-In . SVG Version: 6.00 Build 0)  -->
<svg version="1.1" id="Layer_1" xmlns="http://www.w3.org/2000/svg" xmlns:xlink="http://www.w3.org/1999/xlink" x="0px" y="0px"
	 viewBox="0 0 1536.4 1536.4" style="enable-background:new 0 0 1536.4 1536.4;" xml:space="preserve">
<path d="M394.2,1224.2c-5.3,6-12,5-20-3c-8.7-7.3-10-13.7-4-19c5.3-6,12-5,20,3C398.2,1212.5,399.5,1218.9,394.2,1224.2z
	 M352.2,1163.2c6,8,6,14.3,0,19c-5.3,4-11,1.7-17-7s-6-14.7,0-18C341.2,1152.5,346.9,1154.5,352.2,1163.2z M291.2,1103.2
	c-3.3,4.7-7.7,5.3-13,2c-6.7-3.3-9-7.3-7-12c2-3.3,6.3-4,13-2C290.9,1094.5,293.2,1098.5,291.2,1103.2z M322.2,1137.2
	c-4,4.7-9.3,3.7-16-3c-6-7.3-6.7-12.7-2-16c4-4,9.3-3,16,3C326.2,1128.5,326.9,1133.9,322.2,1137.2z M451.2,1249.2c-2.7,8-9,10-19,6
	c-11.3-2.7-15.7-7.7-13-15s9-9.7,19-7C448.9,1236.5,453.2,1241.9,451.2,1249.2z M514.2,1254.2c0,7.3-5.3,11-16,11
	c-11.3,1.3-17-2.3-17-11c0-7.3,5.3-11,16-11C508.5,1241.9,514.2,1245.5,514.2,1254.2z M572.2,1244.2c1.3,6.7-3.3,11.3-14,14
	s-16.7,0-18-8s3.3-13,14-15C564.9,1233.9,570.9,1236.9,572.2,1244.2z M1536.2,288.2v960c0,79.3-28.2,147.2-84.5,203.5
	s-124.2,84.5-203.5,84.5h-224c-10.7,0-18.8-0.3-24.5-1s-12.2-2.3-19.5-5s-12.7-7.5-16-14.5s-5-16.2-5-27.5v-239
	c0-64.7-17.3-112-52-142c38-4,72.2-10,102.5-18s61.7-21,94-39s59.3-40.2,81-66.5s39.3-61.3,53-105c13.7-43.7,20.5-93.8,20.5-150.5
	c0-80.7-26.3-149.3-79-206c24.7-60.7,22-128.7-8-204c-18.7-6-45.7-2.3-81,11s-66,28-92,44l-38,24c-62-17.3-126-26-192-26
	s-130,8.7-192,26c-10.7-7.3-24.8-16.3-42.5-27s-45.5-23.5-83.5-38.5s-66.7-19.5-86-13.5c-29.3,75.3-31.7,143.3-7,204
	c-52.7,56.7-79,125.3-79,206c0,56.7,6.8,106.7,20.5,150c13.7,43.3,31.2,78.3,52.5,105s48.2,49,80.5,67s63.7,31,94,39
	s64.5,14,102.5,18c-26.7,24-43,58.3-49,103c-14,6.7-29,11.7-45,15s-35,5-57,5s-43.8-7.2-65.5-21.5s-40.2-35.2-55.5-62.5
	c-12.7-21.3-28.8-38.7-48.5-52s-36.2-21.3-49.5-24l-20-3c-14,0-23.7,1.5-29,4.5s-7,6.8-5,11.5s5,9.3,9,14s8.3,8.7,13,12l7,5
	c14.7,6.7,29.2,19.3,43.5,38s24.8,35.7,31.5,51l10,23c8.7,25.3,23.3,45.8,44,61.5s43,25.7,67,30s47.2,6.7,69.5,7s40.8-0.8,55.5-3.5
	l23-4c0,25.3,0.2,59.7,0.5,103s0.5,66,0.5,68c0,14.7-3.7,25.8-11,33.5s-14.7,12-22,13s-18.3,1.5-33,1.5h-224
	c-79.3,0-147.2-28.2-203.5-84.5S0.2,1327.5,0.2,1248.2v-960c0-79.3,28.2-147.2,84.5-203.5S208.9,0.2,288.2,0.2h960
	c79.3,0,147.2,28.2,203.5,84.5S1536.2,208.9,1536.2,288.2z"/>
</svg>
