<?xml version="1.0" encoding="utf-8"?>
<!-- Generator: Adobe Illustrator 24.1.0, SVG Export Plug-In . SVG Version: 6.00 Build 0)  -->
<svg version="1.1" id="Layer_1" xmlns="http://www.w3.org/2000/svg" xmlns:xlink="http://www.w3.org/1999/xlink" x="0px" y="0px"
	 viewBox="0 0 1325 260.8" style="enable-background:new 0 0 1325 260.8;" xml:space="preserve">
<style type="text/css">
	.st0{fill:#7A7A7A;}
	.st1{fill:#414042;}
</style>
<g>
	<g>
		<path class="st0" d="M229.5,2.5c6.9,2.8,13.6,5.7,18.6,11.7c11.4,13.7,10.4,34.1-2.5,46.1c-13.2,12.3-33.3,12.3-46.1-0.4
			c-8.1-8-17.3-12.2-28.8-10.5c-6.8,1-12.6,4.1-17.5,8.9c-15.3,14.9-34.4,14.9-49.7,0.2C91,46.6,73.3,45.7,60.9,56.4
			c-14.8,12.8-17.7,30.7-7.3,45.4c1.3,1.9,2.8,3.7,4.4,5.5c12.8,15,12.4,33-1,47.2c-14.8,15.7-12.1,39.1,5.9,51.2
			c11.1,7.5,25.1,7.5,36.1-0.2c2.5-1.7,4.7-3.7,7-5.6c11.3-9.5,25.6-11.1,38.2-4.4c11.7,6.2,18.6,19.4,17.2,33
			c-1.3,13.6-10.9,24.7-24.8,28.8c-0.8,0.2-1.4,0.7-2.2,1c-4,0-8,0-12,0c-8.4-2.3-15-7.1-21.4-12.9c-11.2-10.2-28.9-10.3-40.1,0.1
			c-6.4,5.9-13.1,10.5-21.5,12.9c-3.7,0-7.3,0-11,0c-2.8-1-5.7-1.8-8.4-3c-11-4.8-16.6-13.9-19.6-24.9c0-4.3,0-8.7,0-13
			c3.3-8.2,8.9-14.8,14.4-21.7c8.1-10,8.2-25.2,0.5-35.4c-5.3-7.1-11.5-13.5-14.9-21.9c0-4.7,0-9.3,0-14c2.4-8.1,7-14.6,12.7-20.9
			C23.5,92,23.5,74.4,13.2,63.1C7.3,56.7,2.7,49.9,0.4,41.6c0-4.3,0-8.7,0-13c1.9-1.4,1.8-3.8,2.6-5.7C7.9,11.6,16.9,5.6,28.4,2.6
			c3.7,0,7.3,0,11,0C46.6,4.8,53.1,8,58.6,13.4c12.2,11.7,29.5,12.3,42.5,1.5c6.4-5.3,13.1-10.1,21.2-12.3c4,0,8,0,12,0
			c8.1,2.4,14.5,7.2,20.9,12.7c10.3,8.9,24.7,9.8,36.2,2.5c7.7-4.9,14.4-11.5,22.9-15.2C219.5,2.5,224.5,2.5,229.5,2.5z"/>
		<path class="st1" d="M1325.4,203.3c-10,0-20-0.1-29.9,0.1c-3,0.1-4.9-1-6.8-3.2c-16.8-18.9-33.7-37.8-50.6-56.6
			c-1.1-1.3-1.9-3.1-3.9-3.6c-1.2,1.6-0.6,3.3-0.6,4.8c-0.1,17.8-0.2,35.6,0.1,53.4c0.1,4.3-1.3,5.4-5.3,5.1
			c-4.8-0.3-9.7-0.3-14.5,0c-3.7,0.2-4.4-1.2-4.4-4.5c0.1-25.8,0.1-51.6,0.1-77.4c0-37.6,0.1-75.3-0.1-112.9c0-4,0.8-5.7,5.1-5.3
			c4.5,0.4,9,0.5,13.5,0c5-0.5,5.6,1.6,5.6,5.9c-0.1,38.8-0.1,77.6-0.1,116.4c0,1.8,0,3.5,0,5.4c2.5-0.5,3.3-2.1,4.4-3.2
			c15.3-15.3,30.6-30.6,45.8-46.1c2.6-2.6,5.2-3.6,8.7-3.5c8.8,0.2,17.6,0.1,26.3,0.1c0.8,1.8-0.7,2.3-1.4,3
			c-17.4,17-34.8,34-52.2,50.9c-1.7,1.6-3.5,2.7-0.9,5.5c20,21.2,39.7,42.6,59.6,64c0.4,0.4,0.7,1.2,1.5,0.7
			C1325.4,202.7,1325.4,203,1325.4,203.3z"/>
		<path class="st1" d="M903,185.7c-18.3,20.6-40,25-64.1,18c-24.2-7-38-24.5-42.3-48.9c-4-22.5-0.1-43.5,15.9-60.9
			c18.4-20,51.1-25,74.9-11.7c5.7,3.2,10.5,7.4,15.5,12.4c0-1.7,0-3.4,0-5.1c0-27,0.1-53.9-0.1-80.9c0-4.3,1.2-5.4,5.3-5.2
			c5.1,0.4,10.3,0.2,15.5,0c2.3-0.1,3.5,0.6,3.2,3.1c-0.1,0.8,0,1.7,0,2.5c0,62.9-0.1,125.8,0.1,188.7c0,5-1.5,6.2-6.1,5.8
			c-4.8-0.4-9.7-0.2-14.5,0c-2.6,0.1-3.6-0.7-3.5-3.4C903.1,195.6,903,191.2,903,185.7z M903,139.4c-0.3-14.5-5-28.7-20.1-36.9
			c-14.4-7.9-29.2-7.5-43.3,0.7c-14.5,8.5-21.5,27.5-18,47c4.6,25.5,27.8,39.8,52.7,32.5C892.2,177.4,902.7,162.3,903,139.4z"/>
		<path class="st1" d="M1024.5,149.4c-15.2,0-30.3,0.2-45.5-0.1c-4.8-0.1-5.1,1.8-4.5,5.6c2.3,13.9,14.3,25.7,29.9,29.5
			c17.2,4.2,31.6-0.5,43.1-13.8c2.6-3,4.3-3.1,7.1-0.6c3.3,3,7,5.7,10.7,8.2c2.9,1.9,3.2,3.3,0.8,6.1c-11.7,13.3-26.6,20.4-44,21.9
			c-20.8,1.9-40.2-2-55.1-17.7c-18.5-19.5-22.4-43.3-15.1-68.3c7.1-24.4,24-39.8,49.3-44.2c40.4-7,70.4,16.4,73.3,59.3
			c1,14.2,1,14.2-12.9,14.2C1049.2,149.4,1036.9,149.4,1024.5,149.4z M1011.6,130.3c11.3,0,22.6-0.1,34,0c2.7,0,3.9-0.5,3.4-3.6
			c-0.8-5.3-1.7-10.5-4.2-15.3c-6.9-13.5-23-20.3-39.8-16.7c-16,3.4-29.6,17.9-30.6,32.3c-0.2,2.7,0.6,3.4,3.3,3.4
			C988.9,130.3,1000.3,130.3,1011.6,130.3z"/>
		<path class="st1" d="M519.3,74.8c36.8-0.1,66.4,29,66.5,65.5c0.1,37.1-28.8,66.2-66,66.3c-37.7,0.1-67.1-28.8-67.1-65.8
			C452.7,104,482.1,74.9,519.3,74.8z M478.2,143.8c0.4,13.7,5.6,27.8,21.2,35.7c14.8,7.5,29.8,7,43.7-2.3
			c14.4-9.7,18.1-24.5,17.2-40.8c-1.4-26.8-24.1-44-50.2-38.4C490,102.3,478.1,118.3,478.2,143.8z"/>
		<path class="st1" d="M689.7,95.3c12.2-16.8,28.6-21.8,47.8-20.1c22.2,2,38.2,17.7,38.9,40.2c0.9,28.3,0.4,56.6,0.5,84.9
			c0,2.4-0.8,3.2-3.2,3.2c-5.3-0.1-10.7-0.3-16,0c-3.7,0.2-4.8-0.8-4.8-4.7c0.2-22.1,0.1-44.3,0.1-66.4c0-4.5-0.1-9-1.1-13.4
			c-3.7-16.5-17.6-24.8-35-21.2c-14.9,3.1-24.3,14-26.5,30.5c-0.9,6.6-0.8,13.3-0.8,19.9c0,17-0.1,34,0.1,50.9
			c0,3.2-0.7,4.5-4.1,4.3c-5.3-0.3-10.7-0.2-16,0c-2.6,0.1-3.9-0.5-3.8-3.5c0.1-39.4,0.1-78.9,0-118.3c0-2.8,0.9-3.8,3.7-3.7
			c5.5,0.2,11,0.2,16.5,0c2.9-0.1,3.8,0.9,3.7,3.7C689.6,86.1,689.7,90.7,689.7,95.3z"/>
		<path class="st1" d="M1138.4,206.6c-20-0.1-35.8-4.4-47.4-18.7c-2.1-2.6-2.4-4.2,0.5-6.3c4-2.9,7.9-6.1,11.6-9.5
			c2.6-2.4,4.2-2,6.5,0.3c10.1,9.8,21.9,14.3,36,11c0.3-0.1,0.7-0.1,1-0.2c9-2,15.1-7.5,15.4-14.2c0.4-6.8-4.1-12.5-13.3-15.4
			c-9.3-3-18.9-5.2-28.4-7.7c-1.6-0.4-3.2-1-4.7-1.6c-11.8-4.7-20.1-12.4-21.7-25.6c-1.6-13.6,2.6-25,13.5-33.5
			c17.1-13.3,48.4-13.8,66-1.3c0.5,0.4,1.1,0.8,1.6,1.2c10.4,8.2,10.4,9.4,0.2,17.1c-2.9,2.2-5.6,5.6-8.9,6.3
			c-3.3,0.7-5.1-3.9-7.9-5.8c-9.8-6.6-20.2-7.4-30.9-3.1c-10.3,4.1-11.4,15.5-2.6,22.3c7,5.4,15.5,6.6,23.8,8.3
			c5.9,1.1,11.6,2.9,17.2,5.1c11.8,4.8,19.7,13,21.3,26.1c1.7,14.1-2.3,26.1-13.9,34.8C1162.2,204.6,1149.3,206.4,1138.4,206.6z"/>
		<path class="st1" d="M395.1,75.1c16.9,0.2,32.1,5,44.9,16.5c2.9,2.6,2.9,4.1-0.1,6.5c-3.9,3.1-7.6,6.5-11.1,10.1
			c-2.6,2.7-4.3,2.9-7.1,0.1c-8.7-8.5-19.5-11.8-31.6-10.8c-11.9,1-21.4,6.3-27.6,16.6c-8.6,14.4-10.4,29.8-4.1,45.5
			c10.4,26.1,43,33.3,63.6,14.2c3-2.7,4.6-3.2,7.3,0.1c3.2,3.8,6.8,7.3,10.6,10.6c2.7,2.4,2,3.7-0.2,5.9
			c-9.6,9.3-21.3,14.1-34.4,15.6c-24.8,2.8-46.8-3-62.9-23.4c-23.6-29.8-17.8-92.9,35.3-105.5C383.5,75.6,389.2,75,395.1,75.1z"/>
		<path class="st1" d="M608.5,140.9c0-19.5,0.1-38.9-0.1-58.4c0-3.8,1.1-4.9,4.8-4.7c5,0.3,10,0.3,15,0c3.3-0.2,4.3,0.9,4.2,4.2
			c-0.2,13.5-0.1,27-0.1,40.4c0,25.3-0.1,50.6,0.1,75.9c0,4.3-1.3,5.4-5.3,5.1c-4.6-0.3-9.3-0.3-14,0c-3.7,0.3-4.8-0.8-4.8-4.7
			C608.6,179.5,608.5,160.2,608.5,140.9z"/>
		<path class="st1" d="M637.8,32.9c0.1,9.7-7.6,17.6-17.2,17.6c-9.7,0.1-17.5-7.6-17.6-17.3c-0.1-9.7,7.6-17.5,17.3-17.6
			C630,15.5,637.7,23.1,637.8,32.9z"/>
		<path class="st0" d="M222.9,121.2c6.6,0.1,11.7,5.3,11.6,11.8c-0.1,6.4-5.5,11.8-11.8,11.8c-6.5,0-12.1-5.7-11.9-12.3
			C211.1,126.1,216.3,121.1,222.9,121.2z"/>
		<path class="st0" d="M128.1,145.5c-6.5-0.1-11.6-5.4-11.5-12c0.1-6.4,5.6-11.9,11.9-11.8c6.5,0.1,12.1,5.8,11.8,12.4
			C140,140.6,134.6,145.6,128.1,145.5z"/>
		<path class="st0" d="M234.5,225.9c-0.1,6.5-5.4,11.5-11.9,11.5c-6.6-0.1-11.8-5.3-11.8-11.7c0-6.6,5.6-12,12.3-11.9
			C229.4,213.9,234.7,219.5,234.5,225.9z"/>
	</g>
</g>
</svg>
