<?xml version="1.0" encoding="utf-8"?>
<!-- Generator: Adobe Illustrator 24.1.0, SVG Export Plug-In . SVG Version: 6.00 Build 0)  -->
<svg version="1.1" id="Layer_1" xmlns="http://www.w3.org/2000/svg" xmlns:xlink="http://www.w3.org/1999/xlink" x="0px" y="0px"
	 viewBox="0 0 547 128" style="enable-background:new 0 0 547 128;" xml:space="preserve">
<style type="text/css">
	.st0{fill:#414042;}
	.st1{fill:#7A7A7A;}
	.st2{fill-rule:evenodd;clip-rule:evenodd;fill:#414042;}
</style>
<g>
	<g>
		<path class="st0" d="M79.3,93.1L56.5,103v-1c-4.4,1.1-9.3,1.8-13.9,2C21.2,103.8,4.2,92.6,4,79.3v-5c7,10.2,21.4,17.1,38.6,16.8
			c5.8,0.3,11.8-0.7,16.8-2l2-5c-6,1.8-12.5,3-18.8,3C21.2,87.2,4.2,76,4,62.4v-4c7,9.5,21.3,16.3,38.6,15.9
			c7.8,0.5,15.4-1.2,21.8-4l1-5c-6.3,3.3-14.4,5.2-22.8,5C21.2,70.6,4.2,59.4,4,45.6v-4c7,9.7,21.4,16.5,38.6,16.8
			c9.8-0.3,19.1-2.9,26.8-6.9l1-5.9c-6.9,5.1-17,8.4-27.7,8.9C21.2,54,4.2,42.8,4,28.7C4.2,15.4,21.2,4.1,42.6,4
			c12.8,0.2,24.6,4.7,31.7,11.9L75,17l5,0l-0.7-1.2C72.2,6.3,58.2,0,42.6,0C18.9,0,0,13.1,0,28.7v1v50.5C0.8,95.5,19.3,108,42.6,108
			C58,108,71.8,101.9,79.3,93.1z"/>
		<path class="st1" d="M70,128l8-34l-23,10l14-59H42l7-29h86l-7,29h-28l-6,16l31-13L70,128z M84,87l-4,20l33-50L86,69l12-28h27l5-21
			H52l-5,21h27L61,97L84,87z"/>
	</g>
	<path class="st0" d="M192.1,35.4l0,0.1c0.1,3.2-0.9,5.7-2.9,7.5s-4.8,2.7-8.3,2.7c-3.6,0-6.5-1.2-8.7-3.5S169,37,169,33.3v-5.9
		c0-3.6,1.1-6.6,3.2-8.9s5-3.5,8.4-3.5c3.6,0,6.5,0.9,8.5,2.7s3,4.3,3,7.5l0,0.1h-5.8c0-1.9-0.5-3.3-1.4-4.3s-2.3-1.4-4.3-1.4
		c-1.8,0-3.2,0.7-4.2,2.2s-1.5,3.3-1.5,5.6v6c0,2.3,0.5,4.2,1.6,5.6s2.5,2.2,4.4,2.2c1.8,0,3.1-0.5,4-1.4s1.3-2.4,1.3-4.3H192.1z
		 M225,33c0,3.7-1.2,6.7-3.5,9.1c-2.3,2.4-5.3,3.6-9,3.6c-3.7,0-6.7-1.2-9-3.6c-2.3-2.4-3.4-5.4-3.4-9.1v-5.4c0-3.7,1.1-6.7,3.4-9.1
		c2.3-2.4,5.3-3.6,9-3.6c3.7,0,6.7,1.2,9,3.6c2.3,2.4,3.5,5.4,3.5,9.1V33z M219,27.6c0-2.3-0.6-4.2-1.7-5.7
		c-1.2-1.5-2.8-2.2-4.8-2.2c-2,0-3.6,0.7-4.7,2.2c-1.1,1.5-1.7,3.4-1.7,5.7V33c0,2.4,0.6,4.3,1.7,5.8c1.1,1.5,2.7,2.2,4.8,2.2
		c2.1,0,3.7-0.7,4.8-2.2c1.1-1.5,1.7-3.4,1.7-5.8V27.6z M240.5,45.3h-6V15.4h6V45.3z M275,45.3h-6l-12-20.1l-0.1,0v20.1h-6V15.4h6
		l12,20.1l0.1,0V15.4h6V45.3z M305.1,20h-8.5v25.2h-6V20h-8.4v-4.6h22.9V20z M329.9,32.2h-11.1v8.5H332v4.6h-19.2V15.4h19.1V20
		h-13.1v7.5h11.1V32.2z M346.5,40.7h13.4v4.6h-19.4V15.4h6V40.7z M385.4,32.2h-11.1v8.5h13.2v4.6h-19.2V15.4h19.1V20h-13.1v7.5h11.1
		V32.2z M418.9,41.2c-0.9,1.2-2.3,2.3-4.2,3.2c-1.8,0.9-4.2,1.3-7.1,1.3c-3.6,0-6.6-1.1-8.9-3.4c-2.3-2.3-3.4-5.2-3.4-8.8v-6.2
		c0-3.6,1.1-6.6,3.3-8.8c2.2-2.3,5.1-3.4,8.6-3.4c3.7,0,6.4,0.9,8.4,2.6c1.9,1.7,2.9,4,2.8,6.9l0,0.1h-5.6c0-1.6-0.5-2.8-1.4-3.7
		c-0.9-0.9-2.2-1.3-4-1.3c-1.8,0-3.3,0.7-4.4,2.1c-1.1,1.4-1.7,3.2-1.7,5.5v6.3c0,2.3,0.6,4.1,1.7,5.5c1.1,1.4,2.7,2.1,4.6,2.1
		c1.4,0,2.5-0.1,3.4-0.4s1.5-0.6,1.9-1.1v-5.8h-5.7v-4.1h11.8V41.2z M434.4,33.4v11.9h-6V15.4h10.3c3.4,0,6.1,0.8,8,2.3
		s2.9,3.7,2.9,6.5c0,1.5-0.4,2.9-1.2,4s-2,2-3.6,2.7c1.8,0.5,3,1.4,3.8,2.6s1.2,2.7,1.2,4.5v2.2c0,0.8,0.1,1.7,0.3,2.6
		s0.6,1.6,1.2,2v0.4h-6.2c-0.5-0.4-0.9-1.2-1.1-2.2s-0.2-2-0.2-2.9v-2.1c0-1.5-0.4-2.6-1.2-3.5s-2-1.2-3.5-1.2H434.4z M434.4,28.7
		h4.2c1.7,0,2.9-0.4,3.8-1.1s1.2-1.8,1.2-3.2c0-1.4-0.4-2.5-1.2-3.3s-2-1.2-3.6-1.2h-4.3V28.7z M475.2,38.9h-9.7l-2,6.4h-6.3
		l10.1-29.9h6.1l10,29.9h-6.3L475.2,38.9z M466.9,34.2h6.7l-3.3-10.5h-0.1L466.9,34.2z M496.7,34.5v10.8h-6V15.4h11.4
		c3.4,0,6.1,0.9,8.1,2.6c2,1.8,3,4.1,3,6.9s-1,5.2-3,6.9c-2,1.7-4.7,2.6-8.1,2.6H496.7z M496.7,29.8h5.4c1.7,0,2.9-0.5,3.8-1.4
		s1.3-2.1,1.3-3.5c0-1.4-0.4-2.6-1.3-3.6s-2.1-1.4-3.8-1.4h-5.4V29.8z M546,45.3h-6V32.9h-12.2v12.4h-6V15.4h6v12.8H540V15.4h6V45.3
		z"/>
	<path class="st2" d="M180.2,95h-3.9V74.7h-6.9v-3.3h17.7v3.3h-6.9V95z M205,95h-3.8V84c0-1.4-0.3-2.4-0.8-3.1c-0.6-0.7-1.4-1-2.6-1
		c-1.6,0-2.8,0.5-3.5,1.4c-0.7,1-1.1,2.5-1.1,4.8V95h-3.8V69.9h3.8v6.4c0,1-0.1,2.1-0.2,3.3h0.2c0.5-0.9,1.2-1.5,2.2-2
		c0.9-0.5,2-0.7,3.2-0.7c4.3,0,6.5,2.2,6.5,6.5V95z M216.9,95.3c-2.8,0-4.9-0.8-6.5-2.4c-1.6-1.6-2.3-3.8-2.3-6.7
		c0-2.9,0.7-5.2,2.2-6.9c1.5-1.7,3.4-2.5,6-2.5c2.4,0,4.2,0.7,5.6,2.1c1.4,1.4,2,3.4,2,5.9v2H212c0.1,1.7,0.5,3.1,1.4,4
		s2.1,1.4,3.7,1.4c1.1,0,2-0.1,2.9-0.3c0.9-0.2,1.9-0.5,2.9-1v3.1c-0.9,0.4-1.9,0.8-2.8,0.9C219.2,95.2,218.1,95.3,216.9,95.3z
		 M216.2,79.7c-1.2,0-2.2,0.4-2.9,1.1s-1.2,1.9-1.3,3.3h8.1c0-1.5-0.4-2.6-1.1-3.3S217.4,79.7,216.2,79.7z M238.7,95h-3.8V71.4h13.3
		v3.3h-9.5v7.4h8.9v3.3h-8.9V95z M263.5,95l-0.5-2.3h-0.2c-0.5,0.8-1.3,1.5-2.2,1.9s-2.1,0.7-3.3,0.7c-2.2,0-3.8-0.5-4.8-1.6
		s-1.6-2.7-1.6-4.9V77.2h3.8v11c0,1.4,0.3,2.4,0.8,3.1s1.4,1,2.6,1c1.6,0,2.8-0.5,3.5-1.4s1.1-2.5,1.1-4.8v-8.9h3.8V95H263.5z
		 M277.5,92.3c0.9,0,1.8-0.1,2.8-0.4v2.9c-0.4,0.2-1,0.3-1.6,0.5s-1.3,0.2-2.1,0.2c-3.6,0-5.4-1.9-5.4-5.7V80h-2.4v-1.7l2.6-1.4
		l1.3-3.8h2.3v4h5.1V80H275v9.5c0,0.9,0.2,1.6,0.7,2S276.7,92.3,277.5,92.3z M295.3,95l-0.5-2.3h-0.2c-0.5,0.8-1.3,1.5-2.2,1.9
		c-1,0.5-2.1,0.7-3.3,0.7c-2.2,0-3.8-0.5-4.8-1.6c-1.1-1.1-1.6-2.7-1.6-4.9V77.2h3.8v11c0,1.4,0.3,2.4,0.8,3.1s1.4,1,2.6,1
		c1.6,0,2.8-0.5,3.5-1.4s1.1-2.5,1.1-4.8v-8.9h3.8V95H295.3z M311.6,76.9c0.8,0,1.4,0.1,1.9,0.2l-0.4,3.5c-0.5-0.1-1.1-0.2-1.7-0.2
		c-1.5,0-2.7,0.5-3.7,1.5c-0.9,1-1.4,2.3-1.4,3.9V95h-3.8V77.2h3l0.5,3.1h0.2c0.6-1.1,1.4-1.9,2.3-2.5
		C309.5,77.2,310.5,76.9,311.6,76.9z M322.8,95.3c-2.8,0-4.9-0.8-6.5-2.4s-2.3-3.8-2.3-6.7c0-2.9,0.7-5.2,2.2-6.9s3.4-2.5,6-2.5
		c2.4,0,4.2,0.7,5.6,2.1s2,3.4,2,5.9v2h-11.9c0.1,1.7,0.5,3.1,1.4,4s2.1,1.4,3.7,1.4c1.1,0,2-0.1,2.9-0.3s1.9-0.5,2.9-1v3.1
		c-0.9,0.4-1.9,0.8-2.8,0.9S324,95.3,322.8,95.3z M322.1,79.7c-1.2,0-2.2,0.4-2.9,1.1s-1.2,1.9-1.3,3.3h8.1c0-1.5-0.4-2.6-1.1-3.3
		S323.3,79.7,322.1,79.7z M356.2,86.1c0,2.9-0.7,5.2-2.2,6.8s-3.6,2.4-6.2,2.4c-1.7,0-3.1-0.4-4.4-1.1s-2.3-1.8-2.9-3.2s-1-3-1-4.9
		c0-2.9,0.7-5.1,2.2-6.8s3.6-2.4,6.3-2.4c2.6,0,4.6,0.8,6.1,2.5S356.2,83.2,356.2,86.1z M343.2,86.1c0,4.1,1.5,6.2,4.6,6.2
		c3,0,4.5-2.1,4.5-6.2c0-4.1-1.5-6.1-4.5-6.1c-1.6,0-2.7,0.5-3.5,1.6S343.2,84.1,343.2,86.1z M368.4,80H364v15h-3.8V80h-2.9v-1.8
		l2.9-1.2V76c0-2.1,0.5-3.7,1.5-4.7c1-1,2.5-1.5,4.5-1.5c1.3,0,2.6,0.2,3.9,0.7l-1,2.9c-0.9-0.3-1.8-0.5-2.7-0.5
		c-0.9,0-1.5,0.3-1.9,0.8S364,75,364,76v1.2h4.4V80z M388.4,95l-6.8-19.7h-0.1c0.2,2.9,0.3,5.7,0.3,8.2V95h-3.5V71.4h5.4l6.5,18.7
		h0.1l6.7-18.7h5.4V95h-3.7V83.4c0-1.2,0-2.7,0.1-4.6s0.1-3,0.2-3.4h-0.1L391.8,95H388.4z M423,86.1c0,2.9-0.7,5.2-2.2,6.8
		s-3.6,2.4-6.2,2.4c-1.7,0-3.1-0.4-4.4-1.1s-2.3-1.8-2.9-3.2s-1-3-1-4.9c0-2.9,0.7-5.1,2.2-6.8s3.6-2.4,6.3-2.4
		c2.6,0,4.6,0.8,6.1,2.5S423,83.2,423,86.1z M410,86.1c0,4.1,1.5,6.2,4.6,6.2c3,0,4.5-2.1,4.5-6.2c0-4.1-1.5-6.1-4.5-6.1
		c-1.6,0-2.7,0.5-3.5,1.6S410,84.1,410,86.1z M441.9,95h-3.8V84c0-1.4-0.3-2.4-0.8-3.1s-1.4-1-2.6-1c-1.6,0-2.8,0.5-3.5,1.4
		s-1.1,2.5-1.1,4.8V95h-3.8V77.2h3l0.5,2.3h0.2c0.5-0.8,1.3-1.5,2.3-2s2.1-0.7,3.3-0.7c4.3,0,6.4,2.2,6.4,6.5V95z M453.8,95.3
		c-2.8,0-4.9-0.8-6.5-2.4c-1.6-1.6-2.3-3.8-2.3-6.7c0-2.9,0.7-5.2,2.2-6.9c1.5-1.7,3.4-2.5,6-2.5c2.4,0,4.2,0.7,5.6,2.1
		c1.4,1.4,2,3.4,2,5.9v2h-11.9c0.1,1.7,0.5,3.1,1.4,4s2.1,1.4,3.7,1.4c1.1,0,2-0.1,2.9-0.3s1.9-0.5,2.9-1v3.1
		c-0.9,0.4-1.9,0.8-2.8,0.9S455.1,95.3,453.8,95.3z M453.1,79.7c-1.2,0-2.2,0.4-2.9,1.1s-1.2,1.9-1.3,3.3h8.1c0-1.5-0.4-2.6-1.1-3.3
		S454.4,79.7,453.1,79.7z M460.6,77.2h4.1l3.6,10.1c0.5,1.4,0.9,2.8,1.1,4.1h0.1c0.1-0.6,0.3-1.3,0.5-2.2c0.3-0.8,1.6-4.8,4.1-12
		h4.1l-7.6,20.2c-1.4,3.7-3.7,5.6-6.9,5.6c-0.8,0-1.7-0.1-2.4-0.3v-3c0.6,0.1,1.2,0.2,1.9,0.2c1.8,0,3.1-1.1,3.9-3.2l0.7-1.7
		L460.6,77.2z"/>
</g>
</svg>
