<?xml version="1.0" encoding="utf-8"?>
<!-- Generator: Adobe Illustrator 24.1.0, SVG Export Plug-In . SVG Version: 6.00 Build 0)  -->
<svg version="1.1" id="Layer_1" xmlns="http://www.w3.org/2000/svg" xmlns:xlink="http://www.w3.org/1999/xlink" x="0px" y="0px"
	 viewBox="0 0 736.5 244.6" style="enable-background:new 0 0 736.5 244.6;" xml:space="preserve">
<style type="text/css">
	.st0{fill:#414042;}
	.st1{fill:#7A7A7A;}
</style>
<g>
	<g>
		<path class="st0" d="M207.1,98.8c-0.2,20.4-7.2,38.7-17.6,55.9c-5.2,8.6-11.1,16.6-18.1,23.8c-2.9,2.9-2.4,4.5,0.3,6.9
			c4.8,4.4,9.2,9.1,13.8,13.7c1.1,1.1,2.7,2,0.7,3.9c-24.1,23.4-51.2,40.6-85.9,41.6c-17.8,0.5-33-5.7-45.6-18.9
			c-12.8-13.5-25.9-26.9-39.7-39.4c-9.3-8.4-12.5-18.5-13.2-30.1C0.4,134,7.4,113.9,18.3,94.9C24.1,84.8,31.1,75.4,39.2,67
			c2.1-2.2,2.1-3.4-0.1-5.5c-5-4.6-9.7-9.6-14.5-14.4c-1.4-1.4-2.4-2.4-0.4-4.4C48.7,19.1,76.3,1.8,111.4,0.1
			c4.3-0.2,8.7,0.2,12.9,0.7c9.3,1.1,17.1,4.8,23.9,11.9c13.7,14.6,28.1,28.4,42.3,42.5C202.4,67.4,207.4,82.1,207.1,98.8z
			 M42.7,203.6c0.2,0.1,0.4,0.2,0.7,0.3c-0.1-0.2-0.2-0.5-0.3-0.7c-2.7-12.2-2.3-24.3,0.6-36.4c4.8-20.1,14.6-37.6,27.4-53.6
			c2.8-3.5,8.5-6.9,7.7-10.7c-0.9-4-6.4-6.9-9.5-10.5c-2.3-2.7-3.7-2-5.8,0.2C56.4,99.7,50.2,108,45,116.9
			c-11.5,19.7-19,40.4-16.2,63.9C29.9,190.6,34.9,197.9,42.7,203.6z M47.9,181.4c-0.1,28.5,11.7,46.7,31.9,53.8
			c9.3,3.3,18.9,3.9,28.6,2.7c26.6-3.5,48.4-16.6,68-34.2c1.8-1.6,1.9-2.6,0.1-4.3c-3.5-3.3-7-6.6-10.2-10.2c-2-2.2-3.2-1.8-5.1,0
			c-8.1,7.5-17,13.9-26.9,18.9c-11.7,5.9-24,10-37.3,9.4c-15-0.6-25.5-9.6-27.6-23.9c-1-6.6-0.7-13.3,0.9-19.8
			c4.5-18.6,14-34.4,26.8-48.3c2-2.2,2.4-3.4,0-5.5c-3.5-3-6.8-6.4-9.9-9.9c-1.8-1.9-2.9-2.1-4.6,0c-3.2,4.1-6.8,7.8-9.9,11.9
			C58.4,141,48.6,161.7,47.9,181.4z M200.8,102.5c0-12.6-1.5-20.5-4.6-27.5c-9-20.3-30.4-31.2-55-28.1C115.5,50.1,94.1,62.3,74.9,79
			c-4.9,4.3-4.9,4.3-0.1,9c2.2,2.2,4.6,4.3,6.7,6.8c2.3,2.8,4,3.2,7,0.4c8.4-8,17.9-14.4,28.3-19.3c11.4-5.3,23.2-9.2,36.1-8.2
			c14.1,1,23.6,9.1,26.4,22.9c1.7,8.4,0.5,16.6-1.8,24.7c-4.7,17-13.9,31.6-25.7,44.5c-2.1,2.3-2.2,3.5,0.1,5.5
			c3.5,3.1,6.8,6.4,9.9,9.9c1.9,2.1,3,1.8,4.6-0.2c3.1-3.9,6.6-7.5,9.6-11.5C190.2,144.2,200.1,123.2,200.8,102.5z M22.4,183.5
			c-2.5-17.6,0.4-34.2,6.9-50.3C36.2,116,46.5,100.9,59,87.3c2.1-2.3,2.1-3.5-0.2-5.5c-3.6-3.2-7.1-6.6-10.2-10.2
			c-2.3-2.6-3.4-1.8-5.3,0.3c-8.9,10-16.8,20.7-22.9,32.6c-8.1,15.8-13.2,32.3-12.3,50.3C8.6,166.2,11.2,176.8,22.4,183.5z
			 M133.7,20c2.9,0.2,5.8,0.4,8.8,0.6c0.8,0,1.8,0.3,2-0.8c0.1-0.5-0.4-1.2-0.8-1.6c-4-4.2-7.9-8.5-14.1-9.6
			c-6.2-1.2-12.4-2.3-18.8-1.9C80.2,8.4,55.5,22.9,33.3,42.8c-1.7,1.5-1.6,2.4,0,3.9c3.7,3.5,7.5,7.1,10.9,10.9c1.9,2,3,2.2,5.1,0.2
			c4.1-3.8,8.5-7.5,13-10.9C83.6,31.2,106.7,20.5,133.7,20z M165.4,41.3c-5.6-8.5-11.5-12.5-21-13.9c-7.7-1.1-15.6-1.2-23.2,0.1
			C95.3,31.9,73.7,44.7,54.5,62c-2.2,1.9-2.7,3.3-0.2,5.5c3,2.6,5.8,5.5,8.5,8.4c1.8,2,3,2.2,5.2,0.2c12.1-10.8,25.1-20.2,40-26.7
			c15.5-6.8,31.4-11.4,48.7-9.1C159.4,40.8,162.3,41,165.4,41.3z M78.2,198.3c1,4.1,3.1,6.6,6.2,8.5c7.3,4.6,15.2,4.4,23.2,3.2
			c17.8-2.8,32.5-11.9,46.2-23c5.6-4.6,5.5-4.7,0.4-9.9c-1.4-1.4-2.8-2.8-4.2-4.2c-5.3-5.3-5.3-5.3-10.9-0.2c-9,8-19,14.5-30.1,19.2
			C99.2,195.8,89.3,199,78.2,198.3z M160.9,76.5c0,5.8-0.5,10.9-1.7,15.9c-4,16.8-12.3,31.4-23.5,44.4c-5.6,6.5-5.7,6.4,0.3,12.4
			c1.8,1.8,3.6,3.4,5.3,5.3c2.1,2.4,4,2.5,6.2,0c4.7-5.2,9-10.7,12.5-16.7c7.9-13.4,14.3-27.4,13-43.6
			C172.3,86.6,169.4,80.1,160.9,76.5z M125.1,138.9c2.2-2.5,4.2-4.6,5.9-6.7c11.6-14.3,21.1-29.7,22.6-48.4c0.9-10.5,3-10-9.6-9.7
			c-3.1,0.1-5.1,0.9-5.9,4.5c-1,4.7-3.2,9.1-5.4,13.3c-5.4,10.4-12.4,19.7-20.4,28.1c-1.8,1.9-2.8,3.1-0.3,5.5
			C116.5,129.6,120.6,134.2,125.1,138.9z M140.3,162.7c-4.6-4.4-9.1-8.4-13.2-12.7c-2.1-2.2-3.3-2.5-5.7-0.2
			c-11.7,11-24.5,20.5-40,25.4c-4.6,1.4-6.2,3.5-6.1,7.9c0,1.2,0.1,2.3-0.1,3.5c-0.7,4.4,1.4,5.2,5.4,5
			C104.5,190.7,122.8,178.2,140.3,162.7z M132.1,76.6c-14.8,4.6-26.7,12.2-37.7,21.5c-5.3,4.5-5.3,4.5-0.6,9.3
			c3.1,3.1,6.2,6.1,9.2,9.2c1.3,1.3,2.1,1.7,3.5,0.1C117.3,105.2,126.6,92.8,132.1,76.6z M78,169.7c16.1-5.4,28.4-14.7,40-25.4
			c1.5-1.3,1.5-2.2,0-3.6c-4.1-3.9-8.1-7.9-12-12c-1.2-1.3-2.1-1.8-3.5-0.1C91.9,140.5,83.2,153.5,78,169.7z"/>
		<path class="st0" d="M249.4,132.9c0-14.8,0.1-29.6-0.1-44.5c0-3.6,1-4.5,4.5-4.4c15,0.6,30-1.1,44.9,1.1
			c23.5,3.4,37.3,18.9,38.1,42.7c0.3,7.2-0.1,14.3-1.9,21.3c-5,18.8-18.7,30.9-38.1,32c-14.8,0.8-29.6,0.3-44.4,0.6
			c-3.6,0.1-3-2.3-3-4.3C249.4,162.6,249.4,147.7,249.4,132.9z M275.4,133.1c0,4.7,0,9.3,0,14c0,15.4,0,15.3,15.6,13.1
			c9.2-1.3,16-5.6,18.6-14.9c2.1-7.6,2.3-15.5,0.5-23.2c-2.3-9.4-9.1-15.2-18.7-15.9c-4.1-0.3-8.3,0-12.5-0.3
			c-2.9-0.2-3.6,1-3.5,3.7C275.5,117.5,275.4,125.3,275.4,133.1z"/>
		<path class="st0" d="M638.1,113.9c22.4-13.9,45.4-3.7,50,21.2c2,10.6,1.1,20.9-3.5,30.8c-7.5,16-25.1,21.9-40.8,13.7
			c-0.7-0.4-1.4-0.7-3-1.5c0,8.1-0.2,15.6,0.1,23.1c0.2,4.1-1,5.6-5.2,5.3c-4.6-0.4-9.3-0.3-14,0c-3.1,0.2-4-1-3.9-4
			c0.1-29.8,0.1-59.7,0-89.5c0-3.1,1.1-4.1,4-3.9c4,0.2,8,0.2,12,0C637,108.8,639,109.4,638.1,113.9z M667,144.6
			c0.2-4.7-0.4-9.3-2.7-13.5c-4.9-9-15.8-9.6-20.8-0.7c-5.3,9.4-5.3,19.4-0.9,29.3c1.9,4.2,5.6,6.5,10.4,6.7
			c4.9,0.2,8.1-2.3,10.5-6.3C666.3,155.1,667.2,150,667,144.6z"/>
		<path class="st0" d="M390.5,150.6c-7.2,0-14.3,0.2-21.5-0.1c-3.4-0.1-4.1,1.1-3.3,4.1c1.5,5.7,4.7,10,10.7,11.4
			c6.6,1.5,12.4-0.2,17.3-5.2c2.1-2.1,2.1-6.7,5.8-6.3c2.8,0.3,5.3,2.5,8,3.9c8.8,4.5,8.8,4.5,2.4,12.1c-11.9,14.2-35,18.4-50.9,8.8
			c-15.6-9.4-18-24.6-16.1-41c1.8-15.4,11.7-27.1,25.9-30.1c27.4-5.8,46.7,8.7,47.2,39.7c0.1,2.8-1.5,2.8-3.5,2.8
			C405.2,150.6,397.9,150.6,390.5,150.6z M379.2,135.7c3.3,0,6.7-0.2,9.9,0.1c3.4,0.3,3.5-1.3,2.6-3.8c-1.5-4.7-5.9-8.1-11.2-8.5
			c-5.6-0.4-10.8,2.6-13.4,7.8c-1.4,2.8-2.1,5,2.5,4.5C372.9,135.5,376.1,135.7,379.2,135.7z"/>
		<path class="st0" d="M578.5,154.6c3.1-13.7,6.3-27.3,9.3-40.9c0.7-3.3,1.7-5.1,5.7-4.8c5.3,0.5,10.7,0.2,16,0.1
			c2.6,0,3.6,0.5,2.6,3.5c-8.6,26.1-16.9,52.2-25.7,78.3c-3.9,11.4-10.2,15.5-22.2,15.5c-3.8,0-7.7-0.1-11.5,0
			c-2.6,0.1-3.7-0.9-3.5-3.5c0.1-0.8,0-1.7,0-2.5c0.1-3.8-1.2-8.4,0.5-11.3c2-3.4,7-0.9,10.7-1.4c4.5-0.6,5.8-3,4.1-8.5
			c-3.4-11.1-6.9-22.2-10.4-33.4c-3.4-10.8-6.6-21.6-10.1-32.4c-1.1-3.3-0.5-4.5,3.2-4.3c5.2,0.3,10.3,0.3,15.5,0
			c3.2-0.2,4.6,0.6,5.3,4.1c2.6,12.5,5.7,25,8.6,37.5C576.9,151.9,576.6,153.6,578.5,154.6z"/>
		<path class="st0" d="M456.4,107.1c12.3,0,22.2,4.8,29.5,14.8c1.8,2.5,1.8,3.9-1.1,5.3c-3.7,1.9-7.3,3.9-10.8,6.2
			c-2.3,1.5-3.3,0.9-4.6-1.3c-2.9-5-7.3-7.8-13.2-7.2c-6.3,0.6-9.5,5.1-11.3,10.6c-2.4,7.4-2.3,14.8,1.1,21.9c2.3,4.8,6,8,11.6,8.2
			c5.5,0.2,9.8-2.4,12.1-7.3c1.5-3.2,3-3.3,5.7-1.6c3.1,1.9,6.4,3.6,9.7,5c3.5,1.5,3.3,3.1,1.3,5.9c-10.1,14.4-26.8,19.9-43.1,14.1
			c-16.3-5.9-24.9-20.6-23.2-39.8C422,120.3,435.8,107.2,456.4,107.1z"/>
		<path class="st0" d="M700.9,145.6c0-6-0.1-12,0.1-18c0.1-3.1-0.5-4.9-4-4.2c-5.4,1.1-7.1-1.4-6.3-6.5c0.1-0.5,0-1,0-1.5
			c0-6.7,0-6.9,6.8-6.9c3.1,0,3.5-1.2,3.4-3.8c-0.2-5.2,0.1-10.3-0.1-15.5c-0.1-2.8,0.9-3.9,3.7-3.8c5.2,0.2,10.3,0.1,15.5,0
			c2.7-0.1,3.5,1.1,3.4,3.6c-0.1,5.3,0,10.7-0.1,16c-0.1,2.3,0.3,3.5,3.1,3.6c10.1,0.3,9.9,0.4,10.1,10.6c0.1,3.6-1.1,4.4-4.5,4.3
			c-8.7-0.2-8.7,0-8.7,8.9c0,8,0.2,16-0.1,24c-0.2,4.9,1.9,7,6.5,6.2c5-0.8,7.2,0.7,6.3,6c-0.3,1.5,0,3,0,4.5c0,8.4,0,8.4-8.6,8.9
			c-1,0.1-2,0.1-3,0.1c-17.4,0.2-23.5-5.8-23.5-23.2C700.8,154.6,700.9,150.1,700.9,145.6z"/>
		<path class="st0" d="M516.6,115.3c6-3.9,11.4-5.9,17.2-6.8c2.8-0.4,4.2,0.3,3.8,3.3c-0.1,0.8,0,1.7,0,2.5c0,4.3,1.4,9.4-0.5,12.8
			c-2,3.6-7.8,2-11.9,3.3c-5.7,1.7-7.5,3.9-7.6,10.1c0,12.3-0.1,24.7,0.1,37c0,3.2-0.8,4.5-4.2,4.3c-5-0.3-10-0.2-15,0
			c-2.4,0.1-3.7-0.3-3.7-3.2c0.1-22,0.1-44,0-66c0-2.6,0.8-3.6,3.5-3.5c4.5,0.2,9,0.3,13.5,0C515.9,108.7,518,109.8,516.6,115.3z"/>
		<path class="st1" d="M165.4,41.3c-3.1-0.3-6-0.5-8.9-0.9c-17.2-2.3-33.2,2.3-48.7,9.1c-14.9,6.5-27.9,15.9-40,26.7
			c-2.2,2-3.4,1.7-5.2-0.2c-2.7-2.9-5.5-5.8-8.5-8.4c-2.5-2.2-1.9-3.5,0.2-5.5C73.5,44.7,95.1,31.9,121,27.6
			c7.7-1.3,15.5-1.2,23.2-0.1C153.9,28.9,159.8,32.8,165.4,41.3z"/>
		<path class="st1" d="M42.7,203.6c-7.8-5.7-12.7-13-14-22.9c-2.9-23.4,4.6-44.2,16.2-63.9c5.2-8.9,11.3-17.2,18.5-24.7
			c2.1-2.2,3.5-2.9,5.8-0.2c3.1,3.6,8.6,6.5,9.5,10.5c0.9,3.8-4.8,7.2-7.7,10.7c-12.8,16-22.6,33.5-27.4,53.6
			c-2.9,12.2-3.3,24.2-0.6,36.4C42.9,203.3,42.8,203.5,42.7,203.6z"/>
		<path class="st1" d="M78.2,198.3c11.1,0.7,21-2.4,30.7-6.5c11.1-4.7,21.1-11.2,30.1-19.2c5.6-5,5.6-5.1,10.9,0.2
			c1.4,1.4,2.8,2.8,4.2,4.2c5.2,5.2,5.3,5.3-0.4,9.9c-13.7,11.1-28.4,20.3-46.2,23c-7.9,1.2-15.9,1.4-23.2-3.2
			C81.3,204.9,79.2,202.4,78.2,198.3z"/>
		<path class="st1" d="M160.9,76.5c8.5,3.6,11.4,10,12,17.7c1.4,16.2-5,30.2-13,43.6c-3.5,6-7.8,11.5-12.5,16.7
			c-2.2,2.4-4,2.4-6.2,0c-1.6-1.9-3.5-3.5-5.3-5.3c-6-6-5.9-5.9-0.3-12.4c11.2-13,19.5-27.6,23.5-44.4
			C160.4,87.4,160.9,82.3,160.9,76.5z"/>
		<path class="st0" d="M43.1,203.2c0.1,0.2,0.2,0.5,0.3,0.7c-0.2-0.1-0.4-0.2-0.7-0.3C42.8,203.5,42.9,203.3,43.1,203.2z"/>
	</g>
</g>
</svg>
