<?xml version="1.0" encoding="utf-8"?>
<!-- Generator: Adobe Illustrator 24.1.0, SVG Export Plug-In . SVG Version: 6.00 Build 0)  -->
<svg version="1.1" id="Layer_1" xmlns="http://www.w3.org/2000/svg" xmlns:xlink="http://www.w3.org/1999/xlink" x="0px" y="0px"
	 viewBox="0 0 435.8 140" style="enable-background:new 0 0 435.8 140;" xml:space="preserve">
<style type="text/css">
	.st0{fill:#DEDEDE;}
	.st1{fill:#414042;}
	.st2{fill:#D3D3D3;}
	.st3{fill:#D4D4D4;}
	.st4{fill:#D0D0D0;}
	.st5{fill:#D7D7D7;}
	.st6{fill:#D1D1D1;}
	.st7{fill:#D6D6D6;}
	.st8{fill:#D5D5D5;}
	.st9{fill:#D9D9D9;}
	.st10{fill:#171717;}
	.st11{fill:#121212;}
	.st12{fill:#141414;}
	.st13{fill:#131313;}
	.st14{fill:#A4A4A4;}
	.st15{fill:#9A9A9A;}
	.st16{fill:#151515;}
	.st17{fill:#FEFEFE;}
	.st18{fill:#E9E9E9;}
	.st19{fill:#ECECEC;}
	.st20{fill:#E1E1E1;}
</style>
<g>
	<g>
		<path class="st0" d="M435.7,66c-1.3,0-2.5,0-3.8,0c-1.4-1.3-1.3-2.7,0-4.1c1.3,0,2.6,0,3.8,0C435.7,63.3,435.7,64.7,435.7,66z"/>
		<path class="st1" d="M360,70c-0.8,4.2,1.2,8.7-1.2,12.8c-9.3-0.7-18.6-0.7-27.9,0c-2.3-4.1-0.4-8.6-1.1-12.8c-2-3.7-2-7.4,0-11
			c-0.8-4.7,1-6.2,5.9-5.9c7.9,0.5,15.8,0.1,23.8,0.1C360.1,58.8,362.7,64.3,360,70z"/>
		<path class="st1" d="M365.7,63c0.6-9.7,0.6-9.7,10.4-9.7c4.9,0,9.9,0.3,14.8-0.1c3.9-0.3,5.5,0.9,4.9,4.9
			c-0.2,1.6,0.1,3.3,0.1,4.9c1.6,2,1.6,4,0,6.1c-0.9,4.6,1.1,9.3-1.1,13.8c-7.8-0.8-15.6-0.1-23.3-0.4c-1.8-0.1-3.6,0.4-5.4-0.4
			c-0.1-4-0.2-8-0.3-12C364.2,67.7,364.2,65.3,365.7,63z"/>
		<path class="st1" d="M259.3,82.8c-2.1-3.1-0.3-6.6-1.1-9.8c-0.9-0.8-1.2-1.9-1.3-3.1c-0.2-1.7,0-3.4-0.1-5.1c0-2,0-4.1,1.4-5.8
			c-0.6-4.6,1-6.4,6-5.9c8,0.9,16.1-0.9,24.1,0.9c0.7,3.8,0.5,7.7,1.2,11.6c0.6,3.2-0.3,6.3-4.4,6.9c-1.5,0.2-2.2,1.3-2.7,2.5
			c0,0.6-0.1,1.3-0.1,1.9l0.1-0.1c-3.3,0.7-6.7,1.6-6-4c0.2-1.9-1.6-1.6-2.9-1.6c-2.9,0-5.9-0.1-8.8-0.1c-1.9,1.9-0.9,4.3-0.8,6.4
			C264,81,263.1,83,259.3,82.8z"/>
		<path class="st1" d="M222.5,61.8c0.2-8.6,0.2-8.6,9.1-8.6c6.8,0,13.6,0,20.3-0.1c1.6,6,0.9,7.1-5.1,7.2c-4.6,0.1-9.3-0.1-13.9,0.1
			c-1.1,0-2.6-0.1-2.7,1.5c-0.1,1.7,1.4,1.5,2.5,1.6c0.8,0.1,1.7,0,2.5,0.1c2.9,0.1,5.9,0.1,6.1,4.2c0.1,4-2.7,4.4-5.7,4.7
			c-1.7,0.1-3.7-0.5-5.1,1.8c2.5,2.3,6.3,0.3,8.7,2.6c2.9,0,5.9,0.4,8.8,0.1c4.3-0.5,5.1,1.4,4.2,5c-7.2,1.1-14.4,0.2-21.6,0.5
			c-2.4,0.1-4.9-0.4-7.3,0.3c-1.8-1.3-0.2-3.1-0.9-4.6C221.6,72.7,221.6,67.3,222.5,61.8z"/>
		<path class="st1" d="M145.4,82.2c-2.2,1.3-4.4,1.3-6.7,0c0.1-0.2,0.2-0.3,0.2-0.5c0.8-9.3,0.8-9.3-8.3-9.4c-2.3,0-4.6,0.2-6.8-0.6
			c-1.5-0.6-2.5-0.1-2.9,1.5c-0.5,2-0.2,4-0.3,6c-0.1,1.6-0.4,3.1-2.4,3.1s-2.5-1.4-2.5-3c0.2-6.5-0.9-12.9-0.3-19.4
			c0.5-5.6,0.5-5.7,7.6-5.1c-3-0.6-5-0.2-6.9-0.4c-0.7-0.4-0.7-0.8-0.2-1.3c8.4,0,16.8,0,25.3,0.1c1.5,0,3.4-0.7,4.2,1.5
			c-0.6,3.8-0.9,7.5,1.1,11.1c0.8,1.4,0.8,2.9,0,4.3C144.4,74,144.9,78.1,145.4,82.2z"/>
		<path class="st1" d="M431.8,62c0,1.4,0,2.7,0,4.1c-0.1,5.3-0.2,10.6-0.3,16c-5.3,0.8-5.3,0.8-5.3-4.3c0-5.9,0-11.8-0.4-17.7
			c-5.4-1.9-11-0.6-16.5-0.8c-2.8-0.1-1.4,2.3-1.5,3.7c1.4,2,1.7,4,0,6.1c0,1.6,0,3.3,0,4.9c0.7,1,0.7,2,0,3c-1,2.1,2.1,6.6-3.6,6.1
			c-2-0.2-2.5-0.8-2.5-2.7c0.1-3.5,0-7-0.1-10.5c-1-1.2-1.7-2.7-1.3-4.1c1.2-4.2,0-8.7,1.8-12.7c8.1,0,16.2,0.3,24.2,0
			c4.2-0.2,6.2,0.8,5.4,5.4C431.6,59.6,431.8,60.8,431.8,62z"/>
		<path class="st1" d="M318.2,82c-0.1-3-0.2-6-0.3-9c-2-2.4-1.3-5.4-1.3-8.1c0-3.1-1.3-4.6-4.5-4.4c-0.8,0-1.6,0-2.5,0
			c-7.9,0-7.7,0-8.1,7.9c-0.2,4.9-0.8,9.7-1.5,14.6c-4.9,1.2-6.5-0.9-5.7-5.6c0.2-1.4-0.1-2.9-0.2-4.4c-1.9-2.3-1.7-4.7,0-7
			c0-0.2,0.1-0.3,0.1-0.5c0.5-3.9-1.6-9,0.9-11.4c2.7-2.6,7.9-0.9,11.9-0.8c5.6,0.2,11.3-1.1,16.8,0.8c-0.1,6.6,1,13.2,0.3,19.8
			c-0.1,1.3,0,2.6-0.1,4C323.6,82.8,323.6,82.8,318.2,82z"/>
		<path class="st1" d="M158.6,76.9c5.9,0,11.9,0.4,17.8,0.1c4.2-0.2,5.3,1.2,4.2,5c-7.2,1.1-14.4,0.2-21.6,0.5
			c-2.5,0.1-4.9-0.3-7.4,0.3c-2-3.1,0-6.6-0.9-9.8c-3-5-1.5-10.1,0-15.1c-0.4-3.6,0.9-4.8,4.7-4.7c8.3,0.3,16.5,0.1,24.8,0
			c1.6,6,0.9,7.1-5.1,7.4c-5.5,0.3-10.9-0.3-16.3,0.4c-1.2,0.4-1.9,1.2-1.9,2.5c0.2,3.9-0.6,7.9,0.5,11.7
			C157.8,75.8,158.1,76.3,158.6,76.9z"/>
		<path class="st2" d="M156.8,59.1c6.3,0,12.5-0.3,18.8,0.1c5.1,0.3,6.1-1.6,4.7-6c0.9,0.3,1.4,1,1.3,1.8c-0.5,4,1.8,4.4,4.8,4
			c2.2,3.7,2.2,7.4,0,11.1c-1.6,0-2.8-0.4-3-2.4c-0.2-1.9-1.8-1.6-3.1-1.5c-1.5,0.1-1.9,1.4-1.7,2.5c0.9,5.3-2.3,5.7-6.1,5.3
			c-3.5-0.4-7.9,2-9.9-3.5c-0.4-1-2.9-0.5-3,1.7c-0.1,1.7-0.1,3.3-1,4.8c-0.6,0-1.2,0.1-1.8,0.1C155.6,71,155.6,65,156.8,59.1z"/>
		<path class="st1" d="M80,53.1c4.8-0.9,6.2,1.6,5.7,5.9c1.7,1.1,0.3,4.5,3.2,4.5c4.1,0,8.4,1.1,12.3-0.8c1.6-0.8,1.8-3.4,2.1-5.4
			c0.2-1.4-0.7-3,0.7-4.2c1.5,0,3,0.1,4.5,0.1c0.4,0.5,0.5,1.1,0.3,1.7c0.6,7.5-0.2,15.1,0,22.6c0.1,3.8-1.3,5.4-5,5.2
			c-1.2-2.8-0.5-5.8-0.5-8.7c0-2.1-0.7-3.1-2.9-2.9c-1,0.1-2,0-3,0c-3.6,0-8.1-1.2-10.7,0.5c-3,1.9-0.5,6.7-1.2,10.2
			c-0.1,0.4-0.5,0.6-0.8,0.9c-4.2,0.2-5.1-2-5-5.9c0.2-7.4,0.1-14.9-0.1-22.4C79.3,54,79.4,53.5,80,53.1z"/>
		<path class="st3" d="M239.3,76.9c-2.6,0.1-5.3,0-7.9,0.2c-2.3,0.2-3.2-0.6-3.1-3c0-2.5,0.9-3.2,3.2-3.1c2,0.1,4-0.1,5.9,0
			c2,0.1,3-0.4,3-2.7c0-2.5-0.9-3.2-3.2-3.1c-1.8,0.1-3.6-0.1-5.5,0c-2.4,0.2-3.5-0.4-3.5-3.2c0-2.9,1.2-3.1,3.6-3
			c5.1,0.2,10.3-0.3,15.4,0.1c4.9,0.3,6.2-1.5,4.7-6c0.9,0.2,1.4,0.9,1.3,1.7c-0.6,4.1,1.9,4.4,4.9,4.1c0,2,0,4-0.1,6
			c-1.7,3.4-5.3,1.4-8,3c2.6,1.4,5.8-0.2,8,2c0,1,0,2,0,3c-4.9,1.9-10.1,0.6-15.1,0.9C241.1,74,239,73.8,239.3,76.9z"/>
		<path class="st2" d="M300,83c0-6.6,0.2-13.2,0-19.8c-0.1-3.2,1.1-4.2,4.3-4.2c14.4-0.2,14.4-0.3,13.6,14.1
			c-3.7,1.7-7.7,0.9-11.6,0.8c-4-0.1-5.8,0.9-5.3,5.1C301.2,80.3,301.6,82,300,83z"/>
		<path class="st4" d="M222.5,61.8c0.6,5.5,0.7,10.9,0,16.4c-2.7-1.6-4.1-5.2-8.3-4.4c-2,0.4-2.9,1.1-2.8,3
			c-0.3,0.5-0.7,0.5-1.1,0.1l0.1,0.1c-1.3-2.4-1.9-5.8-6-4.1c-2.8,1.1-5.6,1.7-8.4-0.3c-1.6-1.2-2.2-0.4-2.3,1.5
			c-0.2,3,0.9,6.1-1.3,8.8c-0.4-0.4-0.7-0.9-0.9-1.4c-0.6-1.6-0.5-3.3-0.5-4.9c0.1-5.7,0.9-6.7,6.5-7c2.9-0.1,5.3-0.6,6-3.9
			c0.3-0.5,0.6-1,1.1-1.3c2-0.9,4-0.9,5.8,0.6c0.9,1.3,3.2,1.4,3.4,0.8C215.7,61.9,220,64,222.5,61.8z"/>
		<path class="st1" d="M204.4,65c1.2,4.6-0.2,6.5-5.3,6.1c-6.6-0.5-6.6-0.1-6.6,6.4c0,1.5-0.1,2.9-0.1,4.4c-3.9,1.5-5-0.3-5-4
			c0-7.7,0.1-15.3,0-23c-0.1-0.6,0-1.2,0.3-1.8c1.5,0,3-0.1,4.5-0.1c1.4,1.2,0.6,2.8,0.7,4.2c0.5,4.9,1.5,5.9,6.4,6.2
			C201.1,63.7,203,63.5,204.4,65z"/>
		<path class="st3" d="M104,53.2c-1.2,2.9-0.4,5.9-0.5,8.8c-0.1,2.7-1,3.5-3.5,3.4c-3-0.2-6-0.4-8.9,0c-5.5,0.8-6.6-1.7-5.4-6.4
			c3.8,0,7.5-0.2,11.3,0c3.4,0.2,6.3,0.1,5.8-4.6C102.7,54.1,103.5,53.6,104,53.2z"/>
		<path class="st5" d="M150.7,57.8c0.5,5,0.4,10.1,0,15.1c-7.3-0.1-4,5.9-5.2,9.3c-0.6-9.2-0.6-18.3,0-27.5c0.2,2.4,0.4,4.9,0.6,8.2
			C147.4,60.4,148.9,59,150.7,57.8z"/>
		<path class="st6" d="M115.9,53.2c-0.1,0.3-0.1,0.6-0.1,0.9c0.4,9.6,0.7,19.3-0.2,28.9c-2.3-2.4-1.1-5.4-1-8c0.1-3.8-0.9-5.7-5-4.9
			c-1.7-3.7-1.7-7.4,0-11.1C115.4,60.9,113.7,54.9,115.9,53.2z"/>
		<path class="st5" d="M294.2,66c0,2.3,0,4.7,0,7c-3.7,2.3-8.2-0.4-11.8,2c-0.5-2.4-0.4-4.4,2.9-3.9c2.5,0.4,3-1,2.9-3.2
			c-0.1-4.6,0-9.2,0-13.9c1.7,3.2,0.2,7.3,2.8,10.5C292,65.7,292.9,66,294.2,66z"/>
		<path class="st2" d="M329.9,59c0,3.7,0,7.4,0,11c-3.4-0.1-6.7-0.7-3.5,4.8c1,1.7-1.5,5.3-2.4,8.1c-0.5-8-1.1-16,0.3-24
			C326.1,59,328,59,329.9,59z"/>
		<path class="st7" d="M204.4,65c-11.1,1-11.1,1-11.7-10c0-0.6-0.3-1.3-0.5-1.9c1.6,7.6,7.4,6,12.6,5.8c1.6-0.1,3.3,0.2,4.9,0.3
			C208.2,61.4,205.4,62.5,204.4,65L204.4,65z"/>
		<path class="st7" d="M120.6,73c0.4-1.9,1.8-2.1,3.4-2c4,0.1,7.9,0.2,11.9,0c2.6-0.1,3.6,0.7,3.3,3.4c-0.4,2.6,0.4,5.3-0.5,7.9
			c-0.9-8.3-0.9-8.3-9.6-8.3c-2.4,0-4.8,0.2-6.8-1.6c-1.6,3.7,0.8,7.5-1.7,10.7C119.8,79.7,119.9,76.3,120.6,73z"/>
		<path class="st8" d="M407.9,69c0-2,0-4,0-6.1c3.7-0.3,7.3-0.4,9.9,3.2c0.7,0.9,1,1.6,0.8,2.6c-0.3,1-1.1,1.2-1.9,1.2
			C413.7,69.8,410.6,70.7,407.9,69z"/>
		<path class="st9" d="M365.7,63c0,2.4,0,4.7,0,7.1c-1.9,0-3.8,0-5.7,0c-0.2-5.6-0.3-11.2-0.5-16.8c1.9,0.7,1.5,2.4,1.3,3.7
			C360.3,60.9,362,62.6,365.7,63z"/>
		<path class="st9" d="M402.2,53.2c-0.2,5.6-0.3,11.2-0.5,16.8c-2,0-4,0.2-5.8-1c0-2,0-4,0-6.1c3.6-0.6,5.8-2.3,5-6.5
			C400.6,55.3,400.5,53.8,402.2,53.2z"/>
		<path class="st10" d="M120.6,73c0,3.3,0,6.7,0,10c-1.7,0-3.3,0-5,0c0.1-9.6,0.1-19.3,0.2-28.9c3.2,0,6.5,0,9.7,0
			c-8.9,1.6-8.9,1.6-8.9,10.9c0,4.2-0.1,8.3,0,12.5c0,1.5-0.9,4,1.3,4.2c2.5,0.1,1.4-2.4,1.6-3.9C119.9,76.1,119.1,74.3,120.6,73z"
			/>
		<path class="st7" d="M80,53.1c-0.1,0.3-0.1,0.6-0.1,0.9c0.5,9.6,0.7,19.3-0.1,28.9c-2.4-3.5-0.5-7.4-1.1-11
			c-0.4-2.3,1.2-5.1-2.2-6.4c-0.3-0.1-0.5-1.2-0.5-1.2C81.1,61.9,76.7,56.1,80,53.1z"/>
		<path class="st1" d="M210.1,58.8c1-2.2-1.2-6.4,4.2-5.8c3.1,0.4,2.5,2.3,2.2,3.8c-0.9,4.7-4.2,1.5-6.5,1.8L210.1,58.8z"/>
		<path class="st1" d="M210.3,77c0.4,0,0.7-0.1,1.1-0.1c1.6,0.9,4.2-1.2,5,1.5c0.4,1.3,0.4,3.2-0.3,4.2c-0.8,1.2-2.8,0.5-4.2,0.4
			c-2.1-0.1-1.2-1.9-1.4-3.1C210.4,79,210.4,78,210.3,77z"/>
		<path class="st1" d="M282.2,76.9c2,1,6-2.3,6,3c0,2.1-0.1,3.4-2.8,3.2c-2.1-0.1-3.5-0.3-3.2-2.9c0.2-1.1,0-2.3,0.1-3.4
			C282.3,76.8,282.2,76.9,282.2,76.9z"/>
		<path class="st1" d="M204.4,73c0.9-2.8,3.6-2.2,5-1.6c2.4,1.1,0.9,3.7,1,5.7C207.3,77.4,203.8,78.2,204.4,73z"/>
		<path class="st11" d="M324.2,59c-0.1,8-0.2,16-0.3,24c-1.9-0.3-4.1,1.2-5.7-0.9c4,0.6,4.9-1.2,4.9-5c0.1-7.6-1.2-15.4,0.7-22.9
			C324,55.7,324.1,57.3,324.2,59z"/>
		<path class="st12" d="M79.8,83c0-9.6,0.1-19.3,0.1-28.9c0.7,0.2,1.2,0.4,1.2,1.2c-0.1,7.2,0,14.4-0.5,21.6c-0.2,3.4,1,5.1,4,5.9
			C83.1,82.9,81.4,82.9,79.8,83z"/>
		<path class="st12" d="M187.7,54.1c1.7,8,0.5,16,0.7,24.1c0.1,3.1,1.2,4.2,4.1,3.9c0,0.3,0,0.7,0,1c-1.6,0-3.3,0-4.9-0.1
			C186.7,73.3,186.4,63.7,187.7,54.1z"/>
		<path class="st13" d="M103.8,82.7c3.4-0.6,4-2.7,4-5.9c0.1-7.6-1.1-15.2,0.6-22.7c1.6,3.8,0.6,7.8,0.6,11.6
			c0,5.7,0.7,11.5-0.5,17.2C107,82.9,105.4,82.8,103.8,82.7z"/>
		<path class="st1" d="M204.3,65c-0.4-3.9,1.1-6,5.3-5.8l0.4,0.1l0.1-0.4l-0.1-0.1c0.7,2.1,1,4.1,0.4,6.3
			C208.4,65.1,206.4,65,204.3,65z"/>
		<path class="st14" d="M108.6,82.9c-0.1-9.6-0.1-19.2-0.2-28.9c0-0.3,0-0.5,0-0.8c2.3,1.5,0.7,3.8,1.3,5.7c0,3.7,0,7.4,0,11.1
			C108.9,74.3,111.1,78.8,108.6,82.9z"/>
		<path class="st15" d="M187.7,54.1c-0.1,9.6-0.1,19.2-0.2,28.9c-2.4-4.1-0.3-8.6-1.2-12.9c0-3.7,0-7.4,0-11.1
			c0.6-1.8-1-4.2,1.3-5.7C187.7,53.5,187.7,53.8,187.7,54.1z"/>
		<path class="st12" d="M151.6,82.8c5.8-1.7,11.7-0.4,17.6-0.7c3.8-0.2,7.6-0.1,11.4-0.1c-0.1,0.8-0.6,1.1-1.3,1.1
			C170,82.9,160.8,82.8,151.6,82.8z"/>
		<path class="st12" d="M223.4,82.8c5.1-1.8,10.4-0.5,15.6-0.8c4.4-0.2,8.9-0.1,13.3-0.1c-0.2,1.1-1.1,1-1.8,1
			C241.4,83,232.4,82.9,223.4,82.8z"/>
		<path class="st16" d="M366,82c8,0,16,0,24,0c1.6,0,3.3-0.5,4.7,0.8c-9,0.1-17.9,0.1-26.9,0.2C367.1,83,366.1,83.3,366,82z"/>
		<path class="st12" d="M425.8,60c1.9,5.6,0.7,11.4,0.8,17c0,3.9,1.1,5.5,5,4.9c-5.1,2.2-5.8,1.8-5.9-3.2c0-4.3-0.1-8.5-0.2-12.8
			c-1-1.4-0.6-2.7,0-4.1C425.6,61.3,425.7,60.7,425.8,60z"/>
		<path class="st16" d="M331,82.9c9.3-1.5,18.6-1.5,27.9,0C349.6,82.9,340.3,82.9,331,82.9z"/>
		<path class="st8" d="M407.8,77c0-1,0-2,0-3c2.6,1.2,7.1-2.9,7.9,3l0,0C413.1,77,410.5,77,407.8,77z"/>
		<path class="st8" d="M425.5,62c0,1.4,0,2.7,0,4.1c-0.3,0-0.7,0.1-1,0c-1.6-0.4-4.3,1.1-4.5-1.4c-0.2-2.7,2.8-1.1,4.2-1.9
			C424.7,62.4,425.1,62.2,425.5,62z"/>
		<path class="st12" d="M259.3,82.8c3-0.9,4.5-2.5,4.1-5.9c-0.2-1.9-1.1-4.3,1.2-5.8c-0.1,2.4-0.4,4.9-0.1,7.3
			C265.1,82.9,263,83.7,259.3,82.8z"/>
		<path class="st7" d="M421.9,74c0.9,0,1.6,0.4,1.6,1.4c0,1.3-0.9,1.5-1.9,1.5c-0.9,0-1.6-0.4-1.6-1.4C419.9,74.3,420.8,74,421.9,74
			z"/>
		<path class="st5" d="M415.7,77c1.7,0,3.3,0.2,2.9,2.6c-0.1,0.7-0.6,1.3-1.2,1.2C414.9,80.4,416,78.4,415.7,77
			C415.8,77,415.7,77,415.7,77z"/>
		<path class="st7" d="M336.2,69.1c0-2,0-4.1,0-6.1c5.9-2.3,11.8-2.3,17.7,0c0,3.3,0,6.7,0,10C348.3,77.8,340.7,76.1,336.2,69.1z"/>
		<path class="st2" d="M336.2,69.1c0.9,0.4,2.3,0.5,2.7,1.2c4,6.9,9.8,3.2,15,2.8c0.6,2.8,0.1,4.5-3.4,4c-2.3-0.3-4.6-0.1-7-0.1
			C335.7,77,335.7,77,336.2,69.1z"/>
		<path class="st2" d="M353.9,63c-5.9,0-11.8,0-17.7,0c0-1,0-1.9,0.1-2.9c5.8-0.9,11.7-0.9,17.5,0C353.8,61,353.8,62,353.9,63z"/>
		<path class="st7" d="M353.7,60.1c-5.8,0-11.7,0-17.5,0C342,58.6,347.9,58.6,353.7,60.1z"/>
		<path class="st3" d="M372.9,76.9c-2.4-5.5-0.5-11.1-0.8-16.7c-0.1-1.3,1.4-1.1,2.3-1.1c1.6,0,3.3,0,4.9,0c10.8,0,10.8,0,10.4,10.9
			c-2.2,1.9-5,1.6-7.5,1.3C377.6,70.9,374.2,72,372.9,76.9z"/>
		<path class="st2" d="M372.9,76.9c-0.1-6.9-0.1-6.9,6.9-6.9c3.3,0,6.6,0,9.9,0c0,1.3-0.1,2.7,0.1,4c0.3,2.4-0.6,3.2-3,3.1
			C382.2,76.9,377.5,77,372.9,76.9z"/>
		<path class="st7" d="M282.2,63c0.6,2.5-1.1,2.3-2.6,2.3c-4,0-7.9,0-11.9,0c-2,0-3.5,0-3.4-2.8c0.1-2.4,0.4-3.9,3.2-3.5
			c4.8,0.6,9.7-0.9,14.5,1c-1.9,1.8-4.2,1.1-6.7,1.4C277.7,62.1,280.3,61.1,282.2,63z"/>
		<path class="st17" d="M258.2,70c-2.6,0-5.2,0-7.9,0c-1.3,0-2.8,0.1-2.9-1.8c-0.1-2.2,1.6-2.1,3-2.2c2.6-0.2,5.3,0.6,7.7-1
			C258.2,66.7,258.2,68.3,258.2,70z"/>
		<path class="st18" d="M282.2,63c-2.5,0-5,0-7.5,0c-1.2,0-3.1,0.5-3.2-1.4c-0.1-2,1.8-1.5,3-1.5c2.5-0.1,5,0,7.5,0
			C282,61,282.1,62,282.2,63z"/>
		<path class="st19" d="M121.4,61.6c-0.5-2.2,0.8-2.5,2.5-2.4c4,0.1,8,0.1,11.9,0c3.2-0.1,3.8,1.3,2.9,3.9c-5.2,1.8-10.6,0.8-16,0.6
			C121.8,63.7,121,62.9,121.4,61.6z"/>
		<path class="st20" d="M121.4,61.6c2.6,2.7,5.9,1,8.9,1.3c2.8,0.3,5.6,0.1,8.4,0.1c0.8,2-0.3,2.2-1.9,2.2c-4.4,0-8.8,0-13.2,0
			C120.8,65.3,120.3,64,121.4,61.6z"/>
		<path class="st16" d="M156.8,59.1c0,6,0,11.9,0,17.9C154.7,71,154.7,65,156.8,59.1z"/>
		<path class="st18" d="M240.2,60.1c1.9,0.7,6.5-1.3,6.4,1.2c-0.1,3.6-4.5,1.2-7,1.6c-2.1,0.4-4.3,0.1-6.4,0c-0.9,0-1.6-0.5-1.6-1.5
			s0.8-1.3,1.7-1.4C235.4,60.1,237.6,60.1,240.2,60.1z"/>
		<path class="st2" d="M347.8,68.2c-0.1,1.6-1.2,1.8-2.4,1.8c-1.6,0-2.5-0.7-2.3-2.4c0.2-1.6,1.5-1.5,2.6-1.5
			C347.2,66.1,347.9,66.7,347.8,68.2z"/>
		<path class="st2" d="M381.7,60.1c2,0.8,6.5-1.3,6.4,1.2c-0.2,3.4-4.5,1-7,1.6c-1.7,0.4-3.6,0.1-5.4,0c-1.1,0-2.6,0.1-2.5-1.5
			s1.6-1.3,2.7-1.3C377.7,60,379.5,60.1,381.7,60.1z"/>
	</g>
</g>
<g>
	<g>
		<path class="st1" d="M66.7,67.1c0,1.9,0,3.9,0,5.8c-1.5,0-3,0-4.5,0c-0.3,0-0.4,0.1-0.4,0.4c0,1.6,0,3.2,0,4.8
			c0,0.3-0.1,0.4-0.4,0.4c-1.7,0-3.3,0-5,0c-0.3,0-0.4,0.1-0.4,0.3c0,0.2,0,0.4,0,0.6c0,3.4,0,6.8,0,10.1c0,0.2-0.1,0.4-0.3,0.4
			c-1.8,0-3.6,0-5.4,0c0,6.7,0,13.3,0,20c-0.1,0-0.2,0-0.3,0c-13.1,0-26.2,0-39.3,0c-0.1,0-0.2,0-0.3,0c-0.1-0.3-0.1-0.6-0.1-0.9
			c0-6.3,0-12.5,0-18.8c0-0.3,0-0.4-0.3-0.4c-0.7,0-1.3,0-2,0.1c-0.9,0.1-1.9,0-2.8,0c-0.5,0-0.5-0.1-0.5-0.5c0-2.3-0.1-4.7,0.1-7
			c0.1-1.2,0-2.4,0-3.6c0-0.3-0.1-0.3-0.3-0.3c-1.5,0-3.1,0-4.6,0c0-5.7,0-11.5,0-17.2c0.1,0.1,0.3,0.1,0.4,0.1c1.3,0,2.7,0,4,0
			c0.5,0,0.5,0,0.5-0.5c0-0.1,0-0.2,0-0.2c0-2.5,0-5,0-7.6c0-0.9,0-1.8,0-2.6C4.9,50.1,5,50,5.4,50c1,0,2,0,3,0c0.7,0,1.4,0,2.2,0
			c0-0.1,0-0.3,0-0.4c0-6.4,0-12.9,0-19.3c0-0.1,0-0.2,0.1-0.3c0.1,0,0.2,0,0.3,0c13.1,0,26.2,0,39.3,0c0.1,0,0.2,0,0.3,0
			c0,6.6,0,13.2,0,19.8c0,0.3,0,0.4,0.4,0.4c0.6,0,1.2,0,1.9-0.1c1,0,2,0,3,0c0.5,0,0.5,0,0.5,0.5c0,3.5,0,7.1,0,10.6
			c0,0.3,0.1,0.3,0.3,0.3c1.3,0,2.6,0,3.8,0c0.4,0,0.7-0.1,1.1-0.1c0.4,0,0.5,0.1,0.5,0.5c0,1.6,0,3.2,0,4.8c0,0.4,0.1,0.5,0.5,0.5
			c0.3,0,0.6-0.1,0.9-0.1C64.4,67.1,65.6,67.1,66.7,67.1z M33.3,58.5c0,4.6,0,9.2,0,13.8c0,0.5-0.1,0.5-0.5,0.5
			c-0.5,0-0.9-0.1-1.4-0.1c-1.1,0-2.1,0-3.2,0.1c-0.5,0-0.6-0.1-0.6-0.6c0-2.8,0-5.6,0-8.4c0.1-4.2,0-8.3,0-12.5c0-2.2,0-4.3,0-6.5
			c0-0.4-0.1-0.5-0.5-0.5c-1.6,0-3.2,0-4.9,0c-0.5,0-0.5,0-0.5,0.5c0,0.8,0,1.6,0,2.4c0.1,0.8,0,1.6,0,2.4c0,0.3-0.1,0.4-0.4,0.4
			c-3.5,0-7,0-10.6,0c-0.3,0-0.4,0.1-0.4,0.4c0,3.5,0,7.1,0,10.6c0,0.4-0.1,0.5-0.5,0.5c-1.6,0-3.2,0-4.8,0c0,0,0,0.2-0.1,0.5
			c0,0.1,0,0.1,0,0.2c0,5.2,0,10.5,0,15.7c0,0.2,0,0.3,0.1,0.5c0,0.1,0.1,0.2,0.2,0.2c0.6,0,1.2,0.1,1.8,0.1c1,0,2.1,0,3.1,0
			c0.4,0,0.5,0,0.5,0.6c0,3.5,0,7,0,10.5c0,0.3,0.1,0.4,0.4,0.4c3.5,0,7,0,10.4,0c0.4,0,0.5,0.1,0.5,0.5c0,0.5,0,1,0,1.5
			c-0.1,1.1,0,2.2,0,3.3c0,0.2,0.1,0.4,0.4,0.4c5.5,0,10.9,0,16.4,0c0.3,0,0.4-0.1,0.4-0.4c0-1.6,0-3.2,0-4.8c0-0.5,0.1-0.6,0.6-0.6
			c3.5,0,7,0,10.4,0c0.3,0,0.3-0.1,0.3-0.3c0-3.3,0-6.7,0-10c0-0.1,0-0.3-0.1-0.4c-0.1-0.5,0.1-0.7,0.6-0.7c0.3,0,0.5,0.1,0.8,0.1
			c1.3,0,2.7-0.1,4-0.1c0.3,0,0.3-0.1,0.3-0.3c0-5.4,0-10.9,0-16.3c0-0.3,0-0.4-0.3-0.4c-1.6,0-3.3,0-4.9,0c-0.3,0-0.4-0.1-0.4-0.4
			c0-3.6,0-7.1,0-10.7c0-0.3,0-0.4-0.4-0.4c-3.3,0-6.6,0-9.9,0c-0.1,0-0.2,0-0.3,0c-0.5,0.1-0.8-0.1-0.8-0.6c0-1.6,0-3.2,0-4.7
			c0-0.3,0-0.4-0.4-0.4c-1.7,0-3.3,0-5,0c-0.3,0-0.4,0.1-0.4,0.4C33.3,49.3,33.3,53.9,33.3,58.5z"/>
		<path class="st2" d="M33.3,58.5c0-4.6,0-9.2,0-13.8c0-0.3,0.1-0.4,0.4-0.4c1.7,0,3.3,0,5,0c0.3,0,0.4,0.1,0.4,0.4
			c0,1.6,0,3.2,0,4.7c0,0.5,0.3,0.7,0.8,0.6c0.1,0,0.2,0,0.3,0c3.3,0,6.6,0,9.9,0c0.3,0,0.4,0.1,0.4,0.4c0,3.6,0,7.1,0,10.7
			c0,0.3,0.1,0.4,0.4,0.4c1.6,0,3.3,0,4.9,0c0.3,0,0.3,0.1,0.3,0.4c0,5.4,0,10.9,0,16.3c0,0.3-0.1,0.3-0.3,0.3c-1.3,0-2.7,0.1-4,0.1
			c-0.3,0-0.5-0.1-0.8-0.1c-0.5,0-0.7,0.3-0.6,0.7c0,0.1,0.1,0.3,0.1,0.4c0,3.3,0,6.7,0,10c0,0.3-0.1,0.3-0.3,0.3c-3.5,0-7,0-10.4,0
			c-0.5,0-0.6,0.1-0.6,0.6c0,1.6,0,3.2,0,4.8c0,0.3-0.1,0.4-0.4,0.4c-5.5,0-10.9,0-16.4,0c-0.3,0-0.4-0.1-0.4-0.4c0-1.1,0-2.2,0-3.3
			c0-0.5,0-1,0-1.5c0-0.4-0.1-0.5-0.5-0.5c-3.5,0-7,0-10.4,0c-0.3,0-0.4-0.1-0.4-0.4c0-3.5,0-7,0-10.5c0-0.5-0.1-0.6-0.5-0.6
			c-1,0-2.1,0-3.1,0c-0.6,0-1.2-0.1-1.8-0.1c-0.1,0-0.2,0-0.2-0.2S5,77.9,5,77.7C5,72.5,5,67.2,5,62c0-0.1,0-0.1,0-0.2
			c0-0.3,0.1-0.4,0.5-0.4c1.6,0,3.2,0,4.8,0c0.4,0,0.5-0.1,0.5-0.5c0-3.5,0-7.1,0-10.6c0-0.3,0.1-0.4,0.4-0.4c3.5,0,7,0,10.6,0
			c0.4,0,0.4-0.1,0.4-0.4c0-0.8,0-1.6,0-2.4c-0.1-0.8,0-1.6,0-2.4c0-0.5,0-0.5,0.5-0.5c1.6,0,3.2,0,4.9,0c0.3,0,0.5,0.1,0.5,0.5
			c0,2.2,0,4.3,0,6.5c0,4.2,0.1,8.3,0,12.5c0,2.8,0,5.6,0,8.4c0,0.5,0.1,0.6,0.6,0.6c1.1-0.1,2.1-0.1,3.2-0.1c0.5,0,0.9,0.1,1.4,0.1
			s0.5-0.1,0.5-0.5C33.3,67.7,33.3,63.1,33.3,58.5z"/>
	</g>
</g>
</svg>
