<?xml version="1.0" encoding="utf-8"?>
<!-- Generator: Adobe Illustrator 24.1.0, SVG Export Plug-In . SVG Version: 6.00 Build 0)  -->
<svg version="1.1" id="Layer_1" xmlns="http://www.w3.org/2000/svg" xmlns:xlink="http://www.w3.org/1999/xlink" x="0px" y="0px"
	 viewBox="0 0 608.4 166.7" style="enable-background:new 0 0 608.4 166.7;" xml:space="preserve">
<style type="text/css">
	.st0{fill:#414042;}
</style>
<g>
	<g>
		<path class="st0" d="M587.3,94.2c-13.2,0.5-13.2,0.5-13.2-12.6c0-5.8,0.2-11.6,0-17.3c-0.4-10.1-6.5-14.2-16.1-10.8
			c-7.6,2.6-12.1,9.2-12.3,18.5c-0.2,6.1-0.1,12.2,0,18.3c0,2.4,0,4.2-3.3,4.1c-3.1-0.1-2.9-1.9-2.9-3.9c0-10.9,0-21.8,0-32.7
			c0-2.5,0-4.8-3.5-4.6c-2.3,0.1-2.6-1.4-2.6-3.3c0-2.2,1.4-2.2,3-2.3c7.6-0.6,8.7,0.4,9.7,9.6c4.6-6.9,10.6-10.7,18.8-10.6
			c9.5,0.1,14.9,4.9,15.5,14.4c0.3,5.9,0.3,11.9,0.1,17.8c-0.1,5.4-1.1,11.1,7,11.5C587.3,91.6,587.3,92.9,587.3,94.2z"/>
		<path class="st0" d="M17.4,33.8c22.1,0,44.2,0.1,66.3-0.1c4.2,0,5.7,0.7,5.7,5.3c-0.3,19.6-0.3,39.3,0,58.9
			c0.1,4.6-1.5,5.4-5.7,5.3c-22.1-0.2-44.2-0.1-66.3-0.1C17.4,80,17.4,56.9,17.4,33.8z M86.6,68.5c0-9.4-0.1-18.8,0.1-28.2
			c0.1-3.2-0.8-4.3-4.2-4.3c-19.5,0.1-38.9,0.1-58.4,0c-3.2,0-3.9,1.1-3.9,4c0.1,19,0.1,38,0,57c0,2.9,0.7,4.1,3.9,4.1
			c19.5-0.1,38.9-0.1,58.4,0c3.3,0,4.3-1.1,4.2-4.3C86.5,87.3,86.6,77.9,86.6,68.5z"/>
		<path class="st0" d="M587.3,133.9c-4.5,4.4-10.1,5.2-13.5,1.7c-1-1.1-2.4-2.6-1.1-3.8c1.5-1.4,2,0.8,2.7,1.7
			c1.5,1.8,3.5,1.7,5.5,1.6c1.6-0.1,3-0.6,3.3-2.4c0.3-1.9-1-2.7-2.5-3.2c-1.4-0.5-2.9-0.8-4.3-1.2c-2.7-0.8-5.2-2.1-4.7-5.4
			c0.5-3.5,3.3-4.6,6.6-4.7c1.9-0.1,3.7,0.3,5.1,1.6c1,1,2.7,2.3,1.4,3.6c-1.5,1.5-2.1-0.7-2.9-1.5c-1.2-1.2-2.6-1.3-4.1-1.2
			c-1.5,0.1-3.1,0.4-3.3,2.3c-0.1,1.6,1.2,2.4,2.5,2.6c3.4,0.7,6.7,1.8,9.3,4.2C587.3,131.2,587.3,132.5,587.3,133.9z"/>
		<path class="st0" d="M278.5,86.5c-4.5,5.9-9.7,8.9-16.6,8.9c-9.8-0.1-15.6-5.3-16-15.1c-0.3-6.4-0.1-12.9-0.1-19.3
			c0-1.6,0.2-3.9-1.9-4c-7-0.4-2.9-5.5-3.9-8.5c-0.1-0.4,0.5-1.2,1-1.5c7.1-4,16.5,1.1,16.5,9.1c0,6.4,0,12.9,0,19.3
			c0,3.4,0.2,7,3.8,8.5c3.9,1.6,7.9,0.9,11.3-1.9c3.9-3.1,5.5-7.4,5.5-12.2c0-6.3,0.1-12.5,0-18.8c-0.1-3.1,0.9-4.7,4.3-4.2
			c1.1,0.2,2.3,0.1,3.5,0c3.4-0.4,4.7,0.9,4.6,4.4c-0.2,9.6,0,19.1-0.1,28.7c0,2.5,0.1,4.1,3.4,4.7c4.1,0.7,1.5,4.6,2,7
			c0.5,2.2-1,2.8-3,2.8c-2.2-0.1-4.3,0-6.5,0C280.5,94.1,279.4,93.2,278.5,86.5z"/>
		<path class="st0" d="M162.4,54.6c3.4-4.1,6.8-7.1,11.6-8.2c12.5-3.1,21.2,3.1,21.8,15.8c0.3,6.1,0.1,12.2,0.1,18.3
			c0,1.6-0.3,3.7,2.1,3.7c6.5,0.1,3.3,4.9,3.5,7.7c0.3,3.6-3,2.3-4.8,2.3c-12.8,0.2-12.8,0.1-12.8-12.4c0-5.6,0.1-11.2,0-16.8
			c-0.2-7.1-4.5-10.1-11.4-8.1c-5.5,1.6-9.4,6.4-9.7,13.1c-0.3,6.6-0.4,13.2-0.1,19.8c0.3,5.7-3.4,4.3-6.6,4.5
			c-3.3,0.2-5.6,0.1-5.5-4.5c0.4-9.4,0.1-18.8,0.1-28.2c0-2.7-0.2-4.5-3.7-5.1c-4.2-0.7-1.6-4.5-2.1-6.9c-0.5-2.1,0.7-3,2.8-2.9
			c2.3,0.1,4.7,0,7,0C160.6,46.8,161.7,47.9,162.4,54.6z"/>
		<path class="st0" d="M366.4,72.5c-4.2,0-8.3,0.1-12.4,0c-3.5-0.2-3.9,1.4-3,4.2c2.3,6.8,10.6,10.3,18.7,7.9c1.3-0.4,2.4-1,3.7-1.4
			c1.7-0.6,3.2-3.2,4.6-2.1c1.8,1.4,2.8,4,4.1,6.1c0.7,1.2-0.1,1.8-0.9,2.4c-8.4,6-17.6,7.6-27.4,4.1c-9.7-3.5-14.9-11-15.7-20.9
			c-0.8-9.8,2.4-18.3,11.3-23.7c15.8-9.5,33.7,0.4,34.2,18.6c0.1,3.4-0.7,5.3-4.7,5C374.7,72.2,370.6,72.5,366.4,72.5z M360.9,64.4
			c2.3,0,4.7-0.2,7,0c3.9,0.3,3.6-1.6,2.5-4.2c-2.9-6.7-12.4-7.5-17.3-1.3c-1.1,1.4-2.8,2.9-1.8,4.8c0.8,1.4,2.7,0.6,4.1,0.7
			C357.2,64.5,359,64.4,360.9,64.4z"/>
		<path class="st0" d="M122.2,72.5c-4.2,0-8.3,0.2-12.5,0c-4-0.2-4,1.5-2.8,4.5c3,7.2,11.3,10.4,19.8,7.2c1.1-0.4,2.3-0.8,3.1-1.5
			c3.6-3.2,5-0.7,6.9,2.1c2.4,3.5,0.5,4.8-2.1,6.4c-11.9,7.2-27.9,4.9-35.7-5.2c-7.9-10.4-6.7-25.7,2.6-34.3
			c6.7-6.1,17.7-7.8,26.1-4c7.3,3.3,11.8,11.6,11.6,20.9c-0.1,3-1,4.1-4.1,4C130.9,72.3,126.6,72.5,122.2,72.5z M116.7,64.4
			c2.5,0,5-0.1,7.5,0c2.6,0.1,3.2-0.8,2.3-3.3c-1.2-3.4-3.5-5.7-7-6.2c-4.2-0.7-7.9,0.7-10.6,4.1c-1.1,1.4-2.7,3-1.8,4.8
			c0.7,1.4,2.7,0.5,4.2,0.6C113,64.5,114.9,64.4,116.7,64.4z"/>
		<path class="st0" d="M399.6,53.6c3-2.2,5.5-5.1,9.4-6.2c9.6-2.8,19.2,0.9,23.6,9.8c4.3,8.8,4.5,18,0.3,26.8
			c-6.3,13.2-22.6,15.5-32.6,4.8c-0.3-0.3-0.7-0.5-1.6-1c0,1.3,0,2.3,0,3.2c0.1,2-0.1,3.5-2.8,3.5c-2.8,0-3.3-1.2-3.3-3.6
			c0.1-16.8,0-33.7,0-50.5c0-3,0.5-6.2-4.3-5.9c-1.9,0.1-1.8-1.5-1.8-2.9c0-1.5,0.4-2.6,2.2-2.6c7-0.1,10.3-0.8,10.3,8.4
			C399.2,42.8,398.6,48.2,399.6,53.6c-0.1,0.2-0.3,0.3-0.5,0.4c0.1,0,0.3,0,0.3,0C399.6,53.9,399.6,53.7,399.6,53.6z M429.2,71.1
			c-0.3-2.4-0.4-5-1-7.3c-1.9-7.3-7.3-11.5-14.3-11.4s-12.3,4.5-14.1,11.8c-1.5,6.1-1.2,12.1,1.7,17.8c4.9,9.7,17.2,10.8,23.8,2.2
			C428.3,80.4,429.1,75.9,429.2,71.1z"/>
		<path class="st0" d="M211.2,68.6c0-2.5-0.1-4.9,0-7.4c0.1-2.9,0.1-5-3.9-5c-3.8,0-1.8-3.5-2.1-5.4c-0.2-1.6-0.8-4.2,2.2-3.9
			c4.8,0.6,4.4-2.4,4.4-5.5c-0.1-8.1,0.6-8.5,8.7-7.6c1.8,0.2,2.8,0.8,2.7,2.7c0,1,0,2,0,3c0,7.1,0,7.4,6.9,7.2c4.1-0.1,4,2.1,4,4.9
			c0,2.9,0,5-4.1,4.8c-7.3-0.3-6.9-1.2-6.9,6.8c0,4-0.1,7.9,0,11.9c0.2,5.8,2.6,8.6,8.3,9.2c6.1,0.5,2.7,4.9,3.3,7.4
			c0.7,3.2-1.8,3.3-4.1,3.2c-13-0.3-19.4-6.9-19.5-19.9C211.2,72.8,211.2,70.7,211.2,68.6z"/>
		<path class="st0" d="M481.2,85.9c-5.2,6.7-11.2,10-19.3,9.5c-7.7-0.5-12-3.8-13.5-11.4c-1.6-8.3-0.5-16.8-0.7-25.2
			c-0.1-3.1,0.4-6.1-4.3-5.8c-1.9,0.1-1.7-1.7-1.7-3s0.3-2.1,1.8-2.5c6.7-1.9,10.7,1,10.7,7.9c0,7.6-0.1,15.2,0.1,22.8
			c0.3,9.7,6.9,13.9,16,10.2c7.4-3,11-8.9,11.3-16.6c0.3-6.8,0.2-13.5,0.1-20.3c0-2.4,0.2-4,3.4-4c3.4,0,3.2,1.9,3.2,4.2
			c0,10.7,0,21.5,0,32.2c0,2.6-0.2,5.1,3.6,4.9c2-0.1,2.4,1.2,2.4,2.9c0,1.9-0.8,2.5-2.7,2.7C484.6,95.2,483,94.1,481.2,85.9z"/>
		<path class="st0" d="M318,55.7c3.3-4.6,6.5-8.3,11.9-9.3c3.3-0.6,5.2-0.2,4.8,3.7c-0.1,1.3-0.1,2.6,0,4c0.2,2.3-0.4,3.4-3.2,3.7
			c-8.5,0.8-13.2,5.9-13.7,14.8c-0.3,5.8-0.3,11.6-0.1,17.3c0.1,3.5-1,4.9-4.5,4.4c-1.1-0.2-2.3-0.1-3.5,0c-3.1,0.4-4-0.9-3.9-3.9
			c0.2-9.6,0-19.2,0.1-28.7c0-2.6,0-4.6-3.7-5.1c-4.3-0.6-1.7-4.5-2.2-6.9c-0.5-2.5,1.2-3.1,3.3-2.9c1.5,0.1,3,0,4.5,0
			C315.8,46.7,316.4,47.2,318,55.7z"/>
		<path class="st0" d="M511.6,57c3.3-5,6.4-8.8,11.8-9.6c2-0.3,4.5-1.4,5,2c0.4,2.8-0.4,3.9-3.6,4.2c-7.6,0.8-12.9,7.8-13.5,17.8
			c-0.3,5.9-0.1,11.9-0.2,17.8c-0.1,2.2,1.2,5.1-3.1,5.2c-4.2,0.1-3.4-2.6-3.4-5c0-10.4,0-20.8,0-31.2c0-2.8,0.2-5.4-3.9-5.1
			c-2.2,0.2-2.1-1.6-2.1-3.1c0-1.6,0.7-2.2,2.4-2.5C508.3,46.5,510.6,48.3,511.6,57z"/>
		<path class="st0" d="M469.8,132.6c1.3-3.7,2.5-7.4,3.8-11.1c0.5-1.5,0.8-3.5,3.1-3.1c2.4,0.4,1.5,2.6,1.6,4.1c0.1,4,0,7.9,0,11.9
			c0,1.1,0.1,2.7-1.4,2.7c-1.7,0.1-1.3-1.6-1.3-2.6c0-3.1,0-6.3-0.9-9.7c-1.1,3.2-2.2,6.4-3.4,9.6c-0.4,1-0.6,2.4-2,2.5
			c-1.8,0.2-2-1.5-2.4-2.6c-1.2-3.4-2.3-6.8-4.3-10.2c0,3.6,0,7.2,0,10.8c0,0.9,0.2,2.2-1.3,2.2c-1.2,0-1.4-1.2-1.4-2.2
			c0-4.6,0-9.2,0-13.9c0-1.2,0.2-2.4,1.7-2.6c1.5-0.3,2.5,0.4,3,1.9c1.4,4.1,2.7,8.1,4.1,12.1C469.1,132.5,469.4,132.6,469.8,132.6z
			"/>
		<path class="st0" d="M205.5,133.4c1.1-4.9,1.9-8.5,2.9-12.2c0.3-1.2,0.5-3.1,2.3-2.6s0.5,2,0.3,2.9c-1.1,4.5-2.4,8.9-3.6,13.4
			c-0.3,1.1-0.6,2.4-2.1,2.4c-1.6,0-1.7-1.5-2-2.5c-1.1-3.8-2.1-7.6-4.1-11.4c-1.1,3.6-2.1,7.3-3.3,10.9c-0.4,1.2-0.4,2.9-2.1,3
			c-1.8,0.1-1.9-1.6-2.3-2.8c-1.2-4.3-2.4-8.6-3.4-12.9c-0.2-1-1-2.5,0.7-2.8c1.5-0.3,1.7,1.3,1.9,2.4c0.9,3.7,1.7,7.4,2.6,11.7
			c2.2-3.9,2.6-7.8,3.8-11.5c0.4-1.2,0.5-2.8,2.3-2.8c1.7,0,2.1,1.3,2.4,2.7C203.1,124.8,204.2,128.5,205.5,133.4z"/>
		<path class="st0" d="M414.5,124.9c0,3.1,0,6.3,0,9.4c0,1.1,0.2,2.6-1.5,2.5c-1.2-0.1-1.2-1.4-1.2-2.4c0-4.3,0-8.6,0-12.9
			c0-1.2-0.1-2.5,1.3-2.9c1.4-0.4,2,0.7,2.7,1.7c2.6,3.7,5.1,7.5,8.7,10.9c0-3.4,0-6.8,0-10.1c0-0.9-0.3-2.2,1.1-2.4
			c1.4-0.2,1.6,1,1.6,2c0,4.8,0,9.6,0,14.4c0,1-0.2,2.1-1.5,2.2c-1.1,0.1-1.8-0.6-2.4-1.4c-2.6-3.8-5.2-7.5-7.8-11.3
			C415.1,124.6,414.8,124.8,414.5,124.9z"/>
		<path class="st0" d="M164,131.2c0-3.4,0-6.8,0-10.2c0-0.9-0.2-2.2,1.2-2.3c1.3-0.1,1.5,1.1,1.5,2.1c0,4.8,0,9.6,0,14.3
			c0,1-0.3,2-1.5,2.2c-1.1,0.1-1.8-0.6-2.4-1.5c-2.6-3.8-5.1-7.6-8.7-11.3c0,3.3,0,6.6,0,10c0,1,0.1,2.2-1.2,2.3
			c-1.3,0.1-1.4-1.2-1.4-2.1c0-4.6,0-9.2,0-13.8c0-1,0.2-2.1,1.4-2.3c1.1-0.2,1.8,0.6,2.4,1.4c2.6,3.8,5.2,7.6,7.8,11.4
			C163.4,131.3,163.7,131.3,164,131.2z"/>
		<path class="st0" d="M363.7,128.2c0-0.7-0.1-1.3,0-2c0.3-2.5-1.4-6.2,1-7.3c3.3-1.5,7.5-1.2,11.1,0.2c3.2,1.3,4.4,5.8,1.7,7.7
			c-3.2,2.2-1.9,3.4-0.4,5.6c0.9,1.3,3.9,3,1.6,4.7c-1.7,1.2-2.7-1.7-3.8-3.1c-0.8-1-1.5-2.2-2.3-3.2c-1.2-1.6-3-2.1-4.9-1.6
			c-2.1,0.5-1.2,2.4-1.4,3.7c-0.1,1,0,2-0.2,2.9c-0.1,0.5-0.7,1.2-1.2,1.3c-1,0.2-1.4-0.7-1.4-1.6
			C363.7,133.1,363.7,130.6,363.7,128.2L363.7,128.2z M371,120.8c-2.2,0.1-4.6-0.6-4.6,2.9c0,2.9,1.6,3.2,3.8,3
			c2.4-0.2,5.5,0.4,5.5-3.2C375.7,120.5,373,121,371,120.8z"/>
		<path class="st0" d="M277.9,127.4c0-0.3-0.1-0.7,0-1c0.5-2.6-1.6-6.4,1.2-7.7c3-1.4,6.8-0.9,10.2,0.1c3.4,1,5.3,5.5,2.8,7.3
			c-3.9,2.9-2,4.7-0.1,7.2c0.7,1,2.8,2.4,1.1,3.6c-1.5,1.1-2.5-0.9-3.3-2s-1.5-2.1-2.2-3.2c-1.3-2-3-3.2-5.4-2.6
			c-2.7,0.6-1.2,2.9-1.6,4.5c-0.3,1.3,0.6,3.5-1.6,3.4c-1.8,0-1.1-2-1.2-3.2C277.8,131.7,277.9,129.6,277.9,127.4z M284.3,126.8
			c2.3-0.2,5.5,0.5,5.6-3.1c0.1-3.1-2.6-2.9-4.7-2.8c-1.9,0-4.5-0.9-4.6,2.7C280.6,126.4,281.9,127,284.3,126.8z"/>
		<path class="st0" d="M71.2,128.1c0-0.7-0.1-1.3,0-2c0.4-2.5-1.4-6.3,1-7.3c3.3-1.5,7.6-1.3,11.1,0.3c3.3,1.5,4.5,5.1,1.9,7.2
			c-3.8,3-1.3,4.6,0.1,6.9c0.7,1.1,2.9,2.5,1.4,3.6c-1.8,1.4-2.7-1-3.6-2.2c-0.8-1-1.5-2.2-2.2-3.3c-1.2-1.8-2.8-2.8-5-2.4
			c-2.8,0.5-1.4,2.9-1.7,4.4c-0.3,1.3,0.5,3.6-1.5,3.6c-2.2,0-1.2-2.2-1.3-3.5C71.1,131.8,71.2,129.9,71.2,128.1z M77.9,126.8
			c2.4-0.2,5.5,0.3,5.4-3.3c-0.1-3-2.8-2.6-4.9-2.6s-4.4-0.5-4.3,2.9C74,126.7,75.7,126.9,77.9,126.8z"/>
		<path class="st0" d="M305,128c0-0.3,0-0.7,0-1c0.4-2.7-1.4-6.4,1-7.9c3.2-2,7.4-0.6,11.2-0.6c0.5,0,1.3,0.6,1.4,1.1
			c0.2,1-0.8,1.3-1.6,1.4c-2.2,0.1-4.3,0.1-6.5,0.1c-1.9,0-2.7,0.6-2.7,2.6c0,1.8,0.6,2.8,2.5,2.8c2.2,0,4.3,0,6.5,0.2
			c0.5,0,1.2,0.8,1.2,1.2c0.1,0.7-0.6,1.1-1.3,1.1c-1.8,0-3.7,0.1-5.5,0c-2-0.1-3.4,0.2-3.5,2.8c0,2.7,1.1,3.4,3.5,3.3
			c2.1-0.1,4.3,0,6.5,0c0.7,0,1.4,0.4,1.3,1.1c-0.1,0.5-0.8,1.2-1.2,1.2c-3.6,0.1-7.3,0.2-10.9,0.1c-1.7-0.1-1.9-1.5-1.9-2.9
			C305,132.3,305,130.1,305,128z"/>
		<path class="st0" d="M186.1,136.7c-5.2,1.3-9.5,0.9-13.8,0.5c-1.2-0.1-1.1-1.5-1.1-2.5c0-2.3,0-4.6,0-6.9c0-10,1.7-11.4,11.7-9.6
			c0.8,0.2,1.8,0.2,1.9,1.2c0.1,1.4-1.1,1.4-2.1,1.4c-1.8,0.1-3.7,0.1-5.5,0c-1.8,0-3.3,0.2-3.3,2.6c0,2.2,1.1,2.6,3.1,2.8
			c2.3,0.2,6.5-1.2,6.5,1.2c0,2.6-4.1,1.1-6.3,1.3c-2.2,0.2-3.3,0.7-3.3,3.1s1,3,3.3,3.1C179.8,135.1,182.7,134,186.1,136.7z"/>
		<path class="st0" d="M352.7,137.5c-8.1-0.1-6.9,0.6-7-6.7c0-1.2,0-2.3,0-3.5c0-9.2,2.4-11,11.6-9c0.8,0.2,1.9,0.4,1.9,1.3
			c0,1.3-1.2,1.3-2.2,1.3c-1.8,0-3.6,0.1-5.5,0c-2-0.1-3.1,0.6-3,2.8c0.1,2,1.1,2.6,2.8,2.5c0.3,0,0.7-0.1,1,0
			c2,0.6,5.8-1.4,5.8,1.4c0,2.3-3.9,1-6,1.1c-2.4,0.1-3.7,0.6-3.6,3.3c0,2.6,1.4,3,3.5,2.9c0.7,0,1.4-0.1,2,0
			c1.9,0.5,5.4-1.3,5.4,1.4c0,2.2-3.6,0.8-5.6,1.2C353.3,137.6,353,137.5,352.7,137.5z"/>
		<path class="st0" d="M500.5,127.8c0-0.3,0-0.7,0-1c0-8.6,2.8-10.6,11.3-8.1c3.6,1.1,5.6,5.5,2.9,7.6c-3.9,3-1.4,4.7,0.1,7.1
			c0.6,1.1,2.8,2.5,0.9,3.6c-1.6,1-2.4-1.1-3.2-2.2c-0.9-1.2-1.7-2.5-2.5-3.7c-1.3-1.9-3.1-2.5-5.2-2c-2.4,0.6-1.1,2.7-1.5,4.1
			c-0.3,1.3,0.7,3.6-1.4,3.6c-2.1,0-1.3-2.2-1.4-3.6C500.4,131.4,500.5,129.6,500.5,127.8z M507.8,120.8c-1.7,0.3-4.3-1-4.4,2.7
			c-0.1,3.2,1.7,3.4,4,3.3c2.5-0.1,5.6,0.2,5.6-3.2C512.9,120.6,510.1,120.9,507.8,120.8z"/>
		<path class="st0" d="M392.2,128.5c7.2-1.7,9.2-0.5,8,4.8c-0.6,2.8-3.1,3.3-5.2,3.9c-4.2,1.2-8,0.2-10.6-3.4
			c-2.6-3.5-2.5-7.5-0.5-11.2c2-3.8,5.6-5,9.7-4.5c2,0.2,3.9,1,5,2.9c0.5,0.8,1.5,1.7,0.4,2.6s-1.7-0.2-2.3-0.9
			c-2.5-3-5.7-2.8-8.5-1c-3.6,2.4-3.3,6.4-2.1,9.8c1.2,3.2,4.3,3.8,7.5,3.4c1.9-0.3,3.8-0.8,3.8-3.1c0-2.8-2.3-1.5-3.7-1.9
			C393.1,129.8,392.4,129.8,392.2,128.5z"/>
		<path class="st0" d="M551.8,119.6c-2.6,1.8-5.2,1.1-7.8,1.3c-1.7,0.1-2.9,0.3-3,2.4s0.8,2.9,2.9,3c2.3,0.1,5-0.9,7.2,1.3
			c-1.9,2.1-4.4,1.1-6.5,1.2c-2.3,0.1-3.8,0.3-3.8,3.2c0,3,1.8,3,3.9,3c0.2,0,0.3,0,0.5,0c2.2,0.6,6-1.5,6.2,1.4
			c0.1,2-4,1.1-6.2,1.1c-8.4,0.1-7.1,0.8-7.2-7.1c0-1.3-0.2-2.7,0-4c0.4-2.6-1.6-6.7,1.2-7.7C543.3,117.5,547.9,117.7,551.8,119.6z"
			/>
		<path class="st0" d="M440.6,128.4c2.7-0.8,5.8-2.1,7.6,0.9c1.9,3.3-0.2,6.4-4.4,7.8c-4.2,1.3-8,0.6-10.8-2.7
			c-3.1-3.7-3-7.9-0.7-12c2-3.6,5.5-4.6,9.4-4.2c1.7,0.2,3.3,0.8,4.4,2.1c0.8,0.9,2.3,2.1,1,3.3c-1.3,1.1-1.8-0.7-2.6-1.4
			c-2.9-2.3-5.9-2.2-8.6-0.1c-2.7,2.1-3.1,7.6-0.9,10.5c2.4,3.2,5.7,2.9,9,1.8c1.2-0.4,1.8-1.3,1.7-2.7c-0.1-1.7-1.3-1.6-2.5-1.7
			C442.2,129.9,441.1,130.3,440.6,128.4z"/>
		<path class="st0" d="M274.3,128c0,5.7-3.8,9.7-9.1,9.7c-5.1,0.1-9.1-4.2-9.2-9.7c-0.1-5.8,3.9-10,9.4-9.9
			C270.7,118.2,274.3,122.3,274.3,128z M271.6,128.1c0.1-4.4-2.4-7.3-6.2-7.4c-4-0.1-6.4,2.6-6.5,7.1c-0.1,4.5,2.2,7.3,6.2,7.4
			C269.1,135.2,271.5,132.5,271.6,128.1z"/>
		<path class="st0" d="M222.5,137.7c-2.9,0-4.8-0.4-6.4-1.8c-1.3-1.1-3-2.8-1.7-4.1c1.8-1.9,2.1,0.9,3,1.8c1.6,1.6,3.6,1.5,5.6,1.3
			c1.6-0.1,3-0.8,3.1-2.6c0.1-1.6-1-2.3-2.4-2.8c-2.2-0.8-4.5-1.2-6.6-2.2c-2.4-1.1-3.4-3.2-2.2-5.7c1.6-3.5,4.8-3.8,8.1-3.3
			c2.5,0.3,4.4,1.7,4.9,4.2c0.3,1.3-0.9,1.7-1.9,1c-0.9-0.6-1.5-2-2.4-2.3c-2.2-0.8-5.1-1.3-6.1,1.4c-0.9,2.6,1.8,3,3.7,3.5
			c0.8,0.2,1.6,0.4,2.4,0.7c3.1,0.9,5.8,2.4,5.2,6.1C228,136.5,225,137.5,222.5,137.7z"/>
		<path class="st0" d="M27.8,137.8c-3.2-0.1-5.8-1-7.4-3.7c-0.5-0.8-1.2-1.8-0.2-2.6c1.1-0.9,1.8,0.1,2.3,1c1.5,2.6,3.9,2.8,6.5,2.5
			c1.6-0.2,2.9-1,3.1-2.7c0.2-1.6-1.2-2.3-2.4-2.7c-1.9-0.6-3.9-1-5.7-1.7c-2.6-1-4.2-2.9-3.3-5.8c1.1-3.3,4-4.2,7.2-3.9
			c2.9,0.2,5.1,1.4,6,4.3c0.1,0.3-0.2,1-0.5,1.2c-0.9,0.4-1.6,0-2-0.8c-1.1-2.1-3.1-2.3-5.1-2.1c-1.4,0.1-2.7,0.5-3,2.1
			c-0.3,1.7,1,2.3,2.3,2.7c1.3,0.4,2.6,0.7,3.8,1c3.1,0.9,5.8,2.3,5.2,6C34,136.4,31,137.4,27.8,137.8z"/>
		<path class="st0" d="M338.9,123.9c-2.9,3-2.8,7.2-4.6,10.7c-0.5,1-0.7,2.4-2.2,2.3c-1.5,0-1.8-1.4-2.1-2.4
			c-1.2-3.2-2.2-6.5-4.3-9.7c0,3.3,0,6.5,0,9.8c0,0.9,0.3,2.3-1.1,2.4c-1.7,0.2-1.6-1.3-1.6-2.4c0-4.5,0-8.9,0-13.4
			c0-1.3-0.1-2.8,1.8-2.9c1.6-0.1,2.4,0.7,2.9,2.1c1.4,4,2.7,8.1,4.4,13.1c1.8-4.5,3.3-8,4.7-11.6
			C337.9,122.3,340.1,121.3,338.9,123.9z"/>
		<path class="st0" d="M126.2,127.8c0-0.7,0-1.3,0-2c0-8,1-8.8,9.2-7.4c3.2,0.5,5.3,2.2,5.4,5.5c0.1,3.2-1.8,5.6-5,5.7
			c-4.3,0.2-8,0.3-6.9,6.2c0.2,0.8-0.6,1.5-1.6,1.4c-1.1-0.2-1-1.1-1-1.9C126.2,132.7,126.2,130.2,126.2,127.8z M133.5,120.9
			c-2,0.1-4.5-0.8-4.5,2.8c0,2.6,0.8,3.6,3.4,3.4c2.3-0.2,5.1,0.4,5.4-2.9C138.1,121.4,135.8,120.9,133.5,120.9z"/>
		<path class="st0" d="M119.1,125c0.7-1.8-1.3-6.1,1.2-6c3.3,0.1,1.3,4.3,1.6,6.6c0.3,2.1,0.1,4.3-0.3,6.4c-0.8,4.1-3.7,5.8-7.6,5.7
			c-3.7-0.1-6.6-1.7-7-5.6c-0.4-3.8-0.3-7.6-0.4-11.4c0-1,0.2-2.2,1.5-2c1.4,0.1,1.1,1.4,1.1,2.3c0.1,2.8,0,5.6,0,8.4
			c0,3.4,1.2,5.8,5.2,5.6c3.8-0.1,4.6-2.6,4.6-5.7C119.1,128.1,119.1,126.7,119.1,125z"/>
		<path class="st0" d="M522.6,126.9c4.7-2.5,6.4-7.6,11.6-8.7c-0.4,4.4-7.3,4.8-5.2,9.5c1.4,3.2,4.1,5.9,6.2,8.8
			c-1.4,1.7-2.6,0.8-3.4-0.2c-1.2-1.4-2.1-3-3.2-4.4c-1-1.2-1.4-3.5-3.5-2.9c-1.9,0.5-2.5,2.4-2.5,4.4c0,1.3,0.9,3.7-1.1,3.7
			c-2.5-0.1-1.1-2.6-1.2-4c-0.2-3.9-0.2-7.9-0.3-11.8c0-1.2-0.2-2.6,1.5-2.6c1.3,0,1.2,1.4,1.2,2.3
			C522.6,122.7,522.6,124.5,522.6,126.9z"/>
		<path class="st0" d="M68.3,135.6c-0.1,1-0.3,1.7-1.2,1.7c-1.2-0.1-1.8-0.9-2-1.9c-0.6-3-2.5-3.7-5.4-3.6c-2.6,0-4.5,0.4-5.1,3.3
			c-0.2,1.1-0.8,2.6-2.2,2.1c-2-0.7-0.4-2.2-0.1-3.2c1.6-4.5,3.4-8.9,5.2-13.3c0.6-1.6,2.2-3.6,3.5-1.4
			C63.9,124.5,66,130.3,68.3,135.6z M59.6,121.1c-0.5,3.8-3.4,5.6-1.4,8.3c0.4,0.5,2.8,0.5,3.2,0C63.1,126.7,60.6,124.8,59.6,121.1z
			"/>
		<path class="st0" d="M497.3,134.8c0.3,1.5,0.2,2.2-0.5,2.3c-1.2,0.3-1.9-0.6-2.1-1.6c-0.6-3.7-3.2-3.8-6.2-3.9
			c-2.8,0-3.8,1.4-4.5,3.6c-0.2,0.7-0.6,1.6-1.7,1.4c-1.2-0.2-1-1.2-0.7-1.9c1.9-5.1,3.8-10.2,5.9-15.2c0.7-1.7,2.6-1.9,3.4-0.1
			C493.3,124.8,495.4,130.2,497.3,134.8z M489,122.6c0,2.5-3.5,4.2-1.7,6.7c0.7,1,3.6,0.9,4,0C492.3,126.8,490.2,124.8,489,122.6z"
			/>
		<path class="st0" d="M252.8,119.6c-2.3,1.7-4.8,1.2-7.2,1.2c-1.8,0-2.7,0.6-2.7,2.6s0.5,3.1,2.7,3.1c2,0,4.3-0.6,6,0.9
			c-0.2,1.4-1.1,1.6-1.9,1.5c-5-0.7-8,0.5-6.9,6.3c0.1,0.7,0.2,1.8-0.9,1.9c-1.4,0.1-1.6-1-1.6-2c0-4.8,0-9.5,0-14.3
			c0-1,0.3-2.1,1.5-2.2C245.6,118.3,249.3,118,252.8,119.6z"/>
		<path class="st0" d="M43.3,128.9c0-1.2-0.1-2.3,0-3.5c0.2-2.7,0-5-3.8-4.5c-0.9,0.1-2.2-0.1-2-1.4c0.1-0.9,1.1-1.1,2-1.1
			c3.5,0,7,0,10.4,0c1,0,2.2,0.1,2,1.5c-0.1,1.1-1.1,1.2-1.9,1.1c-4.1-0.5-4.1,2-4,4.9c0.1,3,0.1,5.9,0,8.9c0,1.1,0,2.6-1.6,2.5
			c-1.4-0.1-1.1-1.4-1.1-2.3C43.3,132.8,43.3,130.8,43.3,128.9z"/>
		<path class="st0" d="M95.1,129c0-1.3-0.1-2.6,0-4c0.2-2.7-0.3-4.6-3.7-4.2c-1,0.1-2.2-0.1-2.2-1.4c0-0.9,1.1-1.2,1.9-1.2
			c3.5,0,7,0,10.5,0c0.9,0,1.9,0.3,2,1.2c0.1,1.4-1.1,1.5-2.1,1.4c-3.4-0.4-3.8,1.6-3.7,4.2c0.1,3.3,0,6.6,0,9.9
			c0,1-0.2,2.1-1.5,2.1c-1.4,0-1.2-1.3-1.3-2.2C95.1,132.9,95.1,131,95.1,129z"/>
		<path class="st0" d="M569.9,119.5c-8.9,0.4-6,6.5-6.5,11c-0.2,2.2,1,6.2-0.9,6.1c-2.9-0.3-0.8-4-1.4-6.2c-0.2-0.6-0.1-1.3,0-2
			c0.4-4.4,0.8-8.8-6.2-8.6C560,117.9,564.6,118.3,569.9,119.5z"/>
		<path class="st0" d="M404.6,127.1c0.9-2.4-1.8-7.1,1.5-7.6c2.1-0.3,0.7,5,1.1,7.8c0.3,2.1,0.1,4.3,0,6.4c-0.1,1.2,0.6,3.1-1.4,3
			c-1.6,0-1.1-1.8-1.1-2.8C404.6,131.8,404.6,129.6,404.6,127.1z"/>
		<path class="st0" d="M338.9,123.9c1.3-2.6-1-1.6-2-2c0.3-1.5,0.5-3.2,2.5-3.1c2.3,0.1,1.7,2.1,1.7,3.4c-0.1,4.8,0.5,9.6-0.9,14.3
			C338.1,132.5,339.1,128.2,338.9,123.9z"/>
		<path class="st0" d="M399.6,53.6c0,0.1-0.1,0.3-0.2,0.4c0,0.1-0.2,0-0.3,0C399.3,53.9,399.5,53.7,399.6,53.6
			C399.7,53.6,399.6,53.6,399.6,53.6z"/>
		<path class="st0" d="M53.6,80.3c3.7-11,7.2-21.8,10.8-32.6c1.2-3.6,3.6-5.4,7.5-5.2c1.7,0.1,3.3,0,5,0c6.4-0.1,6.2-0.1,6.3,6.5
			c0.1,3.3-0.7,5.1-4.3,4.5c-3.1-0.5-4.3,1.3-5.3,4C69.8,68.4,65.8,79.2,62,90.2c-1.1,3.1-2.5,4.4-6,4.3c-9.8-0.2-9.8,0-13-9
			c-3.3-9.2-6.6-18.3-9.8-27.5c-1-3-2.4-4.8-6-4.5c-6.2,0.6-3.3-4.2-3.8-6.8c-0.6-3.1,0.7-4.2,4.1-4.2c13.7,0,13.7-0.1,17.8,13
			C48,63.7,50.9,72,53.6,80.3z"/>
	</g>
</g>
</svg>
